g Cube
v 0 0.003742218 -0.005256653
v 0.01007843 -0.003742218 -0.003955841
v 0.01007843 0.003742218 -0.003955841
v 0 -0.003742218 -0.005256653
v -0.01007843 -0.003742218 -0.003955841
v -0.01007843 0.003742218 -0.003955841
v 0 0.003742218 -0.005256653
v 0.01007843 -0.003742218 -0.003955841
v 0.01007843 0.003742218 -0.003955841
v 0 -0.003742218 -0.005256653
v -0.01007843 -0.003742218 -0.003955841
v -0.01007843 0.003742218 -0.003955841
v 0 0.003742218 0.005256653
v -0.01007843 0.003742218 -0.003955841
v 0 0.003742218 -0.005256653
v 0.01007843 0.003742218 -0.003955841
v -0.01007843 0.003742218 0.00655365
v -0.02235413 0.00201416 0.004741669
v -0.02235413 -0.00201416 0.004741669
v -0.01007843 -0.003742218 -0.003955841
v -0.02235413 0.00201416 0.01040649
v -0.02235413 -0.00201416 0.01040649
v -0.01007843 -0.003742218 0.00655365
v 0 -0.003742218 -0.005256653
v 0 -0.003742218 0.005256653
v 0.01007843 -0.003742218 0.00655365
v 0.01007843 -0.003742218 -0.003955841
v 0.01007843 0.003742218 0.00655365
v 0.02235413 -0.00201416 0.01040649
v 0.02235413 -0.00201416 0.004741669
v 0.02235413 0.00201416 0.004741669
v 0.02235413 0.00201416 0.01040649
v 0 -0.004653931 -0.03271484
v 0.004653931 0 -0.03271484
v 0.003593445 -0.003593445 -0.03271484
v 0 -0.005172729 -0.03594971
v 0.003993988 -0.003993988 -0.03594971
v 0 0 -0.03271484
v 0.005172729 0 -0.03594971
v 0.003593445 0.003593445 -0.03271484
v 0 -0.005172729 -0.03857422
v 0.003993988 -0.003993988 -0.03857422
v -0.003993988 -0.003993988 -0.03594971
v -0.003593445 -0.003593445 -0.03271484
v -0.003993988 -0.003993988 -0.03857422
v 0 0.004653931 -0.03271484
v 0.003993988 0.003993988 -0.03594971
v -0.004653931 0 -0.03271484
v -0.005172729 0 -0.03594971
v 0.005172729 0 -0.03857422
v -0.005172729 0 -0.03857422
v 0 -0.004020691 -0.04153442
v -0.003105164 -0.003105164 -0.04153442
v 0.003105164 -0.003105164 -0.04153442
v -0.004020691 0 -0.04153442
v -0.003993988 0.003993988 -0.03594971
v -0.003993988 0.003993988 -0.03857422
v -0.003105164 0.003105164 -0.04153442
v -0.003593445 0.003593445 -0.03271484
v 0 0.005172729 -0.03594971
v 0 0.005172729 -0.03857422
v 0.003993988 0.003993988 -0.03857422
v 0 0.004020691 -0.04153442
v 0.003105164 0.003105164 -0.04153442
v 0.004020691 0 -0.04153442
v 0 0.00190258 -0.04315186
v 0.001468658 0.001468658 -0.04315186
v 0 0 -0.04473877
v -0.001468658 0.001468658 -0.04315186
v 0.00190258 0 -0.04315186
v -0.00190258 0 -0.04315186
v 0.001468658 -0.001468658 -0.04315186
v -0.001468658 -0.001468658 -0.04315186
v 0 -0.00190258 -0.04315186
v -0.002283096 -0.002283096 -0.008735657
v -0.002496719 -0.002496719 -0.002944946
v 0 -0.003234863 -0.002944946
v 0 -0.00295639 -0.008735657
v 0.002496719 -0.002496719 -0.002944946
v -0.00295639 0 -0.008735657
v -0.003234863 0 -0.002944946
v 0.002283096 -0.002283096 -0.008735657
v 0.003234863 0 -0.002944946
v -0.002283096 0.002283096 -0.008735657
v -0.002496719 0.002496719 -0.002944946
v 0.00295639 0 -0.008735657
v 0.002496719 0.002496719 -0.002944946
v 0 0.00295639 -0.008735657
v 0 0.003234863 -0.002944946
v 0.002283096 0.002283096 -0.008735657
v -0.002855301 0 -0.008827209
v -0.002204895 -0.002204895 -0.008827209
v 0 -0.002855301 -0.008827209
v -0.002204895 0.002204895 -0.008827209
v 0.002204895 -0.002204895 -0.008827209
v 0.002855301 0 -0.008827209
v 0 0.002855301 -0.008827209
v 0.002204895 0.002204895 -0.008827209
v -0.002754211 0 -0.01178741
v -0.002126694 -0.002126694 -0.01178741
v 0 -0.002754211 -0.01178741
v -0.002126694 0.002126694 -0.01178741
v 0.002126694 -0.002126694 -0.01178741
v 0 0.002754211 -0.01178741
v 0.002754211 0 -0.01178741
v 0.002126694 0.002126694 -0.01178741
v -0.002851486 0 -0.01183319
v -0.002202988 -0.002202988 -0.01183319
v -0.002202988 0.002202988 -0.01183319
v 0 -0.002851486 -0.01183319
v 0 0.002851486 -0.01183319
v 0.002202988 0.002202988 -0.01183319
v 0.002851486 0 -0.01183319
v 0.002202988 -0.002202988 -0.01183319
v -0.002122879 0.002122879 -0.01701355
v -0.002748489 0 -0.01701355
v 0 0.002748489 -0.01701355
v 0.002122879 0.002122879 -0.01701355
v -0.002122879 -0.002122879 -0.01701355
v 0 -0.002748489 -0.01701355
v 0.002122879 -0.002122879 -0.01701355
v 0.002748489 0 -0.01701355
v -0.0020504 0.0020504 -0.01707458
v 0 0.002655029 -0.01707458
v -0.002655029 0 -0.01707458
v -0.0020504 -0.0020504 -0.01707458
v 0.0020504 0.0020504 -0.01707458
v 0.002655029 0 -0.01707458
v 0.0020504 -0.0020504 -0.01707458
v 0 -0.002655029 -0.01707458
v 0 0.002655029 -0.02006531
v -0.0020504 0.0020504 -0.02006531
v 0.0020504 0.0020504 -0.02006531
v 0.002655029 0 -0.02006531
v -0.002655029 0 -0.02006531
v 0.0020504 -0.0020504 -0.02006531
v -0.0020504 -0.0020504 -0.02006531
v 0 -0.002655029 -0.02006531
v 0 0.002748489 -0.02011108
v 0.002122879 0.002122879 -0.02011108
v 0.002748489 0 -0.02011108
v -0.002122879 0.002122879 -0.02011108
v 0.002122879 -0.002122879 -0.02011108
v -0.002748489 0 -0.02011108
v -0.002122879 -0.002122879 -0.02011108
v 0 -0.002748489 -0.02011108
v 0.002851486 0 -0.02529907
v 0.002202988 0.002202988 -0.02529907
v 0 0.002851486 -0.02529907
v -0.002202988 0.002202988 -0.02529907
v 0.002202988 -0.002202988 -0.02529907
v -0.002851486 0 -0.02529907
v -0.002202988 -0.002202988 -0.02529907
v 0 -0.002851486 -0.02529907
v 0.002126694 0.002126694 -0.02539063
v 0.002754211 0 -0.02539063
v 0 0.002754211 -0.02539063
v -0.002126694 0.002126694 -0.02539063
v 0.002126694 -0.002126694 -0.02539063
v 0 -0.002754211 -0.02539063
v -0.002754211 0 -0.02539063
v -0.002126694 -0.002126694 -0.02539063
v 0.002855301 0 -0.02830505
v 0.002204895 0.002204895 -0.02830505
v 0.002204895 -0.002204895 -0.02830505
v 0 0.002855301 -0.02830505
v 0 -0.002855301 -0.02830505
v -0.002204895 -0.002204895 -0.02830505
v -0.002855301 0 -0.02830505
v -0.002204895 0.002204895 -0.02830505
v 0.002283096 -0.002283096 -0.02839661
v 0.00295639 0 -0.02839661
v 0 -0.00295639 -0.02839661
v -0.002283096 -0.002283096 -0.02839661
v 0.002283096 0.002283096 -0.02839661
v 0 0.00295639 -0.02839661
v -0.002283096 0.002283096 -0.02839661
v -0.00295639 0 -0.02839661
v 0.002496719 -0.002496719 -0.03417969
v 0.003234863 0 -0.03417969
v 0 -0.003234863 -0.03417969
v 0.002496719 0.002496719 -0.03417969
v -0.002496719 -0.002496719 -0.03417969
v 0 0.003234863 -0.03417969
v -0.003234863 0 -0.03417969
v -0.002496719 0.002496719 -0.03417969
v 0.008384705 0 0.1290283
v 0 0 0.1411133
v 0 0.001917839 0.1290283
v 0 -0.001917839 0.1290283
v -0.008384705 0 0.1290283
v 0 0.001592636 0.005096436
v -0.006965637 0 0.005096436
v 0.006965637 0 0.005096436
v 0 -0.001592636 0.005096436
v 0.008384705 0 0.1290283
vn 0 0 1
vn 0.1258545 0 0.9921875
vn 0.1258545 0 0.9921875
vn 0 0 1
vn -0.1258545 0 0.9921875
vn -0.1258545 0 0.9921875
vn 0 0 -1
vn 0.1279297 0 -0.9916992
vn 0.1279297 0 -0.9916992
vn 0 0 -1
vn -0.1279297 0 -0.9916992
vn -0.1279297 0 -0.9916992
vn 0 0.7373047 0.6757813
vn -0.2841797 0.7714844 0.5688477
vn 0 0.6762695 0.7363281
vn 0.2841797 0.7714844 0.5688477
vn 0.0836792 0.7446289 0.6621094
vn -0.7436523 0.5639648 -0.3588867
vn -0.7436523 -0.5639648 -0.3588867
vn -0.2841797 -0.7714844 0.5688477
vn -0.5161133 0.5239258 0.6777344
vn -0.5161133 -0.5239258 0.6777344
vn 0.0836792 -0.7446289 0.6621094
vn 0 -0.6762695 0.7363281
vn 0 -0.7373047 0.6757813
vn -0.0836792 -0.7446289 0.6621094
vn 0.2841797 -0.7714844 0.5688477
vn -0.0836792 0.7446289 0.6621094
vn 0.5161133 -0.5239258 0.6777344
vn 0.7436523 -0.5639648 -0.3588867
vn 0.7436523 0.5639648 -0.3588867
vn 0.5161133 0.5239258 0.6777344
vn 0 -0.7075195 0.7070313
vn 0.7075195 0 0.7070313
vn 0.5195313 -0.5195313 0.6782227
vn 0 -0.9970703 0.07855225
vn 0.7045898 -0.7045898 0.08465576
vn 0 0 1
vn 0.9970703 0 0.07855225
vn 0.5195313 0.5195313 0.6782227
vn 0 -0.984375 -0.1773682
vn 0.6948242 -0.6948242 -0.1871338
vn -0.7045898 -0.7045898 0.08465576
vn -0.5195313 -0.5195313 0.6782227
vn -0.6948242 -0.6948242 -0.1871338
vn 0 0.7075195 0.7070313
vn 0.7045898 0.7045898 0.08465576
vn -0.7075195 0 0.7070313
vn -0.9970703 0 0.07855225
vn 0.984375 0 -0.1773682
vn -0.984375 0 -0.1773682
vn 0 -0.8144531 -0.5800781
vn -0.5698242 -0.5698242 -0.5922852
vn 0.5698242 -0.5698242 -0.5922852
vn -0.8144531 0 -0.5800781
vn -0.7045898 0.7045898 0.08465576
vn -0.6948242 0.6948242 -0.1871338
vn -0.5698242 0.5698242 -0.5922852
vn -0.5195313 0.5195313 0.6782227
vn 0 0.9970703 0.07855225
vn 0 0.984375 -0.1773682
vn 0.6948242 0.6948242 -0.1871338
vn 0 0.8144531 -0.5800781
vn 0.5698242 0.5698242 -0.5922852
vn 0.8144531 0 -0.5800781
vn 0 0.6196289 -0.784668
vn 0.4125977 0.4125977 -0.8120117
vn 0 0 -1
vn -0.4125977 0.4125977 -0.8120117
vn 0.6196289 0 -0.784668
vn -0.6196289 0 -0.784668
vn 0.4125977 -0.4125977 -0.8120117
vn -0.4125977 -0.4125977 -0.8120117
vn 0 -0.6196289 -0.784668
vn -0.6445313 -0.6445313 -0.4116211
vn -0.7060547 -0.7060547 -0.05221558
vn 0 -0.9990234 -0.04782104
vn 0 -0.9125977 -0.4089355
vn 0.7060547 -0.7060547 -0.05221558
vn -0.9125977 0 -0.4089355
vn -0.9990234 0 -0.04782104
vn 0.6445313 -0.6445313 -0.4116211
vn 0.9990234 0 -0.04782104
vn -0.6445313 0.6445313 -0.4116211
vn -0.7060547 0.7060547 -0.05221558
vn 0.9125977 0 -0.4089355
vn 0.7060547 0.7060547 -0.05221558
vn 0 0.9125977 -0.4089355
vn 0 0.9990234 -0.04782104
vn 0.6445313 0.6445313 -0.4116211
vn -0.8886719 0 -0.4584961
vn -0.6083984 -0.6083984 -0.5092773
vn 0 -0.8886719 -0.4584961
vn -0.6083984 0.6083984 -0.5092773
vn 0.6083984 -0.6083984 -0.5092773
vn 0.8886719 0 -0.4584961
vn 0 0.8886719 -0.4584961
vn 0.6083984 0.6083984 -0.5092773
vn -0.8222656 0 0.5693359
vn -0.550293 -0.550293 0.6279297
vn 0 -0.8222656 0.5693359
vn -0.550293 0.550293 0.6279297
vn 0.550293 -0.550293 0.6279297
vn 0 0.8222656 0.5693359
vn 0.8222656 0 0.5693359
vn 0.550293 0.550293 0.6279297
vn -0.8740234 0 0.4863281
vn -0.6225586 -0.6225586 0.4736328
vn -0.6225586 0.6225586 0.4736328
vn 0 -0.8740234 0.4863281
vn 0 0.8740234 0.4863281
vn 0.6225586 0.6225586 0.4736328
vn 0.8740234 0 0.4863281
vn 0.6225586 -0.6225586 0.4736328
vn -0.6245117 0.6245117 -0.4694824
vn -0.8789063 0 -0.4772949
vn 0 0.8789063 -0.4772949
vn 0.6245117 0.6245117 -0.4694824
vn -0.6245117 -0.6245117 -0.4694824
vn 0 -0.8789063 -0.4772949
vn 0.6245117 -0.6245117 -0.4694824
vn 0.8789063 0 -0.4772949
vn -0.5625 0.5625 -0.605957
vn 0 0.8359375 -0.5488281
vn -0.8359375 0 -0.5488281
vn -0.5625 -0.5625 -0.605957
vn 0.5625 0.5625 -0.605957
vn 0.8359375 0 -0.5488281
vn 0.5625 -0.5625 -0.605957
vn 0 -0.8359375 -0.5488281
vn 0 0.8359375 0.5488281
vn -0.5625 0.5625 0.605957
vn 0.5625 0.5625 0.605957
vn 0.8359375 0 0.5488281
vn -0.8359375 0 0.5488281
vn 0.5625 -0.5625 0.605957
vn -0.5625 -0.5625 0.605957
vn 0 -0.8359375 0.5488281
vn 0 0.8789063 0.4770508
vn 0.6245117 0.6245117 0.4694824
vn 0.8789063 0 0.4772949
vn -0.6245117 0.6245117 0.4694824
vn 0.6245117 -0.6245117 0.4694824
vn -0.8789063 0 0.4772949
vn -0.6245117 -0.6245117 0.4694824
vn 0 -0.8789063 0.4770508
vn 0.9331055 0 -0.3591309
vn 0.6591797 0.6591797 -0.361084
vn 0 0.9331055 -0.3591309
vn -0.6591797 0.6591797 -0.361084
vn 0.6591797 -0.6591797 -0.361084
vn -0.9331055 0 -0.3591309
vn -0.6591797 -0.6591797 -0.361084
vn 0 -0.9331055 -0.3591309
vn 0.6308594 0.6308594 -0.451416
vn 0.9150391 0 -0.4038086
vn 0 0.9150391 -0.4038086
vn -0.6308594 0.6308594 -0.451416
vn 0.6308594 -0.6308594 -0.451416
vn 0 -0.9150391 -0.4038086
vn -0.9150391 0 -0.4038086
vn -0.6308594 -0.6308594 -0.451416
vn 0.8974609 0 0.440918
vn 0.6162109 0.6162109 0.4899902
vn 0.6162109 -0.6162109 0.4899902
vn 0 0.8974609 0.440918
vn 0 -0.8974609 0.440918
vn -0.6162109 -0.6162109 0.4899902
vn -0.8974609 0 0.440918
vn -0.6162109 0.6162109 0.4899902
vn 0.6484375 -0.6484375 0.3986816
vn 0.9189453 0 0.3947754
vn 0 -0.9189453 0.3947754
vn -0.6484375 -0.6484375 0.3986816
vn 0.6484375 0.6484375 0.3986816
vn 0 0.9189453 0.3947754
vn -0.6484375 0.6484375 0.3986816
vn -0.9189453 0 0.3947754
vn 0.7060547 -0.7060547 0.05221558
vn 0.9990234 0 0.04782104
vn 0 -0.9990234 0.04782104
vn 0.7060547 0.7060547 0.05221558
vn -0.7060547 -0.7060547 0.05221558
vn 0 0.9990234 0.04782104
vn -0.9990234 0 0.04782104
vn -0.7060547 0.7060547 0.05221558
vn 0.8227539 0 0.5683594
vn 0 0 1
vn 0 0.9970703 0.0760498
vn 0 -0.9970703 0.0760498
vn -0.9682617 0 0.2498779
vn 0 1 -0.002593994
vn -1 0 -0.01147461
vn 1 0 -0.01147461
vn 0 -1 -0.002593994
vn 1 0 -0.01147461
g Cube_0
f 3/3/3 2/2/2 1/1/1
f 2/2/2 4/4/4 1/1/1
f 4/4/4 5/5/5 1/1/1
f 5/5/5 6/6/6 1/1/1
f 9/9/9 8/8/8 7/7/7
f 8/8/8 10/10/10 7/7/7
f 10/10/10 11/11/11 7/7/7
f 11/11/11 12/12/12 7/7/7
f 15/15/15 14/14/14 13/13/13
f 16/16/16 15/15/15 13/13/13
f 14/14/14 17/17/17 13/13/13
f 14/14/14 18/18/18 17/17/17
f 19/19/19 18/18/18 14/14/14
f 20/20/20 19/19/19 14/14/14
f 21/21/21 18/18/18 19/19/19
f 18/18/18 21/21/21 17/17/17
f 22/22/22 21/21/21 19/19/19
f 22/22/22 19/19/19 20/20/20
f 21/21/21 22/22/22 17/17/17
f 23/23/23 22/22/22 20/20/20
f 22/22/22 23/23/23 17/17/17
f 17/17/17 23/23/23 13/13/13
f 23/23/23 20/20/20 24/24/24
f 25/25/25 23/23/23 24/24/24
f 23/23/23 25/25/25 13/13/13
f 26/26/26 25/25/25 24/24/24
f 25/25/25 26/26/26 13/13/13
f 27/27/27 26/26/26 24/24/24
f 26/26/26 28/28/28 13/13/13
f 28/28/28 16/16/16 13/13/13
f 29/29/29 26/26/26 27/27/27
f 26/26/26 29/29/29 28/28/28
f 30/30/30 27/27/27 16/16/16
f 30/30/30 29/29/29 27/27/27
f 31/31/31 16/16/16 28/28/28
f 31/31/31 30/30/30 16/16/16
f 29/29/29 32/32/32 28/28/28
f 32/32/32 29/29/29 30/30/30
f 32/32/32 31/31/31 28/28/28
f 31/31/31 32/32/32 30/30/30
f 35/35/35 34/34/34 33/33/33
f 33/33/33 36/36/36 35/35/35
f 35/35/35 37/37/37 34/34/34
f 36/36/36 37/37/37 35/35/35
f 34/34/34 38/38/38 33/33/33
f 37/37/37 39/39/39 34/34/34
f 34/34/34 40/40/40 38/38/38
f 34/34/34 39/39/39 40/40/40
f 36/36/36 41/41/41 37/37/37
f 37/37/37 42/42/42 39/39/39
f 41/41/41 42/42/42 37/37/37
f 43/43/43 36/36/36 33/33/33
f 33/33/33 38/38/38 44/44/44
f 44/44/44 43/43/43 33/33/33
f 45/45/45 41/41/41 36/36/36
f 43/43/43 45/45/45 36/36/36
f 40/40/40 46/46/46 38/38/38
f 39/39/39 47/47/47 40/40/40
f 40/40/40 47/47/47 46/46/46
f 38/38/38 48/48/48 44/44/44
f 38/38/38 46/46/46 48/48/48
f 49/49/49 43/43/43 44/44/44
f 48/48/48 49/49/49 44/44/44
f 42/42/42 50/50/50 39/39/39
f 39/39/39 50/50/50 47/47/47
f 51/51/51 45/45/45 43/43/43
f 49/49/49 51/51/51 43/43/43
f 41/41/41 52/52/52 42/42/42
f 45/45/45 53/53/53 41/41/41
f 53/53/53 52/52/52 41/41/41
f 42/42/42 54/54/54 50/50/50
f 52/52/52 54/54/54 42/42/42
f 51/51/51 55/55/55 45/45/45
f 55/55/55 53/53/53 45/45/45
f 56/56/56 49/49/49 48/48/48
f 57/57/57 51/51/51 49/49/49
f 56/56/56 57/57/57 49/49/49
f 58/58/58 55/55/55 51/51/51
f 57/57/57 58/58/58 51/51/51
f 59/59/59 56/56/56 48/48/48
f 46/46/46 59/59/59 48/48/48
f 46/46/46 60/60/60 59/59/59
f 60/60/60 56/56/56 59/59/59
f 47/47/47 60/60/60 46/46/46
f 61/61/61 57/57/57 56/56/56
f 60/60/60 61/61/61 56/56/56
f 47/47/47 62/62/62 60/60/60
f 62/62/62 61/61/61 60/60/60
f 50/50/50 62/62/62 47/47/47
f 61/61/61 63/63/63 57/57/57
f 63/63/63 58/58/58 57/57/57
f 62/62/62 64/64/64 61/61/61
f 64/64/64 63/63/63 61/61/61
f 50/50/50 65/65/65 62/62/62
f 65/65/65 64/64/64 62/62/62
f 54/54/54 65/65/65 50/50/50
f 63/63/63 66/66/66 58/58/58
f 64/64/64 67/67/67 63/63/63
f 67/67/67 66/66/66 63/63/63
f 67/67/67 68/68/68 66/66/66
f 66/66/66 69/69/69 58/58/58
f 66/66/66 68/68/68 69/69/69
f 58/58/58 69/69/69 55/55/55
f 70/70/70 67/67/67 64/64/64
f 65/65/65 70/70/70 64/64/64
f 70/70/70 68/68/68 67/67/67
f 69/69/69 71/71/71 55/55/55
f 69/69/69 68/68/68 71/71/71
f 55/55/55 71/71/71 53/53/53
f 72/72/72 70/70/70 65/65/65
f 54/54/54 72/72/72 65/65/65
f 72/72/72 68/68/68 70/70/70
f 71/71/71 73/73/73 53/53/53
f 71/71/71 68/68/68 73/73/73
f 53/53/53 73/73/73 52/52/52
f 74/74/74 72/72/72 54/54/54
f 74/74/74 68/68/68 72/72/72
f 52/52/52 74/74/74 54/54/54
f 73/73/73 68/68/68 74/74/74
f 73/73/73 74/74/74 52/52/52
g Cube_1
f 77/77/77 76/76/76 75/75/75
f 78/78/78 77/77/77 75/75/75
f 79/79/79 77/77/77 78/78/78
f 75/75/75 76/76/76 80/80/80
f 76/76/76 81/81/81 80/80/80
f 82/82/82 79/79/79 78/78/78
f 83/83/83 79/79/79 82/82/82
f 80/80/80 81/81/81 84/84/84
f 81/81/81 85/85/85 84/84/84
f 86/86/86 83/83/83 82/82/82
f 87/87/87 83/83/83 86/86/86
f 84/84/84 85/85/85 88/88/88
f 85/85/85 89/89/89 88/88/88
f 89/89/89 87/87/87 90/90/90
f 90/90/90 87/87/87 86/86/86
f 88/88/88 89/89/89 90/90/90
f 80/80/80 91/91/91 75/75/75
f 75/75/75 92/92/92 78/78/78
f 91/91/91 92/92/92 75/75/75
f 78/78/78 93/93/93 82/82/82
f 92/92/92 93/93/93 78/78/78
f 84/84/84 94/94/94 80/80/80
f 94/94/94 91/91/91 80/80/80
f 82/82/82 95/95/95 86/86/86
f 93/93/93 95/95/95 82/82/82
f 86/86/86 96/96/96 90/90/90
f 95/95/95 96/96/96 86/86/86
f 88/88/88 97/97/97 84/84/84
f 97/97/97 94/94/94 84/84/84
f 90/90/90 98/98/98 88/88/88
f 96/96/96 98/98/98 90/90/90
f 98/98/98 97/97/97 88/88/88
f 91/91/91 99/99/99 92/92/92
f 92/92/92 100/100/100 93/93/93
f 99/99/99 100/100/100 92/92/92
f 93/93/93 101/101/101 95/95/95
f 100/100/100 101/101/101 93/93/93
f 94/94/94 102/102/102 91/91/91
f 102/102/102 99/99/99 91/91/91
f 95/95/95 103/103/103 96/96/96
f 101/101/101 103/103/103 95/95/95
f 97/97/97 104/104/104 94/94/94
f 104/104/104 102/102/102 94/94/94
f 96/96/96 105/105/105 98/98/98
f 103/103/103 105/105/105 96/96/96
f 98/98/98 106/106/106 97/97/97
f 106/106/106 104/104/104 97/97/97
f 105/105/105 106/106/106 98/98/98
f 100/100/100 99/99/99 107/107/107
f 101/101/101 100/100/100 108/108/108
f 108/108/108 100/100/100 107/107/107
f 99/99/99 102/102/102 109/109/109
f 107/107/107 99/99/99 109/109/109
f 103/103/103 101/101/101 110/110/110
f 110/110/110 101/101/101 108/108/108
f 102/102/102 104/104/104 111/111/111
f 109/109/109 102/102/102 111/111/111
f 104/104/104 106/106/106 112/112/112
f 111/111/111 104/104/104 112/112/112
f 106/106/106 105/105/105 113/113/113
f 112/112/112 106/106/106 113/113/113
f 105/105/105 103/103/103 114/114/114
f 114/114/114 103/103/103 110/110/110
f 113/113/113 105/105/105 114/114/114
f 109/109/109 115/115/115 107/107/107
f 107/107/107 116/116/116 108/108/108
f 115/115/115 116/116/116 107/107/107
f 111/111/111 117/117/117 109/109/109
f 117/117/117 115/115/115 109/109/109
f 112/112/112 118/118/118 111/111/111
f 118/118/118 117/117/117 111/111/111
f 108/108/108 119/119/119 110/110/110
f 116/116/116 119/119/119 108/108/108
f 110/110/110 120/120/120 114/114/114
f 119/119/119 120/120/120 110/110/110
f 114/114/114 121/121/121 113/113/113
f 120/120/120 121/121/121 114/114/114
f 113/113/113 122/122/122 112/112/112
f 122/122/122 118/118/118 112/112/112
f 121/121/121 122/122/122 113/113/113
f 115/115/115 123/123/123 116/116/116
f 117/117/117 124/124/124 115/115/115
f 124/124/124 123/123/123 115/115/115
f 116/116/116 125/125/125 119/119/119
f 123/123/123 125/125/125 116/116/116
f 119/119/119 126/126/126 120/120/120
f 125/125/125 126/126/126 119/119/119
f 118/118/118 127/127/127 117/117/117
f 127/127/127 124/124/124 117/117/117
f 122/122/122 128/128/128 118/118/118
f 128/128/128 127/127/127 118/118/118
f 121/121/121 129/129/129 122/122/122
f 129/129/129 128/128/128 122/122/122
f 120/120/120 130/130/130 121/121/121
f 126/126/126 130/130/130 120/120/120
f 130/130/130 129/129/129 121/121/121
f 123/123/123 124/124/124 131/131/131
f 125/125/125 123/123/123 132/132/132
f 132/132/132 123/123/123 131/131/131
f 124/124/124 127/127/127 133/133/133
f 131/131/131 124/124/124 133/133/133
f 127/127/127 128/128/128 134/134/134
f 133/133/133 127/127/127 134/134/134
f 126/126/126 125/125/125 135/135/135
f 135/135/135 125/125/125 132/132/132
f 128/128/128 129/129/129 136/136/136
f 134/134/134 128/128/128 136/136/136
f 130/130/130 126/126/126 137/137/137
f 137/137/137 126/126/126 135/135/135
f 129/129/129 130/130/130 138/138/138
f 136/136/136 129/129/129 138/138/138
f 138/138/138 130/130/130 137/137/137
f 132/132/132 131/131/131 139/139/139
f 131/131/131 133/133/133 140/140/140
f 139/139/139 131/131/131 140/140/140
f 133/133/133 134/134/134 141/141/141
f 140/140/140 133/133/133 141/141/141
f 135/135/135 132/132/132 142/142/142
f 142/142/142 132/132/132 139/139/139
f 134/134/134 136/136/136 143/143/143
f 141/141/141 134/134/134 143/143/143
f 137/137/137 135/135/135 144/144/144
f 144/144/144 135/135/135 142/142/142
f 138/138/138 137/137/137 145/145/145
f 145/145/145 137/137/137 144/144/144
f 136/136/136 138/138/138 146/146/146
f 143/143/143 136/136/136 146/146/146
f 146/146/146 138/138/138 145/145/145
f 141/141/141 147/147/147 140/140/140
f 140/140/140 148/148/148 139/139/139
f 147/147/147 148/148/148 140/140/140
f 139/139/139 149/149/149 142/142/142
f 148/148/148 149/149/149 139/139/139
f 142/142/142 150/150/150 144/144/144
f 149/149/149 150/150/150 142/142/142
f 143/143/143 151/151/151 141/141/141
f 151/151/151 147/147/147 141/141/141
f 144/144/144 152/152/152 145/145/145
f 150/150/150 152/152/152 144/144/144
f 145/145/145 153/153/153 146/146/146
f 152/152/152 153/153/153 145/145/145
f 146/146/146 154/154/154 143/143/143
f 154/154/154 151/151/151 143/143/143
f 153/153/153 154/154/154 146/146/146
f 148/148/148 155/155/155 149/149/149
f 147/147/147 156/156/156 148/148/148
f 156/156/156 155/155/155 148/148/148
f 149/149/149 157/157/157 150/150/150
f 155/155/155 157/157/157 149/149/149
f 150/150/150 158/158/158 152/152/152
f 157/157/157 158/158/158 150/150/150
f 151/151/151 159/159/159 147/147/147
f 159/159/159 156/156/156 147/147/147
f 154/154/154 160/160/160 151/151/151
f 160/160/160 159/159/159 151/151/151
f 152/152/152 161/161/161 153/153/153
f 158/158/158 161/161/161 152/152/152
f 153/153/153 162/162/162 154/154/154
f 162/162/162 160/160/160 154/154/154
f 161/161/161 162/162/162 153/153/153
f 155/155/155 156/156/156 163/163/163
f 157/157/157 155/155/155 164/164/164
f 164/164/164 155/155/155 163/163/163
f 156/156/156 159/159/159 165/165/165
f 163/163/163 156/156/156 165/165/165
f 158/158/158 157/157/157 166/166/166
f 166/166/166 157/157/157 164/164/164
f 159/159/159 160/160/160 167/167/167
f 165/165/165 159/159/159 167/167/167
f 160/160/160 162/162/162 168/168/168
f 167/167/167 160/160/160 168/168/168
f 162/162/162 161/161/161 169/169/169
f 168/168/168 162/162/162 169/169/169
f 161/161/161 158/158/158 170/170/170
f 170/170/170 158/158/158 166/166/166
f 169/169/169 161/161/161 170/170/170
f 163/163/163 165/165/165 171/171/171
f 164/164/164 163/163/163 172/172/172
f 172/172/172 163/163/163 171/171/171
f 165/165/165 167/167/167 173/173/173
f 171/171/171 165/165/165 173/173/173
f 167/167/167 168/168/168 174/174/174
f 173/173/173 167/167/167 174/174/174
f 166/166/166 164/164/164 175/175/175
f 175/175/175 164/164/164 172/172/172
f 170/170/170 166/166/166 176/176/176
f 176/176/176 166/166/166 175/175/175
f 169/169/169 170/170/170 177/177/177
f 177/177/177 170/170/170 176/176/176
f 168/168/168 169/169/169 178/178/178
f 174/174/174 168/168/168 178/178/178
f 178/178/178 169/169/169 177/177/177
f 172/172/172 171/171/171 179/179/179
f 180/180/180 172/172/172 179/179/179
f 175/175/175 172/172/172 180/180/180
f 179/179/179 171/171/171 181/181/181
f 171/171/171 173/173/173 181/181/181
f 182/182/182 175/175/175 180/180/180
f 176/176/176 175/175/175 182/182/182
f 181/181/181 173/173/173 183/183/183
f 173/173/173 174/174/174 183/183/183
f 184/184/184 176/176/176 182/182/182
f 177/177/177 176/176/176 184/184/184
f 183/183/183 174/174/174 185/185/185
f 174/174/174 178/178/178 185/185/185
f 186/186/186 177/177/177 184/184/184
f 185/185/185 178/178/178 186/186/186
f 178/178/178 177/177/177 186/186/186
g Cube_2
f 189/189/189 188/188/188 187/187/187
f 187/187/187 188/188/188 190/190/190
f 191/191/191 188/188/188 189/189/189
f 190/190/190 188/188/188 191/191/191
f 191/191/191 189/189/189 192/192/192
f 193/193/193 191/191/191 192/192/192
f 190/190/190 191/191/191 193/193/193
f 192/192/192 189/189/189 194/194/194
f 195/195/195 190/190/190 193/193/193
f 189/189/189 196/196/196 194/194/194
f 196/196/196 190/190/190 195/195/195
f 194/194/194 196/196/196 195/195/195
