g Cube
v -0.2404785 0.9858398 -0.8813477
v 0.2573242 0.9414063 -0.9086914
v 0.07623291 0.940918 -0.329834
v -0.9360352 -0.9155273 -0.2055664
v -0.734375 -0.8789063 -0.7734375
v -0.956543 -0.8540039 -0.8442383
v 0.2927246 -0.9624023 1.338867
v 0.2458496 -1.038086 1.171875
v -0.4853516 -1.009766 1.101563
v -0.8798828 -0.9223633 1.259766
v -0.7944336 -0.4191895 1.285156
v -0.4160156 -0.574707 1.263672
v 0.2927246 -0.9624023 1.338867
v -0.3120117 -0.1807861 1.150391
v -0.7822266 0.3483887 1.112305
v -0.006896973 -0.4294434 1.198242
v -0.1654053 0.2746582 1.094727
v -0.166748 0.8198242 1.0625
v -0.9931641 0.9438477 1.080078
v -0.2739258 0.9584961 1
v 0.3330078 0.9130859 0.9599609
v 0.527832 0.1087036 1.09082
v 0.4213867 -0.5791016 1.243164
v 0.8930664 -0.5117188 1.243164
v 0.9326172 -0.9829102 1.263672
v 0.9477539 -0.2435303 1.067383
v 0.9316406 0.3847656 0.9926758
v 0.9521484 0.8969727 0.909668
v 0.9316406 0.3847656 0.9926758
v 0.9941406 0.4216309 0.7299805
v 0.9521484 0.8969727 0.909668
v -1.169922 0.9331055 -0.6865234
v -1.014648 1.085938 -0.7451172
v -1.012695 1.029297 -0.2163086
v -1.142578 0.7958984 -0.2366943
v -1.084961 0.9692383 0.2270508
v -1.104492 0.2780762 -0.6269531
v -1.099609 0.5004883 0.1512451
v -1.079102 0.6567383 0.4140625
v -1.070313 1.032227 0.5800781
v -0.9931641 0.9438477 1.080078
v -0.925293 0.2388916 1.008789
v -0.7822266 0.3483887 1.112305
v -0.7944336 -0.4191895 1.285156
v -0.9487305 0.1837158 0.6796875
v -0.9521484 -0.3513184 1.039063
v -0.8798828 -0.9223633 1.259766
v -0.9594727 -0.2314453 0.09973145
v -0.9624023 -0.8647461 0.467041
v -0.7856445 -1.024414 0.5678711
v -0.9360352 -0.9155273 -0.2055664
v -0.9897461 -0.550293 -0.2231445
v -1.015625 -0.2370605 -0.8115234
v -0.956543 -0.8540039 -0.8442383
v -0.2739258 0.9584961 1
v -0.9931641 0.9438477 1.080078
v -1.070313 1.032227 0.5800781
v -0.1785889 0.9545898 0.7216797
v 0.3330078 0.9130859 0.9599609
v -0.5400391 1.011719 0.3137207
v -1.084961 0.9692383 0.2270508
v -1.012695 1.029297 -0.2163086
v -0.3120117 0.9638672 0.09161377
v 0.2768555 0.8857422 0.3178711
v 0.07623291 0.940918 -0.329834
v -0.2404785 0.9858398 -0.8813477
v -1.014648 1.085938 -0.7451172
v 0.5898438 0.9331055 0.5327148
v 0.9521484 0.8969727 0.909668
v 0.9116211 0.9052734 0.3234863
v 0.9116211 0.9052734 0.3234863
v 0.9584961 0.9794922 -0.1588135
v 0.4145508 0.9453125 -0.6923828
v 0.2573242 0.9414063 -0.9086914
v 0.8779297 0.9511719 -0.5927734
v 0.8364258 0.9438477 -0.9350586
v 0.2573242 0.9414063 -0.9086914
v 0.9326172 -0.9829102 1.263672
v 0.2458496 -1.038086 1.171875
v 0.2927246 -0.9624023 1.338867
v 0.8867188 -0.9887695 0.5092773
v 0.1478271 -1.007813 0.7260742
v -0.4853516 -1.009766 1.101563
v 0.09991455 -1.008789 -0.02879333
v 0.5776367 -1.067383 0.008644104
v 0.0536499 -1.037109 -0.5258789
v 0.5097656 -0.9570313 -0.6552734
v -0.3093262 -0.996582 -0.2056885
v -0.4489746 -0.972168 -0.6313477
v -0.01187897 -1.088867 0.2001953
v -0.2097168 -1.040039 0.4672852
v -0.5263672 -0.9667969 -0.04974365
v -0.734375 -0.8789063 -0.7734375
v -0.9360352 -0.9155273 -0.2055664
v -0.7856445 -1.024414 0.5678711
v -0.8798828 -0.9223633 1.259766
v 0.9941406 0.4216309 0.7299805
v 0.9521484 0.8969727 0.909668
v 0.9116211 0.9052734 0.3234863
v 0.9077148 0.5351563 0.2298584
v 0.9584961 0.9794922 -0.1588135
v 0.9501953 0.1084595 0.2849121
v 0.9477539 -0.2435303 1.067383
v 0.8920898 0.5161133 -0.5722656
v 0.8779297 0.9511719 -0.5927734
v 0.8364258 0.9438477 -0.9350586
v 0.8100586 0.3398438 -0.9238281
v 0.6801758 -0.0378418 -0.809082
v 0.8461914 0.2683105 -0.3398438
v 0.7841797 -0.4069824 -0.1884766
v 0.5605469 -0.6079102 -0.6977539
v 0.956543 -0.4362793 0.6235352
v 0.9326172 -0.9829102 1.263672
v 0.8867188 -0.9887695 0.5092773
v 0.8178711 -0.9013672 0.04806519
v 0.5097656 -0.9570313 -0.6552734
v 0.5776367 -1.067383 0.008644104
v 0.2573242 0.9414063 -0.9086914
v 0.2558594 0.4909668 -0.9321289
v 0.8364258 0.9438477 -0.9350586
v 0.8100586 0.3398438 -0.9238281
v -0.15625 0.5288086 -0.8779297
v -0.2404785 0.9858398 -0.8813477
v 0.1375732 0.09234619 -0.800293
v 0.6801758 -0.0378418 -0.809082
v -0.4436035 0.2634277 -0.831543
v 0.009025574 -0.3676758 -0.7768555
v 0.5605469 -0.6079102 -0.6977539
v -0.1054077 -0.8339844 -0.7197266
v 0.5097656 -0.9570313 -0.6552734
v 0.0536499 -1.037109 -0.5258789
v -0.4489746 -0.972168 -0.6313477
v -0.734375 -0.8789063 -0.7734375
v -0.581543 -0.4467773 -0.7783203
v -0.956543 -0.8540039 -0.8442383
v -1.015625 -0.2370605 -0.8115234
v -0.90625 0.3017578 -0.878418
v -1.104492 0.2780762 -0.6269531
v -0.9707031 0.7978516 -0.8569336
v -1.014648 1.085938 -0.7451172
v -1.169922 0.9331055 -0.6865234
vt 0.5839844 0.9443359
vt 0.2922363 0.9389648
vt 0.4423828 1
vt 0.008171082 0.1483154
vt 0.1877441 0.06469727
vt 0.04971313 0.04483032
vt 0.5883789 0.07623291
vt 0.515625 0.01047516
vt 0.1333008 0.01366425
vt 0.01290894 0.07128906
vt 0.02536011 0.3139648
vt 0.2120361 0.2435303
vt 0.5883789 0.07623291
vt 0.2305908 0.4716797
vt 0.01849365 0.699707
vt 0.4304199 0.3190918
vt 0.3007813 0.6420898
vt 0.2783203 0.8857422
vt 0.00668335 0.9448242
vt 0.2486572 0.9726563
vt 0.5581055 0.9355469
vt 0.6787109 0.5664063
vt 0.6738281 0.239624
vt 0.8754883 0.2822266
vt 0.9282227 0.05166626
vt 0.9785156 0.4274902
vt 0.8930664 0.6987305
vt 0.949707 0.9238281
vt 0.8930664 0.6987305
vt 0.9960938 0.6435547
vt 0.949707 0.9238281
vt 0.0150528 0.9101563
vt 0.02752686 0.9770508
vt 0.223877 0.9741211
vt 0.2019043 0.8359375
vt 0.4594727 0.9453125
vt 0.07519531 0.6196289
vt 0.4138184 0.71875
vt 0.5385742 0.8208008
vt 0.6201172 0.9643555
vt 0.9331055 0.9291992
vt 0.8662109 0.6279297
vt 0.9873047 0.6933594
vt 0.9838867 0.3234863
vt 0.7080078 0.6054688
vt 0.8481445 0.3508301
vt 0.9448242 0.07788086
vt 0.4099121 0.3632813
vt 0.5839844 0.100647
vt 0.6582031 0.01165771
vt 0.298584 0.0546875
vt 0.2714844 0.2268066
vt 0.02059937 0.4125977
vt 0.01504517 0.05386353
vt 0.2739258 0.02230835
vt 0.00276947 0.02554321
vt 0.0122757 0.2871094
vt 0.326416 0.151001
vt 0.6206055 0.015625
vt 0.164917 0.4155273
vt 0.02937317 0.5058594
vt 0.02764893 0.7749023
vt 0.3330078 0.5395508
vt 0.6401367 0.3540039
vt 0.5463867 0.7148438
vt 0.4047852 0.9892578
vt 0.02752686 0.9770508
vt 0.8149414 0.1848145
vt 0.9907227 0.006877899
vt 0.9873047 0.2205811
vt 0.9990234 0.4470215
vt 0.9946289 0.5366211
vt 0.8061523 0.8916016
vt 0.6865234 0.9980469
vt 0.9892578 0.8178711
vt 0.9853516 0.9658203
vt 0.9223633 0.9985352
vt 0.9799805 0.9414063
vt 0.6762695 0.9379883
vt 0.8808594 1
vt 0.9746094 0.6464844
vt 0.5654297 0.7680664
vt 0.2041016 0.9521484
vt 0.753418 0.3469238
vt 0.9760742 0.340332
vt 0.8164063 0.0395813
vt 0.9570313 0.06439209
vt 0.4970703 0.2329102
vt 0.4729004 0.02786255
vt 0.6113281 0.4775391
vt 0.3486328 0.6611328
vt 0.2561035 0.375
vt 0.1877441 0.06469727
vt 0.01818848 0.4707031
vt 0.06280518 0.7172852
vt 0.01678467 0.9399414
vt 0.09844971 0.6928711
vt 0.005062103 0.9277344
vt 0.2651367 0.9501953
vt 0.3249512 0.7441406
vt 0.5361328 0.9355469
vt 0.3024902 0.5620117
vt 0.01221466 0.4121094
vt 0.7226563 0.7285156
vt 0.7407227 0.9594727
vt 0.9326172 0.9208984
vt 0.9599609 0.6445313
vt 0.9389648 0.4960938
vt 0.6274414 0.6166992
vt 0.6279297 0.338623
vt 0.953125 0.2347412
vt 0.2346191 0.2971191
vt 0.0149765 0.1623535
vt 0.3007813 0.03997803
vt 0.5317383 0.1106567
vt 0.9506836 0.06408691
vt 0.581543 0.008277893
vt 0.2922363 0.9389648
vt 0.2561035 0.7172852
vt 0.001233101 0.8886719
vt 0.02511597 0.6567383
vt 0.5092773 0.7236328
vt 0.5839844 0.9443359
vt 0.236084 0.5249023
vt 0.03353882 0.487793
vt 0.6499023 0.5869141
vt 0.2353516 0.3515625
vt 0.009613037 0.2391357
vt 0.2536621 0.1229858
vt 0.009155273 0.06228638
vt 0.1673584 0.01721191
vt 0.4433594 0.01553345
vt 0.7216797 0.06671143
vt 0.6157227 0.2734375
vt 0.9228516 0.06039429
vt 0.9301758 0.3935547
vt 0.8442383 0.6020508
vt 0.9931641 0.5927734
vt 0.8964844 0.8466797
vt 0.9106445 0.9755859
vt 0.9833984 0.9047852
vn 0.09521484 0.9946289 0.04360962
vn 0.04788208 0.9985352 0.01282501
vn 0.03573608 0.9985352 0.04058838
vn -0.7412109 -0.668457 -0.0607605
vn 0.01128387 -0.7285156 -0.6850586
vn -0.0824585 -0.9921875 -0.09283447
vn -0.02410889 -0.9125977 0.4082031
vn 0.006988525 -0.9970703 0.07409668
vn -0.06286621 -0.9833984 0.170166
vn -0.6616211 -0.4353027 0.6108398
vn -0.2416992 0.1376953 0.9604492
vn 0.006584167 0.1289063 0.9916992
vn 0.01641846 0.1662598 0.9858398
vn 0.0758667 0.1820068 0.9804688
vn -0.08874512 0.08135986 0.9926758
vn 0.02259827 0.2202148 0.9750977
vn 0.05023193 0.1219482 0.9912109
vn 0.09869385 0.1392822 0.9853516
vn -0.5366211 0.5029297 0.6777344
vn 0.07513428 0.9394531 0.3344727
vn 0.09307861 0.1593018 0.9829102
vn 0.04641724 0.2015381 0.9785156
vn -0.02778625 0.2340088 0.9716797
vn 0.2301025 0.1807861 0.9560547
vn 0.8046875 -0.01548004 0.5932617
vn 0.9951172 -0.00167942 0.0980835
vn 0.08648682 0.2017822 0.9755859
vn 0.08428955 0.1566162 0.9838867
vn 0.9702148 0.03439331 0.2401123
vn 1 0.006046295 -0.00579834
vn 0.9956055 0.09387207 -0.01571655
vn -0.9614258 0.159668 -0.223999
vn 0.01070404 0.9941406 0.1068726
vn -0.1462402 0.9873047 0.06280518
vn -0.9970703 0.0506897 0.05786133
vn -0.6259766 0.7788086 0.03649902
vn -0.9853516 -0.112854 -0.1271973
vn -0.9848633 -0.1435547 0.09753418
vn -0.9858398 -0.09265137 0.1391602
vn -0.9921875 -0.02954102 0.1199951
vn -0.5366211 0.5029297 0.6777344
vn -0.9326172 -0.02929688 0.3591309
vn -0.08874512 0.08135986 0.9926758
vn -0.2416992 0.1376953 0.9604492
vn -0.9926758 -0.08813477 0.08087158
vn -0.9858398 0.002407074 0.168457
vn -0.6616211 -0.4353027 0.6108398
vn -0.9946289 -0.0791626 0.06512451
vn -0.9794922 -0.2017822 0.01760864
vn -0.2597656 -0.9658203 -0.008361816
vn -0.7412109 -0.668457 -0.0607605
vn -0.9907227 -0.1086426 0.08233643
vn -0.7910156 -0.1260986 -0.5986328
vn -0.9941406 -0.107666 -0.0005331039
vn 0.07513428 0.9394531 0.3344727
vn -0.5366211 0.5029297 0.6777344
vn 0.01284027 0.9990234 0.04385376
vn 0.1035767 0.9946289 -0.001586914
vn 0.04312134 0.9990234 -0.005500793
vn 0.07794189 0.9970703 0.003707886
vn -0.6259766 0.7788086 0.03649902
vn -0.1462402 0.9873047 0.06280518
vn 0.1132813 0.9936523 0.003480911
vn 0.02076721 0.9990234 0.03604126
vn 0.03573608 0.9985352 0.04058838
vn 0.09521484 0.9946289 0.04360962
vn 0.01070404 0.9941406 0.1068726
vn -0.01042938 0.9995117 -0.02772522
vn 0.05429077 0.9975586 0.04354858
vn 0.0006551743 0.996582 0.08050537
vn 0.0006551743 0.996582 0.08050537
vn -0.04299927 0.996582 0.06958008
vn -0.02301025 0.9995117 -0.02226257
vn 0.04788208 0.9985352 0.01282501
vn -0.001885414 0.9985352 -0.050354
vn -0.00743866 1 -0.01901245
vn 0.04788208 0.9985352 0.01282501
vn 0.07672119 -0.9970703 0.0209198
vn 0.006988525 -0.9970703 0.07409668
vn -0.02410889 -0.9125977 0.4082031
vn 0.6123047 -0.7880859 -0.06222534
vn 0.01771545 -1 -0.01158142
vn -0.06286621 -0.9833984 0.170166
vn -0.01017761 -1 0.01141357
vn 0.1611328 -0.9868164 0.0007395744
vn -0.02030945 -0.965332 -0.2600098
vn 0.4777832 -0.6323242 -0.6098633
vn -0.1192017 -0.9926758 -0.01989746
vn -0.1256104 -0.9536133 -0.2734375
vn 0.08398438 -0.9956055 -0.03796387
vn -0.03952026 -0.9990234 0.01731873
vn -0.1050415 -0.9907227 -0.08868408
vn 0.01128387 -0.7285156 -0.6850586
vn -0.7412109 -0.668457 -0.0607605
vn -0.2597656 -0.9658203 -0.008361816
vn -0.6616211 -0.4353027 0.6108398
vn 1 0.006046295 -0.00579834
vn 0.9956055 0.09387207 -0.01571655
vn 0.9990234 0.03356934 -0.03140259
vn 0.9960938 -0.005954742 -0.08612061
vn 0.9960938 -0.08538818 -0.02992249
vn 0.9887695 -0.05490112 -0.1402588
vn 0.9951172 -0.00167942 0.0980835
vn 0.984375 -0.1391602 -0.1064453
vn 0.9873047 0.02536011 -0.1561279
vn 0.9858398 -0.01255798 -0.1658936
vn 0.9707031 -0.2075195 -0.1229858
vn 0.9477539 -0.2213135 -0.2307129
vn 0.9755859 -0.1564941 -0.1550293
vn 0.9575195 -0.1247559 -0.2602539
vn 0.918457 -0.1968994 -0.3432617
vn 0.9951172 -0.05477905 -0.08428955
vn 0.8046875 -0.01548004 0.5932617
vn 0.6123047 -0.7880859 -0.06222534
vn 0.9189453 -0.296875 -0.2597656
vn 0.4777832 -0.6323242 -0.6098633
vn 0.1611328 -0.9868164 0.0007395744
vn -0.06408691 0.03353882 -0.9975586
vn -0.07232666 -0.1116943 -0.9912109
vn -0.01072693 0.00699234 -1
vn -0.02731323 -0.1348877 -0.9907227
vn -0.08660889 -0.08673096 -0.9926758
vn -0.03622437 0.02003479 -0.9990234
vn -0.02850342 -0.1408691 -0.9897461
vn -0.02113342 -0.1970215 -0.9799805
vn 0.05316162 -0.09381104 -0.9941406
vn 0.03231812 -0.1120605 -0.9931641
vn 0.06536865 -0.1693115 -0.9833984
vn 0.05392456 -0.2932129 -0.9545898
vn 0.4777832 -0.6323242 -0.6098633
vn -0.02030945 -0.965332 -0.2600098
vn -0.1256104 -0.9536133 -0.2734375
vn 0.01128387 -0.7285156 -0.6850586
vn 0.06005859 -0.05938721 -0.996582
vn 0.1650391 0.007896423 -0.9863281
vn -0.7910156 -0.1260986 -0.5986328
vn -0.2121582 -0.04702759 -0.9760742
vn -0.9853516 -0.112854 -0.1271973
vn -0.2749023 0.08526611 -0.9575195
vn -0.2036133 0.3269043 -0.9228516
vn -0.9614258 0.159668 -0.223999
g Cube_0
f 3/3/3 2/2/2 1/1/1
f 6/6/6 5/5/5 4/4/4
f 9/9/9 8/8/8 7/7/7
f 7/7/7 10/10/10 9/9/9
f 12/12/12 11/11/11 10/10/10
f 10/10/10 13/13/13 12/12/12
f 14/14/14 11/11/11 12/12/12
f 15/15/15 11/11/11 14/14/14
f 14/14/14 12/12/12 16/16/16
f 16/16/16 12/12/12 13/13/13
f 15/15/15 14/14/14 17/17/17
f 17/17/17 14/14/14 16/16/16
f 15/15/15 17/17/17 18/18/18
f 19/19/19 15/15/15 18/18/18
f 19/19/19 18/18/18 20/20/20
f 20/20/20 18/18/18 21/21/21
f 21/21/21 18/18/18 17/17/17
f 17/17/17 16/16/16 22/22/22
f 21/21/21 17/17/17 22/22/22
f 16/16/16 13/13/13 23/23/23
f 22/22/22 16/16/16 23/23/23
f 23/23/23 13/13/13 24/24/24
f 22/22/22 23/23/23 24/24/24
f 24/24/24 13/13/13 25/25/25
f 26/26/26 24/24/24 25/25/25
f 27/27/27 21/21/21 22/22/22
f 22/22/22 24/24/24 27/27/27
f 21/21/21 27/27/27 28/28/28
f 29/29/29 24/24/24 26/26/26
f 29/29/29 26/26/26 30/30/30
f 29/29/29 30/30/30 31/31/31
f 34/34/34 33/33/33 32/32/32
f 32/32/32 35/35/35 34/34/34
f 34/34/34 35/35/35 36/36/36
f 32/32/32 37/37/37 35/35/35
f 35/35/35 38/38/38 36/36/36
f 35/35/35 37/37/37 38/38/38
f 39/39/39 36/36/36 38/38/38
f 40/40/40 36/36/36 39/39/39
f 40/40/40 39/39/39 41/41/41
f 39/39/39 42/42/42 41/41/41
f 41/41/41 42/42/42 43/43/43
f 42/42/42 44/44/44 43/43/43
f 39/39/39 38/38/38 45/45/45
f 39/39/39 45/45/45 42/42/42
f 42/42/42 46/46/46 44/44/44
f 45/45/45 46/46/46 42/42/42
f 46/46/46 47/47/47 44/44/44
f 38/38/38 48/48/48 45/45/45
f 37/37/37 48/48/48 38/38/38
f 45/45/45 48/48/48 46/46/46
f 49/49/49 47/47/47 46/46/46
f 48/48/48 49/49/49 46/46/46
f 49/49/49 50/50/50 47/47/47
f 51/51/51 50/50/50 49/49/49
f 48/48/48 51/51/51 49/49/49
f 48/48/48 37/37/37 52/52/52
f 51/51/51 48/48/48 52/52/52
f 53/53/53 52/52/52 37/37/37
f 54/54/54 51/51/51 52/52/52
f 53/53/53 54/54/54 52/52/52
f 57/57/57 56/56/56 55/55/55
f 58/58/58 57/57/57 55/55/55
f 58/58/58 55/55/55 59/59/59
f 60/60/60 57/57/57 58/58/58
f 61/61/61 57/57/57 60/60/60
f 62/62/62 61/61/61 60/60/60
f 63/63/63 60/60/60 58/58/58
f 62/62/62 60/60/60 63/63/63
f 64/64/64 58/58/58 59/59/59
f 63/63/63 58/58/58 64/64/64
f 65/65/65 62/62/62 63/63/63
f 65/65/65 63/63/63 64/64/64
f 62/62/62 65/65/65 66/66/66
f 66/66/66 67/67/67 62/62/62
f 64/64/64 59/59/59 68/68/68
f 59/59/59 69/69/69 68/68/68
f 70/70/70 68/68/68 69/69/69
f 64/64/64 68/68/68 71/71/71
f 72/72/72 64/64/64 71/71/71
f 72/72/72 65/65/65 64/64/64
f 72/72/72 73/73/73 65/65/65
f 74/74/74 65/65/65 73/73/73
f 75/75/75 73/73/73 72/72/72
f 76/76/76 73/73/73 75/75/75
f 77/77/77 73/73/73 76/76/76
f 80/80/80 79/79/79 78/78/78
f 81/81/81 78/78/78 79/79/79
f 79/79/79 82/82/82 81/81/81
f 79/79/79 83/83/83 82/82/82
f 82/82/82 84/84/84 81/81/81
f 81/81/81 84/84/84 85/85/85
f 85/85/85 84/84/84 86/86/86
f 85/85/85 86/86/86 87/87/87
f 86/86/86 84/84/84 88/88/88
f 86/86/86 88/88/88 89/89/89
f 84/84/84 82/82/82 90/90/90
f 84/84/84 90/90/90 88/88/88
f 82/82/82 91/91/91 90/90/90
f 83/83/83 91/91/91 82/82/82
f 90/90/90 91/91/91 88/88/88
f 88/88/88 92/92/92 89/89/89
f 91/91/91 92/92/92 88/88/88
f 89/89/89 92/92/92 93/93/93
f 92/92/92 94/94/94 93/93/93
f 95/95/95 94/94/94 92/92/92
f 92/92/92 91/91/91 95/95/95
f 91/91/91 83/83/83 95/95/95
f 95/95/95 83/83/83 96/96/96
f 99/99/99 98/98/98 97/97/97
f 99/99/99 97/97/97 100/100/100
f 99/99/99 100/100/100 101/101/101
f 100/100/100 97/97/97 102/102/102
f 97/97/97 103/103/103 102/102/102
f 101/101/101 100/100/100 104/104/104
f 101/101/101 104/104/104 105/105/105
f 105/105/105 104/104/104 106/106/106
f 104/104/104 107/107/107 106/106/106
f 107/107/107 104/104/104 108/108/108
f 104/104/104 100/100/100 109/109/109
f 104/104/104 109/109/109 108/108/108
f 100/100/100 102/102/102 109/109/109
f 108/108/108 109/109/109 110/110/110
f 102/102/102 110/110/110 109/109/109
f 108/108/108 110/110/110 111/111/111
f 102/102/102 103/103/103 112/112/112
f 102/102/102 112/112/112 110/110/110
f 103/103/103 113/113/113 112/112/112
f 113/113/113 114/114/114 112/112/112
f 115/115/115 111/111/111 110/110/110
f 112/112/112 115/115/115 110/110/110
f 115/115/115 112/112/112 114/114/114
f 111/111/111 115/115/115 116/116/116
f 115/115/115 114/114/114 117/117/117
f 115/115/115 117/117/117 116/116/116
f 120/120/120 119/119/119 118/118/118
f 120/120/120 121/121/121 119/119/119
f 118/118/118 119/119/119 122/122/122
f 123/123/123 118/118/118 122/122/122
f 119/119/119 121/121/121 124/124/124
f 122/122/122 119/119/119 124/124/124
f 121/121/121 125/125/125 124/124/124
f 124/124/124 126/126/126 122/122/122
f 123/123/123 122/122/122 126/126/126
f 125/125/125 127/127/127 124/124/124
f 127/127/127 126/126/126 124/124/124
f 125/125/125 128/128/128 127/127/127
f 128/128/128 129/129/129 127/127/127
f 128/128/128 130/130/130 129/129/129
f 130/130/130 131/131/131 129/129/129
f 129/129/129 131/131/131 132/132/132
f 133/133/133 129/129/129 132/132/132
f 134/134/134 127/127/127 129/129/129
f 134/134/134 129/129/129 133/133/133
f 126/126/126 127/127/127 134/134/134
f 134/134/134 133/133/133 135/135/135
f 134/134/134 135/135/135 136/136/136
f 137/137/137 126/126/126 134/134/134
f 134/134/134 136/136/136 137/137/137
f 126/126/126 137/137/137 123/123/123
f 137/137/137 136/136/136 138/138/138
f 123/123/123 137/137/137 139/139/139
f 139/139/139 137/137/137 138/138/138
f 140/140/140 123/123/123 139/139/139
f 141/141/141 139/139/139 138/138/138
f 140/140/140 139/139/139 141/141/141
