g Cube.004
v 0.03837025 -0.0007199049 -0.03055602
v 0.03837025 -0.0007199049 0.03053701
v -0.03835124 0.000700891 0.03053701
v -0.03835124 0.000700891 -0.03055602
v -0.02414352 -0.4979888 0.01490855
v -0.02556431 -0.6066776 -0.01492757
v -0.02414352 -0.4979888 -0.01492757
v -0.02556431 -0.6066776 0.01490855
v -0.03479928 -0.650011 -0.02132106
v -0.03479928 -0.650011 0.02130198
v -0.03550971 -0.6862406 -0.02132106
v -0.03550971 -0.6862406 0.02130198
v -0.03835124 0.000700891 -0.03055602
v -0.03977197 -0.4972784 -0.03055602
v 0.03694952 -0.4986992 -0.03055602
v 0.03837025 -0.0007199049 -0.03055602
v -0.03835124 0.000700891 0.03053701
v -0.03977197 -0.4972784 0.03053701
v -0.03977197 -0.4972784 -0.03055602
v -0.03835124 0.000700891 -0.03055602
v 0.03837025 -0.0007199049 0.03053701
v 0.03694952 -0.4986992 0.03053701
v -0.03977197 -0.4972784 0.03053701
v -0.03835124 0.000700891 0.03053701
v 0.03837025 -0.0007199049 -0.03055602
v 0.03694952 -0.4986992 -0.03055602
v 0.03694952 -0.4986992 0.03053701
v 0.03837025 -0.0007199049 0.03053701
v -0.02414352 -0.4979888 -0.01492757
v 0.02061063 -0.607388 -0.01492757
v 0.02203143 -0.4979888 -0.01492757
v -0.02556431 -0.6066776 -0.01492757
v 0.02984565 -0.6514318 -0.02132106
v -0.03479928 -0.650011 -0.02132106
v 0.02913529 -0.686951 -0.02132106
v -0.03550971 -0.6862406 -0.02132106
v 0.02203143 -0.4979888 0.01490855
v -0.02556431 -0.6066776 0.01490855
v -0.02414352 -0.4979888 0.01490855
v 0.02061063 -0.607388 0.01490855
v -0.03479928 -0.650011 0.02130198
v 0.02984565 -0.6514318 0.02130198
v -0.03550971 -0.6862406 0.02130198
v 0.02913529 -0.686951 0.02130198
v 0.02203143 -0.4979888 -0.01492757
v 0.02061063 -0.607388 0.01490855
v 0.02203143 -0.4979888 0.01490855
v 0.02061063 -0.607388 -0.01492757
v 0.02984565 -0.6514318 0.02130198
v 0.02984565 -0.6514318 -0.02132106
v 0.02913529 -0.686951 0.02130198
v 0.02913529 -0.686951 -0.02132106
v 0.02913529 -0.686951 -0.02132106
v -0.03550971 -0.6862406 -0.02132106
v -0.03550971 -0.6862406 0.02130198
v 0.02913529 -0.686951 0.02130198
v -0.03977197 -0.4972784 0.03053701
v -0.02414352 -0.4979888 -0.01492757
v -0.03977197 -0.4972784 -0.03055602
v -0.02414352 -0.4979888 0.01490855
v 0.02203143 -0.4979888 -0.01492757
v 0.03694952 -0.4986992 0.03053701
v 0.03694952 -0.4986992 -0.03055602
v 0.02203143 -0.4979888 0.01490855
vt 0.1848537 0.8082836
vt 0.1848537 0.8082836
vt 0.1848537 0.8082836
vt 0.1848537 0.8082836
vt 0.1848537 0.8082836
vt 0.1848537 0.8082836
vt 0.1848537 0.8082836
vt 0.1848537 0.8082836
vt 0.1848537 0.8082836
vt 0.1848537 0.8082836
vt 0.1848537 0.8082836
vt 0.1848537 0.8082836
vt 0.1848537 0.8082836
vt 0.1848537 0.8082836
vt 0.1848537 0.8082836
vt 0.1848537 0.8082836
vt 0.1848537 0.8082836
vt 0.1848537 0.8082836
vt 0.1848537 0.8082836
vt 0.1848537 0.8082836
vt 0.1848537 0.8082836
vt 0.1848537 0.8082836
vt 0.1848537 0.8082836
vt 0.1848537 0.8082836
vt 0.1848537 0.8082836
vt 0.1848537 0.8082836
vt 0.1848537 0.8082836
vt 0.1848537 0.8082836
vt 0.1848537 0.8082836
vt 0.1848537 0.8082836
vt 0.1848537 0.8082836
vt 0.1848537 0.8082836
vt 0.1848537 0.8082836
vt 0.1848537 0.8082836
vt 0.1848537 0.8082836
vt 0.1848537 0.8082836
vt 0.1848537 0.8082836
vt 0.1848537 0.8082836
vt 0.1848537 0.8082836
vt 0.1848537 0.8082836
vt 0.1848537 0.8082836
vt 0.1848537 0.8082836
vt 0.1848537 0.8082836
vt 0.1848537 0.8082836
vt 0.1848537 0.8082836
vt 0.1848537 0.8082836
vt 0.1848537 0.8082836
vt 0.1848537 0.8082836
vt 0.1848537 0.8082836
vt 0.1848537 0.8082836
vt 0.1848537 0.8082836
vt 0.1848537 0.8082836
vt 0.1848537 0.8082836
vt 0.1848537 0.8082836
vt 0.1848537 0.8082836
vt 0.1848537 0.8082836
vt 0.1848537 0.8082836
vt 0.1848537 0.8082836
vt 0.1848537 0.8082836
vt 0.1848537 0.8082836
vt 0.1848537 0.8082836
vt 0.1848537 0.8082836
vt 0.1848537 0.8082836
vt 0.1848537 0.8082836
vn 0.01587099 0.999874 -0.000345267
vn 0.01587099 0.999874 -0.000345267
vn 0.01587099 0.999874 -0.000345267
vn 0.01587099 0.999874 -0.000345267
vn -0.999874 0.01587105 -0.0003439156
vn -0.9968654 0.07911634 0
vn -0.999874 0.01587105 -0.0003439156
vn -0.9968654 0.07911634 0
vn -0.9938838 0.1104315 0
vn -0.9938838 0.1104315 0
vn -0.999874 0.01587105 -0.0003439156
vn -0.999874 0.01587105 -0.0003439156
vn 0.01587099 0.01587105 -0.9997481
vn 0.01587099 0.01587105 -0.9997481
vn 0.01587099 0.01587105 -0.9997481
vn 0.01587099 0.01587105 -0.9997481
vn -0.999874 0.01587105 -0.0003439156
vn -0.999874 0.01587105 -0.0003439156
vn -0.999874 0.01587105 -0.0003439156
vn -0.999874 0.01587105 -0.0003439156
vn -0.01587105 0.01587105 0.9997481
vn -0.01587105 0.01587105 0.9997481
vn -0.01587105 0.01587105 0.9997481
vn -0.01587105 0.01587105 0.9997481
vn 0.999874 -0.01587099 -0.000346655
vn 0.999874 -0.01587099 -0.000346655
vn 0.999874 -0.01587099 -0.000346655
vn 0.999874 -0.01587099 -0.000346655
vn 0.01587099 0.01587105 -0.9997481
vn 0.01587099 0.04761302 -0.9987398
vn 0.01587099 0.01587105 -0.9997481
vn 0.01587099 0.04761302 -0.9987398
vn 0.01587099 0.07935512 -0.9967201
vn 0.01587099 0.07935512 -0.9967201
vn 0.01587099 0.01587105 -0.9997481
vn 0.01587099 0.01587105 -0.9997481
vn -0.01587105 0.01587105 0.9997481
vn 0.01587099 0.04761302 0.9987398
vn -0.01587105 0.01587105 0.9997481
vn 0.01587099 0.04761302 0.9987398
vn 0.01587099 0.07935512 0.9967201
vn 0.01587099 0.07935512 0.9967201
vn -0.01587105 0.01587105 0.9997481
vn -0.01587105 0.01587105 0.9997481
vn 0.999874 -0.01587099 -0.000346655
vn 0.9968654 0.07911634 0
vn 0.999874 -0.01587099 -0.000346655
vn 0.9968654 0.07911634 0
vn 0.9938838 0.1104315 0
vn 0.9938838 0.1104315 0
vn 0.999874 -0.01587099 -0.000346655
vn 0.999874 -0.01587099 -0.000346655
vn -0.01587105 -0.999874 -0.000345267
vn -0.01587105 -0.999874 -0.000345267
vn -0.01587105 -0.999874 -0.000345267
vn -0.01587105 -0.999874 -0.000345267
vn -0.01587105 -0.999874 -0.000345267
vn -0.01587105 -0.999874 -0.000345267
vn -0.01587105 -0.999874 -0.000345267
vn -0.01587105 -0.999874 -0.000345267
vn -0.01587105 -0.999874 -0.000345267
vn -0.01587105 -0.999874 -0.000345267
vn -0.01587105 -0.999874 -0.000345267
vn -0.01587105 -0.999874 -0.000345267
g Cube.004_0
f 3/3/3 2/2/2 1/1/1
f 4/4/4 3/3/3 1/1/1
f 7/7/7 6/6/6 5/5/5
f 6/6/6 8/8/8 5/5/5
f 6/6/6 9/9/9 8/8/8
f 9/9/9 10/10/10 8/8/8
f 9/9/9 11/11/11 10/10/10
f 11/11/11 12/12/12 10/10/10
f 15/15/15 14/14/14 13/13/13
f 16/16/16 15/15/15 13/13/13
f 19/19/19 18/18/18 17/17/17
f 20/20/20 19/19/19 17/17/17
f 23/23/23 22/22/22 21/21/21
f 24/24/24 23/23/23 21/21/21
f 27/27/27 26/26/26 25/25/25
f 28/28/28 27/27/27 25/25/25
f 31/31/31 30/30/30 29/29/29
f 30/30/30 32/32/32 29/29/29
f 30/30/30 33/33/33 32/32/32
f 33/33/33 34/34/34 32/32/32
f 33/33/33 35/35/35 34/34/34
f 35/35/35 36/36/36 34/34/34
f 39/39/39 38/38/38 37/37/37
f 38/38/38 40/40/40 37/37/37
f 38/38/38 41/41/41 40/40/40
f 41/41/41 42/42/42 40/40/40
f 41/41/41 43/43/43 42/42/42
f 43/43/43 44/44/44 42/42/42
f 47/47/47 46/46/46 45/45/45
f 46/46/46 48/48/48 45/45/45
f 46/46/46 49/49/49 48/48/48
f 49/49/49 50/50/50 48/48/48
f 49/49/49 51/51/51 50/50/50
f 51/51/51 52/52/52 50/50/50
f 55/55/55 54/54/54 53/53/53
f 56/56/56 55/55/55 53/53/53
f 59/59/59 58/58/58 57/57/57
f 58/58/58 60/60/60 57/57/57
f 61/61/61 58/58/58 59/59/59
f 57/57/57 60/60/60 62/62/62
f 63/63/63 61/61/61 59/59/59
f 60/60/60 64/64/64 62/62/62
f 64/64/64 61/61/61 63/63/63
f 62/62/62 64/64/64 63/63/63
