g Cube.007
v -0.03844631 -0.0005535483 -0.03033525
v -0.03844631 -0.0005535483 0.03064632
v -0.03702813 -0.4983335 0.03064632
v -0.03702813 -0.4983335 -0.03033525
v -0.03844631 -0.0005535483 -0.03033525
v 0.03813523 0.0001555085 -0.03033525
v 0.03813523 0.0001555085 0.03064632
v -0.03844631 -0.0005535483 0.03064632
v -0.03844631 -0.0005535483 0.03064632
v 0.03813523 0.0001555085 0.03064632
v 0.0395534 -0.4976244 0.03064632
v -0.03702813 -0.4983335 0.03064632
v -0.02142817 -0.4983335 -0.0154444
v -0.02142817 -0.4983335 0.01504636
v -0.02071911 -0.606824 0.01504636
v -0.02071911 -0.606824 -0.0154444
v -0.02993721 -0.6507875 0.02142817
v -0.02993721 -0.6507875 -0.02111715
v -0.02922815 -0.686951 0.02142817
v -0.02922815 -0.686951 -0.02111715
v -0.02142817 -0.4983335 0.01504636
v 0.02466255 -0.4976244 0.01504636
v 0.02537167 -0.606824 0.01504636
v -0.02071911 -0.606824 0.01504636
v 0.03458983 -0.6500784 0.02142817
v -0.02993721 -0.6507875 0.02142817
v 0.03529888 -0.6862419 0.02142817
v -0.02922815 -0.686951 0.02142817
v -0.02922815 -0.686951 -0.02111715
v -0.02922815 -0.686951 0.02142817
v 0.03529888 -0.6862419 0.02142817
v 0.03529888 -0.6862419 -0.02111715
v 0.03458983 -0.6500784 0.02142817
v 0.03529888 -0.6862419 -0.02111715
v 0.03529888 -0.6862419 0.02142817
v 0.03458983 -0.6500784 -0.02111715
v 0.02537167 -0.606824 0.01504636
v 0.02537167 -0.606824 -0.0154444
v 0.02466255 -0.4976244 0.01504636
v 0.02466255 -0.4976244 -0.0154444
v 0.03458983 -0.6500784 -0.02111715
v -0.02922815 -0.686951 -0.02111715
v 0.03529888 -0.6862419 -0.02111715
v -0.02993721 -0.6507875 -0.02111715
v 0.02537167 -0.606824 -0.0154444
v -0.02071911 -0.606824 -0.0154444
v 0.02466255 -0.4976244 -0.0154444
v -0.02142817 -0.4983335 -0.0154444
v 0.03813523 0.0001555085 0.03064632
v 0.03813523 0.0001555085 -0.03033525
v 0.0395534 -0.4976244 -0.03033525
v 0.0395534 -0.4976244 0.03064632
v 0.03813523 0.0001555085 -0.03033525
v -0.03844631 -0.0005535483 -0.03033525
v -0.03702813 -0.4983335 -0.03033525
v 0.0395534 -0.4976244 -0.03033525
v 0.0395534 -0.4976244 -0.03033525
v -0.02142817 -0.4983335 -0.0154444
v 0.02466255 -0.4976244 -0.0154444
v -0.03702813 -0.4983335 -0.03033525
v 0.0395534 -0.4976244 0.03064632
v -0.02142817 -0.4983335 0.01504636
v 0.02466255 -0.4976244 0.01504636
v -0.03702813 -0.4983335 0.03064632
vt 0.1848537 0.8025901
vt 0.1848537 0.8025901
vt 0.1848537 0.8025901
vt 0.1848537 0.8025901
vt 0.1848537 0.8025901
vt 0.1848537 0.8025901
vt 0.1848537 0.8025901
vt 0.1848537 0.8025901
vt 0.1848537 0.8025901
vt 0.1848537 0.8025901
vt 0.1848537 0.8025901
vt 0.1848537 0.8025901
vt 0.1848537 0.8025901
vt 0.1848537 0.8025901
vt 0.1848537 0.8025901
vt 0.1848537 0.8025901
vt 0.1848537 0.8025901
vt 0.1848537 0.8025901
vt 0.1848537 0.8025901
vt 0.1848537 0.8025901
vt 0.1848537 0.8025901
vt 0.1848537 0.8025901
vt 0.1848537 0.8025901
vt 0.1848537 0.8025901
vt 0.1848537 0.8025901
vt 0.1848537 0.8025901
vt 0.1848537 0.8025901
vt 0.1848537 0.8025901
vt 0.1848537 0.8025901
vt 0.1848537 0.8025901
vt 0.1848537 0.8025901
vt 0.1848537 0.8025901
vt 0.1848537 0.8025901
vt 0.1848537 0.8025901
vt 0.1848537 0.8025901
vt 0.1848537 0.8025901
vt 0.1848537 0.8025901
vt 0.1848537 0.8025901
vt 0.1848537 0.8025901
vt 0.1848537 0.8025901
vt 0.1848537 0.8025901
vt 0.1848537 0.8025901
vt 0.1848537 0.8025901
vt 0.1848537 0.8025901
vt 0.1848537 0.8025901
vt 0.1848537 0.8025901
vt 0.1848537 0.8025901
vt 0.1848537 0.8025901
vt 0.1848537 0.8025901
vt 0.1848537 0.8025901
vt 0.1848537 0.8025901
vt 0.1848537 0.8025901
vt 0.1848537 0.8025901
vt 0.1848537 0.8025901
vt 0.1848537 0.8025901
vt 0.1848537 0.8025901
vt 0.1848537 0.8025901
vt 0.1848537 0.8025901
vt 0.1848537 0.8025901
vt 0.1848537 0.8025901
vt 0.1848537 0.8025901
vt 0.1848537 0.8025901
vt 0.1848537 0.8025901
vt 0.1848537 0.8025901
vn -0.999874 -0.01587099 -0.000346655
vn -0.999874 -0.01587099 -0.000346655
vn -0.999874 -0.01587099 -0.000346655
vn -0.999874 -0.01587099 -0.000346655
vn -0.01587105 0.999874 -0.000345267
vn -0.01587105 0.999874 -0.000345267
vn -0.01587105 0.999874 -0.000345267
vn -0.01587105 0.999874 -0.000345267
vn -0.01587105 0.01587105 0.9997481
vn -0.01587105 0.01587105 0.9997481
vn -0.01587105 0.01587105 0.9997481
vn -0.01587105 0.01587105 0.9997481
vn -0.999874 -0.01587099 -0.000346655
vn -0.999874 -0.01587099 -0.000346655
vn -0.9968654 0.07911634 0
vn -0.9968654 0.07911634 0
vn -0.9938838 0.1104315 0
vn -0.9938838 0.1104315 0
vn -0.999874 -0.01587099 -0.000346655
vn -0.999874 -0.01587099 -0.000346655
vn -0.01587105 0.01587105 0.9997481
vn -0.01587105 0.01587105 0.9997481
vn -0.01587105 0.04761302 0.9987398
vn -0.01587105 0.04761302 0.9987398
vn -0.01587105 0.07935512 0.9967201
vn -0.01587105 0.07935512 0.9967201
vn -0.01587105 0.01587105 0.9997481
vn -0.01587105 0.01587105 0.9997481
vn 0.01587099 -0.999874 -0.000345267
vn 0.01587099 -0.999874 -0.000345267
vn 0.01587099 -0.999874 -0.000345267
vn 0.01587099 -0.999874 -0.000345267
vn 0.9938838 0.1104315 0
vn 0.999874 0.01587105 -0.0003439156
vn 0.999874 0.01587105 -0.0003439156
vn 0.9938838 0.1104315 0
vn 0.9968654 0.07911634 0
vn 0.9968654 0.07911634 0
vn 0.999874 0.01587105 -0.0003439156
vn 0.999874 0.01587105 -0.0003439156
vn -0.01587105 0.07935512 -0.9967201
vn 0.01587099 0.01587105 -0.9997481
vn 0.01587099 0.01587105 -0.9997481
vn -0.01587105 0.07935512 -0.9967201
vn -0.01587105 0.04761302 -0.9987398
vn -0.01587105 0.04761302 -0.9987398
vn 0.01587099 0.01587105 -0.9997481
vn 0.01587099 0.01587105 -0.9997481
vn 0.999874 0.01587105 -0.0003439156
vn 0.999874 0.01587105 -0.0003439156
vn 0.999874 0.01587105 -0.0003439156
vn 0.999874 0.01587105 -0.0003439156
vn 0.01587099 0.01587105 -0.9997481
vn 0.01587099 0.01587105 -0.9997481
vn 0.01587099 0.01587105 -0.9997481
vn 0.01587099 0.01587105 -0.9997481
vn 0.01587099 -0.999874 -0.000345267
vn 0.01587099 -0.999874 -0.000345267
vn 0.01587099 -0.999874 -0.000345267
vn 0.01587099 -0.999874 -0.000345267
vn 0.01587099 -0.999874 -0.000345267
vn 0.01587099 -0.999874 -0.000345267
vn 0.01587099 -0.999874 -0.000345267
vn 0.01587099 -0.999874 -0.000345267
g Cube.007_0
f 3/3/3 2/2/2 1/1/1
f 4/4/4 3/3/3 1/1/1
f 7/7/7 6/6/6 5/5/5
f 8/8/8 7/7/7 5/5/5
f 11/11/11 10/10/10 9/9/9
f 12/12/12 11/11/11 9/9/9
f 15/15/15 14/14/14 13/13/13
f 16/16/16 15/15/15 13/13/13
f 17/17/17 15/15/15 16/16/16
f 18/18/18 17/17/17 16/16/16
f 19/19/19 17/17/17 18/18/18
f 20/20/20 19/19/19 18/18/18
f 23/23/23 22/22/22 21/21/21
f 24/24/24 23/23/23 21/21/21
f 25/25/25 23/23/23 24/24/24
f 26/26/26 25/25/25 24/24/24
f 27/27/27 25/25/25 26/26/26
f 28/28/28 27/27/27 26/26/26
f 31/31/31 30/30/30 29/29/29
f 32/32/32 31/31/31 29/29/29
f 35/35/35 34/34/34 33/33/33
f 34/34/34 36/36/36 33/33/33
f 33/33/33 36/36/36 37/37/37
f 36/36/36 38/38/38 37/37/37
f 37/37/37 38/38/38 39/39/39
f 38/38/38 40/40/40 39/39/39
f 43/43/43 42/42/42 41/41/41
f 42/42/42 44/44/44 41/41/41
f 41/41/41 44/44/44 45/45/45
f 44/44/44 46/46/46 45/45/45
f 45/45/45 46/46/46 47/47/47
f 46/46/46 48/48/48 47/47/47
f 51/51/51 50/50/50 49/49/49
f 52/52/52 51/51/51 49/49/49
f 55/55/55 54/54/54 53/53/53
f 56/56/56 55/55/55 53/53/53
f 59/59/59 58/58/58 57/57/57
f 58/58/58 60/60/60 57/57/57
f 59/59/59 57/57/57 61/61/61
f 58/58/58 62/62/62 60/60/60
f 63/63/63 59/59/59 61/61/61
f 62/62/62 64/64/64 60/60/60
f 63/63/63 61/61/61 64/64/64
f 62/62/62 63/63/63 64/64/64
