g Cylinder007
v 1.233722 -0.4467126 0.5565302
v 1.218138 -0.4428165 0.5565302
v 1.218138 -0.4467126 0.5565302
v 1.233722 -0.4428165 0.5565302
v 1.218138 -0.4389204 0.5565302
v 1.245411 -0.4467126 0.5662704
v 1.233722 -0.4389204 0.5565302
v 1.245411 -0.4428165 0.5662704
v 1.257099 -0.4467126 0.5857508
v 1.245411 -0.4389204 0.5662704
v 1.257099 -0.4428165 0.5857508
v 1.264891 -0.4467126 0.6110754
v 1.257099 -0.4389204 0.5857508
v 1.264891 -0.4428165 0.6110754
v 1.266839 -0.4467126 0.6402961
v 1.264891 -0.4389204 0.6110754
v 1.266839 -0.4428165 0.6402961
v 1.264891 -0.4467126 0.6714648
v 1.266839 -0.4389204 0.6402961
v 1.264891 -0.4428165 0.6695167
v 1.257099 -0.4467126 0.6967894
v 1.264891 -0.4389204 0.6695167
v 1.257099 -0.4428165 0.6967894
v 1.245411 -0.4467126 0.7162699
v 1.257099 -0.4389204 0.6967894
v 1.245411 -0.4428165 0.7162699
v 1.233722 -0.4467126 0.72601
v 1.245411 -0.4389204 0.7143217
v 1.233722 -0.4428165 0.72601
v 1.218138 -0.4467126 0.72601
v 1.233722 -0.4389204 0.72601
v 1.218138 -0.4428165 0.72601
v 1.204502 -0.4467126 0.7162699
v 1.218138 -0.4389204 0.72601
v 1.204502 -0.4428165 0.7162699
v 1.194762 -0.4467126 0.6967894
v 1.204502 -0.4389204 0.7143217
v 1.194762 -0.4428165 0.6967894
v 1.186969 -0.4467126 0.6714648
v 1.194762 -0.4389204 0.6967894
v 1.186969 -0.4428165 0.6695167
v 1.185021 -0.4467126 0.6402961
v 1.186969 -0.4389204 0.6695167
v 1.185021 -0.4428165 0.6402961
v 1.186969 -0.4467126 0.6110754
v 1.185021 -0.4389204 0.6402961
v 1.186969 -0.4428165 0.6110754
v 1.194762 -0.4467126 0.5857508
v 1.186969 -0.4389204 0.6110754
v 1.194762 -0.4428165 0.5857508
v 1.204502 -0.4467126 0.5662704
v 1.194762 -0.4389204 0.5857508
v 1.204502 -0.4428165 0.5662704
v 1.218138 -0.4467126 0.5565302
v 1.204502 -0.4389204 0.5662704
v 1.218138 -0.4428165 0.5565302
v 1.218138 -0.4389204 0.5565302
v 1.229826 -0.4330763 0.5915949
v 1.222034 -0.4194399 0.5915949
v 1.222034 -0.4330763 0.5915949
v 1.229826 -0.4194399 0.5915949
v 1.222034 -0.4194399 0.5915949
v 1.237618 -0.4330763 0.5974391
v 1.229826 -0.4194399 0.5915949
v 1.237618 -0.4194399 0.5974391
v 1.243463 -0.4330763 0.6091274
v 1.237618 -0.4194399 0.5974391
v 1.243463 -0.4194399 0.6091274
v 1.247359 -0.4330763 0.6227636
v 1.243463 -0.4194399 0.6091274
v 1.247359 -0.4194399 0.6227636
v 1.249307 -0.4330763 0.6402961
v 1.247359 -0.4194399 0.6227636
v 1.249307 -0.4194399 0.6402961
v 1.247359 -0.4330763 0.6558805
v 1.249307 -0.4194399 0.6402961
v 1.247359 -0.4194399 0.6558805
v 1.243463 -0.4330763 0.6714648
v 1.247359 -0.4194399 0.6558805
v 1.243463 -0.4194399 0.6714648
v 1.237618 -0.4330763 0.683153
v 1.243463 -0.4194399 0.6714648
v 1.237618 -0.4194399 0.683153
v 1.229826 -0.4330763 0.6889971
v 1.237618 -0.4194399 0.681205
v 1.229826 -0.4194399 0.6889971
v 1.222034 -0.4330763 0.6889971
v 1.229826 -0.4194399 0.6870492
v 1.222034 -0.4194399 0.6889971
v 1.214242 -0.4330763 0.683153
v 1.222034 -0.4194399 0.6870492
v 1.214242 -0.4194399 0.683153
v 1.208398 -0.4330763 0.6714648
v 1.214242 -0.4194399 0.681205
v 1.208398 -0.4194399 0.6714648
v 1.204502 -0.4330763 0.6558805
v 1.208398 -0.4194399 0.6714648
v 1.204502 -0.4194399 0.6558805
v 1.202554 -0.4330763 0.6402961
v 1.204502 -0.4194399 0.6558805
v 1.202554 -0.4194399 0.6402961
v 1.204502 -0.4330763 0.6227636
v 1.202554 -0.4194399 0.6402961
v 1.204502 -0.4194399 0.6227636
v 1.208398 -0.4330763 0.6091274
v 1.204502 -0.4194399 0.6227636
v 1.208398 -0.4194399 0.6091274
v 1.214242 -0.4330763 0.5974391
v 1.208398 -0.4194399 0.6091274
v 1.214242 -0.4194399 0.5974391
v 1.222034 -0.4330763 0.5915949
v 1.214242 -0.4194399 0.5974391
v 1.222034 -0.4194399 0.5915949
v 1.222034 -0.4194399 0.5915949
v 1.257099 -0.4467126 0.6967894
v 1.233722 -0.4467126 0.72601
v 1.245411 -0.4467126 0.7162699
v 1.266839 -0.4467126 0.6402961
v 1.264891 -0.4467126 0.6714648
v 1.257099 -0.4467126 0.5857508
v 1.264891 -0.4467126 0.6110754
v 1.186969 -0.4467126 0.6714648
v 1.204502 -0.4467126 0.7162699
v 1.218138 -0.4467126 0.72601
v 1.194762 -0.4467126 0.6967894
v 1.204502 -0.4467126 0.5662704
v 1.186969 -0.4467126 0.6110754
v 1.185021 -0.4467126 0.6402961
v 1.194762 -0.4467126 0.5857508
v 1.233722 -0.4467126 0.5565302
v 1.218138 -0.4467126 0.5565302
v 1.245411 -0.4467126 0.5662704
v 1.247359 -0.4194399 0.6227636
v 1.237618 -0.4194399 0.5974391
v 1.243463 -0.4194399 0.6091274
v 1.247359 -0.4194399 0.6558805
v 1.249307 -0.4194399 0.6402961
v 1.237618 -0.4194399 0.681205
v 1.243463 -0.4194399 0.6714648
v 1.208398 -0.4194399 0.6091274
v 1.222034 -0.4194399 0.5915949
v 1.229826 -0.4194399 0.5915949
v 1.214242 -0.4194399 0.5974391
v 1.208398 -0.4194399 0.6714648
v 1.202554 -0.4194399 0.6402961
v 1.204502 -0.4194399 0.6227636
v 1.204502 -0.4194399 0.6558805
v 1.222034 -0.4194399 0.6870492
v 1.214242 -0.4194399 0.681205
v 1.229826 -0.4194399 0.6870492
vt 0.9714612 0
vt 1.027778 0.1991194
vt 1.027778 0
vt 0.9714612 0.1991194
vt 1.027778 0.40025
vt 0.9171559 0
vt 0.9714612 0.40025
vt 0.9171559 0.1991194
vt 0.8608393 0
vt 0.9171559 0.40025
vt 0.8608393 0.1991194
vt 0.806534 0
vt 0.8608393 0.40025
vt 0.806534 0.1991194
vt 0.7502174 0
vt 0.806534 0.40025
vt 0.7502174 0.1991194
vt 0.6939008 0
vt 0.7502174 0.40025
vt 0.6939008 0.1991194
vt 0.6395956 0
vt 0.6939008 0.40025
vt 0.6395956 0.1991194
vt 0.583279 0
vt 0.6395956 0.40025
vt 0.583279 0.1991194
vt 0.5269623 0
vt 0.583279 0.40025
vt 0.5269623 0.1991194
vt 0.4726571 0
vt 0.5269623 0.40025
vt 0.4726571 0.1991194
vt 0.4163405 0
vt 0.4726571 0.40025
vt 0.4163405 0.1991194
vt 0.3620352 0
vt 0.4163405 0.40025
vt 0.3620352 0.1991194
vt 0.3057186 0
vt 0.3620352 0.40025
vt 0.3057186 0.1991194
vt 0.249402 0
vt 0.3057186 0.40025
vt 0.249402 0.1991194
vt 0.1950967 0
vt 0.249402 0.40025
vt 0.1950967 0.1991194
vt 0.1387802 0
vt 0.1950967 0.40025
vt 0.1387802 0.1991194
vt 0.08246358 0
vt 0.1387802 0.40025
vt 0.08246358 0.1991194
vt 0.02815829 0
vt 0.08246358 0.40025
vt 0.02815829 0.1991194
vt 0.02815829 0.40025
vt 0.9714612 0.5993694
vt 1.027778 0.8005001
vt 1.027778 0.5993694
vt 0.9714612 0.8005001
vt 1.027778 0.9996194
vt 0.9171559 0.5993694
vt 0.9714612 0.9996194
vt 0.9171559 0.8005001
vt 0.8608393 0.5993694
vt 0.9171559 0.9996194
vt 0.8608393 0.8005001
vt 0.806534 0.5993694
vt 0.8608393 0.9996194
vt 0.806534 0.8005001
vt 0.7502174 0.5993694
vt 0.806534 0.9996194
vt 0.7502174 0.8005001
vt 0.6939008 0.5993694
vt 0.7502174 0.9996194
vt 0.6939008 0.8005001
vt 0.6395956 0.5993694
vt 0.6939008 0.9996194
vt 0.6395956 0.8005001
vt 0.583279 0.5993694
vt 0.6395956 0.9996194
vt 0.583279 0.8005001
vt 0.5269623 0.5993694
vt 0.583279 0.9996194
vt 0.5269623 0.8005001
vt 0.4726571 0.5993694
vt 0.5269623 0.9996194
vt 0.4726571 0.8005001
vt 0.4163405 0.5993694
vt 0.4726571 0.9996194
vt 0.4163405 0.8005001
vt 0.3620352 0.5993694
vt 0.4163405 0.9996194
vt 0.3620352 0.8005001
vt 0.3057186 0.5993694
vt 0.3620352 0.9996194
vt 0.3057186 0.8005001
vt 0.249402 0.5993694
vt 0.3057186 0.9996194
vt 0.249402 0.8005001
vt 0.1950967 0.5993694
vt 0.249402 0.9996194
vt 0.1950967 0.8005001
vt 0.1387802 0.5993694
vt 0.1950967 0.9996194
vt 0.1387802 0.8005001
vt 0.08246358 0.5993694
vt 0.1387802 0.9996194
vt 0.08246358 0.8005001
vt 0.02815829 0.5993694
vt 0.08246358 0.9996194
vt 0.02815829 0.8005001
vt 0.02815829 0.9996194
vt 0.8206131 0.8829637
vt 0.9915742 0.5873016
vt 0.9332463 0.7502174
vt 0.5008154 0.9996194
vt 0.6717765 0.9694498
vt 0.1790063 0.8829637
vt 0.3298543 0.9694498
vt 0.6717765 0.0301696
vt 0.9332463 0.249402
vt 0.9915742 0.4123179
vt 0.8206131 0.1166558
vt 0.06637312 0.249402
vt 0.3298543 0.0301696
vt 0.5008154 0
vt 0.1790063 0.1166558
vt 0.008045227 0.5873016
vt 0.008045227 0.4123179
vt 0.06637312 0.7502174
vt 0.3298543 0.9694498
vt 0.06637312 0.7502174
vt 0.1790063 0.8829637
vt 0.6717765 0.9694498
vt 0.5008154 0.9996194
vt 0.9332463 0.7502174
vt 0.8206131 0.8829637
vt 0.1790063 0.1166558
vt 0.008045227 0.4123179
vt 0.008045227 0.5873016
vt 0.06637312 0.249402
vt 0.8206131 0.1166558
vt 0.5008154 0
vt 0.3298543 0.0301696
vt 0.6717765 0.0301696
vt 0.9915742 0.4123179
vt 0.9332463 0.249402
vt 0.9915742 0.5873016
vn 0.3332914 -0.07935506 -0.9394784
vn -0.3332913 -0.07935506 -0.9394784
vn -0.3332913 -0.07935506 -0.9394784
vn 0.3332914 -0.07935506 -0.9394784
vn -0.2698073 0.5554856 -0.7865366
vn 0.7459377 -0.04761302 -0.6643116
vn 0.2698073 0.5554856 -0.7865366
vn 0.7459377 -0.04761302 -0.6643116
vn 0.9363899 -0.01587099 -0.3506023
vn 0.6189696 0.5872276 -0.5215749
vn 0.9363899 -0.01587099 -0.3506023
vn 0.999874 -0.01587099 -0.000346655
vn 0.7459377 0.5872276 -0.3142303
vn 0.999874 -0.01587099 -0.000346655
vn 0.999874 0.01587105 -0.0003439156
vn 0.8094218 0.5872276 -0.000422864
vn 0.999874 0.01587105 -0.0003439156
vn 0.968132 0.01587105 0.2499373
vn 0.8094218 0.5872276 -0.000422864
vn 0.999874 0.01587105 -0.0003439156
vn 0.9363899 0.01587105 0.3506023
vn 0.8094218 0.5872276 -0.000422864
vn 0.9363899 0.01587105 0.3506023
vn 0.7459377 0.04761302 0.6643116
vn 0.7459377 0.6189697 0.2458729
vn 0.7459377 0.04761302 0.6643116
vn 0.3015493 0.07935512 0.9501425
vn 0.5872276 0.6189697 0.5215749
vn 0.3332914 0.07935512 0.9394784
vn -0.3015493 0.07935512 0.9501425
vn 0.2380652 0.6189697 0.7484661
vn -0.3332913 0.07935512 0.9394784
vn -0.7459378 0.04761302 0.6643115
vn -0.2380652 0.6189697 0.7484661
vn -0.7459378 0.04761302 0.6643115
vn -0.9363899 0.01587105 0.3506023
vn -0.5872276 0.6189697 0.5215749
vn -0.9363899 0.01587105 0.3506023
vn -0.968132 0.01587105 0.249937
vn -0.7459378 0.6189697 0.2458725
vn -0.999874 0.01587105 -0.0003439156
vn -0.999874 0.01587105 -0.0003439156
vn -0.8094218 0.5872276 -0.000422864
vn -0.999874 0.01587105 -0.0003439156
vn -0.999874 -0.01587099 -0.000346655
vn -0.8094218 0.5872276 -0.000422864
vn -0.999874 -0.01587099 -0.000346655
vn -0.9363899 -0.01587099 -0.3506023
vn -0.8094218 0.5872276 -0.000422864
vn -0.9363899 -0.01587099 -0.3506023
vn -0.7459378 -0.04761302 -0.6643115
vn -0.7459378 0.5872276 -0.3142301
vn -0.7459378 -0.04761302 -0.6643115
vn -0.3332913 -0.07935506 -0.9394784
vn -0.6189697 0.5872276 -0.5215749
vn -0.3332913 -0.07935506 -0.9394784
vn -0.2698073 0.5554856 -0.7865366
vn 0.2380652 0.7141957 -0.6582168
vn -0.3332913 -0.04761302 -0.9416209
vn -0.2380652 0.7141957 -0.6582168
vn 0.3332914 -0.04761302 -0.9416209
vn -0.3015493 -0.07935506 -0.9501425
vn 0.5872276 0.6507117 -0.4813918
vn 0.3015493 -0.07935506 -0.9501425
vn 0.7459377 -0.01587099 -0.6658266
vn 0.7141957 0.6189697 -0.3268043
vn 0.7459377 -0.04761302 -0.6643116
vn 0.9363899 -0.01587099 -0.3506023
vn 0.7776798 0.6189697 -0.1099576
vn 0.9363899 -0.01587099 -0.3506023
vn 0.999874 -0.01587099 -0.000346655
vn 0.7943578 0.6074502 0
vn 0.968132 -0.01587099 -0.2499373
vn 0.999874 0.01587105 -0.0003439156
vn 0.7776798 0.6189697 0.1099576
vn 0.999874 -0.01587099 -0.000346655
vn 0.999874 0.01587105 -0.0003439156
vn 0.7141957 0.6189697 0.3268043
vn 0.999874 0.01587105 -0.0003439156
vn 0.9363899 0.01587105 0.3506023
vn 0.5554855 0.6824538 0.4750713
vn 0.9363899 0.01587105 0.3506023
vn 0.7459377 0.01587105 0.6658266
vn 0.2380652 0.7141957 0.6582168
vn 0.7459377 0.04761302 0.6643116
vn 0.3332914 0.04761302 0.9416209
vn -0.2380652 0.7141957 0.6582168
vn 0.3332914 0.07935512 0.9394784
vn -0.3332913 0.04761302 0.9416209
vn -0.5554856 0.6824538 0.4750712
vn -0.3332913 0.07935512 0.9394784
vn -0.7459378 0.01587105 0.6658264
vn -0.7141957 0.6189697 0.3268043
vn -0.7459378 0.04761302 0.6643115
vn -0.9363899 0.01587105 0.3506023
vn -0.7776798 0.6189697 0.1099576
vn -0.9363899 0.01587105 0.3506023
vn -0.999874 0.01587105 -0.0003439156
vn -0.7943578 0.6074502 0
vn -0.999874 0.01587105 -0.0003439156
vn -0.999874 0.01587105 -0.0003439156
vn -0.7776798 0.6189697 -0.1099576
vn -0.999874 -0.01587099 -0.000346655
vn -0.999874 -0.01587099 -0.000346655
vn -0.7141957 0.6189697 -0.3268043
vn -0.968132 -0.01587099 -0.249937
vn -0.9363899 -0.01587099 -0.3506023
vn -0.5872276 0.6507117 -0.4813918
vn -0.9363899 -0.01587099 -0.3506023
vn -0.7459378 -0.01587099 -0.6658264
vn -0.2380652 0.7141957 -0.6582168
vn -0.7459378 -0.04761302 -0.6643115
vn -0.3332913 -0.04761302 -0.9416209
vn -0.3015493 -0.07935506 -0.9501425
vn -0.01587105 -0.999874 -0.000345267
vn -0.01587105 -0.999874 -0.000345267
vn 0.01587099 -0.999874 -0.000345267
vn -0.01587105 -0.999874 -0.000345267
vn 0.01587099 -0.999874 -0.000345267
vn -0.01587105 -0.999874 -0.000345267
vn -0.01587105 -0.999874 -0.000345267
vn -0.01587105 -0.999874 -0.000345267
vn -0.01587105 -0.999874 -0.000345267
vn -0.01587105 -0.999874 -0.000345267
vn 0.01587099 -0.999874 -0.000345267
vn -0.01587105 -0.999874 -0.000345267
vn 0.01587099 -0.999874 -0.000345267
vn -0.01587105 -0.999874 -0.000345267
vn 0.01587099 -0.999874 -0.000345267
vn -0.01587105 -0.999874 -0.000345267
vn -0.01587105 -0.999874 -0.000345267
vn 0.01587099 -0.999874 -0.000345267
vn -0.01587105 0.999874 -0.000345267
vn -0.01587105 0.999874 -0.000345267
vn 0.01587099 0.999874 -0.000345267
vn 0.01587099 0.999874 -0.000345267
vn -0.01587105 0.999874 -0.000345267
vn -0.01587105 0.999874 -0.000345267
vn -0.01587105 0.999874 -0.000345267
vn 0.01587099 0.999874 -0.000345267
vn -0.01587105 0.999874 -0.000345267
vn -0.01587105 0.999874 -0.000345267
vn -0.01587105 0.999874 -0.000345267
vn -0.01587105 0.999874 -0.000345267
vn -0.01587105 0.999874 -0.000345267
vn 0.01587099 0.999874 -0.000345267
vn -0.01587105 0.999874 -0.000345267
vn -0.01587105 0.999874 -0.000345267
vn -0.01587105 0.999874 -0.000345267
vn -0.01587105 0.999874 -0.000345267
g Cylinder007_0
f 3/3/3 2/2/2 1/1/1
f 4/4/4 1/1/1 2/2/2
f 2/2/2 5/5/5 4/4/4
f 1/1/1 4/4/4 6/6/6
f 7/7/7 4/4/4 5/5/5
f 8/8/8 6/6/6 4/4/4
f 4/4/4 7/7/7 8/8/8
f 6/6/6 8/8/8 9/9/9
f 10/10/10 8/8/8 7/7/7
f 11/11/11 9/9/9 8/8/8
f 8/8/8 10/10/10 11/11/11
f 9/9/9 11/11/11 12/12/12
f 13/13/13 11/11/11 10/10/10
f 14/14/14 12/12/12 11/11/11
f 11/11/11 13/13/13 14/14/14
f 12/12/12 14/14/14 15/15/15
f 16/16/16 14/14/14 13/13/13
f 17/17/17 15/15/15 14/14/14
f 14/14/14 16/16/16 17/17/17
f 15/15/15 17/17/17 18/18/18
f 19/19/19 17/17/17 16/16/16
f 20/20/20 18/18/18 17/17/17
f 17/17/17 19/19/19 20/20/20
f 18/18/18 20/20/20 21/21/21
f 22/22/22 20/20/20 19/19/19
f 23/23/23 21/21/21 20/20/20
f 20/20/20 22/22/22 23/23/23
f 21/21/21 23/23/23 24/24/24
f 25/25/25 23/23/23 22/22/22
f 26/26/26 24/24/24 23/23/23
f 23/23/23 25/25/25 26/26/26
f 24/24/24 26/26/26 27/27/27
f 28/28/28 26/26/26 25/25/25
f 29/29/29 27/27/27 26/26/26
f 26/26/26 28/28/28 29/29/29
f 27/27/27 29/29/29 30/30/30
f 31/31/31 29/29/29 28/28/28
f 32/32/32 30/30/30 29/29/29
f 29/29/29 31/31/31 32/32/32
f 30/30/30 32/32/32 33/33/33
f 34/34/34 32/32/32 31/31/31
f 35/35/35 33/33/33 32/32/32
f 32/32/32 34/34/34 35/35/35
f 33/33/33 35/35/35 36/36/36
f 37/37/37 35/35/35 34/34/34
f 38/38/38 36/36/36 35/35/35
f 35/35/35 37/37/37 38/38/38
f 36/36/36 38/38/38 39/39/39
f 40/40/40 38/38/38 37/37/37
f 41/41/41 39/39/39 38/38/38
f 38/38/38 40/40/40 41/41/41
f 39/39/39 41/41/41 42/42/42
f 43/43/43 41/41/41 40/40/40
f 44/44/44 42/42/42 41/41/41
f 41/41/41 43/43/43 44/44/44
f 42/42/42 44/44/44 45/45/45
f 46/46/46 44/44/44 43/43/43
f 47/47/47 45/45/45 44/44/44
f 44/44/44 46/46/46 47/47/47
f 45/45/45 47/47/47 48/48/48
f 49/49/49 47/47/47 46/46/46
f 50/50/50 48/48/48 47/47/47
f 47/47/47 49/49/49 50/50/50
f 48/48/48 50/50/50 51/51/51
f 52/52/52 50/50/50 49/49/49
f 53/53/53 51/51/51 50/50/50
f 50/50/50 52/52/52 53/53/53
f 51/51/51 53/53/53 54/54/54
f 55/55/55 53/53/53 52/52/52
f 56/56/56 54/54/54 53/53/53
f 53/53/53 55/55/55 56/56/56
f 57/57/57 56/56/56 55/55/55
f 60/60/60 59/59/59 58/58/58
f 61/61/61 58/58/58 59/59/59
f 59/59/59 62/62/62 61/61/61
f 58/58/58 61/61/61 63/63/63
f 64/64/64 61/61/61 62/62/62
f 65/65/65 63/63/63 61/61/61
f 61/61/61 64/64/64 65/65/65
f 63/63/63 65/65/65 66/66/66
f 67/67/67 65/65/65 64/64/64
f 68/68/68 66/66/66 65/65/65
f 65/65/65 67/67/67 68/68/68
f 66/66/66 68/68/68 69/69/69
f 70/70/70 68/68/68 67/67/67
f 71/71/71 69/69/69 68/68/68
f 68/68/68 70/70/70 71/71/71
f 69/69/69 71/71/71 72/72/72
f 73/73/73 71/71/71 70/70/70
f 74/74/74 72/72/72 71/71/71
f 71/71/71 73/73/73 74/74/74
f 72/72/72 74/74/74 75/75/75
f 76/76/76 74/74/74 73/73/73
f 77/77/77 75/75/75 74/74/74
f 74/74/74 76/76/76 77/77/77
f 75/75/75 77/77/77 78/78/78
f 79/79/79 77/77/77 76/76/76
f 80/80/80 78/78/78 77/77/77
f 77/77/77 79/79/79 80/80/80
f 78/78/78 80/80/80 81/81/81
f 82/82/82 80/80/80 79/79/79
f 83/83/83 81/81/81 80/80/80
f 80/80/80 82/82/82 83/83/83
f 81/81/81 83/83/83 84/84/84
f 85/85/85 83/83/83 82/82/82
f 86/86/86 84/84/84 83/83/83
f 83/83/83 85/85/85 86/86/86
f 84/84/84 86/86/86 87/87/87
f 88/88/88 86/86/86 85/85/85
f 89/89/89 87/87/87 86/86/86
f 86/86/86 88/88/88 89/89/89
f 87/87/87 89/89/89 90/90/90
f 91/91/91 89/89/89 88/88/88
f 92/92/92 90/90/90 89/89/89
f 89/89/89 91/91/91 92/92/92
f 90/90/90 92/92/92 93/93/93
f 94/94/94 92/92/92 91/91/91
f 95/95/95 93/93/93 92/92/92
f 92/92/92 94/94/94 95/95/95
f 93/93/93 95/95/95 96/96/96
f 97/97/97 95/95/95 94/94/94
f 98/98/98 96/96/96 95/95/95
f 95/95/95 97/97/97 98/98/98
f 96/96/96 98/98/98 99/99/99
f 100/100/100 98/98/98 97/97/97
f 101/101/101 99/99/99 98/98/98
f 98/98/98 100/100/100 101/101/101
f 99/99/99 101/101/101 102/102/102
f 103/103/103 101/101/101 100/100/100
f 104/104/104 102/102/102 101/101/101
f 101/101/101 103/103/103 104/104/104
f 102/102/102 104/104/104 105/105/105
f 106/106/106 104/104/104 103/103/103
f 107/107/107 105/105/105 104/104/104
f 104/104/104 106/106/106 107/107/107
f 105/105/105 107/107/107 108/108/108
f 109/109/109 107/107/107 106/106/106
f 110/110/110 108/108/108 107/107/107
f 107/107/107 109/109/109 110/110/110
f 108/108/108 110/110/110 111/111/111
f 112/112/112 110/110/110 109/109/109
f 113/113/113 111/111/111 110/110/110
f 110/110/110 112/112/112 113/113/113
f 114/114/114 113/113/113 112/112/112
g Cylinder007_1
f 5/5/5 60/60/60 7/7/7
f 58/58/58 7/7/7 60/60/60
f 7/7/7 58/58/58 10/10/10
f 63/63/63 10/10/10 58/58/58
f 10/10/10 63/63/63 13/13/13
f 66/66/66 13/13/13 63/63/63
f 13/13/13 66/66/66 16/16/16
f 69/69/69 16/16/16 66/66/66
f 16/16/16 69/69/69 19/19/19
f 72/72/72 19/19/19 69/69/69
f 19/19/19 72/72/72 22/22/22
f 75/75/75 22/22/22 72/72/72
f 22/22/22 75/75/75 25/25/25
f 78/78/78 25/25/25 75/75/75
f 25/25/25 78/78/78 28/28/28
f 81/81/81 28/28/28 78/78/78
f 28/28/28 81/81/81 31/31/31
f 84/84/84 31/31/31 81/81/81
f 31/31/31 84/84/84 34/34/34
f 87/87/87 34/34/34 84/84/84
f 34/34/34 87/87/87 37/37/37
f 90/90/90 37/37/37 87/87/87
f 37/37/37 90/90/90 40/40/40
f 93/93/93 40/40/40 90/90/90
f 40/40/40 93/93/93 43/43/43
f 96/96/96 43/43/43 93/93/93
f 43/43/43 96/96/96 46/46/46
f 99/99/99 46/46/46 96/96/96
f 46/46/46 99/99/99 49/49/49
f 102/102/102 49/49/49 99/99/99
f 49/49/49 102/102/102 52/52/52
f 105/105/105 52/52/52 102/102/102
f 52/52/52 105/105/105 55/55/55
f 108/108/108 55/55/55 105/105/105
f 55/55/55 108/108/108 57/57/57
f 111/111/111 57/57/57 108/108/108
g Cylinder007_2
f 117/117/117 116/116/116 115/115/115
f 116/116/116 118/118/118 115/115/115
f 115/115/115 118/118/118 119/119/119
f 120/120/120 118/118/118 116/116/116
f 121/121/121 118/118/118 120/120/120
f 122/122/122 120/120/120 116/116/116
f 123/123/123 122/122/122 116/116/116
f 124/124/124 123/123/123 116/116/116
f 125/125/125 122/122/122 123/123/123
f 126/126/126 120/120/120 122/122/122
f 127/127/127 126/126/126 122/122/122
f 128/128/128 127/127/127 122/122/122
f 129/129/129 126/126/126 127/127/127
f 130/130/130 120/120/120 126/126/126
f 131/131/131 130/130/130 126/126/126
f 132/132/132 120/120/120 130/130/130
g Cylinder007_3
f 135/135/135 134/134/134 133/133/133
f 134/134/134 136/136/136 133/133/133
f 133/133/133 136/136/136 137/137/137
f 138/138/138 136/136/136 134/134/134
f 139/139/139 136/136/136 138/138/138
f 140/140/140 138/138/138 134/134/134
f 141/141/141 140/140/140 134/134/134
f 142/142/142 141/141/141 134/134/134
f 143/143/143 140/140/140 141/141/141
f 144/144/144 138/138/138 140/140/140
f 145/145/145 144/144/144 140/140/140
f 146/146/146 145/145/145 140/140/140
f 147/147/147 144/144/144 145/145/145
f 148/148/148 138/138/138 144/144/144
f 149/149/149 148/148/148 144/144/144
f 150/150/150 138/138/138 148/148/148
