g Cylinder.007
v -0.211509 -0.2849369 0.1816183
v -0.211509 -0.3323722 0.05880642
v -0.211509 -0.329773 -0.07310265
v -0.211509 -0.2764895 -0.1933153
v -0.211509 -0.1933153 0.2764888
v -0.211509 -0.181619 -0.2849369
v -0.211509 -0.07310265 0.3297724
v -0.211509 -0.05880708 -0.3323722
v -0.211509 0.05880642 0.3323715
v -0.211509 0.07310197 -0.329773
v -0.211509 0.1816183 0.2849362
v -0.211509 0.1933147 -0.2764895
v -0.211509 0.2764888 0.1933147
v -0.211509 0.2849362 -0.181619
v -0.211509 0.3297724 0.07310197
v -0.211509 0.3323715 -0.05880708
v -0.211509 0.1933147 -0.2764895
v 0.02761677 0.1933147 -0.2764895
v 0.02761677 0.2849362 -0.181619
v -0.211509 0.2849362 -0.181619
v 0.02761677 0.3323715 -0.05880708
v -0.211509 0.3323715 -0.05880708
v 0.02761677 0.3297724 0.07310197
v -0.211509 0.3297724 0.07310197
v 0.02761677 0.2764888 0.1933147
v -0.211509 0.2764888 0.1933147
v 0.02761677 0.1517276 -0.2160583
v 0.02761677 0.05685702 -0.2576454
v 0.03866333 0.05685702 -0.2576454
v 0.03866333 0.1517276 -0.2160583
v 0.02761677 0.2225556 -0.1419813
v 0.03866333 0.2225556 -0.1419813
v 0.02761677 0.2602439 -0.04581112
v 0.03866333 0.2602439 -0.04581112
v 0.02761677 0.2576447 0.05685702
v 0.03866333 0.2576447 0.05685702
v 0.02761677 0.05685702 -0.2576454
v 0.03866333 -0.04581112 -0.2602446
v 0.03866333 0.05685702 -0.2576454
v 0.02761677 -0.04581112 -0.2602446
v 0.03866333 -0.1419813 -0.2225563
v 0.02761677 -0.1419813 -0.2225563
v 0.03866333 -0.2160583 -0.1517282
v 0.02761677 -0.2160583 -0.1517282
v 0.03866333 -0.2576454 -0.05685768
v 0.02761677 -0.2576454 -0.05685768
v -0.211509 0.07310197 -0.329773
v 0.02761677 0.1933147 -0.2764895
v -0.211509 0.1933147 -0.2764895
v 0.02761677 0.07310197 -0.329773
v -0.211509 -0.05880708 -0.3323722
v 0.02761677 -0.05880708 -0.3323722
v -0.211509 -0.181619 -0.2849369
v 0.02761677 -0.181619 -0.2849369
v -0.211509 -0.2764895 -0.1933153
v -0.211509 -0.2764895 -0.1933153
v 0.02761677 -0.2764895 -0.1933153
v 0.02761677 -0.181619 -0.2849369
v -0.211509 -0.329773 -0.07310265
v 0.02761677 -0.329773 -0.07310265
v -0.211509 -0.3323722 0.05880642
v 0.02761677 -0.3323722 0.05880642
v 0.02761677 -0.2576454 -0.05685768
v 0.03866333 -0.2602446 0.04581046
v 0.03866333 -0.2576454 -0.05685768
v 0.02761677 -0.2602446 0.04581046
v 0.03866333 -0.2225563 0.1419806
v 0.02761677 -0.2225563 0.1419806
v 0.03866333 -0.1517282 0.2160576
v 0.02761677 -0.1517282 0.2160576
v 0.03866333 -0.05685768 0.2576447
v 0.02761677 -0.05685768 0.2576447
v -0.211509 -0.2849369 0.1816183
v 0.02761677 -0.3323722 0.05880642
v -0.211509 -0.3323722 0.05880642
v 0.02761677 -0.2849369 0.1816183
v -0.211509 -0.1933153 0.2764888
v 0.02761677 -0.1933153 0.2764888
v -0.211509 -0.07310265 0.3297724
v 0.02761677 -0.07310265 0.3297724
v -0.211509 0.05880642 0.3323715
v 0.02761677 0.05880642 0.3323715
v 0.02761677 -0.05685768 0.2576447
v 0.03866333 0.04581046 0.2602439
v 0.03866333 -0.05685768 0.2576447
v 0.02761677 0.04581046 0.2602439
v 0.03866333 0.1419806 0.2225556
v 0.02761677 0.1419806 0.2225556
v 0.03866333 0.2160576 0.1517276
v 0.02761677 0.2160576 0.1517276
v 0.03866333 0.2576447 0.05685702
v 0.02761677 0.2576447 0.05685702
v -0.211509 0.1816183 0.2849362
v 0.02761677 0.05880642 0.3323715
v -0.211509 0.05880642 0.3323715
v 0.02761677 0.1816183 0.2849362
v -0.211509 0.2764888 0.1933147
v 0.02761677 0.2764888 0.1933147
v 0.02761677 0.3297724 0.07310197
v 0.02761677 0.2602439 -0.04581112
v 0.02761677 0.2576447 0.05685702
v 0.02761677 0.3323715 -0.05880708
v 0.02761677 0.2764888 0.1933147
v 0.02761677 0.2225556 -0.1419813
v 0.02761677 0.2160576 0.1517276
v 0.02761677 0.2849362 -0.181619
v 0.02761677 0.1816183 0.2849362
v 0.02761677 0.1517276 -0.2160583
v 0.02761677 0.1419806 0.2225556
v 0.02761677 0.1933147 -0.2764895
v 0.02761677 0.05880642 0.3323715
v 0.02761677 0.05685702 -0.2576454
v 0.02761677 0.04581046 0.2602439
v 0.02761677 0.07310197 -0.329773
v 0.02761677 -0.07310265 0.3297724
v 0.02761677 -0.04581112 -0.2602446
v 0.02761677 -0.05685768 0.2576447
v 0.02761677 -0.05880708 -0.3323722
v 0.02761677 -0.1933153 0.2764888
v 0.02761677 -0.1419813 -0.2225563
v 0.02761677 -0.1517282 0.2160576
v 0.02761677 -0.181619 -0.2849369
v 0.02761677 -0.2849369 0.1816183
v 0.02761677 -0.2160583 -0.1517282
v 0.02761677 -0.2225563 0.1419806
v 0.02761677 -0.2764895 -0.1933153
v 0.02761677 -0.3323722 0.05880642
v 0.02761677 -0.2576454 -0.05685768
v 0.02761677 -0.2602446 0.04581046
v 0.02761677 -0.329773 -0.07310265
v 0.03866333 0.1419806 0.2225556
v 0.03866333 0.2160576 0.1517276
v 0.03866333 0.1530272 0.1068915
v 0.03866333 0.1003935 0.156926
v 0.03866333 0.04581046 0.2602439
v 0.03866333 0.1822681 0.04061207
v 0.03866333 0.2576447 0.05685702
v 0.03866333 0.03216469 0.1835677
v 0.03866333 -0.05685768 0.2576447
v 0.03866333 0.1835677 -0.03216535
v 0.03866333 0.2602439 -0.04581112
v 0.03866333 -0.04061273 0.1822681
v 0.03866333 -0.1517282 0.2160576
v 0.03866333 0.156926 -0.1003942
v 0.03866333 0.2225556 -0.1419813
v 0.03866333 -0.1068922 0.1530272
v 0.03866333 -0.2225563 0.1419806
v 0.03866333 0.1068915 -0.1530278
v 0.03866333 0.1517276 -0.2160583
v 0.03866333 -0.1569266 0.1003935
v 0.03866333 -0.2602446 0.04581046
v 0.03866333 0.04061207 -0.1822688
v 0.03866333 0.05685702 -0.2576454
v 0.03866333 -0.1835684 0.03216469
v 0.03866333 -0.2576454 -0.05685768
v 0.03866333 -0.03216535 -0.1835684
v 0.03866333 -0.04581112 -0.2602446
v 0.03866333 -0.1822688 -0.04061273
v 0.03866333 -0.2160583 -0.1517282
v 0.03866333 -0.1003942 -0.1569266
v 0.03866333 -0.1419813 -0.2225563
v 0.03866333 -0.1530278 -0.1068922
v 0.07960063 0.03216469 -0.1439307
v 0.07960063 -0.02566737 -0.1452303
v 0.07960063 -0.07960063 -0.1244367
v 0.07960063 -0.1211877 -0.08479902
v 0.07960063 -0.1439307 -0.03216535
v 0.07960063 -0.1452303 0.02566671
v 0.07960063 -0.1244367 0.07959998
v 0.07960063 -0.08479902 0.1211871
v 0.07960063 -0.03216535 0.14393
v 0.07960063 0.02566671 0.1452296
v 0.07960063 0.07959998 0.1244361
v 0.07960063 0.08479837 -0.1211877
v 0.07960063 0.1211871 0.08479837
v 0.07960063 0.1244361 -0.07960063
v 0.07960063 0.14393 0.03216469
v 0.07960063 0.1452296 -0.02566737
vt 0.07782074 0.7785892
vt 0.07782074 0.7785892
vt 0.07782074 0.7785892
vt 0.07782074 0.7785892
vt 0.07782074 0.7785892
vt 0.07782074 0.7785892
vt 0.07782074 0.7785892
vt 0.07782074 0.7785892
vt 0.07782074 0.7785892
vt 0.07782074 0.7785892
vt 0.07782074 0.7785892
vt 0.07782074 0.7785892
vt 0.07782074 0.7785892
vt 0.07782074 0.7785892
vt 0.07782074 0.7785892
vt 0.07782074 0.7785892
vt 0.07782074 0.7785892
vt 0.07782074 0.7785892
vt 0.07782074 0.7785892
vt 0.07782074 0.7785892
vt 0.07782074 0.7785892
vt 0.07782074 0.7785892
vt 0.07782074 0.7785892
vt 0.07782074 0.7785892
vt 0.07782074 0.7785892
vt 0.07782074 0.7785892
vt 0.09169734 0.8028733
vt 0.09169734 0.8028733
vt 0.09169734 0.8028733
vt 0.09169734 0.8028733
vt 0.09169734 0.8028733
vt 0.09169734 0.8028733
vt 0.09169734 0.8028733
vt 0.09169734 0.8028733
vt 0.09169734 0.8028733
vt 0.09169734 0.8028733
vt 0.09169734 0.8028733
vt 0.09169734 0.8028733
vt 0.09169734 0.8028733
vt 0.09169734 0.8028733
vt 0.09169734 0.8028733
vt 0.09169734 0.8028733
vt 0.09169734 0.8028733
vt 0.09169734 0.8028733
vt 0.09169734 0.8028733
vt 0.09169734 0.8028733
vt 0.07782074 0.7785892
vt 0.07782074 0.7785892
vt 0.07782074 0.7785892
vt 0.07782074 0.7785892
vt 0.07782074 0.7785892
vt 0.07782074 0.7785892
vt 0.07782074 0.7785892
vt 0.07782074 0.7785892
vt 0.07782074 0.7785892
vt 0.07782074 0.7785892
vt 0.07782074 0.7785892
vt 0.07782074 0.7785892
vt 0.07782074 0.7785892
vt 0.07782074 0.7785892
vt 0.07782074 0.7785892
vt 0.07782074 0.7785892
vt 0.09169734 0.8028733
vt 0.09169734 0.8028733
vt 0.09169734 0.8028733
vt 0.09169734 0.8028733
vt 0.09169734 0.8028733
vt 0.09169734 0.8028733
vt 0.09169734 0.8028733
vt 0.09169734 0.8028733
vt 0.09169734 0.8028733
vt 0.09169734 0.8028733
vt 0.07782074 0.7785892
vt 0.07782074 0.7785892
vt 0.07782074 0.7785892
vt 0.07782074 0.7785892
vt 0.07782074 0.7785892
vt 0.07782074 0.7785892
vt 0.07782074 0.7785892
vt 0.07782074 0.7785892
vt 0.07782074 0.7785892
vt 0.07782074 0.7785892
vt 0.09169734 0.8028733
vt 0.09169734 0.8028733
vt 0.09169734 0.8028733
vt 0.09169734 0.8028733
vt 0.09169734 0.8028733
vt 0.09169734 0.8028733
vt 0.09169734 0.8028733
vt 0.09169734 0.8028733
vt 0.09169734 0.8028733
vt 0.09169734 0.8028733
vt 0.07782074 0.7785892
vt 0.07782074 0.7785892
vt 0.07782074 0.7785892
vt 0.07782074 0.7785892
vt 0.07782074 0.7785892
vt 0.07782074 0.7785892
vt 0.07782074 0.7785892
vt 0.07782074 0.7785892
vt 0.07782074 0.7785892
vt 0.07782074 0.7785892
vt 0.07782074 0.7785892
vt 0.07782074 0.7785892
vt 0.07782074 0.7785892
vt 0.07782074 0.7785892
vt 0.07782074 0.7785892
vt 0.07782074 0.7785892
vt 0.07782074 0.7785892
vt 0.07782074 0.7785892
vt 0.07782074 0.7785892
vt 0.07782074 0.7785892
vt 0.07782074 0.7785892
vt 0.07782074 0.7785892
vt 0.07782074 0.7785892
vt 0.07782074 0.7785892
vt 0.07782074 0.7785892
vt 0.07782074 0.7785892
vt 0.07782074 0.7785892
vt 0.07782074 0.7785892
vt 0.07782074 0.7785892
vt 0.07782074 0.7785892
vt 0.07782074 0.7785892
vt 0.07782074 0.7785892
vt 0.07782074 0.7785892
vt 0.07782074 0.7785892
vt 0.07782074 0.7785892
vt 0.07782074 0.7785892
vt 0.07782074 0.7785892
vt 0.07782074 0.7785892
vt 0.09169734 0.8028733
vt 0.09169734 0.8028733
vt 0.09169734 0.8028733
vt 0.09169734 0.8028733
vt 0.09169734 0.8028733
vt 0.09169734 0.8028733
vt 0.09169734 0.8028733
vt 0.09169734 0.8028733
vt 0.09169734 0.8028733
vt 0.09169734 0.8028733
vt 0.09169734 0.8028733
vt 0.09169734 0.8028733
vt 0.09169734 0.8028733
vt 0.09169734 0.8028733
vt 0.09169734 0.8028733
vt 0.09169734 0.8028733
vt 0.09169734 0.8028733
vt 0.09169734 0.8028733
vt 0.09169734 0.8028733
vt 0.09169734 0.8028733
vt 0.09169734 0.8028733
vt 0.09169734 0.8028733
vt 0.09169734 0.8028733
vt 0.09169734 0.8028733
vt 0.09169734 0.8028733
vt 0.09169734 0.8028733
vt 0.09169734 0.8028733
vt 0.09169734 0.8028733
vt 0.09169734 0.8028733
vt 0.09169734 0.8028733
vt 0.09169734 0.8028733
vt 0.09169734 0.8028733
vt 0.09169734 0.8028733
vt 0.09169734 0.8028733
vt 0.09169734 0.8028733
vt 0.09169734 0.8028733
vt 0.09169734 0.8028733
vt 0.09169734 0.8028733
vt 0.09169734 0.8028733
vt 0.09169734 0.8028733
vt 0.09169734 0.8028733
vt 0.09169734 0.8028733
vt 0.09169734 0.8028733
vt 0.09169734 0.8028733
vt 0.09169734 0.8028733
vt 0.09169734 0.8028733
vt 0.09169734 0.8028733
vt 0.09169734 0.8028733
vn -0.999874 0.01587105 -0.0003439156
vn -0.999874 0.01587105 -0.0003439156
vn -0.999874 0.01587105 -0.0003439156
vn -0.999874 0.01587105 -0.0003439156
vn -0.999874 0.01587105 -0.0003439156
vn -0.999874 -0.01587099 -0.000346655
vn -0.999874 0.01587105 -0.0003439156
vn -0.999874 -0.01587099 -0.000346655
vn -0.999874 0.01587105 -0.0003439156
vn -0.999874 0.01587105 -0.0003439156
vn -0.999874 0.01587105 -0.0003439156
vn -0.999874 0.01587105 -0.0003439156
vn -0.999874 0.01587105 -0.0003439156
vn -0.999874 0.01587105 -0.0003439156
vn -0.999874 0.01587105 -0.0003439156
vn -0.999874 0.01587105 -0.0003439156
vn 0.01587099 0.5872276 -0.8092663
vn 0.01587099 0.5872276 -0.8092663
vn 0.01587099 0.8411639 -0.5405474
vn 0.01587099 0.8411639 -0.5405474
vn 0.01587099 0.999874 -0.000345267
vn 0.01587099 0.999874 -0.000345267
vn 0.01587099 0.968132 0.249937
vn 0.01587099 0.968132 0.249937
vn -0.01587105 0.8094218 0.5870132
vn -0.01587105 0.8094218 0.5870132
vn -0.01587105 0.5872276 -0.8092663
vn -0.01587105 0.2063233 -0.9783552
vn -0.01587105 0.2063233 -0.9783552
vn -0.01587105 0.5872276 -0.8092663
vn -0.01587105 0.8411639 -0.5405474
vn -0.01587105 0.8411639 -0.5405474
vn -0.01587105 0.999874 -0.000345267
vn -0.01587105 0.999874 -0.000345267
vn -0.01587105 0.968132 0.249937
vn -0.01587105 0.968132 0.249937
vn -0.01587105 0.2063233 -0.9783552
vn -0.01587105 -0.1745812 -0.9845148
vn -0.01587105 0.2063233 -0.9783552
vn -0.01587105 -0.1745812 -0.9845148
vn -0.01587105 -0.5237435 -0.8517281
vn -0.01587105 -0.5237435 -0.8517281
vn -0.01587105 -0.8094218 -0.5870132
vn -0.01587105 -0.8094218 -0.5870132
vn -0.01587105 -0.968132 -0.2499373
vn -0.01587105 -0.968132 -0.2499373
vn 0.01587099 0.2063233 -0.9783552
vn 0.01587099 0.5872276 -0.8092663
vn 0.01587099 0.5872276 -0.8092663
vn 0.01587099 0.2063233 -0.9783552
vn -0.01587105 -0.1745812 -0.9845148
vn -0.01587105 -0.1745812 -0.9845148
vn -0.01587105 -0.5237435 -0.8517281
vn -0.01587105 -0.5237435 -0.8517281
vn -0.01587105 -0.8094218 -0.5870132
vn -0.01587105 -0.8094218 -0.5870132
vn -0.01587105 -0.8094218 -0.5870132
vn -0.01587105 -0.5237435 -0.8517281
vn -0.01587105 -0.968132 -0.2499373
vn -0.01587105 -0.968132 -0.2499373
vn -0.01587105 -0.999874 -0.000345267
vn -0.01587105 -0.999874 -0.000345267
vn -0.01587105 -0.968132 -0.2499373
vn -0.01587105 -0.999874 -0.000345267
vn -0.01587105 -0.968132 -0.2499373
vn -0.01587105 -0.999874 -0.000345267
vn -0.01587105 -0.8411638 0.5405475
vn -0.01587105 -0.8411638 0.5405475
vn -0.01587105 -0.5872276 0.8092663
vn -0.01587105 -0.5872276 0.8092663
vn -0.01587105 -0.2063232 0.9783552
vn -0.01587105 -0.2063232 0.9783552
vn -0.01587105 -0.8411638 0.5405475
vn -0.01587105 -0.999874 -0.000345267
vn -0.01587105 -0.999874 -0.000345267
vn -0.01587105 -0.8411638 0.5405475
vn -0.01587105 -0.5872276 0.8092663
vn -0.01587105 -0.5872276 0.8092663
vn -0.01587105 -0.2063232 0.9783552
vn -0.01587105 -0.2063232 0.9783552
vn -0.01587105 0.1745812 0.9845148
vn -0.01587105 0.1745812 0.9845148
vn -0.01587105 -0.2063232 0.9783552
vn -0.01587105 0.1745812 0.9845148
vn -0.01587105 -0.2063232 0.9783552
vn -0.01587105 0.1745812 0.9845148
vn -0.01587105 0.5237435 0.8517281
vn -0.01587105 0.5237435 0.8517281
vn -0.01587105 0.8094218 0.5870132
vn -0.01587105 0.8094218 0.5870132
vn -0.01587105 0.968132 0.249937
vn -0.01587105 0.968132 0.249937
vn -0.01587105 0.5237435 0.8517281
vn -0.01587105 0.1745812 0.9845148
vn -0.01587105 0.1745812 0.9845148
vn -0.01587105 0.5237435 0.8517281
vn -0.01587105 0.8094218 0.5870132
vn -0.01587105 0.8094218 0.5870132
vn 0.999874 0.01587105 -0.0003439156
vn 0.999874 0.01587105 -0.0003439156
vn 0.999874 0.01587105 -0.0003439156
vn 0.999874 0.01587105 -0.0003439156
vn 0.999874 0.01587105 -0.0003439156
vn 0.999874 0.01587105 -0.0003439156
vn 0.999874 0.01587105 -0.0003439156
vn 0.999874 0.01587105 -0.0003439156
vn 0.999874 0.01587105 -0.0003439156
vn 0.999874 0.01587105 -0.0003439156
vn 0.999874 0.01587105 -0.0003439156
vn 0.999874 0.01587105 -0.0003439156
vn 0.999874 0.01587105 -0.0003439156
vn 0.999874 0.01587105 -0.0003439156
vn 0.999874 0.01587105 -0.0003439156
vn 0.999874 0.01587105 -0.0003439156
vn 0.999874 0.01587105 -0.0003439156
vn 0.999874 0.01587105 -0.0003439156
vn 0.999874 0.01587105 -0.0003439156
vn 0.999874 0.01587105 -0.0003439156
vn 0.999874 0.01587105 -0.0003439156
vn 0.999874 0.01587105 -0.0003439156
vn 0.999874 0.01587105 -0.0003439156
vn 0.999874 0.01587105 -0.0003439156
vn 0.999874 0.01587105 -0.0003439156
vn 0.999874 0.01587105 -0.0003439156
vn 0.999874 0.01587105 -0.0003439156
vn 0.999874 0.01587105 -0.0003439156
vn 0.999874 0.01587105 -0.0003439156
vn 0.999874 0.01587105 -0.0003439156
vn 0.999874 0.01587105 -0.0003439156
vn 0.999874 0.01587105 -0.0003439156
vn 0.999874 0.01587105 -0.0003439156
vn 0.999874 0.01587105 -0.0003439156
vn 0.968132 0.2063233 0.1419551
vn 0.968132 0.1428392 0.2057122
vn 0.999874 -0.01587099 -0.000346655
vn 0.968132 0.2380652 0.07775266
vn 0.999874 -0.01587099 -0.000346655
vn 0.968132 0.04761302 0.245873
vn 0.999874 0.01587105 -0.0003439156
vn 0.968132 0.2380652 -0.07775266
vn 0.999874 -0.01587099 -0.000346655
vn 0.968132 -0.04761302 0.245873
vn 0.999874 0.01587105 -0.0003439156
vn 0.968132 0.2063233 -0.1419551
vn 0.999874 0.01587105 -0.0003439156
vn 0.968132 -0.1428391 0.2057122
vn 0.999874 0.01587105 -0.0003439156
vn 0.968132 0.1428392 -0.2057122
vn 0.999874 0.01587105 -0.0003439156
vn 0.968132 -0.2063232 0.1419552
vn 0.999874 0.01587105 -0.0003439156
vn 0.968132 0.04761302 -0.245873
vn 0.999874 -0.01587099 -0.000346655
vn 0.968132 -0.2380652 0.07775266
vn 0.999874 0.01587105 -0.0003439156
vn 0.968132 -0.04761302 -0.245873
vn 0.999874 -0.01587099 -0.000346655
vn 0.968132 -0.2380652 -0.07775266
vn 0.999874 0.01587105 -0.0003439156
vn 0.968132 -0.1428391 -0.2057122
vn 0.999874 0.01587105 -0.0003439156
vn 0.968132 -0.2063232 -0.1419552
vn 0.968132 0.04761302 -0.245873
vn 0.968132 -0.04761302 -0.245873
vn 0.9363899 -0.1745812 -0.304459
vn 0.9046479 -0.3332914 -0.2655731
vn 0.8344646 -0.5510616 0
vn 0.7459377 -0.6507117 0.1419552
vn 0.8729059 -0.3967754 0.2839096
vn 0.9363899 -0.2063232 0.2839095
vn 0.968132 -0.04761302 0.245873
vn 0.968132 0.04761302 0.245873
vn 0.9363899 0.1745812 0.304459
vn 0.9363899 0.2063233 -0.2839095
vn 0.9046479 0.3332913 0.2655732
vn 0.8729059 0.3967754 -0.2839096
vn 0.8344646 0.5510616 0
vn 0.7459377 0.6507117 -0.1419552
g Cylinder.007_0
f 3/3/3 2/2/2 1/1/1
f 1/1/1 4/4/4 3/3/3
f 1/1/1 5/5/5 4/4/4
f 5/5/5 6/6/6 4/4/4
f 5/5/5 7/7/7 6/6/6
f 7/7/7 8/8/8 6/6/6
f 7/7/7 9/9/9 8/8/8
f 9/9/9 10/10/10 8/8/8
f 9/9/9 11/11/11 10/10/10
f 11/11/11 12/12/12 10/10/10
f 11/11/11 13/13/13 12/12/12
f 13/13/13 14/14/14 12/12/12
f 13/13/13 15/15/15 14/14/14
f 15/15/15 16/16/16 14/14/14
f 19/19/19 18/18/18 17/17/17
f 20/20/20 19/19/19 17/17/17
f 21/21/21 19/19/19 20/20/20
f 22/22/22 21/21/21 20/20/20
f 23/23/23 21/21/21 22/22/22
f 24/24/24 23/23/23 22/22/22
f 25/25/25 23/23/23 24/24/24
f 26/26/26 25/25/25 24/24/24
f 29/29/29 28/28/28 27/27/27
f 30/30/30 29/29/29 27/27/27
f 30/30/30 27/27/27 31/31/31
f 32/32/32 30/30/30 31/31/31
f 32/32/32 31/31/31 33/33/33
f 34/34/34 32/32/32 33/33/33
f 34/34/34 33/33/33 35/35/35
f 36/36/36 34/34/34 35/35/35
f 39/39/39 38/38/38 37/37/37
f 38/38/38 40/40/40 37/37/37
f 38/38/38 41/41/41 40/40/40
f 41/41/41 42/42/42 40/40/40
f 41/41/41 43/43/43 42/42/42
f 43/43/43 44/44/44 42/42/42
f 43/43/43 45/45/45 44/44/44
f 45/45/45 46/46/46 44/44/44
f 49/49/49 48/48/48 47/47/47
f 48/48/48 50/50/50 47/47/47
f 47/47/47 50/50/50 51/51/51
f 50/50/50 52/52/52 51/51/51
f 51/51/51 52/52/52 53/53/53
f 52/52/52 54/54/54 53/53/53
f 53/53/53 54/54/54 55/55/55
f 58/58/58 57/57/57 56/56/56
f 56/56/56 57/57/57 59/59/59
f 57/57/57 60/60/60 59/59/59
f 59/59/59 60/60/60 61/61/61
f 60/60/60 62/62/62 61/61/61
f 65/65/65 64/64/64 63/63/63
f 64/64/64 66/66/66 63/63/63
f 64/64/64 67/67/67 66/66/66
f 67/67/67 68/68/68 66/66/66
f 67/67/67 69/69/69 68/68/68
f 69/69/69 70/70/70 68/68/68
f 69/69/69 71/71/71 70/70/70
f 71/71/71 72/72/72 70/70/70
f 75/75/75 74/74/74 73/73/73
f 74/74/74 76/76/76 73/73/73
f 73/73/73 76/76/76 77/77/77
f 76/76/76 78/78/78 77/77/77
f 77/77/77 78/78/78 79/79/79
f 78/78/78 80/80/80 79/79/79
f 79/79/79 80/80/80 81/81/81
f 80/80/80 82/82/82 81/81/81
f 85/85/85 84/84/84 83/83/83
f 84/84/84 86/86/86 83/83/83
f 84/84/84 87/87/87 86/86/86
f 87/87/87 88/88/88 86/86/86
f 87/87/87 89/89/89 88/88/88
f 89/89/89 90/90/90 88/88/88
f 89/89/89 91/91/91 90/90/90
f 91/91/91 92/92/92 90/90/90
f 95/95/95 94/94/94 93/93/93
f 94/94/94 96/96/96 93/93/93
f 93/93/93 96/96/96 97/97/97
f 96/96/96 98/98/98 97/97/97
f 101/101/101 100/100/100 99/99/99
f 100/100/100 102/102/102 99/99/99
f 101/101/101 99/99/99 103/103/103
f 100/100/100 104/104/104 102/102/102
f 105/105/105 101/101/101 103/103/103
f 104/104/104 106/106/106 102/102/102
f 105/105/105 103/103/103 107/107/107
f 104/104/104 108/108/108 106/106/106
f 109/109/109 105/105/105 107/107/107
f 108/108/108 110/110/110 106/106/106
f 109/109/109 107/107/107 111/111/111
f 108/108/108 112/112/112 110/110/110
f 113/113/113 109/109/109 111/111/111
f 112/112/112 114/114/114 110/110/110
f 113/113/113 111/111/111 115/115/115
f 112/112/112 116/116/116 114/114/114
f 117/117/117 113/113/113 115/115/115
f 116/116/116 118/118/118 114/114/114
f 117/117/117 115/115/115 119/119/119
f 116/116/116 120/120/120 118/118/118
f 121/121/121 117/117/117 119/119/119
f 120/120/120 122/122/122 118/118/118
f 121/121/121 119/119/119 123/123/123
f 120/120/120 124/124/124 122/122/122
f 125/125/125 121/121/121 123/123/123
f 124/124/124 126/126/126 122/122/122
f 125/125/125 123/123/123 127/127/127
f 124/124/124 128/128/128 126/126/126
f 129/129/129 125/125/125 127/127/127
f 128/128/128 130/130/130 126/126/126
f 129/129/129 127/127/127 130/130/130
f 128/128/128 129/129/129 130/130/130
f 133/133/133 132/132/132 131/131/131
f 134/134/134 133/133/133 131/131/131
f 134/134/134 131/131/131 135/135/135
f 133/133/133 136/136/136 132/132/132
f 136/136/136 137/137/137 132/132/132
f 138/138/138 134/134/134 135/135/135
f 138/138/138 135/135/135 139/139/139
f 136/136/136 140/140/140 137/137/137
f 140/140/140 141/141/141 137/137/137
f 142/142/142 138/138/138 139/139/139
f 142/142/142 139/139/139 143/143/143
f 140/140/140 144/144/144 141/141/141
f 144/144/144 145/145/145 141/141/141
f 146/146/146 142/142/142 143/143/143
f 146/146/146 143/143/143 147/147/147
f 144/144/144 148/148/148 145/145/145
f 148/148/148 149/149/149 145/145/145
f 150/150/150 146/146/146 147/147/147
f 150/150/150 147/147/147 151/151/151
f 148/148/148 152/152/152 149/149/149
f 152/152/152 153/153/153 149/149/149
f 154/154/154 150/150/150 151/151/151
f 154/154/154 151/151/151 155/155/155
f 152/152/152 156/156/156 153/153/153
f 156/156/156 157/157/157 153/153/153
f 158/158/158 154/154/154 155/155/155
f 158/158/158 155/155/155 159/159/159
f 156/156/156 160/160/160 157/157/157
f 160/160/160 161/161/161 157/157/157
f 162/162/162 159/159/159 161/161/161
f 162/162/162 158/158/158 159/159/159
f 160/160/160 162/162/162 161/161/161
f 163/163/163 152/152/152 148/148/148
f 164/164/164 156/156/156 152/152/152
f 163/163/163 164/164/164 152/152/152
f 165/165/165 160/160/160 156/156/156
f 164/164/164 165/165/165 156/156/156
f 166/166/166 162/162/162 160/160/160
f 165/165/165 166/166/166 160/160/160
f 167/167/167 158/158/158 162/162/162
f 166/166/166 167/167/167 162/162/162
f 168/168/168 154/154/154 158/158/158
f 167/167/167 168/168/168 158/158/158
f 168/168/168 169/169/169 154/154/154
f 169/169/169 168/168/168 167/167/167
f 167/167/167 166/166/166 169/169/169
f 169/169/169 150/150/150 154/154/154
f 166/166/166 170/170/170 169/169/169
f 169/169/169 170/170/170 150/150/150
f 166/166/166 165/165/165 170/170/170
f 170/170/170 146/146/146 150/150/150
f 165/165/165 171/171/171 170/170/170
f 170/170/170 171/171/171 146/146/146
f 165/165/165 164/164/164 171/171/171
f 171/171/171 142/142/142 146/146/146
f 164/164/164 172/172/172 171/171/171
f 171/171/171 172/172/172 142/142/142
f 172/172/172 138/138/138 142/142/142
f 164/164/164 163/163/163 172/172/172
f 172/172/172 173/173/173 138/138/138
f 163/163/163 173/173/173 172/172/172
f 173/173/173 134/134/134 138/138/138
f 163/163/163 174/174/174 173/173/173
f 174/174/174 163/163/163 148/148/148
f 174/174/174 148/148/148 144/144/144
f 173/173/173 175/175/175 134/134/134
f 174/174/174 175/175/175 173/173/173
f 175/175/175 133/133/133 134/134/134
f 176/176/176 174/174/174 144/144/144
f 174/174/174 176/176/176 175/175/175
f 176/176/176 144/144/144 140/140/140
f 175/175/175 177/177/177 133/133/133
f 176/176/176 177/177/177 175/175/175
f 177/177/177 136/136/136 133/133/133
f 178/178/178 176/176/176 140/140/140
f 178/178/178 140/140/140 136/136/136
f 176/176/176 178/178/178 177/177/177
f 177/177/177 178/178/178 136/136/136
