g Cylinder.006
v -0.2115093 -0.2849361 0.1816186
v -0.2115093 -0.3323713 0.05880684
v -0.2115093 -0.3297721 -0.07310206
v -0.2115093 -0.2764887 -0.1933146
v -0.2115093 -0.1933146 0.276489
v -0.2115093 -0.1816183 -0.2849361
v -0.2115093 -0.07310206 0.3297724
v -0.2115093 -0.05880651 -0.3323713
v -0.2115093 0.05880684 0.3323717
v -0.2115093 0.07310238 -0.3297721
v -0.2115093 0.1816186 0.2849364
v -0.2115093 0.193315 -0.2764887
v -0.2115093 0.276489 0.193315
v -0.2115093 0.2849364 -0.1816183
v -0.2115093 0.3297724 0.07310238
v -0.2115093 0.3323717 -0.05880651
v -0.2115093 0.193315 -0.2764887
v 0.02761623 0.193315 -0.2764887
v 0.02761623 0.2849364 -0.1816183
v -0.2115093 0.07310238 -0.3297721
v 0.02761623 0.07310238 -0.3297721
v -0.2115093 -0.05880651 -0.3323713
v 0.02761623 -0.05880651 -0.3323713
v -0.2115093 -0.1816183 -0.2849361
v 0.02761623 -0.1816183 -0.2849361
v -0.2115093 -0.2764887 -0.1933146
v 0.02761623 -0.2764887 -0.1933146
v -0.2115093 0.193315 -0.2764887
v 0.02761623 0.2849364 -0.1816183
v -0.2115093 0.2849364 -0.1816183
v 0.02761623 0.3323717 -0.05880651
v -0.2115093 0.3323717 -0.05880651
v 0.02761623 0.3297724 0.07310238
v -0.2115093 0.3297724 0.07310238
v 0.02761623 0.276489 0.193315
v -0.2115093 0.276489 0.193315
v 0.02761623 0.1816186 0.2849364
v -0.2115093 0.1816186 0.2849364
v 0.02761623 0.1517279 -0.2160575
v 0.02761623 0.05685747 -0.2576446
v 0.03866279 0.05685747 -0.2576446
v 0.03866279 0.1517279 -0.2160575
v 0.02761623 0.2225558 -0.1419806
v 0.03866279 0.2225558 -0.1419806
v 0.02761623 0.2602441 -0.04581055
v 0.03866279 0.2602441 -0.04581055
v 0.02761623 0.2576449 0.05685747
v 0.03866279 0.2576449 0.05685747
v 0.02761623 0.05685747 -0.2576446
v 0.03866279 -0.04581055 -0.2602438
v 0.03866279 0.05685747 -0.2576446
v 0.02761623 -0.04581055 -0.2602438
v 0.03866279 -0.1419806 -0.2225555
v 0.02761623 -0.1419806 -0.2225555
v 0.03866279 -0.2160575 -0.1517276
v 0.02761623 -0.2160575 -0.1517276
v 0.03866279 -0.2576446 -0.05685711
v 0.02761623 -0.2576446 -0.05685711
v 0.02761623 -0.2576446 -0.05685711
v 0.03866279 -0.2602438 0.04581091
v 0.03866279 -0.2576446 -0.05685711
v 0.02761623 -0.2602438 0.04581091
v 0.03866279 -0.2225555 0.1419809
v 0.02761623 -0.2225555 0.1419809
v 0.03866279 -0.1517276 0.2160578
v 0.02761623 -0.1517276 0.2160578
v 0.03866279 -0.05685711 0.2576449
v 0.02761623 -0.05685711 0.2576449
v -0.2115093 -0.3297721 -0.07310206
v 0.02761623 -0.2764887 -0.1933146
v -0.2115093 -0.2764887 -0.1933146
v 0.02761623 -0.3297721 -0.07310206
v -0.2115093 -0.3323713 0.05880684
v 0.02761623 -0.3323713 0.05880684
v -0.2115093 -0.2849361 0.1816186
v 0.02761623 -0.2849361 0.1816186
v -0.2115093 -0.1933146 0.276489
v -0.2115093 -0.1933146 0.276489
v 0.02761623 -0.1933146 0.276489
v 0.02761623 -0.2849361 0.1816186
v -0.2115093 -0.07310206 0.3297724
v 0.02761623 -0.07310206 0.3297724
v -0.2115093 0.05880684 0.3323717
v 0.02761623 0.05880684 0.3323717
v -0.2115093 0.1816186 0.2849364
v 0.02761623 0.1816186 0.2849364
v 0.02761623 -0.05685711 0.2576449
v 0.03866279 0.04581091 0.2602441
v 0.03866279 -0.05685711 0.2576449
v 0.02761623 0.04581091 0.2602441
v 0.03866279 0.1419809 0.2225558
v 0.02761623 0.1419809 0.2225558
v 0.03866279 0.2160578 0.1517279
v 0.02761623 0.2160578 0.1517279
v 0.03866279 0.2576449 0.05685747
v 0.02761623 0.2576449 0.05685747
v 0.02761623 0.3297724 0.07310238
v 0.02761623 0.2602441 -0.04581055
v 0.02761623 0.2576449 0.05685747
v 0.02761623 0.3323717 -0.05880651
v 0.02761623 0.276489 0.193315
v 0.02761623 0.2225558 -0.1419806
v 0.02761623 0.2160578 0.1517279
v 0.02761623 0.2849364 -0.1816183
v 0.02761623 0.1816186 0.2849364
v 0.02761623 0.1517279 -0.2160575
v 0.02761623 0.1419809 0.2225558
v 0.02761623 0.193315 -0.2764887
v 0.02761623 0.05880684 0.3323717
v 0.02761623 0.05685747 -0.2576446
v 0.02761623 0.04581091 0.2602441
v 0.02761623 0.07310238 -0.3297721
v 0.02761623 -0.07310206 0.3297724
v 0.02761623 -0.04581055 -0.2602438
v 0.02761623 -0.05685711 0.2576449
v 0.02761623 -0.05880651 -0.3323713
v 0.02761623 -0.1933146 0.276489
v 0.02761623 -0.1419806 -0.2225555
v 0.02761623 -0.1517276 0.2160578
v 0.02761623 -0.1816183 -0.2849361
v 0.02761623 -0.2849361 0.1816186
v 0.02761623 -0.2160575 -0.1517276
v 0.02761623 -0.2225555 0.1419809
v 0.02761623 -0.2764887 -0.1933146
v 0.02761623 -0.3323713 0.05880684
v 0.02761623 -0.2576446 -0.05685711
v 0.02761623 -0.2602438 0.04581091
v 0.02761623 -0.3297721 -0.07310206
v 0.03866279 0.1419809 0.2225558
v 0.03866279 0.2160578 0.1517279
v 0.03866279 0.1530275 0.1068919
v 0.03866279 0.1003939 0.1569263
v 0.03866279 0.04581091 0.2602441
v 0.03866279 0.1822684 0.04061252
v 0.03866279 0.2576449 0.05685747
v 0.03866279 0.03216514 0.183568
v 0.03866279 -0.05685711 0.2576449
v 0.03866279 0.183568 -0.03216481
v 0.03866279 0.2602441 -0.04581055
v 0.03866279 -0.04061219 0.1822684
v 0.03866279 -0.1517276 0.2160578
v 0.03866279 0.1569263 -0.1003936
v 0.03866279 0.2225558 -0.1419806
v 0.03866279 -0.1068915 0.1530275
v 0.03866279 -0.2225555 0.1419809
v 0.03866279 0.1068919 -0.1530272
v 0.03866279 0.1517279 -0.2160575
v 0.03866279 -0.1569259 0.1003939
v 0.03866279 -0.2602438 0.04581091
v 0.03866279 0.04061252 -0.1822681
v 0.03866279 0.05685747 -0.2576446
v 0.03866279 -0.1835676 0.03216514
v 0.03866279 -0.2576446 -0.05685711
v 0.03866279 -0.03216481 -0.1835676
v 0.03866279 -0.04581055 -0.2602438
v 0.03866279 -0.1822681 -0.04061219
v 0.03866279 -0.2160575 -0.1517276
v 0.03866279 -0.1003936 -0.1569259
v 0.03866279 -0.1419806 -0.2225555
v 0.03866279 -0.1530272 -0.1068915
v 0.07960004 0.03216514 -0.14393
v 0.07960004 -0.02566683 -0.1452296
v 0.07960004 -0.07960004 -0.1244361
v 0.07960004 -0.1211871 -0.08479841
v 0.07960004 -0.14393 -0.03216481
v 0.07960004 -0.1452296 0.02566716
v 0.07960004 -0.1244361 0.07960036
v 0.07960004 -0.08479841 0.1211874
v 0.07960004 -0.03216481 0.1439303
v 0.07960004 0.02566716 0.1452299
v 0.07960004 0.07960036 0.1244364
v 0.07960004 0.08479875 -0.1211871
v 0.07960004 0.1211874 0.08479875
v 0.07960004 0.1244364 -0.07960004
v 0.07960004 0.1439303 0.03216514
v 0.07960004 0.1452299 -0.02566683
vt 0.08138248 0.7833349
vt 0.08138248 0.7833349
vt 0.08138248 0.7833349
vt 0.08138248 0.7833349
vt 0.08138248 0.7833349
vt 0.08138248 0.7833349
vt 0.08138248 0.7833349
vt 0.08138248 0.7833349
vt 0.08138248 0.7833349
vt 0.08138248 0.7833349
vt 0.08138248 0.7833349
vt 0.08138248 0.7833349
vt 0.08138248 0.7833349
vt 0.08138248 0.7833349
vt 0.08138248 0.7833349
vt 0.08138248 0.7833349
vt 0.08138248 0.7833349
vt 0.08138248 0.7833349
vt 0.08138248 0.7833349
vt 0.08138248 0.7833349
vt 0.08138248 0.7833349
vt 0.08138248 0.7833349
vt 0.08138248 0.7833349
vt 0.08138248 0.7833349
vt 0.08138248 0.7833349
vt 0.08138248 0.7833349
vt 0.08138248 0.7833349
vt 0.08138248 0.7833349
vt 0.08138248 0.7833349
vt 0.08138248 0.7833349
vt 0.08138248 0.7833349
vt 0.08138248 0.7833349
vt 0.08138248 0.7833349
vt 0.08138248 0.7833349
vt 0.08138248 0.7833349
vt 0.08138248 0.7833349
vt 0.08138248 0.7833349
vt 0.08138248 0.7833349
vt 0.09185939 0.8042887
vt 0.09185939 0.8042887
vt 0.09185939 0.8042887
vt 0.09185939 0.8042887
vt 0.09185939 0.8042887
vt 0.09185939 0.8042887
vt 0.09185939 0.8042887
vt 0.09185939 0.8042887
vt 0.09185939 0.8042887
vt 0.09185939 0.8042887
vt 0.09185939 0.8042887
vt 0.09185939 0.8042887
vt 0.09185939 0.8042887
vt 0.09185939 0.8042887
vt 0.09185939 0.8042887
vt 0.09185939 0.8042887
vt 0.09185939 0.8042887
vt 0.09185939 0.8042887
vt 0.09185939 0.8042887
vt 0.09185939 0.8042887
vt 0.09185939 0.8042887
vt 0.09185939 0.8042887
vt 0.09185939 0.8042887
vt 0.09185939 0.8042887
vt 0.09185939 0.8042887
vt 0.09185939 0.8042887
vt 0.09185939 0.8042887
vt 0.09185939 0.8042887
vt 0.09185939 0.8042887
vt 0.09185939 0.8042887
vt 0.08138248 0.7833349
vt 0.08138248 0.7833349
vt 0.08138248 0.7833349
vt 0.08138248 0.7833349
vt 0.08138248 0.7833349
vt 0.08138248 0.7833349
vt 0.08138248 0.7833349
vt 0.08138248 0.7833349
vt 0.08138248 0.7833349
vt 0.08138248 0.7833349
vt 0.08138248 0.7833349
vt 0.08138248 0.7833349
vt 0.08138248 0.7833349
vt 0.08138248 0.7833349
vt 0.08138248 0.7833349
vt 0.08138248 0.7833349
vt 0.08138248 0.7833349
vt 0.08138248 0.7833349
vt 0.09185939 0.8042887
vt 0.09185939 0.8042887
vt 0.09185939 0.8042887
vt 0.09185939 0.8042887
vt 0.09185939 0.8042887
vt 0.09185939 0.8042887
vt 0.09185939 0.8042887
vt 0.09185939 0.8042887
vt 0.09185939 0.8042887
vt 0.09185939 0.8042887
vt 0.08138248 0.7833349
vt 0.08138248 0.7833349
vt 0.08138248 0.7833349
vt 0.08138248 0.7833349
vt 0.08138248 0.7833349
vt 0.08138248 0.7833349
vt 0.08138248 0.7833349
vt 0.08138248 0.7833349
vt 0.08138248 0.7833349
vt 0.08138248 0.7833349
vt 0.08138248 0.7833349
vt 0.08138248 0.7833349
vt 0.08138248 0.7833349
vt 0.08138248 0.7833349
vt 0.08138248 0.7833349
vt 0.08138248 0.7833349
vt 0.08138248 0.7833349
vt 0.08138248 0.7833349
vt 0.08138248 0.7833349
vt 0.08138248 0.7833349
vt 0.08138248 0.7833349
vt 0.08138248 0.7833349
vt 0.08138248 0.7833349
vt 0.08138248 0.7833349
vt 0.08138248 0.7833349
vt 0.08138248 0.7833349
vt 0.08138248 0.7833349
vt 0.08138248 0.7833349
vt 0.08138248 0.7833349
vt 0.08138248 0.7833349
vt 0.08138248 0.7833349
vt 0.08138248 0.7833349
vt 0.09185939 0.8042887
vt 0.09185939 0.8042887
vt 0.09185939 0.8042887
vt 0.09185939 0.8042887
vt 0.09185939 0.8042887
vt 0.09185939 0.8042887
vt 0.09185939 0.8042887
vt 0.09185939 0.8042887
vt 0.09185939 0.8042887
vt 0.09185939 0.8042887
vt 0.09185939 0.8042887
vt 0.09185939 0.8042887
vt 0.09185939 0.8042887
vt 0.09185939 0.8042887
vt 0.09185939 0.8042887
vt 0.09185939 0.8042887
vt 0.09185939 0.8042887
vt 0.09185939 0.8042887
vt 0.09185939 0.8042887
vt 0.09185939 0.8042887
vt 0.09185939 0.8042887
vt 0.09185939 0.8042887
vt 0.09185939 0.8042887
vt 0.09185939 0.8042887
vt 0.09185939 0.8042887
vt 0.09185939 0.8042887
vt 0.09185939 0.8042887
vt 0.09185939 0.8042887
vt 0.09185939 0.8042887
vt 0.09185939 0.8042887
vt 0.09185939 0.8042887
vt 0.09185939 0.8042887
vt 0.09185939 0.8042887
vt 0.09185939 0.8042887
vt 0.09185939 0.8042887
vt 0.09185939 0.8042887
vt 0.09185939 0.8042887
vt 0.09185939 0.8042887
vt 0.09185939 0.8042887
vt 0.09185939 0.8042887
vt 0.09185939 0.8042887
vt 0.09185939 0.8042887
vt 0.09185939 0.8042887
vt 0.09185939 0.8042887
vt 0.09185939 0.8042887
vt 0.09185939 0.8042887
vt 0.09185939 0.8042887
vt 0.09185939 0.8042887
vn -0.999874 0.01587105 -0.0003439156
vn -0.999874 0.01587105 -0.0003439156
vn -0.999874 0.01587105 -0.0003439156
vn -0.999874 0.01587105 -0.0003439156
vn -0.999874 0.01587105 -0.0003439156
vn -0.999874 -0.01587099 -0.000346655
vn -0.999874 0.01587105 -0.0003439156
vn -0.999874 -0.01587099 -0.000346655
vn -0.999874 0.01587105 -0.0003439156
vn -0.999874 0.01587105 -0.0003439156
vn -0.999874 0.01587105 -0.0003439156
vn -0.999874 0.01587105 -0.0003439156
vn -0.999874 0.01587105 -0.0003439156
vn -0.999874 0.01587105 -0.0003439156
vn -0.999874 0.01587105 -0.0003439156
vn -0.999874 0.01587105 -0.0003439156
vn 0.01587099 0.5872276 -0.8092663
vn 0.01587099 0.5872276 -0.8092663
vn 0.01587099 0.8411639 -0.5405474
vn 0.01587099 0.2063233 -0.9783552
vn 0.01587099 0.2063233 -0.9783552
vn 0.01587099 -0.1745812 -0.9845148
vn 0.01587099 -0.1745812 -0.9845148
vn -0.01587105 -0.5237435 -0.8517281
vn -0.01587105 -0.5237435 -0.8517281
vn -0.01587105 -0.8094218 -0.5870132
vn -0.01587105 -0.8094218 -0.5870132
vn 0.01587099 0.5872276 -0.8092663
vn 0.01587099 0.8411639 -0.5405474
vn 0.01587099 0.8411639 -0.5405474
vn 0.01587099 0.999874 -0.000345267
vn 0.01587099 0.999874 -0.000345267
vn 0.01587099 0.968132 0.249937
vn 0.01587099 0.968132 0.249937
vn -0.01587105 0.8094218 0.5870132
vn -0.01587105 0.8094218 0.5870132
vn -0.01587105 0.5237435 0.8517281
vn -0.01587105 0.5237435 0.8517281
vn -0.01587105 0.5872276 -0.8092663
vn -0.01587105 0.2063233 -0.9783552
vn -0.01587105 0.2063233 -0.9783552
vn -0.01587105 0.5872276 -0.8092663
vn -0.01587105 0.8411639 -0.5405474
vn -0.01587105 0.8411639 -0.5405474
vn -0.01587105 0.999874 -0.000345267
vn -0.01587105 0.999874 -0.000345267
vn -0.01587105 0.968132 0.249937
vn -0.01587105 0.968132 0.249937
vn -0.01587105 0.2063233 -0.9783552
vn -0.01587105 -0.1745812 -0.9845148
vn -0.01587105 0.2063233 -0.9783552
vn -0.01587105 -0.1745812 -0.9845148
vn -0.01587105 -0.5237435 -0.8517281
vn -0.01587105 -0.5237435 -0.8517281
vn -0.01587105 -0.8094218 -0.5870132
vn -0.01587105 -0.8094218 -0.5870132
vn -0.01587105 -0.968132 -0.2499373
vn -0.01587105 -0.968132 -0.2499373
vn -0.01587105 -0.968132 -0.2499373
vn -0.01587105 -0.999874 -0.000345267
vn -0.01587105 -0.968132 -0.2499373
vn -0.01587105 -0.999874 -0.000345267
vn -0.01587105 -0.8411638 0.5405475
vn -0.01587105 -0.8411638 0.5405475
vn -0.01587105 -0.5872276 0.8092663
vn -0.01587105 -0.5872276 0.8092663
vn -0.01587105 -0.2063232 0.9783552
vn -0.01587105 -0.2063232 0.9783552
vn -0.01587105 -0.968132 -0.2499373
vn -0.01587105 -0.8094218 -0.5870132
vn -0.01587105 -0.8094218 -0.5870132
vn -0.01587105 -0.968132 -0.2499373
vn -0.01587105 -0.999874 -0.000345267
vn -0.01587105 -0.999874 -0.000345267
vn -0.01587105 -0.8411638 0.5405475
vn -0.01587105 -0.8411638 0.5405475
vn -0.01587105 -0.5872276 0.8092663
vn -0.01587105 -0.5872276 0.8092663
vn -0.01587105 -0.5872276 0.8092663
vn -0.01587105 -0.8411638 0.5405475
vn -0.01587105 -0.2063232 0.9783552
vn -0.01587105 -0.2063232 0.9783552
vn -0.01587105 0.1745812 0.9845148
vn -0.01587105 0.1745812 0.9845148
vn -0.01587105 0.5237435 0.8517281
vn -0.01587105 0.5237435 0.8517281
vn -0.01587105 -0.2063232 0.9783552
vn -0.01587105 0.1745812 0.9845148
vn -0.01587105 -0.2063232 0.9783552
vn -0.01587105 0.1745812 0.9845148
vn -0.01587105 0.5237435 0.8517281
vn -0.01587105 0.5237435 0.8517281
vn -0.01587105 0.8094218 0.5870132
vn -0.01587105 0.8094218 0.5870132
vn -0.01587105 0.968132 0.249937
vn -0.01587105 0.968132 0.249937
vn 0.999874 0.01587105 -0.0003439156
vn 0.999874 0.01587105 -0.0003439156
vn 0.999874 0.01587105 -0.0003439156
vn 0.999874 0.01587105 -0.0003439156
vn 0.999874 0.01587105 -0.0003439156
vn 0.999874 0.01587105 -0.0003439156
vn 0.999874 0.01587105 -0.0003439156
vn 0.999874 0.01587105 -0.0003439156
vn 0.999874 0.01587105 -0.0003439156
vn 0.999874 0.01587105 -0.0003439156
vn 0.999874 0.01587105 -0.0003439156
vn 0.999874 0.01587105 -0.0003439156
vn 0.999874 0.01587105 -0.0003439156
vn 0.999874 0.01587105 -0.0003439156
vn 0.999874 0.01587105 -0.0003439156
vn 0.999874 0.01587105 -0.0003439156
vn 0.999874 0.01587105 -0.0003439156
vn 0.999874 0.01587105 -0.0003439156
vn 0.999874 0.01587105 -0.0003439156
vn 0.999874 0.01587105 -0.0003439156
vn 0.999874 0.01587105 -0.0003439156
vn 0.999874 0.01587105 -0.0003439156
vn 0.999874 0.01587105 -0.0003439156
vn 0.999874 0.01587105 -0.0003439156
vn 0.999874 0.01587105 -0.0003439156
vn 0.999874 0.01587105 -0.0003439156
vn 0.999874 0.01587105 -0.0003439156
vn 0.999874 0.01587105 -0.0003439156
vn 0.999874 0.01587105 -0.0003439156
vn 0.999874 0.01587105 -0.0003439156
vn 0.999874 0.01587105 -0.0003439156
vn 0.999874 0.01587105 -0.0003439156
vn 0.999874 0.01587105 -0.0003439156
vn 0.999874 0.01587105 -0.0003439156
vn 0.968132 0.2063233 0.1419551
vn 0.968132 0.1428392 0.2057122
vn 0.999874 -0.01587099 -0.000346655
vn 0.968132 0.2380652 0.07775266
vn 0.999874 -0.01587099 -0.000346655
vn 0.968132 0.04761302 0.245873
vn 0.999874 0.01587105 -0.0003439156
vn 0.968132 0.2380652 -0.07775266
vn 0.999874 -0.01587099 -0.000346655
vn 0.968132 -0.04761302 0.245873
vn 0.999874 0.01587105 -0.0003439156
vn 0.968132 0.2063233 -0.1419551
vn 0.999874 0.01587105 -0.0003439156
vn 0.968132 -0.1428391 0.2057122
vn 0.999874 0.01587105 -0.0003439156
vn 0.968132 0.1428392 -0.2057122
vn 0.999874 0.01587105 -0.0003439156
vn 0.968132 -0.2063232 0.1419552
vn 0.999874 0.01587105 -0.0003439156
vn 0.968132 0.04761302 -0.245873
vn 0.999874 -0.01587099 -0.000346655
vn 0.968132 -0.2380652 0.07775266
vn 0.999874 0.01587105 -0.0003439156
vn 0.968132 -0.04761302 -0.245873
vn 0.999874 -0.01587099 -0.000346655
vn 0.968132 -0.2380652 -0.07775266
vn 0.999874 0.01587105 -0.0003439156
vn 0.968132 -0.1428391 -0.2057122
vn 0.999874 0.01587105 -0.0003439156
vn 0.968132 -0.2063232 -0.1419552
vn 0.968132 0.04761302 -0.245873
vn 0.968132 -0.04761302 -0.245873
vn 0.9363899 -0.1745812 -0.304459
vn 0.9046479 -0.3332914 -0.2655731
vn 0.8344646 -0.5510616 0
vn 0.7459377 -0.6507117 0.1419552
vn 0.8729059 -0.3967754 0.2839096
vn 0.9363899 -0.2063232 0.2839095
vn 0.968132 -0.04761302 0.245873
vn 0.968132 0.04761302 0.245873
vn 0.9363899 0.1745812 0.304459
vn 0.9363899 0.2063233 -0.2839095
vn 0.9046479 0.3332913 0.2655732
vn 0.8729059 0.3967754 -0.2839096
vn 0.8344646 0.5510616 0
vn 0.7459377 0.6507117 -0.1419552
g Cylinder.006_0
f 3/3/3 2/2/2 1/1/1
f 1/1/1 4/4/4 3/3/3
f 1/1/1 5/5/5 4/4/4
f 5/5/5 6/6/6 4/4/4
f 5/5/5 7/7/7 6/6/6
f 7/7/7 8/8/8 6/6/6
f 7/7/7 9/9/9 8/8/8
f 9/9/9 10/10/10 8/8/8
f 9/9/9 11/11/11 10/10/10
f 11/11/11 12/12/12 10/10/10
f 11/11/11 13/13/13 12/12/12
f 13/13/13 14/14/14 12/12/12
f 13/13/13 15/15/15 14/14/14
f 15/15/15 16/16/16 14/14/14
f 19/19/19 18/18/18 17/17/17
f 17/17/17 18/18/18 20/20/20
f 18/18/18 21/21/21 20/20/20
f 20/20/20 21/21/21 22/22/22
f 21/21/21 23/23/23 22/22/22
f 22/22/22 23/23/23 24/24/24
f 23/23/23 25/25/25 24/24/24
f 24/24/24 25/25/25 26/26/26
f 25/25/25 27/27/27 26/26/26
f 30/30/30 29/29/29 28/28/28
f 31/31/31 29/29/29 30/30/30
f 32/32/32 31/31/31 30/30/30
f 33/33/33 31/31/31 32/32/32
f 34/34/34 33/33/33 32/32/32
f 35/35/35 33/33/33 34/34/34
f 36/36/36 35/35/35 34/34/34
f 37/37/37 35/35/35 36/36/36
f 38/38/38 37/37/37 36/36/36
f 41/41/41 40/40/40 39/39/39
f 42/42/42 41/41/41 39/39/39
f 42/42/42 39/39/39 43/43/43
f 44/44/44 42/42/42 43/43/43
f 44/44/44 43/43/43 45/45/45
f 46/46/46 44/44/44 45/45/45
f 46/46/46 45/45/45 47/47/47
f 48/48/48 46/46/46 47/47/47
f 51/51/51 50/50/50 49/49/49
f 50/50/50 52/52/52 49/49/49
f 50/50/50 53/53/53 52/52/52
f 53/53/53 54/54/54 52/52/52
f 53/53/53 55/55/55 54/54/54
f 55/55/55 56/56/56 54/54/54
f 55/55/55 57/57/57 56/56/56
f 57/57/57 58/58/58 56/56/56
f 61/61/61 60/60/60 59/59/59
f 60/60/60 62/62/62 59/59/59
f 60/60/60 63/63/63 62/62/62
f 63/63/63 64/64/64 62/62/62
f 63/63/63 65/65/65 64/64/64
f 65/65/65 66/66/66 64/64/64
f 65/65/65 67/67/67 66/66/66
f 67/67/67 68/68/68 66/66/66
f 71/71/71 70/70/70 69/69/69
f 70/70/70 72/72/72 69/69/69
f 69/69/69 72/72/72 73/73/73
f 72/72/72 74/74/74 73/73/73
f 73/73/73 74/74/74 75/75/75
f 74/74/74 76/76/76 75/75/75
f 75/75/75 76/76/76 77/77/77
f 80/80/80 79/79/79 78/78/78
f 78/78/78 79/79/79 81/81/81
f 79/79/79 82/82/82 81/81/81
f 81/81/81 82/82/82 83/83/83
f 82/82/82 84/84/84 83/83/83
f 83/83/83 84/84/84 85/85/85
f 84/84/84 86/86/86 85/85/85
f 89/89/89 88/88/88 87/87/87
f 88/88/88 90/90/90 87/87/87
f 88/88/88 91/91/91 90/90/90
f 91/91/91 92/92/92 90/90/90
f 91/91/91 93/93/93 92/92/92
f 93/93/93 94/94/94 92/92/92
f 93/93/93 95/95/95 94/94/94
f 95/95/95 96/96/96 94/94/94
f 99/99/99 98/98/98 97/97/97
f 98/98/98 100/100/100 97/97/97
f 99/99/99 97/97/97 101/101/101
f 98/98/98 102/102/102 100/100/100
f 103/103/103 99/99/99 101/101/101
f 102/102/102 104/104/104 100/100/100
f 103/103/103 101/101/101 105/105/105
f 102/102/102 106/106/106 104/104/104
f 107/107/107 103/103/103 105/105/105
f 106/106/106 108/108/108 104/104/104
f 107/107/107 105/105/105 109/109/109
f 106/106/106 110/110/110 108/108/108
f 111/111/111 107/107/107 109/109/109
f 110/110/110 112/112/112 108/108/108
f 111/111/111 109/109/109 113/113/113
f 110/110/110 114/114/114 112/112/112
f 115/115/115 111/111/111 113/113/113
f 114/114/114 116/116/116 112/112/112
f 115/115/115 113/113/113 117/117/117
f 114/114/114 118/118/118 116/116/116
f 119/119/119 115/115/115 117/117/117
f 118/118/118 120/120/120 116/116/116
f 119/119/119 117/117/117 121/121/121
f 118/118/118 122/122/122 120/120/120
f 123/123/123 119/119/119 121/121/121
f 122/122/122 124/124/124 120/120/120
f 123/123/123 121/121/121 125/125/125
f 122/122/122 126/126/126 124/124/124
f 127/127/127 123/123/123 125/125/125
f 126/126/126 128/128/128 124/124/124
f 127/127/127 125/125/125 128/128/128
f 126/126/126 127/127/127 128/128/128
f 131/131/131 130/130/130 129/129/129
f 132/132/132 131/131/131 129/129/129
f 132/132/132 129/129/129 133/133/133
f 131/131/131 134/134/134 130/130/130
f 134/134/134 135/135/135 130/130/130
f 136/136/136 132/132/132 133/133/133
f 136/136/136 133/133/133 137/137/137
f 134/134/134 138/138/138 135/135/135
f 138/138/138 139/139/139 135/135/135
f 140/140/140 136/136/136 137/137/137
f 140/140/140 137/137/137 141/141/141
f 138/138/138 142/142/142 139/139/139
f 142/142/142 143/143/143 139/139/139
f 144/144/144 140/140/140 141/141/141
f 144/144/144 141/141/141 145/145/145
f 142/142/142 146/146/146 143/143/143
f 146/146/146 147/147/147 143/143/143
f 148/148/148 144/144/144 145/145/145
f 148/148/148 145/145/145 149/149/149
f 146/146/146 150/150/150 147/147/147
f 150/150/150 151/151/151 147/147/147
f 152/152/152 148/148/148 149/149/149
f 152/152/152 149/149/149 153/153/153
f 150/150/150 154/154/154 151/151/151
f 154/154/154 155/155/155 151/151/151
f 156/156/156 152/152/152 153/153/153
f 156/156/156 153/153/153 157/157/157
f 154/154/154 158/158/158 155/155/155
f 158/158/158 159/159/159 155/155/155
f 160/160/160 157/157/157 159/159/159
f 160/160/160 156/156/156 157/157/157
f 158/158/158 160/160/160 159/159/159
f 161/161/161 150/150/150 146/146/146
f 162/162/162 154/154/154 150/150/150
f 161/161/161 162/162/162 150/150/150
f 163/163/163 158/158/158 154/154/154
f 162/162/162 163/163/163 154/154/154
f 164/164/164 160/160/160 158/158/158
f 163/163/163 164/164/164 158/158/158
f 165/165/165 156/156/156 160/160/160
f 164/164/164 165/165/165 160/160/160
f 166/166/166 152/152/152 156/156/156
f 165/165/165 166/166/166 156/156/156
f 166/166/166 167/167/167 152/152/152
f 167/167/167 166/166/166 165/165/165
f 165/165/165 164/164/164 167/167/167
f 167/167/167 148/148/148 152/152/152
f 164/164/164 168/168/168 167/167/167
f 167/167/167 168/168/168 148/148/148
f 164/164/164 163/163/163 168/168/168
f 168/168/168 144/144/144 148/148/148
f 163/163/163 169/169/169 168/168/168
f 168/168/168 169/169/169 144/144/144
f 163/163/163 162/162/162 169/169/169
f 169/169/169 140/140/140 144/144/144
f 162/162/162 170/170/170 169/169/169
f 169/169/169 170/170/170 140/140/140
f 170/170/170 136/136/136 140/140/140
f 162/162/162 161/161/161 170/170/170
f 170/170/170 171/171/171 136/136/136
f 161/161/161 171/171/171 170/170/170
f 171/171/171 132/132/132 136/136/136
f 161/161/161 172/172/172 171/171/171
f 172/172/172 161/161/161 146/146/146
f 172/172/172 146/146/146 142/142/142
f 171/171/171 173/173/173 132/132/132
f 172/172/172 173/173/173 171/171/171
f 173/173/173 131/131/131 132/132/132
f 174/174/174 172/172/172 142/142/142
f 172/172/172 174/174/174 173/173/173
f 174/174/174 142/142/142 138/138/138
f 173/173/173 175/175/175 131/131/131
f 174/174/174 175/175/175 173/173/173
f 175/175/175 134/134/134 131/131/131
f 176/176/176 174/174/174 138/138/138
f 176/176/176 138/138/138 134/134/134
f 174/174/174 176/176/176 175/175/175
f 175/175/175 176/176/176 134/134/134
