g Glasses_stick_60.001
v 0.03882411 0.01386517 0.3380638
v 0.03882411 -0.01386505 0.3380638
v -0.01094848 -0.01386511 0
v -0.01094848 0.01386511 0
v 0.01094848 0.01386511 0
v 0.01094848 -0.01386511 0
v 0.06072107 -0.01386505 0.3338653
v 0.06072107 0.01386517 0.3338653
v 0.03882411 -0.01386505 0.3380638
v 0.03882411 0.01386517 0.3380638
v 0.04778248 -0.007034719 0.3847855
v 0.04519981 -0.03113574 0.3713158
v 0.05664751 -0.05283932 0.4310201
v 0.05406487 -0.07694034 0.4175504
v -0.01094848 0.01386511 0
v 0.01094848 0.01386511 0
v 0.06072107 0.01386517 0.3338653
v 0.03882411 0.01386517 0.3380638
v 0.01094848 -0.01386511 0
v -0.01094848 -0.01386511 0
v 0.03882411 -0.01386505 0.3380638
v 0.06072107 -0.01386505 0.3338653
v 0.04778248 -0.007034719 0.3847855
v 0.06967944 -0.007034719 0.380587
v 0.07854447 -0.05283932 0.4268218
v 0.05664751 -0.05283932 0.4310201
v 0.03882411 0.01386517 0.3380638
v 0.06072107 0.01386517 0.3338653
v 0.06967944 -0.007034719 0.380587
v 0.04778248 -0.007034719 0.3847855
v 0.06072107 -0.01386505 0.3338653
v 0.03882411 -0.01386505 0.3380638
v 0.04519981 -0.03113574 0.3713158
v 0.06709677 -0.03113574 0.3671173
v 0.06072107 0.01386517 0.3338653
v 0.06072107 -0.01386505 0.3338653
v 0.06709677 -0.03113574 0.3671173
v 0.06967944 -0.007034719 0.380587
v 0.0759618 -0.07694034 0.4133521
v 0.07854447 -0.05283932 0.4268218
v 0.07854447 -0.05283932 0.4268218
v 0.0759618 -0.07694034 0.4133521
v 0.05406487 -0.07694034 0.4175504
v 0.05664751 -0.05283932 0.4310201
v 0.06709677 -0.03113574 0.3671173
v 0.04519981 -0.03113574 0.3713158
v 0.05406487 -0.07694034 0.4175504
v 0.0759618 -0.07694034 0.4133521
v -0.01094848 0.01386511 0
v -0.01094848 -0.01386511 0
v 0.01094848 -0.01386511 0
v 0.01094848 0.01386511 0
vt 0.375 0
vt 0.625 0
vt 0.625 0.1840522
vt 0.375 0.1840522
vt 0.375 0.5659478
vt 0.625 0.5659478
vt 0.625 0.75
vt 0.375 0.75
vt 0.625 0
vt 0.375 0
vt 0.375 0
vt 0.625 0
vt 0.375 0
vt 0.625 0
vt 0.125 0.5659478
vt 0.375 0.5659478
vt 0.375 0.75
vt 0.125 0.75
vt 0.625 0.5659478
vt 0.8749999 0.5659478
vt 0.875 0.75
vt 0.625 0.75
vt 0.125 0.75
vt 0.375 0.75
vt 0.375 0.75
vt 0.125 0.75
vt 0.125 0.75
vt 0.375 0.75
vt 0.375 0.75
vt 0.125 0.75
vt 0.625 0.75
vt 0.875 0.75
vt 0.875 0.75
vt 0.625 0.75
vt 0.375 0.75
vt 0.625 0.75
vt 0.625 0.75
vt 0.375 0.75
vt 0.625 0.75
vt 0.375 0.75
vt 0.375 0.75
vt 0.625 0.75
vt 0.625 1
vt 0.375 1
vt 0.625 0.75
vt 0.875 0.75
vt 0.875 0.75
vt 0.625 0.75
vt 0.125 0.5659478
vt 0.8749999 0.5659478
vt 0.625 0.5659478
vt 0.375 0.5659478
vn -0.989335 0 0.1456582
vn -0.989335 0 0.1456582
vn -0.989335 0 0.1456582
vn -0.989335 0 0.1456582
vn 0.9890695 0 -0.1474503
vn 0.9890695 0 -0.1474503
vn 0.9890695 0 -0.1474503
vn 0.9890695 0 -0.1474503
vn -0.9821098 0 0.1883087
vn -0.9821098 0 0.1883087
vn -0.9821098 0 0.1883087
vn -0.9821098 0 0.1883087
vn -0.9821098 0 0.1883093
vn -0.9821098 0 0.1883093
vn 0 1 0
vn 0 1 0
vn 0 1 0
vn 0 1 0
vn 0 -1 0
vn 0 -1 0
vn 0 -1 0
vn 0 -1 0
vn 0.131316 0.7167258 0.6848796
vn 0.131316 0.7167258 0.6848796
vn 0.131316 0.7167258 0.6848796
vn 0.131316 0.7167258 0.6848796
vn 0.07574248 0.9155429 0.3950244
vn 0.07574248 0.9155429 0.3950244
vn 0.07574248 0.9155429 0.3950244
vn 0.07574248 0.9155429 0.3950244
vn -0.08556729 -0.8908009 -0.4462643
vn -0.08556729 -0.8908009 -0.4462643
vn -0.08556729 -0.8908009 -0.4462643
vn -0.08556729 -0.8908009 -0.4462643
vn 0.9821098 0 -0.1883088
vn 0.9821098 0 -0.1883088
vn 0.9821098 0 -0.1883088
vn 0.9821098 0 -0.1883088
vn 0.9821098 0 -0.1883089
vn 0.9821098 0 -0.1883089
vn 0.1636571 -0.4945906 0.8535786
vn 0.1636571 -0.4945906 0.8535786
vn 0.1636571 -0.4945906 0.8535786
vn 0.1636571 -0.4945906 0.8535786
vn -0.1313161 -0.7167254 -0.6848801
vn -0.1313161 -0.7167254 -0.6848801
vn -0.1313161 -0.7167254 -0.6848801
vn -0.1313161 -0.7167254 -0.6848801
vn 0 0 -1
vn 0 0 -1
vn 0 0 -1
vn 0 0 -1
g Glasses_stick_60.001_0
f 3/3/3 2/2/2 1/1/1
f 4/4/4 3/3/3 1/1/1
f 7/7/7 6/6/6 5/5/5
f 8/8/8 7/7/7 5/5/5
f 11/11/11 10/10/10 9/9/9
f 12/12/12 11/11/11 9/9/9
f 13/13/13 11/11/11 12/12/12
f 14/14/14 13/13/13 12/12/12
f 17/17/17 16/16/16 15/15/15
f 18/18/18 17/17/17 15/15/15
f 21/21/21 20/20/20 19/19/19
f 22/22/22 21/21/21 19/19/19
f 25/25/25 24/24/24 23/23/23
f 26/26/26 25/25/25 23/23/23
f 29/29/29 28/28/28 27/27/27
f 30/30/30 29/29/29 27/27/27
f 33/33/33 32/32/32 31/31/31
f 34/34/34 33/33/33 31/31/31
f 37/37/37 36/36/36 35/35/35
f 38/38/38 37/37/37 35/35/35
f 39/39/39 37/37/37 38/38/38
f 40/40/40 39/39/39 38/38/38
f 43/43/43 42/42/42 41/41/41
f 44/44/44 43/43/43 41/41/41
f 47/47/47 46/46/46 45/45/45
f 48/48/48 47/47/47 45/45/45
f 51/51/51 50/50/50 49/49/49
f 52/52/52 51/51/51 49/49/49
