g Glasses_stick_08
v 0.08075736 0.01386523 0.3540977
v -0.01094848 -0.01386511 0.002099276
v -0.01094848 0.01386511 0.002099276
v 0.08075736 -0.01386499 0.3540978
v 0.08971573 -0.007034659 0.4008193
v 0.08713306 -0.03113568 0.3873496
v 0.09858076 -0.05283928 0.4470541
v 0.09599812 -0.0769403 0.4335844
v 0.01094848 0.01386511 -0.002099276
v 0.01094848 -0.01386511 -0.002099276
v 0.1026543 -0.01386499 0.3498992
v 0.1026543 0.01386523 0.3498991
v 0.10903 -0.03113568 0.3831512
v 0.1116127 -0.007034659 0.3966209
v 0.1178951 -0.0769403 0.4293859
v 0.1204777 -0.05283928 0.4428556
v -0.01094848 0.01386511 0.002099276
v 0.01094848 0.01386511 -0.002099276
v 0.1026543 0.01386523 0.3498991
v 0.08075736 0.01386523 0.3540977
v 0.1116127 -0.007034659 0.3966209
v 0.08971573 -0.007034659 0.4008193
v 0.1204777 -0.05283928 0.4428556
v 0.09858076 -0.05283928 0.4470541
v 0.01094848 -0.01386511 -0.002099276
v -0.01094848 -0.01386511 0.002099276
v 0.08075736 -0.01386499 0.3540978
v 0.1026543 -0.01386499 0.3498992
v 0.08713306 -0.03113568 0.3873496
v 0.10903 -0.03113568 0.3831512
v 0.09599812 -0.0769403 0.4335844
v 0.1178951 -0.0769403 0.4293859
v 0.1204777 -0.05283928 0.4428556
v 0.1178951 -0.0769403 0.4293859
v 0.09599812 -0.0769403 0.4335844
v 0.09858076 -0.05283928 0.4470541
vt 0.375 0
vt 0.625 0.25
vt 0.375 0.25
vt 0.625 0
vt 0.375 0
vt 0.625 0
vt 0.375 0
vt 0.625 0
vt 0.375 0.5
vt 0.625 0.5
vt 0.625 0.75
vt 0.375 0.75
vt 0.625 0.75
vt 0.375 0.75
vt 0.625 0.75
vt 0.375 0.75
vt 0.125 0.5
vt 0.375 0.5
vt 0.375 0.75
vt 0.125 0.75
vt 0.375 0.75
vt 0.125 0.75
vt 0.375 0.75
vt 0.125 0.75
vt 0.625 0.5
vt 0.875 0.5
vt 0.875 0.75
vt 0.625 0.75
vt 0.875 0.75
vt 0.625 0.75
vt 0.875 0.75
vt 0.625 0.75
vt 0.375 0.75
vt 0.625 0.75
vt 0.625 1
vt 0.375 1
vn -0.9743193 0 0.2251704
vn -0.9676977 0 0.2521135
vn -0.9676977 0 0.2521135
vn -0.9763579 0 0.2161603
vn -0.9821098 0 0.1883091
vn -0.9821098 0 0.1883091
vn -0.9821098 0 0.188309
vn -0.9821098 0 0.188309
vn 0.9676977 0 -0.2521135
vn 0.9676977 0 -0.2521135
vn 0.976358 0 -0.21616
vn 0.9743195 0 -0.2251701
vn 0.9821098 0 -0.188309
vn 0.9821098 0 -0.1883089
vn 0.9821098 0 -0.1883093
vn 0.9821098 0 -0.1883093
vn 0 1 0
vn 0 1 0
vn 0.03951911 0.9777306 0.2061094
vn 0.03790684 0.9795292 0.1977006
vn 0.1052075 0.8293679 0.548708
vn 0.1052074 0.8293682 0.5487075
vn 0.131316 0.7167256 0.6848799
vn 0.131316 0.7167256 0.6848799
vn 0 -1 0
vn 0 -1 0
vn -0.04310305 -0.9734508 -0.2248013
vn -0.04493632 -0.9711102 -0.2343626
vn -0.1096726 -0.8128918 -0.5719954
vn -0.1096727 -0.8128915 -0.5719959
vn -0.131316 -0.7167257 -0.6848798
vn -0.131316 -0.7167257 -0.6848798
vn 0.1636616 -0.4945903 0.8535779
vn 0.1636616 -0.4945903 0.8535779
vn 0.1636616 -0.4945903 0.8535779
vn 0.1636616 -0.4945903 0.8535779
g Glasses_stick_08_0
f 3/3/3 2/2/2 1/1/1
f 2/2/2 4/4/4 1/1/1
f 5/5/5 1/1/1 4/4/4
f 6/6/6 5/5/5 4/4/4
f 7/7/7 5/5/5 6/6/6
f 8/8/8 7/7/7 6/6/6
f 11/11/11 10/10/10 9/9/9
f 12/12/12 11/11/11 9/9/9
f 13/13/13 11/11/11 12/12/12
f 14/14/14 13/13/13 12/12/12
f 15/15/15 13/13/13 14/14/14
f 16/16/16 15/15/15 14/14/14
f 19/19/19 18/18/18 17/17/17
f 20/20/20 19/19/19 17/17/17
f 21/21/21 19/19/19 20/20/20
f 22/22/22 21/21/21 20/20/20
f 23/23/23 21/21/21 22/22/22
f 24/24/24 23/23/23 22/22/22
f 27/27/27 26/26/26 25/25/25
f 28/28/28 27/27/27 25/25/25
f 29/29/29 27/27/27 28/28/28
f 30/30/30 29/29/29 28/28/28
f 31/31/31 29/29/29 30/30/30
f 32/32/32 31/31/31 30/30/30
f 35/35/35 34/34/34 33/33/33
f 36/36/36 35/35/35 33/33/33
