g Glasses_stick_12.001
v 0.07303938 -0.005712535 0.3748316
v -0.01106332 -0.01386511 0.001370788
v -0.01106332 0.01386511 0.001370788
v 0.07303938 -0.03344276 0.3748316
v 0.07888898 -0.02661243 0.4220432
v 0.07720256 -0.05071345 0.4084322
v 0.08467764 -0.07241705 0.4687629
v 0.08299124 -0.09651807 0.455152
v 0.01106331 0.01386511 -0.001370788
v 0.01106331 -0.01386511 -0.001370788
v 0.09516603 -0.03344276 0.37209
v 0.09516603 -0.005712535 0.37209
v 0.0993292 -0.05071345 0.4056908
v 0.1010156 -0.02661243 0.4193017
v 0.1051179 -0.09651807 0.4524105
v 0.1068043 -0.07241705 0.4660215
v -0.01106332 0.01386511 0.001370788
v 0.01106331 0.01386511 -0.001370788
v 0.09516603 -0.005712535 0.37209
v 0.07303938 -0.005712535 0.3748316
v 0.1010156 -0.02661243 0.4193017
v 0.07888898 -0.02661243 0.4220432
v 0.1068043 -0.07241705 0.4660215
v 0.08467764 -0.07241705 0.4687629
v 0.01106331 -0.01386511 -0.001370788
v -0.01106332 -0.01386511 0.001370788
v 0.07303938 -0.03344276 0.3748316
v 0.09516603 -0.03344276 0.37209
v 0.07720256 -0.05071345 0.4084322
v 0.0993292 -0.05071345 0.4056908
v 0.08299124 -0.09651807 0.455152
v 0.1051179 -0.09651807 0.4524105
v 0.1068043 -0.07241705 0.4660215
v 0.1051179 -0.09651807 0.4524105
v 0.08299124 -0.09651807 0.455152
v 0.08467764 -0.07241705 0.4687629
vt 0.375 0
vt 0.625 0.1798755
vt 0.375 0.1798755
vt 0.625 0
vt 0.375 0
vt 0.625 0
vt 0.375 0
vt 0.625 0
vt 0.375 0.5701245
vt 0.625 0.5701245
vt 0.625 0.75
vt 0.375 0.75
vt 0.625 0.75
vt 0.375 0.75
vt 0.625 0.75
vt 0.375 0.75
vt 0.125 0.5701244
vt 0.375 0.5701245
vt 0.375 0.75
vt 0.125 0.75
vt 0.375 0.75
vt 0.125 0.75
vt 0.375 0.75
vt 0.125 0.75
vt 0.625 0.5701245
vt 0.875 0.5701245
vt 0.875 0.75
vt 0.625 0.75
vt 0.875 0.75
vt 0.625 0.75
vt 0.875 0.75
vt 0.625 0.75
vt 0.375 0.75
vt 0.625 0.75
vt 0.625 1
vt 0.375 1
vn -0.9837336 0 0.1796339
vn -0.9755684 0 0.2196962
vn -0.9755684 0 0.2196962
vn -0.9863897 0 0.1644243
vn -0.9924115 0 0.1229614
vn -0.9924115 0 0.1229614
vn -0.9924115 0 0.1229615
vn -0.9924115 0 0.1229615
vn 0.9755684 0 -0.2196963
vn 0.9755684 0 -0.2196963
vn 0.9863897 0 -0.1644243
vn 0.9837336 0 -0.1796339
vn 0.9924115 0 -0.1229614
vn 0.9924115 0 -0.1229614
vn 0.9924115 0 -0.1229615
vn 0.9924115 0 -0.1229615
vn 0.006310675 0.9986822 0.050932
vn 0.006310675 0.9986822 0.050932
vn 0.02905509 0.9716814 0.2345018
vn 0.02768411 0.9743252 0.2234367
vn 0.06869767 0.8293678 0.5544633
vn 0.06869762 0.8293682 0.5544629
vn 0.08574557 0.7167259 0.6920633
vn 0.08574557 0.7167259 0.6920633
vn -0.006310716 -0.9986822 -0.050932
vn -0.006310716 -0.9986822 -0.050932
vn -0.0310234 -0.9676485 -0.2503875
vn -0.03260722 -0.9641982 -0.2631706
vn -0.07161332 -0.812892 -0.577995
vn -0.07161337 -0.8128916 -0.5779954
vn -0.08574561 -0.7167258 -0.6920633
vn -0.08574561 -0.7167258 -0.6920633
vn 0.1068664 -0.494589 0.862532
vn 0.1068664 -0.494589 0.862532
vn 0.1068664 -0.494589 0.862532
vn 0.1068664 -0.494589 0.862532
g Glasses_stick_12.001_0
f 3/3/3 2/2/2 1/1/1
f 2/2/2 4/4/4 1/1/1
f 5/5/5 1/1/1 4/4/4
f 6/6/6 5/5/5 4/4/4
f 7/7/7 5/5/5 6/6/6
f 8/8/8 7/7/7 6/6/6
f 11/11/11 10/10/10 9/9/9
f 12/12/12 11/11/11 9/9/9
f 13/13/13 11/11/11 12/12/12
f 14/14/14 13/13/13 12/12/12
f 15/15/15 13/13/13 14/14/14
f 16/16/16 15/15/15 14/14/14
f 19/19/19 18/18/18 17/17/17
f 20/20/20 19/19/19 17/17/17
f 21/21/21 19/19/19 20/20/20
f 22/22/22 21/21/21 20/20/20
f 23/23/23 21/21/21 22/22/22
f 24/24/24 23/23/23 22/22/22
f 27/27/27 26/26/26 25/25/25
f 28/28/28 27/27/27 25/25/25
f 29/29/29 27/27/27 28/28/28
f 30/30/30 29/29/29 28/28/28
f 31/31/31 29/29/29 30/30/30
f 32/32/32 31/31/31 30/30/30
f 35/35/35 34/34/34 33/33/33
f 36/36/36 35/35/35 33/33/33
