g monorail_tracks_01_B
v 0.3368378 0.4459639 -3.978186
v 0.3368378 0.3580089 -3.986981
v 0.3368378 -0.3368378 3.981766
v 0.3368378 -0.2488825 3.990561
v 0.3368378 -0.2488825 4.993251
v 0.3368378 -0.3368378 4.984456
v 0.3368378 -0.2488825 3.990561
v 0.3368378 -0.2488825 4.993251
v -0.3404179 -0.2488825 4.993251
v -0.3404179 -0.2488825 3.990561
v 0.3368378 0.4459639 -3.978186
v -0.3404179 0.4459639 -3.978186
v 0.6534767 0.3580089 -3.986981
v 0.6534767 0.2612581 -3.995777
v 0.6534767 -0.4423842 3.97297
v 0.6534767 -0.3368378 3.981766
v 0.6534767 -0.3368378 4.984456
v 0.6534767 -0.4423842 4.97566
v 0.5655215 -0.2840648 3.990561
v 0.4775662 0.4107819 -3.978186
v 0.5655215 0.4107819 -3.978186
v 0.4775662 -0.2840648 3.990561
v 0.4775662 -0.2840648 4.993251
v 0.5655215 -0.2840648 4.993251
v 0.3368378 0.3580089 -3.986981
v 0.4775662 0.3580089 -3.986981
v 0.4775662 -0.3368378 3.981766
v 0.3368378 -0.3368378 3.981766
v 0.3368378 -0.3368378 4.984456
v 0.4775662 -0.3368378 4.984456
v 0.5655215 0.3580089 -3.986981
v 0.6534767 0.3580089 -3.986981
v 0.6534767 -0.3368378 3.981766
v 0.5655215 -0.3368378 3.981766
v 0.5655215 -0.3368378 4.984456
v 0.6534767 -0.3368378 4.984456
v 0.4775662 0.3580089 -3.986981
v 0.4775662 0.4107819 -3.978186
v 0.4775662 -0.2840648 3.990561
v 0.4775662 -0.3368378 3.981766
v 0.4775662 -0.3368378 4.984456
v 0.4775662 -0.2840648 4.993251
v 0.5655215 -0.3368378 3.981766
v 0.5655215 0.4107819 -3.978186
v 0.5655215 0.3580089 -3.986981
v 0.5655215 -0.2840648 3.990561
v 0.5655215 -0.2840648 4.993251
v 0.5655215 -0.3368378 4.984456
v -0.3404179 0.4459639 -3.978186
v -0.3404179 -0.3368378 3.981766
v -0.3404179 0.3580089 -3.986981
v -0.3404179 -0.2488825 3.990561
v -0.3404179 -0.3368378 4.984456
v -0.3404179 -0.2488825 4.993251
v -0.6570568 0.3580089 -3.986981
v -0.6570568 -0.4423842 3.97297
v -0.6570568 0.2612581 -3.995777
v -0.6570568 -0.3368378 3.981766
v -0.6570568 -0.4423842 4.97566
v -0.6570568 -0.3368378 4.984456
v -0.5603061 -0.2840648 3.990561
v -0.5603061 0.4107819 -3.978186
v -0.4723506 0.4107819 -3.978186
v -0.4723506 -0.2840648 3.990561
v -0.5603061 -0.2840648 4.993251
v -0.4723506 -0.2840648 4.993251
v -0.3404179 0.3580089 -3.986981
v -0.4723506 -0.3368378 3.981766
v -0.4723506 0.3580089 -3.986981
v -0.3404179 -0.3368378 3.981766
v -0.4723506 -0.3368378 4.984456
v -0.3404179 -0.3368378 4.984456
v -0.5603061 0.3580089 -3.986981
v -0.6570568 -0.3368378 3.981766
v -0.6570568 0.3580089 -3.986981
v -0.5603061 -0.3368378 3.981766
v -0.6570568 -0.3368378 4.984456
v -0.5603061 -0.3368378 4.984456
v -0.4723506 0.3580089 -3.986981
v -0.4723506 -0.2840648 3.990561
v -0.4723506 0.4107819 -3.978186
v -0.4723506 -0.3368378 3.981766
v -0.4723506 -0.2840648 4.993251
v -0.4723506 -0.3368378 4.984456
v -0.5603061 -0.3368378 3.981766
v -0.5603061 0.3580089 -3.986981
v -0.5603061 0.4107819 -3.978186
v -0.5603061 -0.2840648 3.990561
v -0.5603061 -0.3368378 4.984456
v -0.5603061 -0.2840648 4.993251
v 0.4863617 0.1205297 -4.004572
v 0.6534767 0.2612581 -3.995777
v 0.6534767 0.3580089 -3.986981
v 0.5655215 0.3580089 -3.986981
v 0.5655215 0.4107819 -3.978186
v 0.4775662 0.4107819 -3.978186
v 0.4775662 0.3580089 -3.986981
v -0.4899416 0.1205297 -4.004572
v 0.3368378 0.3580089 -3.986981
v 0.3368378 0.4459639 -3.978186
v -0.3404179 0.3580089 -3.986981
v -0.3404179 0.4459639 -3.978186
v -0.4723506 0.3580089 -3.986981
v -0.4723506 0.4107819 -3.978186
v -0.5603061 0.4107819 -3.978186
v -0.5603061 0.3580089 -3.986981
v -0.6570568 0.2612581 -3.995777
v -0.6570568 0.3580089 -3.986981
v -0.3404179 -0.2488825 4.993251
v 0.3368378 -0.2488825 4.993251
v 0.3368378 -0.3368378 4.984456
v -0.3404179 -0.3368378 4.984456
v -0.4899416 -0.574317 4.966865
v 0.4775662 -0.3368378 4.984456
v -0.4723506 -0.3368378 4.984456
v -0.5603061 -0.2840648 4.993251
v -0.4723506 -0.2840648 4.993251
v -0.5603061 -0.3368378 4.984456
v -0.6570568 -0.4423842 4.97566
v -0.6570568 -0.3368378 4.984456
v 0.4863617 -0.574317 4.966865
v 0.4775662 -0.2840648 4.993251
v 0.5655215 -0.3368378 4.984456
v 0.5655215 -0.2840648 4.993251
v 0.6534767 -0.4423842 4.97566
v 0.6534767 -0.3368378 4.984456
v -0.6570568 -0.4423842 3.97297
v -0.6570568 -0.4423842 4.97566
v -0.4899416 -0.574317 4.966865
v -0.4899416 -0.574317 3.964175
v -0.6570568 0.2612581 -3.995777
v -0.4899416 0.1205297 -4.004572
v 0.4863617 -0.574317 4.966865
v 0.4863617 0.1205297 -4.004572
v 0.4863617 -0.574317 3.964175
v 0.6534767 -0.4423842 4.97566
v 0.6534767 0.2612581 -3.995777
v 0.6534767 -0.4423842 3.97297
vt 0.1090005 0.8306301
vt 0.1090005 0.8306301
vt 0.1090005 0.8306301
vt 0.1090005 0.8306301
vt 0.1090005 0.8306301
vt 0.1090005 0.8306301
vt 0.1090005 0.8306301
vt 0.1090005 0.8306301
vt 0.1090005 0.8306301
vt 0.1090005 0.8306301
vt 0.1090005 0.8306301
vt 0.1090005 0.8306301
vt 0.1090005 0.8306301
vt 0.1090005 0.8306301
vt 0.1090005 0.8306301
vt 0.1090005 0.8306301
vt 0.1090005 0.8306301
vt 0.1090005 0.8306301
vt 0.1090005 0.8306301
vt 0.1090005 0.8306301
vt 0.1090005 0.8306301
vt 0.1090005 0.8306301
vt 0.1090005 0.8306301
vt 0.1090005 0.8306301
vt 0.08990981 0.8573571
vt 0.08990981 0.8573571
vt 0.08990981 0.8573571
vt 0.08990981 0.8573571
vt 0.08990981 0.8573571
vt 0.08990981 0.8573571
vt 0.08990981 0.8573571
vt 0.08990981 0.8573571
vt 0.08990981 0.8573571
vt 0.08990981 0.8573571
vt 0.08990981 0.8573571
vt 0.08990981 0.8573571
vt 0.1090005 0.8306301
vt 0.1090005 0.8306301
vt 0.1090005 0.8306301
vt 0.1090005 0.8306301
vt 0.1090005 0.8306301
vt 0.1090005 0.8306301
vt 0.1090005 0.8306301
vt 0.1090005 0.8306301
vt 0.1090005 0.8306301
vt 0.1090005 0.8306301
vt 0.1090005 0.8306301
vt 0.1090005 0.8306301
vt 0.1090005 0.8306301
vt 0.1090005 0.8306301
vt 0.1090005 0.8306301
vt 0.1090005 0.8306301
vt 0.1090005 0.8306301
vt 0.1090005 0.8306301
vt 0.1090005 0.8306301
vt 0.1090005 0.8306301
vt 0.1090005 0.8306301
vt 0.1090005 0.8306301
vt 0.1090005 0.8306301
vt 0.1090005 0.8306301
vt 0.1090005 0.8306301
vt 0.1090005 0.8306301
vt 0.1090005 0.8306301
vt 0.1090005 0.8306301
vt 0.1090005 0.8306301
vt 0.1090005 0.8306301
vt 0.08990981 0.8573571
vt 0.08990981 0.8573571
vt 0.08990981 0.8573571
vt 0.08990981 0.8573571
vt 0.08990981 0.8573571
vt 0.08990981 0.8573571
vt 0.08990981 0.8573571
vt 0.08990981 0.8573571
vt 0.08990981 0.8573571
vt 0.08990981 0.8573571
vt 0.08990981 0.8573571
vt 0.08990981 0.8573571
vt 0.1090005 0.8306301
vt 0.1090005 0.8306301
vt 0.1090005 0.8306301
vt 0.1090005 0.8306301
vt 0.1090005 0.8306301
vt 0.1090005 0.8306301
vt 0.1090005 0.8306301
vt 0.1090005 0.8306301
vt 0.1090005 0.8306301
vt 0.1090005 0.8306301
vt 0.1090005 0.8306301
vt 0.1090005 0.8306301
vt 0.1090005 0.8306301
vt 0.1090005 0.8306301
vt 0.1090005 0.8306301
vt 0.1090005 0.8306301
vt 0.1090005 0.8306301
vt 0.1090005 0.8306301
vt 0.1090005 0.8306301
vt 0.1090005 0.8306301
vt 0.1090005 0.8306301
vt 0.1090005 0.8306301
vt 0.1090005 0.8306301
vt 0.1090005 0.8306301
vt 0.1090005 0.8306301
vt 0.1090005 0.8306301
vt 0.1090005 0.8306301
vt 0.1090005 0.8306301
vt 0.1090005 0.8306301
vt 0.1090005 0.8306301
vt 0.1090005 0.8306301
vt 0.1090005 0.8306301
vt 0.1090005 0.8306301
vt 0.1090005 0.8306301
vt 0.1090005 0.8306301
vt 0.1090005 0.8306301
vt 0.1090005 0.8306301
vt 0.1090005 0.8306301
vt 0.1090005 0.8306301
vt 0.1090005 0.8306301
vt 0.1090005 0.8306301
vt 0.1090005 0.8306301
vt 0.1090005 0.8306301
vt 0.1090005 0.8306301
vt 0.1090005 0.8306301
vt 0.1090005 0.8306301
vt 0.1090005 0.8306301
vt 0.1090005 0.8306301
vt 0.1090005 0.8306301
vt 0.1090005 0.8306301
vt 0.1090005 0.8306301
vt 0.1090005 0.8306301
vt 0.1090005 0.8306301
vt 0.1090005 0.8306301
vt 0.1090005 0.8306301
vt 0.1090005 0.8306301
vt 0.1090005 0.8306301
vt 0.1090005 0.8306301
vt 0.1090005 0.8306301
vt 0.1090005 0.8306301
vn 0.999874 0.01587105 -0.0003439156
vn 0.999874 0.01587105 -0.0003439156
vn 0.999874 0.01587105 -0.0003439156
vn 0.999874 0.01587105 -0.0003439156
vn 0.999874 0.01587105 -0.0003439156
vn 0.999874 0.01587105 -0.0003439156
vn -0.01587105 0.999874 -0.000345267
vn -0.01587105 0.999874 -0.000345267
vn -0.01587105 0.999874 -0.000345267
vn -0.01587105 0.999874 -0.000345267
vn -0.01587105 0.999874 -0.000345267
vn -0.01587105 0.999874 -0.000345267
vn 0.999874 0.01587105 -0.0003439156
vn 0.8094218 -0.5872276 -0.000422864
vn 0.8094218 -0.5872276 -0.000422864
vn 0.999874 0.01587105 -0.0003439156
vn 0.999874 0.01587105 -0.0003439156
vn 0.8094218 -0.5554855 -0.1904527
vn -0.01587105 0.999874 -0.000345267
vn -0.01587105 0.999874 -0.000345267
vn -0.01587105 0.999874 -0.000345267
vn -0.01587105 0.999874 -0.000345267
vn -0.01587105 0.999874 -0.000345267
vn -0.01587105 0.999874 -0.000345267
vn -0.01587105 0.999874 -0.000345267
vn -0.01587105 0.999874 -0.000345267
vn -0.01587105 0.999874 -0.000345267
vn -0.01587105 0.999874 -0.000345267
vn -0.01587105 0.999874 -0.000345267
vn -0.01587105 0.999874 -0.000345267
vn -0.01587105 0.999874 -0.000345267
vn -0.01587105 0.999874 -0.000345267
vn -0.01587105 0.999874 -0.000345267
vn -0.01587105 0.999874 -0.000345267
vn -0.01587105 0.999874 -0.000345267
vn -0.01587105 0.999874 -0.000345267
vn -0.999874 0.01587105 -0.0003439156
vn -0.999874 0.01587105 -0.0003439156
vn -0.999874 0.01587105 -0.0003439156
vn -0.999874 0.01587105 -0.0003439156
vn -0.999874 0.01587105 -0.0003439156
vn -0.999874 0.01587105 -0.0003439156
vn 0.999874 0.01587105 -0.0003439156
vn 0.999874 0.01587105 -0.0003439156
vn 0.999874 0.01587105 -0.0003439156
vn 0.999874 0.01587105 -0.0003439156
vn 0.999874 0.01587105 -0.0003439156
vn 0.999874 0.01587105 -0.0003439156
vn -0.999874 0.01587105 -0.0003439156
vn -0.999874 0.01587105 -0.0003439156
vn -0.999874 0.01587105 -0.0003439156
vn -0.999874 0.01587105 -0.0003439156
vn -0.999874 0.01587105 -0.0003439156
vn -0.999874 0.01587105 -0.0003439156
vn -0.999874 0.01587105 -0.0003439156
vn -0.8094218 -0.5872276 -0.000422864
vn -0.8094218 -0.5872276 -0.000422864
vn -0.999874 0.01587105 -0.0003439156
vn -0.8094218 -0.5554855 -0.1904527
vn -0.999874 0.01587105 -0.0003439156
vn -0.01587105 0.999874 -0.000345267
vn -0.01587105 0.999874 -0.000345267
vn -0.01587105 0.999874 -0.000345267
vn -0.01587105 0.999874 -0.000345267
vn -0.01587105 0.999874 -0.000345267
vn -0.01587105 0.999874 -0.000345267
vn -0.01587105 0.999874 -0.000345267
vn -0.01587105 0.999874 -0.000345267
vn -0.01587105 0.999874 -0.000345267
vn -0.01587105 0.999874 -0.000345267
vn -0.01587105 0.999874 -0.000345267
vn -0.01587105 0.999874 -0.000345267
vn -0.01587105 0.999874 -0.000345267
vn -0.01587105 0.999874 -0.000345267
vn -0.01587105 0.999874 -0.000345267
vn -0.01587105 0.999874 -0.000345267
vn -0.01587105 0.999874 -0.000345267
vn -0.01587105 0.999874 -0.000345267
vn 0.999874 0.01587105 -0.0003439156
vn 0.999874 0.01587105 -0.0003439156
vn 0.999874 0.01587105 -0.0003439156
vn 0.999874 0.01587105 -0.0003439156
vn 0.999874 0.01587105 -0.0003439156
vn 0.999874 0.01587105 -0.0003439156
vn -0.999874 0.01587105 -0.0003439156
vn -0.999874 0.01587105 -0.0003439156
vn -0.999874 0.01587105 -0.0003439156
vn -0.999874 0.01587105 -0.0003439156
vn -0.999874 0.01587105 -0.0003439156
vn -0.999874 0.01587105 -0.0003439156
vn -0.01587105 0.07935512 -0.9967201
vn -0.01587105 0.07935512 -0.9967201
vn -0.01587105 0.07935512 -0.9967201
vn 0.01587099 0.07935512 -0.9967201
vn 0.01587099 0.07935512 -0.9967201
vn -0.01587105 0.07935512 -0.9967201
vn -0.01587105 0.07935512 -0.9967201
vn 0.01587099 0.07935512 -0.9967201
vn -0.01587105 0.07935512 -0.9967201
vn -0.01587105 0.07935512 -0.9967201
vn -0.01587105 0.07935512 -0.9967201
vn -0.01587105 0.07935512 -0.9967201
vn 0.01587099 0.07935512 -0.9967201
vn -0.01587105 0.07935512 -0.9967201
vn -0.01587105 0.07935512 -0.9967201
vn -0.01587105 0.07935512 -0.9967201
vn 0.01587099 0.07935512 -0.9967201
vn -0.01587105 0.07935512 -0.9967201
vn -0.01587105 -0.07935506 0.9967201
vn -0.01587105 -0.07935506 0.9967201
vn -0.01587105 -0.07935506 0.9967201
vn -0.01587105 -0.07935506 0.9967201
vn -0.01587105 -0.07935506 0.9967201
vn -0.01587105 -0.07935506 0.9967201
vn 0.01587099 -0.07935506 0.9967201
vn 0.01587099 -0.07935506 0.9967201
vn -0.01587105 -0.07935506 0.9967201
vn -0.01587105 -0.07935506 0.9967201
vn 0.01587099 -0.07935506 0.9967201
vn -0.01587105 -0.07935506 0.9967201
vn -0.01587105 -0.07935506 0.9967201
vn 0.01587099 -0.07935506 0.9967201
vn 0.01587099 -0.07935506 0.9967201
vn -0.01587105 -0.07935506 0.9967201
vn -0.01587105 -0.07935506 0.9967201
vn -0.01587105 -0.07935506 0.9967201
vn -0.8094218 -0.5872276 -0.000422864
vn -0.8094218 -0.5554855 -0.1904527
vn -0.1104315 -0.9938838 0
vn -0.1104315 -0.9938838 0
vn -0.8094218 -0.5872276 -0.000422864
vn -0.1104315 -0.9938838 0
vn 0.1104315 -0.9938838 0
vn 0.1104315 -0.9938838 0
vn 0.1104315 -0.9938838 0
vn 0.8094218 -0.5554855 -0.1904527
vn 0.8094218 -0.5872276 -0.000422864
vn 0.8094218 -0.5872276 -0.000422864
g monorail_tracks_01_B_0
f 3/3/3 2/2/2 1/1/1
f 4/4/4 3/3/3 1/1/1
f 4/4/4 5/5/5 3/3/3
f 5/5/5 6/6/6 3/3/3
f 9/9/9 8/8/8 7/7/7
f 10/10/10 9/9/9 7/7/7
f 7/7/7 11/11/11 10/10/10
f 11/11/11 12/12/12 10/10/10
f 15/15/15 14/14/14 13/13/13
f 16/16/16 15/15/15 13/13/13
f 16/16/16 17/17/17 15/15/15
f 17/17/17 18/18/18 15/15/15
f 21/21/21 20/20/20 19/19/19
f 20/20/20 22/22/22 19/19/19
f 22/22/22 23/23/23 19/19/19
f 23/23/23 24/24/24 19/19/19
f 27/27/27 26/26/26 25/25/25
f 28/28/28 27/27/27 25/25/25
f 28/28/28 29/29/29 27/27/27
f 29/29/29 30/30/30 27/27/27
f 33/33/33 32/32/32 31/31/31
f 34/34/34 33/33/33 31/31/31
f 34/34/34 35/35/35 33/33/33
f 35/35/35 36/36/36 33/33/33
f 39/39/39 38/38/38 37/37/37
f 40/40/40 39/39/39 37/37/37
f 40/40/40 41/41/41 39/39/39
f 41/41/41 42/42/42 39/39/39
f 45/45/45 44/44/44 43/43/43
f 44/44/44 46/46/46 43/43/43
f 46/46/46 47/47/47 43/43/43
f 47/47/47 48/48/48 43/43/43
f 51/51/51 50/50/50 49/49/49
f 50/50/50 52/52/52 49/49/49
f 50/50/50 53/53/53 52/52/52
f 53/53/53 54/54/54 52/52/52
f 57/57/57 56/56/56 55/55/55
f 56/56/56 58/58/58 55/55/55
f 56/56/56 59/59/59 58/58/58
f 59/59/59 60/60/60 58/58/58
f 63/63/63 62/62/62 61/61/61
f 64/64/64 63/63/63 61/61/61
f 61/61/61 65/65/65 64/64/64
f 65/65/65 66/66/66 64/64/64
f 69/69/69 68/68/68 67/67/67
f 68/68/68 70/70/70 67/67/67
f 68/68/68 71/71/71 70/70/70
f 71/71/71 72/72/72 70/70/70
f 75/75/75 74/74/74 73/73/73
f 74/74/74 76/76/76 73/73/73
f 74/74/74 77/77/77 76/76/76
f 77/77/77 78/78/78 76/76/76
f 81/81/81 80/80/80 79/79/79
f 80/80/80 82/82/82 79/79/79
f 80/80/80 83/83/83 82/82/82
f 83/83/83 84/84/84 82/82/82
f 87/87/87 86/86/86 85/85/85
f 88/88/88 87/87/87 85/85/85
f 85/85/85 89/89/89 88/88/88
f 89/89/89 90/90/90 88/88/88
f 93/93/93 92/92/92 91/91/91
f 91/91/91 94/94/94 93/93/93
f 91/91/91 95/95/95 94/94/94
f 91/91/91 96/96/96 95/95/95
f 91/91/91 97/97/97 96/96/96
f 97/97/97 91/91/91 98/98/98
f 98/98/98 99/99/99 97/97/97
f 98/98/98 100/100/100 99/99/99
f 98/98/98 101/101/101 100/100/100
f 100/100/100 101/101/101 102/102/102
f 98/98/98 103/103/103 101/101/101
f 98/98/98 104/104/104 103/103/103
f 98/98/98 105/105/105 104/104/104
f 98/98/98 106/106/106 105/105/105
f 106/106/106 98/98/98 107/107/107
f 107/107/107 108/108/108 106/106/106
f 111/111/111 110/110/110 109/109/109
f 111/111/111 109/109/109 112/112/112
f 111/111/111 112/112/112 113/113/113
f 114/114/114 111/111/111 113/113/113
f 112/112/112 115/115/115 113/113/113
f 116/116/116 113/113/113 115/115/115
f 115/115/115 117/117/117 116/116/116
f 116/116/116 118/118/118 113/113/113
f 118/118/118 119/119/119 113/113/113
f 118/118/118 120/120/120 119/119/119
f 114/114/114 113/113/113 121/121/121
f 122/122/122 114/114/114 121/121/121
f 122/122/122 121/121/121 123/123/123
f 123/123/123 124/124/124 122/122/122
f 123/123/123 121/121/121 125/125/125
f 125/125/125 126/126/126 123/123/123
f 129/129/129 128/128/128 127/127/127
f 130/130/130 129/129/129 127/127/127
f 130/130/130 127/127/127 131/131/131
f 132/132/132 130/130/130 131/131/131
f 133/133/133 129/129/129 130/130/130
f 130/130/130 132/132/132 134/134/134
f 135/135/135 133/133/133 130/130/130
f 135/135/135 130/130/130 134/134/134
f 136/136/136 133/133/133 135/135/135
f 135/135/135 134/134/134 137/137/137
f 138/138/138 136/136/136 135/135/135
f 138/138/138 135/135/135 137/137/137
