g monorail_tracks_01_A
v 0.3379266 0.4438744 -3.9733
v 0.3379266 0.3578763 -3.981118
v 0.3379266 -0.3379266 3.985432
v 0.3379266 -0.2519286 3.99325
v 0.6584649 0.3578763 -3.981118
v 0.6584649 0.2562418 -3.988936
v 0.6584649 -0.4395607 3.977614
v 0.6584649 -0.3379266 3.985432
v 0.5646489 -0.2832005 3.99325
v 0.4786508 -0.2832005 3.99325
v 0.4786508 0.4126019 -3.981118
v 0.5646489 0.4126019 -3.981118
v 0.3379266 0.3578763 -3.981118
v 0.4786508 0.3578763 -3.981118
v 0.4786508 -0.3379266 3.985432
v 0.3379266 -0.3379266 3.985432
v 0.6584649 0.2562418 -3.988936
v 0.4864688 -0.5724669 3.961978
v 0.6584649 -0.4395607 3.977614
v 0.4864688 0.1233358 -4.004572
v -0.4907823 -0.5724669 3.961978
v -0.4907823 0.1233358 -4.004572
v -0.6549602 0.2562418 -3.988936
v -0.6549602 -0.4395607 3.977614
v 0.5646489 0.3578763 -3.981118
v 0.6584649 0.3578763 -3.981118
v 0.6584649 -0.3379266 3.985432
v 0.5646489 -0.3379266 3.985432
v 0.4786508 0.3578763 -3.981118
v 0.4786508 0.4126019 -3.981118
v 0.4786508 -0.2832005 3.99325
v 0.4786508 -0.3379266 3.985432
v 0.5646489 -0.3379266 3.985432
v 0.5646489 -0.2832005 3.99325
v 0.5646489 0.4126019 -3.981118
v 0.5646489 0.3578763 -3.981118
v -0.3344221 0.4438744 -3.9733
v -0.3344221 -0.2519286 3.99325
v -0.3344221 -0.3379266 3.985432
v -0.3344221 0.3578763 -3.981118
v -0.6549602 0.3578763 -3.981118
v -0.6549602 -0.3379266 3.985432
v -0.6549602 -0.4395607 3.977614
v -0.6549602 0.2562418 -3.988936
v -0.5611444 -0.2832005 3.99325
v -0.5611444 0.4126019 -3.981118
v -0.4751463 0.4126019 -3.981118
v -0.4751463 -0.2832005 3.99325
v -0.3344221 0.3578763 -3.981118
v -0.3344221 -0.3379266 3.985432
v -0.4751463 -0.3379266 3.985432
v -0.4751463 0.3578763 -3.981118
v -0.5611444 0.3578763 -3.981118
v -0.5611444 -0.3379266 3.985432
v -0.6549602 -0.3379266 3.985432
v -0.6549602 0.3578763 -3.981118
v -0.4751463 0.3578763 -3.981118
v -0.4751463 -0.3379266 3.985432
v -0.4751463 -0.2832005 3.99325
v -0.4751463 0.4126019 -3.981118
v -0.5611444 -0.3379266 3.985432
v -0.5611444 0.3578763 -3.981118
v -0.5611444 0.4126019 -3.981118
v -0.5611444 -0.2832005 3.99325
v 0.4864688 0.1233358 -4.004572
v 0.6584649 0.2562418 -3.988936
v 0.6584649 0.3578763 -3.981118
v 0.5646489 0.3578763 -3.981118
v 0.5646489 0.4126019 -3.981118
v 0.4786508 0.4126019 -3.981118
v 0.4786508 0.3578763 -3.981118
v -0.4907823 0.1233358 -4.004572
v 0.3379266 0.3578763 -3.981118
v 0.3379266 0.4438744 -3.9733
v -0.3344221 0.3578763 -3.981118
v -0.3344221 0.4438744 -3.9733
v -0.4751463 0.3578763 -3.981118
v -0.4751463 0.4126019 -3.981118
v -0.5611444 0.4126019 -3.981118
v -0.5611444 0.3578763 -3.981118
v -0.6549602 0.2562418 -3.988936
v -0.6549602 0.3578763 -3.981118
v -0.3344221 -0.2519286 3.99325
v 0.3379266 -0.2519286 3.99325
v 0.3379266 -0.3379266 3.985432
v -0.3344221 -0.3379266 3.985432
v -0.4907823 -0.5724669 3.961978
v 0.4786508 -0.3379266 3.985432
v -0.4751463 -0.3379266 3.985432
v -0.5611444 -0.2832005 3.99325
v -0.4751463 -0.2832005 3.99325
v -0.5611444 -0.3379266 3.985432
v -0.6549602 -0.4395607 3.977614
v -0.6549602 -0.3379266 3.985432
v 0.4864688 -0.5724669 3.961978
v 0.4786508 -0.2832005 3.99325
v 0.5646489 -0.3379266 3.985432
v 0.5646489 -0.2832005 3.99325
v 0.6584649 -0.4395607 3.977614
v 0.6584649 -0.3379266 3.985432
v -0.3344221 -0.2519286 3.99325
v -0.3344221 0.4438744 -3.9733
v 0.3379266 0.4438744 -3.9733
v 0.3379266 -0.2519286 3.99325
vt 0.1134646 0.83016
vt 0.1134646 0.83016
vt 0.1134646 0.83016
vt 0.1134646 0.83016
vt 0.1134646 0.83016
vt 0.1134646 0.83016
vt 0.1134646 0.83016
vt 0.1134646 0.83016
vt 0.1134646 0.83016
vt 0.1134646 0.83016
vt 0.1134646 0.83016
vt 0.1134646 0.83016
vt 0.0905913 0.8530332
vt 0.0905913 0.8530332
vt 0.0905913 0.8530332
vt 0.0905913 0.8530332
vt 0.1134646 0.83016
vt 0.1134646 0.83016
vt 0.1134646 0.83016
vt 0.1134646 0.83016
vt 0.1134646 0.83016
vt 0.1134646 0.83016
vt 0.1134646 0.83016
vt 0.1134646 0.83016
vt 0.0905913 0.8530332
vt 0.0905913 0.8530332
vt 0.0905913 0.8530332
vt 0.0905913 0.8530332
vt 0.1134646 0.83016
vt 0.1134646 0.83016
vt 0.1134646 0.83016
vt 0.1134646 0.83016
vt 0.1134646 0.83016
vt 0.1134646 0.83016
vt 0.1134646 0.83016
vt 0.1134646 0.83016
vt 0.1134646 0.83016
vt 0.1134646 0.83016
vt 0.1134646 0.83016
vt 0.1134646 0.83016
vt 0.1134646 0.83016
vt 0.1134646 0.83016
vt 0.1134646 0.83016
vt 0.1134646 0.83016
vt 0.1134646 0.83016
vt 0.1134646 0.83016
vt 0.1134646 0.83016
vt 0.1134646 0.83016
vt 0.0905913 0.8530332
vt 0.0905913 0.8530332
vt 0.0905913 0.8530332
vt 0.0905913 0.8530332
vt 0.0905913 0.8530332
vt 0.0905913 0.8530332
vt 0.0905913 0.8530332
vt 0.0905913 0.8530332
vt 0.1134646 0.83016
vt 0.1134646 0.83016
vt 0.1134646 0.83016
vt 0.1134646 0.83016
vt 0.1134646 0.83016
vt 0.1134646 0.83016
vt 0.1134646 0.83016
vt 0.1134646 0.83016
vt 0.1134646 0.83016
vt 0.1134646 0.83016
vt 0.1134646 0.83016
vt 0.1134646 0.83016
vt 0.1134646 0.83016
vt 0.1134646 0.83016
vt 0.1134646 0.83016
vt 0.1134646 0.83016
vt 0.1134646 0.83016
vt 0.1134646 0.83016
vt 0.1134646 0.83016
vt 0.1134646 0.83016
vt 0.1134646 0.83016
vt 0.1134646 0.83016
vt 0.1134646 0.83016
vt 0.1134646 0.83016
vt 0.1134646 0.83016
vt 0.1134646 0.83016
vt 0.1134646 0.83016
vt 0.1134646 0.83016
vt 0.1134646 0.83016
vt 0.1134646 0.83016
vt 0.1134646 0.83016
vt 0.1134646 0.83016
vt 0.1134646 0.83016
vt 0.1134646 0.83016
vt 0.1134646 0.83016
vt 0.1134646 0.83016
vt 0.1134646 0.83016
vt 0.1134646 0.83016
vt 0.1134646 0.83016
vt 0.1134646 0.83016
vt 0.1134646 0.83016
vt 0.1134646 0.83016
vt 0.1134646 0.83016
vt 0.1134646 0.83016
vt 0.1134646 0.83016
vt 0.1134646 0.83016
vt 0.1134646 0.83016
vt 0.1134646 0.83016
vn 0.999874 0.01587105 -0.0003439156
vn 0.999874 0.01587105 -0.0003439156
vn 0.999874 0.01587105 -0.0003439156
vn 0.999874 0.01587105 -0.0003439156
vn 0.999874 0.01587105 -0.0003439156
vn 0.8094218 -0.5872276 -0.000422864
vn 0.8094218 -0.5872276 -0.000422864
vn 0.999874 0.01587105 -0.0003439156
vn -0.01587105 0.999874 -0.000345267
vn -0.01587105 0.999874 -0.000345267
vn -0.01587105 0.999874 -0.000345267
vn -0.01587105 0.999874 -0.000345267
vn -0.01587105 0.999874 -0.000345267
vn -0.01587105 0.999874 -0.000345267
vn -0.01587105 0.999874 -0.000345267
vn -0.01587105 0.999874 -0.000345267
vn 0.8094218 -0.5872276 -0.000422864
vn 0.1104315 -0.9938838 0
vn 0.8094218 -0.5872276 -0.000422864
vn 0.1104315 -0.9938838 0
vn -0.1104315 -0.9938838 0
vn -0.1104315 -0.9938838 0
vn -0.8094218 -0.5872276 -0.000422864
vn -0.8094218 -0.5872276 -0.000422864
vn -0.01587105 0.999874 -0.000345267
vn -0.01587105 0.999874 -0.000345267
vn -0.01587105 0.999874 -0.000345267
vn -0.01587105 0.999874 -0.000345267
vn -0.999874 0.01587105 -0.0003439156
vn -0.999874 0.01587105 -0.0003439156
vn -0.999874 0.01587105 -0.0003439156
vn -0.999874 0.01587105 -0.0003439156
vn 0.999874 0.01587105 -0.0003439156
vn 0.999874 0.01587105 -0.0003439156
vn 0.999874 0.01587105 -0.0003439156
vn 0.999874 0.01587105 -0.0003439156
vn -0.999874 0.01587105 -0.0003439156
vn -0.999874 0.01587105 -0.0003439156
vn -0.999874 0.01587105 -0.0003439156
vn -0.999874 0.01587105 -0.0003439156
vn -0.999874 0.01587105 -0.0003439156
vn -0.999874 0.01587105 -0.0003439156
vn -0.8094218 -0.5872276 -0.000422864
vn -0.8094218 -0.5872276 -0.000422864
vn -0.01587105 0.999874 -0.000345267
vn -0.01587105 0.999874 -0.000345267
vn -0.01587105 0.999874 -0.000345267
vn -0.01587105 0.999874 -0.000345267
vn -0.01587105 0.999874 -0.000345267
vn -0.01587105 0.999874 -0.000345267
vn -0.01587105 0.999874 -0.000345267
vn -0.01587105 0.999874 -0.000345267
vn -0.01587105 0.999874 -0.000345267
vn -0.01587105 0.999874 -0.000345267
vn -0.01587105 0.999874 -0.000345267
vn -0.01587105 0.999874 -0.000345267
vn 0.999874 0.01587105 -0.0003439156
vn 0.999874 0.01587105 -0.0003439156
vn 0.999874 0.01587105 -0.0003439156
vn 0.999874 0.01587105 -0.0003439156
vn -0.999874 0.01587105 -0.0003439156
vn -0.999874 0.01587105 -0.0003439156
vn -0.999874 0.01587105 -0.0003439156
vn -0.999874 0.01587105 -0.0003439156
vn -0.01587105 0.07935512 -0.9967201
vn -0.01587105 0.07935512 -0.9967201
vn -0.01587105 0.07935512 -0.9967201
vn 0.01587099 0.07935512 -0.9967201
vn 0.01587099 0.07935512 -0.9967201
vn -0.01587105 0.07935512 -0.9967201
vn -0.01587105 0.07935512 -0.9967201
vn 0.01587099 0.07935512 -0.9967201
vn -0.01587105 0.07935512 -0.9967201
vn -0.01587105 0.07935512 -0.9967201
vn -0.01587105 0.07935512 -0.9967201
vn -0.01587105 0.07935512 -0.9967201
vn 0.01587099 0.07935512 -0.9967201
vn -0.01587105 0.07935512 -0.9967201
vn -0.01587105 0.07935512 -0.9967201
vn -0.01587105 0.07935512 -0.9967201
vn 0.01587099 0.07935512 -0.9967201
vn -0.01587105 0.07935512 -0.9967201
vn -0.01587105 -0.07935506 0.9967201
vn -0.01587105 -0.07935506 0.9967201
vn -0.01587105 -0.07935506 0.9967201
vn -0.01587105 -0.07935506 0.9967201
vn -0.01587105 -0.07935506 0.9967201
vn 0.01587099 -0.07935506 0.9967201
vn -0.01587105 -0.07935506 0.9967201
vn -0.01587105 -0.07935506 0.9967201
vn -0.01587105 -0.07935506 0.9967201
vn 0.01587099 -0.07935506 0.9967201
vn -0.01587105 -0.07935506 0.9967201
vn -0.01587105 -0.07935506 0.9967201
vn -0.01587105 -0.07935506 0.9967201
vn -0.01587105 -0.07935506 0.9967201
vn -0.01587105 -0.07935506 0.9967201
vn -0.01587105 -0.07935506 0.9967201
vn 0.01587099 -0.07935506 0.9967201
vn -0.01587105 -0.07935506 0.9967201
vn -0.01587105 0.999874 -0.000345267
vn -0.01587105 0.999874 -0.000345267
vn -0.01587105 0.999874 -0.000345267
vn -0.01587105 0.999874 -0.000345267
g monorail_tracks_01_A_0
f 3/3/3 2/2/2 1/1/1
f 4/4/4 3/3/3 1/1/1
f 7/7/7 6/6/6 5/5/5
f 8/8/8 7/7/7 5/5/5
f 11/11/11 10/10/10 9/9/9
f 12/12/12 11/11/11 9/9/9
f 15/15/15 14/14/14 13/13/13
f 16/16/16 15/15/15 13/13/13
f 19/19/19 18/18/18 17/17/17
f 18/18/18 20/20/20 17/17/17
f 18/18/18 21/21/21 20/20/20
f 21/21/21 22/22/22 20/20/20
f 22/22/22 21/21/21 23/23/23
f 21/21/21 24/24/24 23/23/23
f 27/27/27 26/26/26 25/25/25
f 28/28/28 27/27/27 25/25/25
f 31/31/31 30/30/30 29/29/29
f 32/32/32 31/31/31 29/29/29
f 35/35/35 34/34/34 33/33/33
f 36/36/36 35/35/35 33/33/33
f 39/39/39 38/38/38 37/37/37
f 40/40/40 39/39/39 37/37/37
f 43/43/43 42/42/42 41/41/41
f 44/44/44 43/43/43 41/41/41
f 47/47/47 46/46/46 45/45/45
f 48/48/48 47/47/47 45/45/45
f 51/51/51 50/50/50 49/49/49
f 52/52/52 51/51/51 49/49/49
f 55/55/55 54/54/54 53/53/53
f 56/56/56 55/55/55 53/53/53
f 59/59/59 58/58/58 57/57/57
f 60/60/60 59/59/59 57/57/57
f 63/63/63 62/62/62 61/61/61
f 64/64/64 63/63/63 61/61/61
f 67/67/67 66/66/66 65/65/65
f 65/65/65 68/68/68 67/67/67
f 65/65/65 69/69/69 68/68/68
f 65/65/65 70/70/70 69/69/69
f 65/65/65 71/71/71 70/70/70
f 71/71/71 65/65/65 72/72/72
f 72/72/72 73/73/73 71/71/71
f 72/72/72 74/74/74 73/73/73
f 72/72/72 75/75/75 74/74/74
f 74/74/74 75/75/75 76/76/76
f 72/72/72 77/77/77 75/75/75
f 72/72/72 78/78/78 77/77/77
f 72/72/72 79/79/79 78/78/78
f 72/72/72 80/80/80 79/79/79
f 80/80/80 72/72/72 81/81/81
f 81/81/81 82/82/82 80/80/80
f 85/85/85 84/84/84 83/83/83
f 85/85/85 83/83/83 86/86/86
f 85/85/85 86/86/86 87/87/87
f 88/88/88 85/85/85 87/87/87
f 86/86/86 89/89/89 87/87/87
f 90/90/90 87/87/87 89/89/89
f 89/89/89 91/91/91 90/90/90
f 90/90/90 92/92/92 87/87/87
f 92/92/92 93/93/93 87/87/87
f 92/92/92 94/94/94 93/93/93
f 88/88/88 87/87/87 95/95/95
f 96/96/96 88/88/88 95/95/95
f 96/96/96 95/95/95 97/97/97
f 97/97/97 98/98/98 96/96/96
f 97/97/97 95/95/95 99/99/99
f 99/99/99 100/100/100 97/97/97
f 103/103/103 102/102/102 101/101/101
f 104/104/104 103/103/103 101/101/101
