g pCylinder2
v 0.03987983 1.183671 -0.06400618
v 0.01403017 1.183671 -0.07951598
v -0.01526612 1.183671 -0.07951598
v -0.03939247 1.183671 -0.06400618
v 0.05711294 1.183671 -0.03815652
v -0.05662559 1.183671 -0.03815652
v 0.06055956 1.183671 -0.01058354
v -0.06179552 1.183671 -0.01058354
v 0.05538963 1.183671 0.01871274
v -0.05662559 1.183671 0.01871274
v 0.03987983 1.183671 0.04456241
v -0.04111579 1.183671 0.04456241
v 0.01403017 1.183671 0.06007221
v -0.01526612 1.183671 0.06007221
v -0.01526612 1.223307 0.06868877
v 0.01403017 1.223307 0.06868877
v 0.03987983 1.183671 0.04456241
v 0.01920009 1.328429 0.08419856
v -0.01871274 1.328429 0.08419856
v 0.04160314 1.223307 0.05317897
v 0.05538963 1.183671 0.01871274
v 0.02264672 1.473187 0.09798504
v -0.02388267 1.473187 0.09798504
v 0.05538963 1.328429 0.06524214
v 0.06055956 1.22503 0.02560599
v 0.06055956 1.183671 -0.01058354
v 0.02781665 1.617945 0.1100482
v -0.0273293 1.617945 0.1100482
v 0.06400618 1.473187 0.07730532
v 0.07951598 1.328429 0.03249924
v 0.0674528 1.22503 -0.01058354
v 0.05711294 1.183671 -0.03815652
v 0.02781665 1.624839 0.1100482
v -0.0273293 1.624839 0.1100482
v -0.02560599 1.633455 0.1014317
v 0.07606936 1.617945 0.08592187
v 0.09330247 1.473187 0.03766917
v 0.08813254 1.328429 -0.01058354
v 0.06055956 1.22503 -0.04504976
v 0.03987983 1.183671 -0.06400618
v 0.07606936 1.624839 0.08592187
v 0.1105356 1.617945 0.04283909
v 0.1036423 1.473187 -0.01058354
v 0.07951598 1.328429 -0.051943
v 0.04160314 1.223307 -0.07262274
v 0.01403017 1.183671 -0.07951598
v 0.02609334 1.633455 0.1014317
v 0.07089943 1.633455 0.07902862
v -0.07213539 1.633455 0.07902862
v 0.1036423 1.633455 0.03939247
v -0.103155 1.633455 0.03939247
v 0.1139822 1.633455 -0.01058354
v -0.1134948 1.633455 -0.01058354
v 0.1036423 1.633455 -0.05883625
v -0.103155 1.633455 -0.05883625
v 0.07089943 1.633455 -0.1001957
v -0.07213539 1.633455 -0.1001957
v 0.02609334 1.633455 -0.1208754
v -0.02560599 1.633455 -0.1208754
v 0.07089943 1.633455 0.07902862
v 0.1105356 1.624839 0.04283909
v 0.1036423 1.633455 0.03939247
v 0.1225988 1.624839 -0.01058354
v 0.1139822 1.633455 -0.01058354
v 0.1225988 1.617945 -0.01058354
v 0.1105356 1.624839 -0.06400618
v 0.1036423 1.633455 -0.05883625
v 0.1105356 1.617945 -0.06400618
v 0.07606936 1.624839 -0.1053656
v 0.07089943 1.633455 -0.1001957
v 0.09330247 1.473187 -0.05883625
v 0.02781665 1.624839 -0.129492
v 0.02609334 1.633455 -0.1208754
v 0.07606936 1.617945 -0.1053656
v 0.06400618 1.473187 -0.09674909
v -0.0273293 1.624839 -0.129492
v -0.02560599 1.633455 -0.1208754
v 0.02781665 1.617945 -0.129492
v 0.05538963 1.328429 -0.08640923
v -0.07558201 1.624839 -0.1053656
v -0.07213539 1.633455 -0.1001957
v 0.02264672 1.473187 -0.1174288
v -0.0273293 1.617945 -0.129492
v 0.01920009 1.328429 -0.1036423
v -0.1100482 1.624839 -0.06400618
v -0.103155 1.633455 -0.05883625
v -0.02388267 1.473187 -0.1174288
v -0.07558201 1.617945 -0.1053656
v 0.01403017 1.223307 -0.08813254
v -0.01526612 1.183671 -0.07951598
v -0.1221114 1.624839 -0.01058354
v -0.1134948 1.633455 -0.01058354
v -0.01871274 1.328429 -0.1036423
v -0.01526612 1.223307 -0.08813254
v -0.03939247 1.183671 -0.06400618
v -0.06524214 1.473187 -0.09674909
v -0.1100482 1.617945 -0.06400618
v -0.1100482 1.624839 0.04283909
v -0.103155 1.633455 0.03939247
v -0.04111579 1.223307 -0.07262274
v -0.05662559 1.183671 -0.03815652
v -0.05490227 1.328429 -0.08640923
v -0.09453842 1.473187 -0.05883625
v -0.1221114 1.617945 -0.01058354
v -0.07558201 1.624839 0.08592187
v -0.07213539 1.633455 0.07902862
v -0.06007221 1.22503 -0.04504976
v -0.06179552 1.183671 -0.01058354
v -0.07902862 1.328429 -0.051943
v -0.103155 1.473187 -0.01058354
v -0.1100482 1.617945 0.04283909
v -0.0273293 1.624839 0.1100482
v -0.02560599 1.633455 0.1014317
v -0.07558201 1.617945 0.08592187
v -0.0273293 1.617945 0.1100482
v -0.08764519 1.328429 -0.01058354
v -0.09453842 1.473187 0.03766917
v -0.06524214 1.473187 0.07730532
v -0.02388267 1.473187 0.09798504
v -0.06696545 1.22503 -0.01058354
v -0.05662559 1.183671 0.01871274
v -0.07902862 1.328429 0.03249924
v -0.05490227 1.328429 0.06524214
v -0.01871274 1.328429 0.08419856
v -0.06007221 1.22503 0.02560599
v -0.04111579 1.183671 0.04456241
v -0.04111579 1.223307 0.05317897
v -0.01526612 1.223307 0.06868877
v -0.01526612 1.183671 0.06007221
vt 0.421135 0.3104767
vt 0.4069481 0.2877776
vt 0.3842489 0.2735906
vt 0.355875 0.276428
vt 0.421135 0.3388506
vt 0.3331759 0.2877776
vt 0.4126229 0.3615498
vt 0.3161515 0.3104767
vt 0.3984359 0.3842489
vt 0.3076393 0.3331759
vt 0.3728994 0.3955985
vt 0.3104767 0.3615498
vt 0.3473628 0.3984359
vt 0.3218263 0.3842489
vt 0.3133141 0.4012733
vt 0.3360133 0.4126229
vt 0.3757367 0.4069481
vt 0.3161515 0.4580211
vt 0.2849402 0.4438342
vt 0.3643872 0.4239724
vt 0.4041107 0.4126229
vt 0.2934524 0.5176064
vt 0.2537289 0.5062568
vt 0.3502002 0.4693707
vt 0.3955985 0.4296472
vt 0.435322 0.4154602
vt 0.276428 0.580029
vt 0.2281923 0.5686795
vt 0.3331759 0.5289559
vt 0.3870863 0.4778829
vt 0.4324846 0.435322
vt 0.4636959 0.4182976
vt 0.276428 0.5828664
vt 0.2281923 0.5715168
vt 0.2281923 0.5828664
vt 0.3218263 0.5913786
vt 0.3757367 0.5403055
vt 0.4239724 0.4835576
vt 0.4665333 0.4381594
vt 0.4977446 0.4182976
vt 0.3189889 0.5970533
vt 0.3643872 0.6027281
vt 0.4182976 0.5459803
vt 0.4636959 0.4863951
vt 0.500582 0.4381594
vt 0.5289559 0.4182976
vt 0.2735906 0.5913786
vt 0.3104767 0.6169151
vt 0.1856315 0.5942159
vt 0.3331759 0.6566386
vt 0.1487454 0.6254272
vt 0.3360133 0.7048743
vt 0.131721 0.6651508
vt 0.3161515 0.7445978
vt 0.1345584 0.7133865
vt 0.2821028 0.7758091
vt 0.1544201 0.7531099
vt 0.2367045 0.7871587
vt 0.1913062 0.7786465
vt 0.3189889 0.6027281
vt 0.3643872 0.6055655
vt 0.3643872 0.6140777
vt 0.4097854 0.6140777
vt 0.4097854 0.6225899
vt 0.4097854 0.6112403
vt 0.4551837 0.6169151
vt 0.4551837 0.6254272
vt 0.4551837 0.6140777
vt 0.5034194 0.6169151
vt 0.5034194 0.6254272
vt 0.4608585 0.5488177
vt 0.5488177 0.6140777
vt 0.5488177 0.6225899
vt 0.500582 0.6140777
vt 0.5034194 0.5488177
vt 0.5942159 0.6084029
vt 0.5942159 0.6140777
vt 0.5488177 0.6112403
vt 0.500582 0.4863951
vt 0.6396142 0.5970533
vt 0.6396142 0.6055655
vt 0.5431429 0.5459803
vt 0.5942159 0.6027281
vt 0.5374681 0.4835576
vt 0.6821752 0.5857038
vt 0.6850125 0.5942159
vt 0.5828664 0.5403055
vt 0.6396142 0.5942159
vt 0.5317933 0.4381594
vt 0.5601673 0.4126229
vt 0.7275734 0.5715168
vt 0.7304108 0.5771916
vt 0.5715168 0.4778829
vt 0.5630046 0.4324846
vt 0.5913786 0.4069481
vt 0.6225899 0.5317933
vt 0.6821752 0.5828664
vt 0.7701343 0.5516551
vt 0.7729717 0.5573298
vt 0.5913786 0.4268098
vt 0.6197525 0.3955985
vt 0.6055655 0.4722081
vt 0.6623134 0.5204437
vt 0.724736 0.5686795
vt 0.8098578 0.5289559
vt 0.8126952 0.5374681
vt 0.6225899 0.4154602
vt 0.6481264 0.3870863
vt 0.6424516 0.4608585
vt 0.7020369 0.5062568
vt 0.7672969 0.5488177
vt 0.8524187 0.5090942
vt 0.8552561 0.514769
vt 0.8098578 0.5261185
vt 0.8524187 0.5034194
vt 0.6765003 0.4466715
vt 0.7417604 0.4892324
vt 0.7814839 0.4693707
vt 0.81837 0.4466715
vt 0.6566386 0.4041107
vt 0.6765003 0.3757367
vt 0.7133865 0.4324846
vt 0.7445978 0.4126229
vt 0.7729717 0.3927611
vt 0.6878499 0.3899237
vt 0.7020369 0.3615498
vt 0.7162238 0.3728994
vt 0.738923 0.355875
vt 0.7218986 0.3445254
vn 0.07616287 -0.9939899 -0.07863337
vn 0.0445137 -0.9939899 -0.1000125
vn -0.01878476 -0.9939899 -0.1078477
vn -0.08208311 -0.9939899 -0.07243163
vn 0.1078121 -0.9939899 -0.01898811
vn -0.1136783 -0.9935176 0
vn 0.1078121 -0.9939899 0.01898811
vn -0.1136783 -0.9935176 0
vn 0.1078121 -0.9939899 0.01898811
vn -0.1136783 -0.9935176 0
vn 0.07616287 -0.9939899 0.07863337
vn -0.08208311 -0.9939899 0.07243163
vn 0.0445137 -0.9939899 0.1000125
vn -0.01878476 -0.9939899 0.1078477
vn -0.2403291 -0.1711105 0.955491
vn 0.2344089 -0.1711105 0.9569606
vn 0.07616287 -0.9939899 0.07863337
vn 0.2344089 -0.1078121 0.9661413
vn -0.2403291 -0.1078121 0.9646857
vn 0.6774979 -0.1711105 0.7153445
vn 0.1078121 -0.9939899 0.01898811
vn 0.2344089 -0.07616287 0.9691499
vn -0.2403291 -0.07616287 0.9676989
vn 0.6458486 -0.1394613 0.7506198
vn 0.8990423 -0.1711105 0.4030436
vn 0.1078121 -0.9939899 0.01898811
vn 0.2344089 -0.07616287 0.9691499
vn -0.2403291 -0.07616287 0.9676989
vn 0.6458486 -0.1078121 0.7558149
vn 0.8990423 -0.1394613 0.4150584
vn 0.9855044 -0.1696498 0
vn 0.1078121 -0.9939899 -0.01898811
vn 0.2027597 0.4302244 0.8796564
vn -0.20868 0.4302244 0.8782708
vn -0.01878313 0.9998236 0
vn 0.6458486 -0.1078121 0.7558149
vn 0.8990423 -0.1078121 0.4243813
vn 0.9903003 -0.1389437 0
vn 0.8990423 -0.1711105 -0.4030436
vn 0.07616287 -0.9939899 -0.07863337
vn 0.5509011 0.4302244 0.7151328
vn 0.8990423 -0.1078121 0.4243813
vn 0.9939899 -0.1078121 -0.01898789
vn 0.8990423 -0.1394613 -0.4150584
vn 0.6774979 -0.1711105 -0.7153445
vn 0.0445137 -0.9939899 -0.1000125
vn 0.01286447 0.9999102 0.003742605
vn 0.01286447 0.9999102 0.003742605
vn -0.01878313 0.9998236 0
vn 0.01286447 0.9999102 0.003742605
vn -0.01878313 0.9998236 0
vn 0.01286447 0.9999102 -0.003742605
vn -0.01878313 0.9998236 0
vn 0.01286447 0.9999102 -0.003742605
vn -0.01878313 0.9998236 0
vn 0.01286447 0.9999102 -0.003742605
vn -0.01878313 0.9998236 0
vn 0.01286447 0.9999102 -0.003742605
vn -0.01878313 0.9998236 0
vn 0.01286447 0.9999102 0.003742605
vn 0.8040947 0.4302244 0.410291
vn 0.01286447 0.9999102 0.003742605
vn 0.8990423 0.4302244 -0.0814241
vn 0.01286447 0.9999102 -0.003742605
vn 0.9939899 -0.1078121 -0.01898789
vn 0.8040947 0.4302244 -0.410291
vn 0.01286447 0.9999102 -0.003742605
vn 0.8990423 -0.1078121 -0.4243813
vn 0.5509011 0.4302244 -0.7151328
vn 0.01286447 0.9999102 -0.003742605
vn 0.8990423 -0.1078121 -0.4243813
vn 0.2027597 0.4302244 -0.8796564
vn 0.01286447 0.9999102 -0.003742605
vn 0.6458486 -0.1078121 -0.7558149
vn 0.6458486 -0.1078121 -0.7558149
vn -0.20868 0.4302244 -0.8782708
vn -0.01878313 0.9998236 0
vn 0.2344089 -0.07616287 -0.9691499
vn 0.6458486 -0.1394613 -0.7506198
vn -0.5568212 0.4302244 -0.710533
vn -0.01878313 0.9998236 0
vn 0.2344089 -0.07616287 -0.9691499
vn -0.2403291 -0.07616287 -0.9676989
vn 0.2344089 -0.1078121 -0.9661413
vn -0.810015 0.4302244 -0.3984755
vn -0.01878313 0.9998236 0
vn -0.2403291 -0.07616287 -0.9676989
vn -0.6517689 -0.1078121 -0.7507156
vn 0.2344089 -0.1711105 -0.9569606
vn -0.01878476 -0.9939899 -0.1078477
vn -0.9031354 0.4293558 0
vn -0.01878313 0.9998236 0
vn -0.2403291 -0.1078121 -0.9646857
vn -0.2403291 -0.1711105 -0.955491
vn -0.08208311 -0.9939899 -0.07243163
vn -0.6517689 -0.1078121 -0.7507156
vn -0.9049625 -0.1078121 -0.4116058
vn -0.810015 0.4302244 0.3984755
vn -0.01878313 0.9998236 0
vn -0.6517689 -0.1711105 -0.7388629
vn -0.1136783 -0.9935176 0
vn -0.6517689 -0.1394613 -0.7454849
vn -0.9049625 -0.1078121 -0.4116058
vn -0.9942374 -0.1072005 0
vn -0.5568212 0.4302244 0.710533
vn -0.01878313 0.9998236 0
vn -0.9049625 -0.1711105 -0.389569
vn -0.1136783 -0.9935176 0
vn -0.9049625 -0.1394613 -0.4019867
vn -0.9942374 -0.1072005 0
vn -0.9049625 -0.1078121 0.4116058
vn -0.20868 0.4302244 0.8782708
vn -0.01878313 0.9998236 0
vn -0.6517689 -0.1078121 0.7507156
vn -0.2403291 -0.07616287 0.9676989
vn -0.9904132 -0.1381367 0
vn -0.9049625 -0.1078121 0.4116058
vn -0.6517689 -0.1078121 0.7507156
vn -0.2403291 -0.07616287 0.9676989
vn -0.968261 -0.1711105 -0.1821862
vn -0.1136783 -0.9935176 0
vn -0.9049625 -0.1394613 0.4019867
vn -0.6517689 -0.1394613 0.7454849
vn -0.2403291 -0.1078121 0.9646857
vn -0.9049625 -0.1711105 0.389569
vn -0.08208311 -0.9939899 0.07243163
vn -0.6517689 -0.1711105 0.7388629
vn -0.2403291 -0.1711105 0.955491
vn -0.01878476 -0.9939899 0.1078477
g pCylinder2_0
f 3/3/3 2/2/2 1/1/1
f 1/1/1 4/4/4 3/3/3
f 1/1/1 5/5/5 4/4/4
f 5/5/5 6/6/6 4/4/4
f 5/5/5 7/7/7 6/6/6
f 7/7/7 8/8/8 6/6/6
f 7/7/7 9/9/9 8/8/8
f 9/9/9 10/10/10 8/8/8
f 9/9/9 11/11/11 10/10/10
f 11/11/11 12/12/12 10/10/10
f 11/11/11 13/13/13 12/12/12
f 13/13/13 14/14/14 12/12/12
f 14/14/14 13/13/13 15/15/15
f 13/13/13 16/16/16 15/15/15
f 13/13/13 17/17/17 16/16/16
f 16/16/16 18/18/18 15/15/15
f 18/18/18 19/19/19 15/15/15
f 17/17/17 20/20/20 16/16/16
f 17/17/17 21/21/21 20/20/20
f 18/18/18 22/22/22 19/19/19
f 22/22/22 23/23/23 19/19/19
f 24/24/24 18/18/18 16/16/16
f 20/20/20 24/24/24 16/16/16
f 21/21/21 25/25/25 20/20/20
f 21/21/21 26/26/26 25/25/25
f 22/22/22 27/27/27 23/23/23
f 27/27/27 28/28/28 23/23/23
f 29/29/29 22/22/22 18/18/18
f 24/24/24 29/29/29 18/18/18
f 30/30/30 24/24/24 20/20/20
f 25/25/25 30/30/30 20/20/20
f 26/26/26 31/31/31 25/25/25
f 31/31/31 26/26/26 32/32/32
f 27/27/27 33/33/33 28/28/28
f 33/33/33 34/34/34 28/28/28
f 34/34/34 33/33/33 35/35/35
f 36/36/36 27/27/27 22/22/22
f 29/29/29 36/36/36 22/22/22
f 37/37/37 29/29/29 24/24/24
f 30/30/30 37/37/37 24/24/24
f 38/38/38 30/30/30 25/25/25
f 31/31/31 38/38/38 25/25/25
f 39/39/39 31/31/31 32/32/32
f 32/32/32 40/40/40 39/39/39
f 41/41/41 33/33/33 27/27/27
f 36/36/36 41/41/41 27/27/27
f 42/42/42 36/36/36 29/29/29
f 37/37/37 42/42/42 29/29/29
f 43/43/43 37/37/37 30/30/30
f 38/38/38 43/43/43 30/30/30
f 44/44/44 38/38/38 31/31/31
f 39/39/39 44/44/44 31/31/31
f 40/40/40 45/45/45 39/39/39
f 40/40/40 46/46/46 45/45/45
f 33/33/33 41/41/41 47/47/47
f 33/33/33 47/47/47 35/35/35
f 35/35/35 47/47/47 48/48/48
f 49/49/49 35/35/35 48/48/48
f 49/49/49 48/48/48 50/50/50
f 51/51/51 49/49/49 50/50/50
f 51/51/51 50/50/50 52/52/52
f 53/53/53 51/51/51 52/52/52
f 53/53/53 52/52/52 54/54/54
f 55/55/55 53/53/53 54/54/54
f 55/55/55 54/54/54 56/56/56
f 57/57/57 55/55/55 56/56/56
f 57/57/57 56/56/56 58/58/58
f 58/58/58 59/59/59 57/57/57
f 41/41/41 60/60/60 47/47/47
f 41/41/41 61/61/61 60/60/60
f 61/61/61 41/41/41 36/36/36
f 61/61/61 62/62/62 60/60/60
f 42/42/42 61/61/61 36/36/36
f 62/62/62 61/61/61 63/63/63
f 63/63/63 61/61/61 42/42/42
f 64/64/64 62/62/62 63/63/63
f 65/65/65 63/63/63 42/42/42
f 65/65/65 42/42/42 37/37/37
f 43/43/43 65/65/65 37/37/37
f 63/63/63 66/66/66 64/64/64
f 66/66/66 63/63/63 65/65/65
f 66/66/66 67/67/67 64/64/64
f 68/68/68 65/65/65 43/43/43
f 68/68/68 66/66/66 65/65/65
f 66/66/66 69/69/69 67/67/67
f 69/69/69 66/66/66 68/68/68
f 69/69/69 70/70/70 67/67/67
f 71/71/71 68/68/68 43/43/43
f 71/71/71 43/43/43 38/38/38
f 44/44/44 71/71/71 38/38/38
f 69/69/69 72/72/72 70/70/70
f 72/72/72 73/73/73 70/70/70
f 74/74/74 69/69/69 68/68/68
f 74/74/74 68/68/68 71/71/71
f 72/72/72 69/69/69 74/74/74
f 75/75/75 71/71/71 44/44/44
f 75/75/75 74/74/74 71/71/71
f 72/72/72 76/76/76 73/73/73
f 76/76/76 77/77/77 73/73/73
f 78/78/78 72/72/72 74/74/74
f 78/78/78 74/74/74 75/75/75
f 76/76/76 72/72/72 78/78/78
f 79/79/79 75/75/75 44/44/44
f 79/79/79 44/44/44 39/39/39
f 45/45/45 79/79/79 39/39/39
f 76/76/76 80/80/80 77/77/77
f 80/80/80 81/81/81 77/77/77
f 82/82/82 78/78/78 75/75/75
f 82/82/82 75/75/75 79/79/79
f 83/83/83 76/76/76 78/78/78
f 80/80/80 76/76/76 83/83/83
f 83/83/83 78/78/78 82/82/82
f 84/84/84 79/79/79 45/45/45
f 84/84/84 82/82/82 79/79/79
f 80/80/80 85/85/85 81/81/81
f 85/85/85 86/86/86 81/81/81
f 87/87/87 83/83/83 82/82/82
f 87/87/87 82/82/82 84/84/84
f 88/88/88 80/80/80 83/83/83
f 85/85/85 80/80/80 88/88/88
f 88/88/88 83/83/83 87/87/87
f 89/89/89 84/84/84 45/45/45
f 46/46/46 89/89/89 45/45/45
f 46/46/46 90/90/90 89/89/89
f 85/85/85 91/91/91 86/86/86
f 91/91/91 92/92/92 86/86/86
f 93/93/93 87/87/87 84/84/84
f 93/93/93 84/84/84 89/89/89
f 90/90/90 94/94/94 89/89/89
f 94/94/94 93/93/93 89/89/89
f 90/90/90 95/95/95 94/94/94
f 96/96/96 88/88/88 87/87/87
f 96/96/96 87/87/87 93/93/93
f 97/97/97 85/85/85 88/88/88
f 91/91/91 85/85/85 97/97/97
f 97/97/97 88/88/88 96/96/96
f 91/91/91 98/98/98 92/92/92
f 98/98/98 99/99/99 92/92/92
f 95/95/95 100/100/100 94/94/94
f 95/95/95 101/101/101 100/100/100
f 102/102/102 93/93/93 94/94/94
f 102/102/102 96/96/96 93/93/93
f 100/100/100 102/102/102 94/94/94
f 103/103/103 97/97/97 96/96/96
f 103/103/103 96/96/96 102/102/102
f 104/104/104 91/91/91 97/97/97
f 98/98/98 91/91/91 104/104/104
f 104/104/104 97/97/97 103/103/103
f 98/98/98 105/105/105 99/99/99
f 105/105/105 106/106/106 99/99/99
f 101/101/101 107/107/107 100/100/100
f 101/101/101 108/108/108 107/107/107
f 109/109/109 102/102/102 100/100/100
f 109/109/109 103/103/103 102/102/102
f 107/107/107 109/109/109 100/100/100
f 110/110/110 104/104/104 103/103/103
f 110/110/110 103/103/103 109/109/109
f 111/111/111 98/98/98 104/104/104
f 105/105/105 98/98/98 111/111/111
f 111/111/111 104/104/104 110/110/110
f 105/105/105 112/112/112 106/106/106
f 112/112/112 113/113/113 106/106/106
f 112/112/112 105/105/105 114/114/114
f 114/114/114 105/105/105 111/111/111
f 115/115/115 112/112/112 114/114/114
f 116/116/116 109/109/109 107/107/107
f 116/116/116 110/110/110 109/109/109
f 117/117/117 111/111/111 110/110/110
f 114/114/114 111/111/111 117/117/117
f 117/117/117 110/110/110 116/116/116
f 115/115/115 114/114/114 118/118/118
f 118/118/118 114/114/114 117/117/117
f 119/119/119 115/115/115 118/118/118
f 120/120/120 116/116/116 107/107/107
f 108/108/108 120/120/120 107/107/107
f 108/108/108 121/121/121 120/120/120
f 122/122/122 117/117/117 116/116/116
f 118/118/118 117/117/117 122/122/122
f 122/122/122 116/116/116 120/120/120
f 119/119/119 118/118/118 123/123/123
f 123/123/123 118/118/118 122/122/122
f 124/124/124 119/119/119 123/123/123
f 121/121/121 125/125/125 120/120/120
f 125/125/125 122/122/122 120/120/120
f 123/123/123 122/122/122 125/125/125
f 121/121/121 126/126/126 125/125/125
f 124/124/124 123/123/123 127/127/127
f 127/127/127 123/123/123 125/125/125
f 126/126/126 127/127/127 125/125/125
f 128/128/128 124/124/124 127/127/127
f 126/126/126 129/129/129 127/127/127
f 129/129/129 128/128/128 127/127/127
