g pillar_03_E
v 0.45144 0.4634937 -0.2763601
v 0.45144 0.0003790855 -0.2763601
v 0.45144 0.0003790855 0.2757064
v 0.45144 0.4634937 0.2757064
v -0.4507863 0.9929693 0.2757064
v -0.4507863 0.5298547 0.2757064
v -0.4507863 0.5298547 -0.2763601
v -0.4507863 0.9929693 -0.2763601
v 0.45144 0.9929693 0.2757064
v 0.45144 0.5298547 0.2757064
v -0.4507863 0.5298547 0.2757064
v -0.4507863 0.9929693 0.2757064
v 0.45144 0.4634937 0.2757064
v 0.45144 0.0003790855 0.2757064
v -0.4507863 0.0003790855 0.2757064
v -0.4507863 0.4634937 0.2757064
v -0.4507863 0.4634937 -0.2763601
v -0.4507863 0.0003790855 -0.2763601
v 0.45144 0.0003790855 -0.2763601
v 0.45144 0.4634937 -0.2763601
v -0.4507863 0.4634937 0.2757064
v -0.4507863 0.0003790855 0.2757064
v -0.4507863 0.0003790855 -0.2763601
v -0.4507863 0.4634937 -0.2763601
v 0.45144 0.9929693 -0.2763601
v 0.45144 0.5298547 -0.2763601
v 0.45144 0.5298547 0.2757064
v 0.45144 0.9929693 0.2757064
v 0.4274371 0.4634937 0.2517035
v 0.4274371 0.5298547 0.2517035
v 0.4274371 0.5298547 -0.2523572
v 0.4274371 0.4634937 -0.2523572
v -0.4507863 0.9929693 -0.2763601
v -0.4507863 0.5298547 -0.2763601
v 0.45144 0.5298547 -0.2763601
v 0.45144 0.9929693 -0.2763601
v -0.4267834 0.4634937 0.2517035
v -0.4267834 0.5298547 0.2517035
v 0.4274371 0.5298547 0.2517035
v 0.4274371 0.4634937 0.2517035
v -0.4267834 0.4634937 -0.2523572
v -0.4267834 0.5298547 -0.2523572
v -0.4267834 0.5298547 0.2517035
v -0.4267834 0.4634937 0.2517035
v 0.4274371 0.4634937 -0.2523572
v 0.4274371 0.5298547 -0.2523572
v -0.4267834 0.5298547 -0.2523572
v -0.4267834 0.4634937 -0.2523572
v 0.45144 0.5298547 -0.2763601
v 0.4274371 0.5298547 -0.2523572
v 0.4274371 0.5298547 0.2517035
v 0.45144 0.5298547 0.2757064
v -0.4507863 0.5298547 -0.2763601
v -0.4267834 0.5298547 0.2517035
v -0.4267834 0.5298547 -0.2523572
v -0.4507863 0.5298547 0.2757064
v -0.4507863 0.4634937 -0.2763601
v -0.4267834 0.4634937 0.2517035
v -0.4507863 0.4634937 0.2757064
v -0.4267834 0.4634937 -0.2523572
v 0.4274371 0.4634937 0.2517035
v 0.45144 0.4634937 -0.2763601
v 0.45144 0.4634937 0.2757064
v 0.4274371 0.4634937 -0.2523572
vt 0.4179391 0.9709677
vt 0.4179391 0.9709677
vt 0.4179391 0.9709677
vt 0.4179391 0.9709677
vt 0.4179391 0.9709677
vt 0.4179391 0.9709677
vt 0.4179391 0.9709677
vt 0.4179391 0.9709677
vt 0.4179391 0.9709677
vt 0.4179391 0.9709677
vt 0.4179391 0.9709677
vt 0.4179391 0.9709677
vt 0.4179391 0.9709677
vt 0.4179391 0.9709677
vt 0.4179391 0.9709677
vt 0.4179391 0.9709677
vt 0.4179391 0.9709677
vt 0.4179391 0.9709677
vt 0.4179391 0.9709677
vt 0.4179391 0.9709677
vt 0.4179391 0.9709677
vt 0.4179391 0.9709677
vt 0.4179391 0.9709677
vt 0.4179391 0.9709677
vt 0.4179391 0.9709677
vt 0.4179391 0.9709677
vt 0.4179391 0.9709677
vt 0.4179391 0.9709677
vt 0.4179391 0.9709677
vt 0.4179391 0.9709677
vt 0.4179391 0.9709677
vt 0.4179391 0.9709677
vt 0.4179391 0.9709677
vt 0.4179391 0.9709677
vt 0.4179391 0.9709677
vt 0.4179391 0.9709677
vt 0.4179391 0.9709677
vt 0.4179391 0.9709677
vt 0.4179391 0.9709677
vt 0.4179391 0.9709677
vt 0.4179391 0.9709677
vt 0.4179391 0.9709677
vt 0.4179391 0.9709677
vt 0.4179391 0.9709677
vt 0.4179391 0.9709677
vt 0.4179391 0.9709677
vt 0.4179391 0.9709677
vt 0.4179391 0.9709677
vt 0.4179391 0.9709677
vt 0.4179391 0.9709677
vt 0.4179391 0.9709677
vt 0.4179391 0.9709677
vt 0.4179391 0.9709677
vt 0.4179391 0.9709677
vt 0.4179391 0.9709677
vt 0.4179391 0.9709677
vt 0.4179391 0.9709677
vt 0.4179391 0.9709677
vt 0.4179391 0.9709677
vt 0.4179391 0.9709677
vt 0.4179391 0.9709677
vt 0.4179391 0.9709677
vt 0.4179391 0.9709677
vt 0.4179391 0.9709677
vn 0.999874 0.01587105 -0.0003439156
vn 0.999874 0.01587105 -0.0003439156
vn 0.999874 0.01587105 -0.0003439156
vn 0.999874 0.01587105 -0.0003439156
vn -0.999874 0.01587105 -0.0003439156
vn -0.999874 0.01587105 -0.0003439156
vn -0.999874 0.01587105 -0.0003439156
vn -0.999874 0.01587105 -0.0003439156
vn -0.01587105 0.01587105 0.9997481
vn -0.01587105 0.01587105 0.9997481
vn -0.01587105 0.01587105 0.9997481
vn -0.01587105 0.01587105 0.9997481
vn -0.01587105 0.01587105 0.9997481
vn -0.01587105 0.01587105 0.9997481
vn -0.01587105 0.01587105 0.9997481
vn -0.01587105 0.01587105 0.9997481
vn -0.01587105 0.01587105 -0.9997481
vn -0.01587105 0.01587105 -0.9997481
vn -0.01587105 0.01587105 -0.9997481
vn -0.01587105 0.01587105 -0.9997481
vn -0.999874 0.01587105 -0.0003439156
vn -0.999874 0.01587105 -0.0003439156
vn -0.999874 0.01587105 -0.0003439156
vn -0.999874 0.01587105 -0.0003439156
vn 0.999874 0.01587105 -0.0003439156
vn 0.999874 0.01587105 -0.0003439156
vn 0.999874 0.01587105 -0.0003439156
vn 0.999874 0.01587105 -0.0003439156
vn 0.999874 0.01587105 -0.0003439156
vn 0.999874 0.01587105 -0.0003439156
vn 0.999874 0.01587105 -0.0003439156
vn 0.999874 0.01587105 -0.0003439156
vn -0.01587105 0.01587105 -0.9997481
vn -0.01587105 0.01587105 -0.9997481
vn -0.01587105 0.01587105 -0.9997481
vn -0.01587105 0.01587105 -0.9997481
vn -0.01587105 0.01587105 0.9997481
vn -0.01587105 0.01587105 0.9997481
vn -0.01587105 0.01587105 0.9997481
vn -0.01587105 0.01587105 0.9997481
vn -0.999874 0.01587105 -0.0003439156
vn -0.999874 0.01587105 -0.0003439156
vn -0.999874 0.01587105 -0.0003439156
vn -0.999874 0.01587105 -0.0003439156
vn -0.01587105 0.01587105 -0.9997481
vn -0.01587105 0.01587105 -0.9997481
vn -0.01587105 0.01587105 -0.9997481
vn -0.01587105 0.01587105 -0.9997481
vn -0.01587105 -0.999874 -0.000345267
vn -0.01587105 -0.999874 -0.000345267
vn -0.01587105 -0.999874 -0.000345267
vn -0.01587105 -0.999874 -0.000345267
vn -0.01587105 -0.999874 -0.000345267
vn -0.01587105 -0.999874 -0.000345267
vn -0.01587105 -0.999874 -0.000345267
vn -0.01587105 -0.999874 -0.000345267
vn -0.01587105 0.999874 -0.000345267
vn -0.01587105 0.999874 -0.000345267
vn -0.01587105 0.999874 -0.000345267
vn -0.01587105 0.999874 -0.000345267
vn -0.01587105 0.999874 -0.000345267
vn -0.01587105 0.999874 -0.000345267
vn -0.01587105 0.999874 -0.000345267
vn -0.01587105 0.999874 -0.000345267
g pillar_03_E_0
f 3/3/3 2/2/2 1/1/1
f 4/4/4 3/3/3 1/1/1
f 7/7/7 6/6/6 5/5/5
f 8/8/8 7/7/7 5/5/5
f 11/11/11 10/10/10 9/9/9
f 12/12/12 11/11/11 9/9/9
f 15/15/15 14/14/14 13/13/13
f 16/16/16 15/15/15 13/13/13
f 19/19/19 18/18/18 17/17/17
f 20/20/20 19/19/19 17/17/17
f 23/23/23 22/22/22 21/21/21
f 24/24/24 23/23/23 21/21/21
f 27/27/27 26/26/26 25/25/25
f 28/28/28 27/27/27 25/25/25
f 31/31/31 30/30/30 29/29/29
f 32/32/32 31/31/31 29/29/29
f 35/35/35 34/34/34 33/33/33
f 36/36/36 35/35/35 33/33/33
f 39/39/39 38/38/38 37/37/37
f 40/40/40 39/39/39 37/37/37
f 43/43/43 42/42/42 41/41/41
f 44/44/44 43/43/43 41/41/41
f 47/47/47 46/46/46 45/45/45
f 48/48/48 47/47/47 45/45/45
f 51/51/51 50/50/50 49/49/49
f 52/52/52 51/51/51 49/49/49
f 49/49/49 50/50/50 53/53/53
f 54/54/54 51/51/51 52/52/52
f 50/50/50 55/55/55 53/53/53
f 56/56/56 54/54/54 52/52/52
f 53/53/53 55/55/55 56/56/56
f 55/55/55 54/54/54 56/56/56
f 59/59/59 58/58/58 57/57/57
f 58/58/58 60/60/60 57/57/57
f 61/61/61 58/58/58 59/59/59
f 57/57/57 60/60/60 62/62/62
f 63/63/63 61/61/61 59/59/59
f 60/60/60 64/64/64 62/62/62
f 64/64/64 61/61/61 63/63/63
f 62/62/62 64/64/64 63/63/63
