g pillar_03_D
v 0.4515536 1.538743 0.2759194
v 0.4515536 1.074629 0.2759194
v -0.4507721 1.074629 0.2759194
v -0.4507721 1.538743 0.2759194
v 0.4515536 1.538743 -0.276701
v 0.4515536 1.074629 -0.276701
v 0.4515536 1.074629 0.2759194
v 0.4515536 1.538743 0.2759194
v -0.4507721 1.538743 0.2759194
v -0.4507721 1.074629 0.2759194
v -0.4507721 1.074629 -0.276701
v -0.4507721 1.538743 -0.276701
v -0.4507721 1.538743 -0.276701
v -0.4507721 1.074629 -0.276701
v 0.4515536 1.074629 -0.276701
v 0.4515536 1.538743 -0.276701
v -0.4550894 0.5457537 -0.3479373
v 0.455871 0.4961042 -0.3479373
v 0.455871 0.5457537 -0.3479373
v -0.4550894 0.4961042 -0.3479373
v -0.5694991 0.4961042 -0.2335276
v -0.5694991 0.5457537 -0.2335276
v 0.5702807 0.5457537 -0.2335276
v 0.5702807 0.4961042 0.2349046
v 0.5702807 0.5457537 0.2349046
v 0.5702807 0.4961042 -0.2335276
v 0.455871 0.4961042 -0.3479373
v 0.455871 0.5457537 -0.3479373
v -0.5694991 0.5457537 0.2349046
v -0.5694991 0.4961042 -0.2335276
v -0.5694991 0.5457537 -0.2335276
v -0.5694991 0.4961042 0.2349046
v -0.4550894 0.4961042 0.3493144
v -0.4550894 0.5457537 0.3493144
v 0.5357419 0.4961042 -0.4105388
v 0.6695797 -0.0003907681 -0.2745424
v 0.6695797 0.4961042 -0.2745424
v 0.5357419 -0.0003907681 -0.4105388
v -0.5349603 0.4961042 -0.4105388
v -0.5349603 -0.0003907681 -0.4105388
v 0.455871 0.5457537 0.3493144
v 0.5702807 0.5457537 0.2349046
v 0.5702807 0.4961042 0.2349046
v 0.455871 0.4961042 0.3493144
v -0.4550894 0.4961042 0.3493144
v -0.4550894 0.5457537 0.3493144
v 0.6695797 -0.0003907681 -0.2745424
v 0.5357419 -0.0003907681 -0.4105388
v -0.5349603 -0.0003907681 -0.4105388
v -0.6687981 -0.0003907681 -0.2745424
v 0.6695797 -0.0003907681 0.2759194
v -0.6687981 -0.0003907681 0.2759194
v 0.5357419 -0.0003907681 0.4097572
v -0.5349603 -0.0003907681 0.4097572
v -0.6687981 0.4961042 -0.2745424
v -0.5349603 -0.0003907681 -0.4105388
v -0.5349603 0.4961042 -0.4105388
v -0.6687981 -0.0003907681 -0.2745424
v -0.6687981 0.4961042 0.2759194
v -0.6687981 -0.0003907681 0.2759194
v 0.6695797 0.4961042 -0.2745424
v 0.6695797 -0.0003907681 -0.2745424
v 0.6695797 -0.0003907681 0.2759194
v 0.6695797 0.4961042 0.2759194
v 0.5357419 -0.0003907681 0.4097572
v 0.5357419 0.4961042 0.4097572
v 0.5357419 0.4961042 0.4097572
v 0.5357419 -0.0003907681 0.4097572
v -0.5349603 -0.0003907681 0.4097572
v -0.5349603 0.4961042 0.4097572
v -0.6687981 -0.0003907681 0.2759194
v -0.6687981 0.4961042 0.2759194
v 0.4515536 1.009869 0.2759194
v 0.4515536 0.5457537 0.2759194
v -0.4507721 0.5457537 0.2759194
v -0.4507721 1.009869 0.2759194
v -0.4507721 1.009869 -0.276701
v -0.4507721 0.5457537 -0.276701
v 0.4515536 0.5457537 -0.276701
v 0.4515536 1.009869 -0.276701
v -0.4507721 1.009869 0.2759194
v -0.4507721 0.5457537 0.2759194
v -0.4507721 0.5457537 -0.276701
v -0.4507721 1.009869 -0.276701
v 0.4515536 1.009869 -0.276701
v 0.4515536 0.5457537 -0.276701
v 0.4515536 0.5457537 0.2759194
v 0.4515536 1.009869 0.2759194
v 0.4278082 1.009869 -0.2507969
v 0.4278082 1.074629 -0.2507969
v -0.4270267 1.074629 -0.2507969
v -0.4270267 1.009869 -0.2507969
v -0.4270267 1.009869 -0.2507969
v -0.4270267 1.074629 -0.2507969
v -0.4270267 1.074629 0.2521741
v -0.4270267 1.009869 0.2521741
v -0.4270267 1.009869 0.2521741
v -0.4270267 1.074629 0.2521741
v 0.4278082 1.074629 0.2521741
v 0.4278082 1.009869 0.2521741
v 0.4278082 1.009869 0.2521741
v 0.4278082 1.074629 0.2521741
v 0.4278082 1.074629 -0.2507969
v 0.4278082 1.009869 -0.2507969
v -0.4550894 0.5457537 -0.3479373
v 0.455871 0.5457537 -0.3479373
v 0.4731404 0.5457537 -0.2896531
v 0.5702807 0.5457537 -0.2335276
v -0.4723588 0.5457537 -0.2896531
v -0.5694991 0.5457537 -0.2335276
v -0.4507721 0.5457537 -0.276701
v 0.4515536 0.5457537 -0.276701
v -0.4507721 0.5457537 0.2759194
v 0.4515536 0.5457537 0.2759194
v 0.5702807 0.5457537 0.2349046
v -0.5694991 0.5457537 0.2349046
v 0.4731404 0.5457537 0.2888715
v 0.455871 0.5457537 0.3493144
v -0.4550894 0.5457537 0.3493144
v -0.4723588 0.5457537 0.2888715
v -0.4507721 1.009869 -0.276701
v -0.4270267 1.009869 0.2521741
v -0.4507721 1.009869 0.2759194
v -0.4270267 1.009869 -0.2507969
v 0.4278082 1.009869 0.2521741
v 0.4515536 1.009869 -0.276701
v 0.4515536 1.009869 0.2759194
v 0.4278082 1.009869 -0.2507969
v 0.4515536 1.074629 0.2759194
v -0.4270267 1.074629 0.2521741
v -0.4507721 1.074629 0.2759194
v 0.4278082 1.074629 0.2521741
v -0.4270267 1.074629 -0.2507969
v 0.4515536 1.074629 -0.276701
v -0.4507721 1.074629 -0.276701
v 0.4278082 1.074629 -0.2507969
v -0.5694991 0.4961042 -0.2335276
v -0.6687981 0.4961042 -0.2745424
v -0.5349603 0.4961042 -0.4105388
v -0.4550894 0.4961042 -0.3479373
v -0.5694991 0.4961042 0.2349046
v 0.5357419 0.4961042 -0.4105388
v -0.6687981 0.4961042 0.2759194
v 0.455871 0.4961042 -0.3479373
v -0.4550894 0.4961042 0.3493144
v 0.6695797 0.4961042 -0.2745424
v -0.5349603 0.4961042 0.4097572
v 0.5702807 0.4961042 -0.2335276
v 0.455871 0.4961042 0.3493144
v 0.6695797 0.4961042 0.2759194
v 0.5357419 0.4961042 0.4097572
v 0.5702807 0.4961042 0.2349046
vt 0.4176576 0.9710725
vt 0.4176576 0.9710725
vt 0.4176576 0.9710725
vt 0.4176576 0.9710725
vt 0.4176576 0.9710725
vt 0.4176576 0.9710725
vt 0.4176576 0.9710725
vt 0.4176576 0.9710725
vt 0.4176576 0.9710725
vt 0.4176576 0.9710725
vt 0.4176576 0.9710725
vt 0.4176576 0.9710725
vt 0.4176576 0.9710725
vt 0.4176576 0.9710725
vt 0.4176576 0.9710725
vt 0.4176576 0.9710725
vt 0.4176576 0.9710725
vt 0.4176576 0.9710725
vt 0.4176576 0.9710725
vt 0.4176576 0.9710725
vt 0.4176576 0.9710725
vt 0.4176576 0.9710725
vt 0.4176576 0.9710725
vt 0.4176576 0.9710725
vt 0.4176576 0.9710725
vt 0.4176576 0.9710725
vt 0.4176576 0.9710725
vt 0.4176576 0.9710725
vt 0.4176576 0.9710725
vt 0.4176576 0.9710725
vt 0.4176576 0.9710725
vt 0.4176576 0.9710725
vt 0.4176576 0.9710725
vt 0.4176576 0.9710725
vt 0.4176576 0.9710725
vt 0.4176576 0.9710725
vt 0.4176576 0.9710725
vt 0.4176576 0.9710725
vt 0.4176576 0.9710725
vt 0.4176576 0.9710725
vt 0.4176576 0.9710725
vt 0.4176576 0.9710725
vt 0.4176576 0.9710725
vt 0.4176576 0.9710725
vt 0.4176576 0.9710725
vt 0.4176576 0.9710725
vt 0.4176576 0.9710725
vt 0.4176576 0.9710725
vt 0.4176576 0.9710725
vt 0.4176576 0.9710725
vt 0.4176576 0.9710725
vt 0.4176576 0.9710725
vt 0.4176576 0.9710725
vt 0.4176576 0.9710725
vt 0.4176576 0.9710725
vt 0.4176576 0.9710725
vt 0.4176576 0.9710725
vt 0.4176576 0.9710725
vt 0.4176576 0.9710725
vt 0.4176576 0.9710725
vt 0.4176576 0.9710725
vt 0.4176576 0.9710725
vt 0.4176576 0.9710725
vt 0.4176576 0.9710725
vt 0.4176576 0.9710725
vt 0.4176576 0.9710725
vt 0.4176576 0.9710725
vt 0.4176576 0.9710725
vt 0.4176576 0.9710725
vt 0.4176576 0.9710725
vt 0.4176576 0.9710725
vt 0.4176576 0.9710725
vt 0.4176576 0.9710725
vt 0.4176576 0.9710725
vt 0.4176576 0.9710725
vt 0.4176576 0.9710725
vt 0.4176576 0.9710725
vt 0.4176576 0.9710725
vt 0.4176576 0.9710725
vt 0.4176576 0.9710725
vt 0.4176576 0.9710725
vt 0.4176576 0.9710725
vt 0.4176576 0.9710725
vt 0.4176576 0.9710725
vt 0.4176576 0.9710725
vt 0.4176576 0.9710725
vt 0.4176576 0.9710725
vt 0.4176576 0.9710725
vt 0.4176576 0.9710725
vt 0.4176576 0.9710725
vt 0.4176576 0.9710725
vt 0.4176576 0.9710725
vt 0.4176576 0.9710725
vt 0.4176576 0.9710725
vt 0.4176576 0.9710725
vt 0.4176576 0.9710725
vt 0.4176576 0.9710725
vt 0.4176576 0.9710725
vt 0.4176576 0.9710725
vt 0.4176576 0.9710725
vt 0.4176576 0.9710725
vt 0.4176576 0.9710725
vt 0.4176576 0.9710725
vt 0.4176576 0.9710725
vt 0.4176576 0.9710725
vt 0.4176576 0.9710725
vt 0.4176576 0.9710725
vt 0.4176576 0.9710725
vt 0.4176576 0.9710725
vt 0.4176576 0.9710725
vt 0.4176576 0.9710725
vt 0.4176576 0.9710725
vt 0.4176576 0.9710725
vt 0.4176576 0.9710725
vt 0.4176576 0.9710725
vt 0.4176576 0.9710725
vt 0.4176576 0.9710725
vt 0.4176576 0.9710725
vt 0.4176576 0.9710725
vt 0.4176576 0.9710725
vt 0.4176576 0.9710725
vt 0.4176576 0.9710725
vt 0.4176576 0.9710725
vt 0.4176576 0.9710725
vt 0.4176576 0.9710725
vt 0.4176576 0.9710725
vt 0.4176576 0.9710725
vt 0.4176576 0.9710725
vt 0.4176576 0.9710725
vt 0.4176576 0.9710725
vt 0.4176576 0.9710725
vt 0.4176576 0.9710725
vt 0.4176576 0.9710725
vt 0.4176576 0.9710725
vt 0.4176576 0.9710725
vt 0.4176576 0.9710725
vt 0.4176576 0.9710725
vt 0.4176576 0.9710725
vt 0.4176576 0.9710725
vt 0.4176576 0.9710725
vt 0.4176576 0.9710725
vt 0.4176576 0.9710725
vt 0.4176576 0.9710725
vt 0.4176576 0.9710725
vt 0.4176576 0.9710725
vt 0.4176576 0.9710725
vt 0.4176576 0.9710725
vt 0.4176576 0.9710725
vt 0.4176576 0.9710725
vt 0.4176576 0.9710725
vt 0.4176576 0.9710725
vt 0.4176576 0.9710725
vn 0.01587099 0.01587105 0.9997481
vn 0.01587099 0.01587105 0.9997481
vn 0.01587099 0.01587105 0.9997481
vn 0.01587099 0.01587105 0.9997481
vn 0.999874 0.01587105 -0.0003439156
vn 0.999874 0.01587105 -0.0003439156
vn 0.999874 0.01587105 -0.0003439156
vn 0.999874 0.01587105 -0.0003439156
vn -0.999874 0.01587105 -0.0003439156
vn -0.999874 0.01587105 -0.0003439156
vn -0.999874 0.01587105 -0.0003439156
vn -0.999874 0.01587105 -0.0003439156
vn -0.01587105 0.01587105 -0.9997481
vn -0.01587105 0.01587105 -0.9997481
vn -0.01587105 0.01587105 -0.9997481
vn -0.01587105 0.01587105 -0.9997481
vn -0.1110971 0.01587105 -0.9936828
vn 0.1110971 0.01587105 -0.9936828
vn 0.1110971 0.01587105 -0.9936828
vn -0.1110971 0.01587105 -0.9936828
vn -0.968132 0.01587105 -0.249937
vn -0.968132 0.01587105 -0.249937
vn 0.968132 0.01587105 -0.2499373
vn 0.968132 0.01587105 0.2499373
vn 0.968132 0.01587105 0.2499373
vn 0.968132 0.01587105 -0.2499373
vn 0.1110971 0.01587105 -0.9936828
vn 0.1110971 0.01587105 -0.9936828
vn -0.968132 0.01587105 0.249937
vn -0.968132 0.01587105 -0.249937
vn -0.968132 0.01587105 -0.249937
vn -0.968132 0.01587105 0.249937
vn -0.1110971 0.01587105 0.9936828
vn -0.1110971 0.01587105 0.9936828
vn 0.1110971 0.01587105 -0.9936828
vn 0.968132 -0.01587099 -0.2499373
vn 0.968132 -0.01587099 -0.2499373
vn 0.1110971 0.01587105 -0.9936828
vn -0.1110971 0.01587105 -0.9936828
vn -0.1110971 0.01587105 -0.9936828
vn 0.1110971 0.01587105 0.9936828
vn 0.968132 0.01587105 0.2499373
vn 0.968132 0.01587105 0.2499373
vn 0.1110971 0.01587105 0.9936828
vn -0.1110971 0.01587105 0.9936828
vn -0.1110971 0.01587105 0.9936828
vn -0.01587105 -0.999874 -0.000345267
vn -0.01587105 -0.999874 -0.000345267
vn -0.01587105 -0.999874 -0.000345267
vn -0.01587105 -0.999874 -0.000345267
vn -0.01587105 -0.999874 -0.000345267
vn -0.01587105 -0.999874 -0.000345267
vn -0.01587105 -0.999874 -0.000345267
vn -0.01587105 -0.999874 -0.000345267
vn -0.968132 0.01587105 -0.249937
vn -0.1110971 0.01587105 -0.9936828
vn -0.1110971 0.01587105 -0.9936828
vn -0.968132 0.01587105 -0.249937
vn -0.968132 0.01587105 0.249937
vn -0.968132 0.01587105 0.249937
vn 0.968132 -0.01587099 -0.2499373
vn 0.968132 -0.01587099 -0.2499373
vn 0.968132 -0.01587099 0.2499373
vn 0.968132 -0.01587099 0.2499373
vn 0.1110971 0.01587105 0.9936828
vn 0.1110971 0.01587105 0.9936828
vn 0.1110971 0.01587105 0.9936828
vn 0.1110971 0.01587105 0.9936828
vn -0.1110971 0.01587105 0.9936828
vn -0.1110971 0.01587105 0.9936828
vn -0.968132 0.01587105 0.249937
vn -0.968132 0.01587105 0.249937
vn 0.01587099 0.01587105 0.9997481
vn 0.01587099 0.01587105 0.9997481
vn 0.01587099 0.01587105 0.9997481
vn 0.01587099 0.01587105 0.9997481
vn -0.01587105 0.01587105 -0.9997481
vn -0.01587105 0.01587105 -0.9997481
vn -0.01587105 0.01587105 -0.9997481
vn -0.01587105 0.01587105 -0.9997481
vn -0.999874 0.01587105 -0.0003439156
vn -0.999874 0.01587105 -0.0003439156
vn -0.999874 0.01587105 -0.0003439156
vn -0.999874 0.01587105 -0.0003439156
vn 0.999874 0.01587105 -0.0003439156
vn 0.999874 0.01587105 -0.0003439156
vn 0.999874 0.01587105 -0.0003439156
vn 0.999874 0.01587105 -0.0003439156
vn -0.01587105 0.01587105 -0.9997481
vn -0.01587105 0.01587105 -0.9997481
vn -0.01587105 0.01587105 -0.9997481
vn -0.01587105 0.01587105 -0.9997481
vn -0.999874 0.01587105 -0.0003439156
vn -0.999874 0.01587105 -0.0003439156
vn -0.999874 0.01587105 -0.0003439156
vn -0.999874 0.01587105 -0.0003439156
vn -0.01587105 0.01587105 0.9997481
vn -0.01587105 0.01587105 0.9997481
vn -0.01587105 0.01587105 0.9997481
vn -0.01587105 0.01587105 0.9997481
vn 0.999874 0.01587105 -0.0003439156
vn 0.999874 0.01587105 -0.0003439156
vn 0.999874 0.01587105 -0.0003439156
vn 0.999874 0.01587105 -0.0003439156
vn -0.01587105 0.999874 -0.000345267
vn -0.01587105 0.999874 -0.000345267
vn -0.01587105 0.999874 -0.000345267
vn -0.01587105 0.999874 -0.000345267
vn -0.01587105 0.999874 -0.000345267
vn -0.01587105 0.999874 -0.000345267
vn -0.01587105 0.999874 -0.000345267
vn -0.01587105 0.999874 -0.000345267
vn -0.01587105 0.999874 -0.000345267
vn -0.01587105 0.999874 -0.000345267
vn -0.01587105 0.999874 -0.000345267
vn -0.01587105 0.999874 -0.000345267
vn -0.01587105 0.999874 -0.000345267
vn -0.01587105 0.999874 -0.000345267
vn -0.01587105 0.999874 -0.000345267
vn -0.01587105 0.999874 -0.000345267
vn -0.01587105 0.999874 -0.000345267
vn -0.01587105 0.999874 -0.000345267
vn -0.01587105 0.999874 -0.000345267
vn -0.01587105 0.999874 -0.000345267
vn -0.01587105 0.999874 -0.000345267
vn -0.01587105 0.999874 -0.000345267
vn -0.01587105 0.999874 -0.000345267
vn -0.01587105 0.999874 -0.000345267
vn -0.01587105 -0.999874 -0.000345267
vn -0.01587105 -0.999874 -0.000345267
vn -0.01587105 -0.999874 -0.000345267
vn -0.01587105 -0.999874 -0.000345267
vn -0.01587105 -0.999874 -0.000345267
vn -0.01587105 -0.999874 -0.000345267
vn -0.01587105 -0.999874 -0.000345267
vn -0.01587105 -0.999874 -0.000345267
vn -0.01587105 0.999874 -0.000345267
vn -0.01587105 0.999874 -0.000345267
vn -0.01587105 0.999874 -0.000345267
vn -0.01587105 0.999874 -0.000345267
vn -0.01587105 0.999874 -0.000345267
vn -0.01587105 0.999874 -0.000345267
vn -0.01587105 0.999874 -0.000345267
vn -0.01587105 0.999874 -0.000345267
vn -0.01587105 0.999874 -0.000345267
vn -0.01587105 0.999874 -0.000345267
vn -0.01587105 0.999874 -0.000345267
vn -0.01587105 0.999874 -0.000345267
vn -0.01587105 0.999874 -0.000345267
vn -0.01587105 0.999874 -0.000345267
vn -0.01587105 0.999874 -0.000345267
vn -0.01587105 0.999874 -0.000345267
g pillar_03_D_0
f 3/3/3 2/2/2 1/1/1
f 4/4/4 3/3/3 1/1/1
f 7/7/7 6/6/6 5/5/5
f 8/8/8 7/7/7 5/5/5
f 11/11/11 10/10/10 9/9/9
f 12/12/12 11/11/11 9/9/9
f 15/15/15 14/14/14 13/13/13
f 16/16/16 15/15/15 13/13/13
f 19/19/19 18/18/18 17/17/17
f 18/18/18 20/20/20 17/17/17
f 20/20/20 21/21/21 17/17/17
f 21/21/21 22/22/22 17/17/17
f 25/25/25 24/24/24 23/23/23
f 24/24/24 26/26/26 23/23/23
f 23/23/23 26/26/26 27/27/27
f 28/28/28 23/23/23 27/27/27
f 31/31/31 30/30/30 29/29/29
f 30/30/30 32/32/32 29/29/29
f 32/32/32 33/33/33 29/29/29
f 33/33/33 34/34/34 29/29/29
f 37/37/37 36/36/36 35/35/35
f 36/36/36 38/38/38 35/35/35
f 35/35/35 38/38/38 39/39/39
f 38/38/38 40/40/40 39/39/39
f 43/43/43 42/42/42 41/41/41
f 44/44/44 43/43/43 41/41/41
f 45/45/45 44/44/44 41/41/41
f 46/46/46 45/45/45 41/41/41
f 49/49/49 48/48/48 47/47/47
f 47/47/47 50/50/50 49/49/49
f 47/47/47 51/51/51 50/50/50
f 51/51/51 52/52/52 50/50/50
f 51/51/51 53/53/53 52/52/52
f 53/53/53 54/54/54 52/52/52
f 57/57/57 56/56/56 55/55/55
f 56/56/56 58/58/58 55/55/55
f 55/55/55 58/58/58 59/59/59
f 58/58/58 60/60/60 59/59/59
f 63/63/63 62/62/62 61/61/61
f 64/64/64 63/63/63 61/61/61
f 65/65/65 63/63/63 64/64/64
f 66/66/66 65/65/65 64/64/64
f 69/69/69 68/68/68 67/67/67
f 70/70/70 69/69/69 67/67/67
f 71/71/71 69/69/69 70/70/70
f 72/72/72 71/71/71 70/70/70
f 75/75/75 74/74/74 73/73/73
f 76/76/76 75/75/75 73/73/73
f 79/79/79 78/78/78 77/77/77
f 80/80/80 79/79/79 77/77/77
f 83/83/83 82/82/82 81/81/81
f 84/84/84 83/83/83 81/81/81
f 87/87/87 86/86/86 85/85/85
f 88/88/88 87/87/87 85/85/85
f 91/91/91 90/90/90 89/89/89
f 92/92/92 91/91/91 89/89/89
f 95/95/95 94/94/94 93/93/93
f 96/96/96 95/95/95 93/93/93
f 99/99/99 98/98/98 97/97/97
f 100/100/100 99/99/99 97/97/97
f 103/103/103 102/102/102 101/101/101
f 104/104/104 103/103/103 101/101/101
f 107/107/107 106/106/106 105/105/105
f 106/106/106 107/107/107 108/108/108
f 105/105/105 109/109/109 107/107/107
f 110/110/110 109/109/109 105/105/105
f 109/109/109 111/111/111 107/107/107
f 111/111/111 109/109/109 110/110/110
f 111/111/111 112/112/112 107/107/107
f 108/108/108 107/107/107 112/112/112
f 110/110/110 113/113/113 111/111/111
f 112/112/112 114/114/114 108/108/108
f 114/114/114 115/115/115 108/108/108
f 110/110/110 116/116/116 113/113/113
f 114/114/114 117/117/117 115/115/115
f 117/117/117 114/114/114 113/113/113
f 115/115/115 117/117/117 118/118/118
f 119/119/119 118/118/118 117/117/117
f 116/116/116 120/120/120 113/113/113
f 113/113/113 120/120/120 117/117/117
f 120/120/120 119/119/119 117/117/117
f 119/119/119 120/120/120 116/116/116
f 123/123/123 122/122/122 121/121/121
f 122/122/122 124/124/124 121/121/121
f 125/125/125 122/122/122 123/123/123
f 121/121/121 124/124/124 126/126/126
f 127/127/127 125/125/125 123/123/123
f 124/124/124 128/128/128 126/126/126
f 128/128/128 125/125/125 127/127/127
f 126/126/126 128/128/128 127/127/127
f 131/131/131 130/130/130 129/129/129
f 130/130/130 132/132/132 129/129/129
f 133/133/133 130/130/130 131/131/131
f 129/129/129 132/132/132 134/134/134
f 135/135/135 133/133/133 131/131/131
f 132/132/132 136/136/136 134/134/134
f 136/136/136 133/133/133 135/135/135
f 134/134/134 136/136/136 135/135/135
f 139/139/139 138/138/138 137/137/137
f 140/140/140 139/139/139 137/137/137
f 137/137/137 138/138/138 141/141/141
f 142/142/142 139/139/139 140/140/140
f 138/138/138 143/143/143 141/141/141
f 144/144/144 142/142/142 140/140/140
f 141/141/141 143/143/143 145/145/145
f 146/146/146 142/142/142 144/144/144
f 143/143/143 147/147/147 145/145/145
f 148/148/148 146/146/146 144/144/144
f 145/145/145 147/147/147 149/149/149
f 150/150/150 146/146/146 148/148/148
f 147/147/147 151/151/151 149/149/149
f 152/152/152 150/150/150 148/148/148
f 149/149/149 151/151/151 152/152/152
f 151/151/151 150/150/150 152/152/152
