g platform_01
v -1.998045 0.003910065 4
v -1.998045 0.003910065 -4
v -1.998045 0.09775162 -4
v -1.998045 0.09775162 4
v -1.998045 0.003910065 -4
v 1.998045 0.003910065 -4
v 1.998045 0.09775162 -4
v -1.998045 0.09775162 -4
v 1.998045 0.003910065 -4
v 1.998045 0.003910065 4
v 1.998045 0.09775162 4
v 1.998045 0.09775162 -4
v 1.998045 0.003910065 4
v -1.998045 0.003910065 4
v -1.998045 0.09775162 4
v 1.998045 0.09775162 4
v 1.998045 0.09775162 -4
v 1.998045 0.09775162 4
v -1.998045 0.09775162 4
v -1.998045 0.09775162 -4
vt 0.4181077 0.9725552
vt 0.4181077 0.9725552
vt 0.4181077 0.9725552
vt 0.4181077 0.9725552
vt 0.4181077 0.9725552
vt 0.4181077 0.9725552
vt 0.4181077 0.9725552
vt 0.4181077 0.9725552
vt 0.4181077 0.9725552
vt 0.4181077 0.9725552
vt 0.4181077 0.9725552
vt 0.4181077 0.9725552
vt 0.4181077 0.9725552
vt 0.4181077 0.9725552
vt 0.4181077 0.9725552
vt 0.4181077 0.9725552
vt 0.4181077 0.9725552
vt 0.4181077 0.9725552
vt 0.4181077 0.9725552
vt 0.4181077 0.9725552
vn -0.999874 0.01587105 -0.0003439156
vn -0.999874 0.01587105 -0.0003439156
vn -0.999874 0.01587105 -0.0003439156
vn -0.999874 0.01587105 -0.0003439156
vn -0.01587105 0.01587105 -0.9997481
vn -0.01587105 0.01587105 -0.9997481
vn -0.01587105 0.01587105 -0.9997481
vn -0.01587105 0.01587105 -0.9997481
vn 0.999874 0.01587105 -0.0003439156
vn 0.999874 0.01587105 -0.0003439156
vn 0.999874 0.01587105 -0.0003439156
vn 0.999874 0.01587105 -0.0003439156
vn -0.01587105 0.01587105 0.9997481
vn -0.01587105 0.01587105 0.9997481
vn -0.01587105 0.01587105 0.9997481
vn -0.01587105 0.01587105 0.9997481
vn -0.01587105 0.999874 -0.000345267
vn -0.01587105 0.999874 -0.000345267
vn -0.01587105 0.999874 -0.000345267
vn -0.01587105 0.999874 -0.000345267
g platform_01_0
f 3/3/3 2/2/2 1/1/1
f 4/4/4 3/3/3 1/1/1
f 7/7/7 6/6/6 5/5/5
f 8/8/8 7/7/7 5/5/5
f 11/11/11 10/10/10 9/9/9
f 12/12/12 11/11/11 9/9/9
f 15/15/15 14/14/14 13/13/13
f 16/16/16 15/15/15 13/13/13
f 19/19/19 18/18/18 17/17/17
f 20/20/20 19/19/19 17/17/17
