g playground_04
v 0.1997068 0.09999999 0.3
v 0.1997068 0.09999999 0.2431085
v 0.1997068 0.09999999 -0.2431085
v -0.2002932 0.09999999 -0.3
v -0.2002932 0.09999999 -0.2431085
v -0.2002932 0.09999999 0.2431085
v 0.1997068 0.09999999 -0.3
v 0.1997068 0.0002932549 -0.3
v 0.1997068 0.0002932549 0.3
v 0.1997068 0.09999999 -0.2431085
v 0.1997068 0.09999999 0.3
v 0.185044 0.1762463 -0.3
v 0.185044 0.1762463 -0.2431085
v 0.185044 0.1762463 0.2431085
v 0.1997068 0.09999999 0.2431085
v 0.1997068 0.09999999 0.3
v 0.185044 0.1762463 0.3
v 0.1416422 0.241349 0.2431085
v 0.1416422 0.241349 0.3
v 0.07653961 0.2847507 0.2431085
v 0.07653961 0.2847507 0.3
v -0.2002932 0.0002932549 -0.3
v -0.2002932 0.0002932549 0.3
v 0.1997068 0.0002932549 0.3
v 0.1997068 0.0002932549 -0.3
v -0.2002932 0.0002932549 -0.3
v 0.1997068 0.0002932549 -0.3
v 0.1997068 0.09999999 -0.3
v 0.185044 0.1762463 -0.3
v 0.1416422 0.241349 -0.3
v 0.07653961 0.2847507 -0.3
v -0.0002932549 0.3 -0.3
v -0.07653958 0.2847507 -0.3
v -0.1416422 0.241349 -0.3
v -0.185044 0.1762463 -0.3
v -0.2002932 0.09999999 -0.3
v -0.07653958 0.2847507 0.3
v -0.1416422 0.241349 0.3
v -0.1416422 0.241349 0.2431085
v -0.07653958 0.2847507 0.2431085
v -0.0002932549 0.3 0.3
v -0.0002932549 0.3 0.2431085
v 0.07653961 0.2847507 0.3
v 0.07653961 0.2847507 0.2431085
v -0.2002932 0.09999999 0.3
v -0.2002932 0.0002932549 0.3
v -0.2002932 0.0002932549 -0.3
v -0.2002932 0.09999999 0.2431085
v -0.2002932 0.09999999 -0.3
v -0.185044 0.1762463 0.3
v -0.185044 0.1762463 0.2431085
v -0.1416422 0.241349 0.3
v -0.1416422 0.241349 0.2431085
v -0.185044 0.1762463 -0.2431085
v -0.2002932 0.09999999 -0.2431085
v -0.2002932 0.09999999 -0.3
v -0.185044 0.1762463 -0.3
v -0.1416422 0.241349 -0.2431085
v -0.1416422 0.241349 -0.3
v -0.07653958 0.2847507 -0.2431085
v -0.07653958 0.2847507 -0.3
v 0.1416422 0.241349 -0.3
v 0.185044 0.1762463 -0.3
v 0.185044 0.1762463 -0.2431085
v 0.1416422 0.241349 -0.2431085
v 0.07653961 0.2847507 -0.3
v 0.07653961 0.2847507 -0.2431085
v -0.0002932549 0.3 -0.3
v -0.0002932549 0.3 -0.2431085
v -0.07653958 0.2847507 -0.3
v -0.07653958 0.2847507 -0.2431085
v 0.185044 0.1762463 0.3
v 0.1997068 0.09999999 0.3
v 0.1997068 0.0002932549 0.3
v -0.2002932 0.0002932549 0.3
v 0.1416422 0.241349 0.3
v 0.07653961 0.2847507 0.3
v -0.0002932549 0.3 0.3
v -0.07653958 0.2847507 0.3
v -0.1416422 0.241349 0.3
v -0.185044 0.1762463 0.3
v -0.2002932 0.09999999 0.3
v 0.1997068 0.09999999 0.2431085
v -0.2002932 0.09999999 0.2431085
v -0.2002932 0.09999999 -0.2431085
v 0.1997068 0.09999999 -0.2431085
v 0.185044 0.1762463 -0.2431085
v 0.1997068 0.09999999 -0.2431085
v -0.2002932 0.09999999 -0.2431085
v 0.1416422 0.241349 -0.2431085
v 0.07653961 0.2847507 -0.2431085
v -0.0002932549 0.3 -0.2431085
v -0.07653958 0.2847507 -0.2431085
v -0.1416422 0.241349 -0.2431085
v -0.185044 0.1762463 -0.2431085
v -0.2002932 0.09999999 0.2431085
v 0.1997068 0.09999999 0.2431085
v 0.185044 0.1762463 0.2431085
v 0.1416422 0.241349 0.2431085
v 0.07653961 0.2847507 0.2431085
v -0.0002932549 0.3 0.2431085
v -0.07653958 0.2847507 0.2431085
v -0.1416422 0.241349 0.2431085
v -0.185044 0.1762463 0.2431085
vt 0.3464056 0.7782609
vt 0.3464056 0.7782609
vt 0.3464056 0.7782609
vt 0.3464056 0.7782609
vt 0.3464056 0.7782609
vt 0.3464056 0.7782609
vt 0.3464056 0.7782609
vt 0.3464056 0.7782609
vt 0.3464056 0.7782609
vt 0.3464056 0.7782609
vt 0.3464056 0.7782609
vt 0.3464056 0.7782609
vt 0.3464056 0.7782609
vt 0.3464056 0.7782609
vt 0.3464056 0.7782609
vt 0.3464056 0.7782609
vt 0.3464056 0.7782609
vt 0.3464056 0.7782609
vt 0.3464056 0.7782609
vt 0.3464056 0.7782609
vt 0.3464056 0.7782609
vt 0.3464056 0.7782609
vt 0.3464056 0.7782609
vt 0.3464056 0.7782609
vt 0.3464056 0.7782609
vt 0.3464056 0.7782609
vt 0.3464056 0.7782609
vt 0.3464056 0.7782609
vt 0.3464056 0.7782609
vt 0.3464056 0.7782609
vt 0.3464056 0.7782609
vt 0.3464056 0.7782609
vt 0.3464056 0.7782609
vt 0.3464056 0.7782609
vt 0.3464056 0.7782609
vt 0.3464056 0.7782609
vt 0.3464056 0.7782609
vt 0.3464056 0.7782609
vt 0.3464056 0.7782609
vt 0.3464056 0.7782609
vt 0.3464056 0.7782609
vt 0.3464056 0.7782609
vt 0.3464056 0.7782609
vt 0.3464056 0.7782609
vt 0.3464056 0.7782609
vt 0.3464056 0.7782609
vt 0.3464056 0.7782609
vt 0.3464056 0.7782609
vt 0.3464056 0.7782609
vt 0.3464056 0.7782609
vt 0.3464056 0.7782609
vt 0.3464056 0.7782609
vt 0.3464056 0.7782609
vt 0.3464056 0.7782609
vt 0.3464056 0.7782609
vt 0.3464056 0.7782609
vt 0.3464056 0.7782609
vt 0.3464056 0.7782609
vt 0.3464056 0.7782609
vt 0.3464056 0.7782609
vt 0.3464056 0.7782609
vt 0.3464056 0.7782609
vt 0.3464056 0.7782609
vt 0.3464056 0.7782609
vt 0.3464056 0.7782609
vt 0.3464056 0.7782609
vt 0.3464056 0.7782609
vt 0.3464056 0.7782609
vt 0.3464056 0.7782609
vt 0.3464056 0.7782609
vt 0.3464056 0.7782609
vt 0.3464056 0.7782609
vt 0.3464056 0.7782609
vt 0.3464056 0.7782609
vt 0.3464056 0.7782609
vt 0.3464056 0.7782609
vt 0.3464056 0.7782609
vt 0.3464056 0.7782609
vt 0.3464056 0.7782609
vt 0.3464056 0.7782609
vt 0.3464056 0.7782609
vt 0.3464056 0.7782609
vt 0.3464056 0.7782609
vt 0.3464056 0.7782609
vt 0.3464056 0.7782609
vt 0.3464056 0.7782609
vt 0.3464056 0.7782609
vt 0.3464056 0.7782609
vt 0.3464056 0.7782609
vt 0.3464056 0.7782609
vt 0.3464056 0.7782609
vt 0.3464056 0.7782609
vt 0.3464056 0.7782609
vt 0.3464056 0.7782609
vt 0.3464056 0.7782609
vt 0.3464056 0.7782609
vt 0.3464056 0.7782609
vt 0.3464056 0.7782609
vt 0.3464056 0.7782609
vt 0.3464056 0.7782609
vt 0.3464056 0.7782609
vt 0.3464056 0.7782609
vt 0.3464056 0.7782609
vt 0.3464056 0.7782609
vn -0.01587105 0.999874 -0.000345267
vn -0.01587105 0.999874 -0.000345267
vn -0.01587105 0.999874 -0.000345267
vn -0.01587105 0.999874 -0.000345267
vn -0.01587105 0.999874 -0.000345267
vn -0.01587105 0.999874 -0.000345267
vn 0.999874 0.01587105 -0.0003439156
vn 0.999874 0.01587105 -0.0003439156
vn 0.999874 0.01587105 -0.0003439156
vn 0.9968654 0.07911634 0
vn 0.999874 0.01587105 -0.0003439156
vn 0.9207517 0.390149 0
vn 0.9207517 0.390149 0
vn 0.9207517 0.390149 0
vn 0.968132 0.2063233 -0.1419551
vn 0.968132 0.2063233 -0.1419551
vn 0.9207517 0.390149 0
vn 0.7071068 0.7071068 0
vn 0.7071068 0.7071068 0
vn 0.390149 0.9207517 0
vn 0.390149 0.9207517 0
vn -0.01587105 -0.999874 -0.000345267
vn -0.01587105 -0.999874 -0.000345267
vn -0.01587105 -0.999874 -0.000345267
vn -0.01587105 -0.999874 -0.000345267
vn -0.01587105 0.01587105 -0.9997481
vn -0.01587105 0.01587105 -0.9997481
vn -0.01587105 0.01587105 -0.9997481
vn -0.01587105 0.01587105 -0.9997481
vn -0.01587105 0.01587105 -0.9997481
vn -0.01587105 0.01587105 -0.9997481
vn -0.01587105 0.01587105 -0.9997481
vn -0.01587105 0.01587105 -0.9997481
vn -0.01587105 0.01587105 -0.9997481
vn -0.01587105 0.01587105 -0.9997481
vn -0.01587105 0.01587105 -0.9997481
vn -0.390149 0.9207517 0
vn -0.7071068 0.7071068 0
vn -0.7071068 0.7071068 0
vn -0.390149 0.9207517 0
vn -0.01587105 0.999874 -0.000345267
vn -0.01587105 0.999874 -0.000345267
vn 0.390149 0.9207517 0
vn 0.390149 0.9207517 0
vn -0.999874 0.01587105 -0.0003439156
vn -0.999874 0.01587105 -0.0003439156
vn -0.999874 0.01587105 -0.0003439156
vn -0.9968654 0.07911634 0
vn -0.999874 0.01587105 -0.0003439156
vn -0.9207517 0.390149 0
vn -0.9207517 0.390149 0
vn -0.7071068 0.7071068 0
vn -0.7071068 0.7071068 0
vn -0.9207517 0.390149 0
vn -0.968132 0.2063233 -0.1419547
vn -0.968132 0.2063233 -0.1419547
vn -0.9207517 0.390149 0
vn -0.7071068 0.7071068 0
vn -0.7071068 0.7071068 0
vn -0.390149 0.9207517 0
vn -0.390149 0.9207517 0
vn 0.7071068 0.7071068 0
vn 0.9207517 0.390149 0
vn 0.9207517 0.390149 0
vn 0.7071068 0.7071068 0
vn 0.390149 0.9207517 0
vn 0.390149 0.9207517 0
vn -0.01587105 0.999874 -0.000345267
vn -0.01587105 0.999874 -0.000345267
vn -0.390149 0.9207517 0
vn -0.390149 0.9207517 0
vn -0.01587105 0.01587105 0.9997481
vn -0.01587105 0.01587105 0.9997481
vn -0.01587105 0.01587105 0.9997481
vn -0.01587105 0.01587105 0.9997481
vn -0.01587105 0.01587105 0.9997481
vn -0.01587105 0.01587105 0.9997481
vn -0.01587105 0.01587105 0.9997481
vn -0.01587105 0.01587105 0.9997481
vn -0.01587105 0.01587105 0.9997481
vn -0.01587105 0.01587105 0.9997481
vn -0.01587105 0.01587105 0.9997481
vn -0.01587105 0.999874 -0.000345267
vn -0.01587105 0.999874 -0.000345267
vn -0.01587105 0.999874 -0.000345267
vn -0.01587105 0.999874 -0.000345267
vn -0.01587105 -0.01587099 0.9997481
vn -0.01587105 -0.01587099 0.9997481
vn -0.01587105 -0.01587099 0.9997481
vn -0.01587105 0.01587105 0.9997481
vn -0.01587105 0.01587105 0.9997481
vn -0.01587105 0.01587105 0.9997481
vn -0.01587105 0.01587105 0.9997481
vn -0.01587105 0.01587105 0.9997481
vn -0.01587105 0.01587105 0.9997481
vn -0.01587105 -0.01587099 -0.9997481
vn -0.01587105 0.01587105 -0.9997481
vn -0.01587105 0.01587105 -0.9997481
vn -0.01587105 0.01587105 -0.9997481
vn -0.01587105 -0.01587099 -0.9997481
vn -0.01587105 -0.01587099 -0.9997481
vn -0.01587105 -0.01587099 -0.9997481
vn 0.01587099 -0.01587099 -0.9997481
vn 0.01587099 -0.01587099 -0.9997481
g playground_04_0
f 3/3/3 2/2/2 1/1/1
f 6/6/6 5/5/5 4/4/4
f 9/9/9 8/8/8 7/7/7
f 7/7/7 10/10/10 9/9/9
f 10/10/10 11/11/11 9/9/9
f 10/10/10 7/7/7 12/12/12
f 13/13/13 10/10/10 12/12/12
f 16/16/16 15/15/15 14/14/14
f 17/17/17 16/16/16 14/14/14
f 17/17/17 14/14/14 18/18/18
f 19/19/19 17/17/17 18/18/18
f 19/19/19 18/18/18 20/20/20
f 21/21/21 19/19/19 20/20/20
f 24/24/24 23/23/23 22/22/22
f 25/25/25 24/24/24 22/22/22
f 28/28/28 27/27/27 26/26/26
f 26/26/26 29/29/29 28/28/28
f 26/26/26 30/30/30 29/29/29
f 26/26/26 31/31/31 30/30/30
f 26/26/26 32/32/32 31/31/31
f 26/26/26 33/33/33 32/32/32
f 26/26/26 34/34/34 33/33/33
f 26/26/26 35/35/35 34/34/34
f 26/26/26 36/36/36 35/35/35
f 39/39/39 38/38/38 37/37/37
f 40/40/40 39/39/39 37/37/37
f 40/40/40 37/37/37 41/41/41
f 42/42/42 40/40/40 41/41/41
f 41/41/41 43/43/43 42/42/42
f 43/43/43 44/44/44 42/42/42
f 47/47/47 46/46/46 45/45/45
f 45/45/45 48/48/48 47/47/47
f 48/48/48 49/49/49 47/47/47
f 48/48/48 45/45/45 50/50/50
f 51/51/51 48/48/48 50/50/50
f 51/51/51 50/50/50 52/52/52
f 53/53/53 51/51/51 52/52/52
f 56/56/56 55/55/55 54/54/54
f 57/57/57 56/56/56 54/54/54
f 57/57/57 54/54/54 58/58/58
f 59/59/59 57/57/57 58/58/58
f 59/59/59 58/58/58 60/60/60
f 61/61/61 59/59/59 60/60/60
f 64/64/64 63/63/63 62/62/62
f 65/65/65 64/64/64 62/62/62
f 65/65/65 62/62/62 66/66/66
f 67/67/67 65/65/65 66/66/66
f 67/67/67 66/66/66 68/68/68
f 69/69/69 67/67/67 68/68/68
f 68/68/68 70/70/70 69/69/69
f 70/70/70 71/71/71 69/69/69
f 74/74/74 73/73/73 72/72/72
f 72/72/72 75/75/75 74/74/74
f 72/72/72 76/76/76 75/75/75
f 76/76/76 77/77/77 75/75/75
f 77/77/77 78/78/78 75/75/75
f 78/78/78 79/79/79 75/75/75
f 79/79/79 80/80/80 75/75/75
f 80/80/80 81/81/81 75/75/75
f 81/81/81 82/82/82 75/75/75
f 85/85/85 84/84/84 83/83/83
f 86/86/86 85/85/85 83/83/83
f 89/89/89 88/88/88 87/87/87
f 87/87/87 90/90/90 89/89/89
f 90/90/90 91/91/91 89/89/89
f 91/91/91 92/92/92 89/89/89
f 92/92/92 93/93/93 89/89/89
f 93/93/93 94/94/94 89/89/89
f 94/94/94 95/95/95 89/89/89
f 98/98/98 97/97/97 96/96/96
f 96/96/96 99/99/99 98/98/98
f 96/96/96 100/100/100 99/99/99
f 96/96/96 101/101/101 100/100/100
f 96/96/96 102/102/102 101/101/101
f 96/96/96 103/103/103 102/102/102
f 96/96/96 104/104/104 103/103/103
