g road_01
v 1.997067 0.002932549 2.002933
v 3 0.002932549 2.002933
v 3 -0.04985332 2.002933
v 1.997067 -0.04985332 2.002933
v 0.07917881 0.002932549 2.002933
v 0.07917881 -0.04985332 2.002933
v -0.07917881 -0.04985332 2.002933
v -0.07917881 0.002932549 2.002933
v -2.002933 -0.04985332 2.002933
v -2.002933 0.002932549 2.002933
v -3 -0.04985332 2.002933
v -3 0.002932549 2.002933
v 3 0.002932549 2.002933
v 3 0.04985332 2.002933
v 3 0.04985332 1.639296
v 3 0.002932549 1.639296
v 3 0.002932549 0.4193549
v 3 0.04985332 0.4193549
v 3 0.04985332 -0.4193549
v 3 0.002932549 -0.4193549
v 3 0.002932549 -1.639296
v 3 0.04985332 -1.639296
v 3 0.04985332 -1.997067
v 3 0.002932549 -1.997067
v 3 -0.04985332 1.639296
v 3 -0.04985332 2.002933
v 3 0.002932549 2.002933
v 3 0.002932549 1.639296
v 3 -0.04985332 0.4193549
v 3 0.002932549 0.4193549
v 3 -0.04985332 -0.4193549
v 3 0.002932549 -0.4193549
v 3 -0.04985332 -1.639296
v 3 0.002932549 -1.639296
v 3 -0.04985332 -1.997067
v 3 0.002932549 -1.997067
v 1.997067 0.04985332 -1.997067
v 3 0.04985332 -1.997067
v 3 0.04985332 -1.639296
v 1.997067 0.04985332 -1.639296
v 1.997067 0.04985332 -0.4193549
v 3 0.04985332 -0.4193549
v 3 0.04985332 0.4193549
v 1.997067 0.04985332 0.4193549
v 1.997067 0.04985332 1.639296
v 3 0.04985332 1.639296
v 3 0.04985332 2.002933
v 1.997067 0.04985332 2.002933
v 3 0.002932549 -1.997067
v 3 0.04985332 -1.997067
v 1.997067 0.04985332 -1.997067
v 1.997067 0.002932549 -1.997067
v 1.997067 -0.04985332 -1.997067
v 3 -0.04985332 -1.997067
v 3 0.002932549 -1.997067
v 1.997067 0.002932549 -1.997067
v 0.07917881 -0.04985332 -1.997067
v 0.07917881 0.002932549 -1.997067
v -0.07917881 0.002932549 -1.997067
v -0.07917881 -0.04985332 -1.997067
v -2.002933 0.002932549 -1.997067
v -2.002933 -0.04985332 -1.997067
v -3 0.002932549 -1.997067
v -3 -0.04985332 -1.997067
v 1.997067 0.002932549 2.002933
v 1.997067 0.04985332 2.002933
v 3 0.04985332 2.002933
v 3 0.002932549 2.002933
v 1.997067 0.002932549 1.639296
v 1.997067 0.002932549 2.002933
v 0.07917881 0.002932549 2.002933
v 0.07917881 0.002932549 1.639296
v 1.997067 0.002932549 0.4193549
v 0.07917881 0.002932549 0.4193549
v 1.997067 0.002932549 -0.4193549
v 0.07917881 0.002932549 -0.4193549
v 1.997067 0.002932549 -1.639296
v 0.07917881 0.002932549 -1.639296
v 1.997067 0.002932549 -1.997067
v 0.07917881 0.002932549 -1.997067
v -0.07917881 0.002932549 1.639296
v 0.07917881 0.002932549 2.002933
v -0.07917881 0.002932549 2.002933
v 0.07917881 0.002932549 1.639296
v 0.07917881 0.002932549 0.4193549
v -0.07917881 0.002932549 0.4193549
v -0.07917881 0.002932549 -0.4193549
v 0.07917881 0.002932549 -0.4193549
v 0.07917881 0.002932549 -1.639296
v -0.07917881 0.002932549 -1.639296
v -0.07917881 0.002932549 -1.997067
v 0.07917881 0.002932549 -1.997067
v 1.997067 0.002932549 -1.997067
v 1.997067 0.04985332 -1.997067
v 1.997067 0.04985332 -1.639296
v 1.997067 0.002932549 -1.639296
v 1.997067 0.002932549 -0.4193549
v 1.997067 0.04985332 -0.4193549
v 1.997067 0.04985332 0.4193549
v 1.997067 0.002932549 0.4193549
v 1.997067 0.002932549 1.639296
v 1.997067 0.04985332 1.639296
v 1.997067 0.04985332 2.002933
v 1.997067 0.002932549 2.002933
v -3 0.002932549 2.002933
v -3 0.04985332 1.639296
v -3 0.04985332 2.002933
v -3 0.002932549 1.639296
v -3 0.002932549 0.4193549
v -3 0.04985332 0.4193549
v -3 0.04985332 -0.4193549
v -3 0.002932549 -0.4193549
v -3 0.002932549 -1.639296
v -3 0.04985332 -1.639296
v -3 0.04985332 -1.997067
v -3 0.002932549 -1.997067
v -3 -0.04985332 1.639296
v -3 0.002932549 2.002933
v -3 -0.04985332 2.002933
v -3 0.002932549 1.639296
v -3 -0.04985332 0.4193549
v -3 0.002932549 0.4193549
v -3 -0.04985332 -0.4193549
v -3 0.002932549 -0.4193549
v -3 -0.04985332 -1.639296
v -3 0.002932549 -1.639296
v -3 -0.04985332 -1.997067
v -3 0.002932549 -1.997067
v -2.002933 0.04985332 -1.997067
v -3 0.04985332 -1.639296
v -3 0.04985332 -1.997067
v -2.002933 0.04985332 -1.639296
v -2.002933 0.04985332 -0.4193549
v -3 0.04985332 -0.4193549
v -3 0.04985332 0.4193549
v -2.002933 0.04985332 0.4193549
v -2.002933 0.04985332 1.639296
v -3 0.04985332 1.639296
v -3 0.04985332 2.002933
v -2.002933 0.04985332 2.002933
v -3 0.002932549 -1.997067
v -2.002933 0.002932549 -1.997067
v -2.002933 0.04985332 -1.997067
v -3 0.04985332 -1.997067
v -2.002933 0.002932549 2.002933
v -3 0.002932549 2.002933
v -3 0.04985332 2.002933
v -2.002933 0.04985332 2.002933
v -2.002933 0.002932549 1.639296
v -0.07917881 0.002932549 2.002933
v -2.002933 0.002932549 2.002933
v -0.07917881 0.002932549 1.639296
v -2.002933 0.002932549 0.4193549
v -0.07917881 0.002932549 0.4193549
v -2.002933 0.002932549 -0.4193549
v -0.07917881 0.002932549 -0.4193549
v -2.002933 0.002932549 -1.639296
v -0.07917881 0.002932549 -1.639296
v -2.002933 0.002932549 -1.997067
v -0.07917881 0.002932549 -1.997067
v -2.002933 0.002932549 -1.997067
v -2.002933 0.04985332 -1.639296
v -2.002933 0.04985332 -1.997067
v -2.002933 0.002932549 -1.639296
v -2.002933 0.002932549 -0.4193549
v -2.002933 0.04985332 -0.4193549
v -2.002933 0.04985332 0.4193549
v -2.002933 0.002932549 0.4193549
v -2.002933 0.002932549 1.639296
v -2.002933 0.04985332 1.639296
v -2.002933 0.04985332 2.002933
v -2.002933 0.002932549 2.002933
vt 0.07868022 0.8312861
vt 0.07868022 0.8312861
vt 0.07868022 0.8312861
vt 0.07868022 0.8312861
vt 0.07868022 0.8312861
vt 0.07868022 0.8312861
vt 0.07868022 0.8312861
vt 0.07868022 0.8312861
vt 0.07868022 0.8312861
vt 0.07868022 0.8312861
vt 0.07868022 0.8312861
vt 0.07868022 0.8312861
vt 0.06739113 0.8538643
vt 0.06739113 0.8538643
vt 0.06739113 0.8538643
vt 0.06739113 0.8538643
vt 0.06739113 0.8538643
vt 0.06739113 0.8538643
vt 0.06739113 0.8538643
vt 0.06739113 0.8538643
vt 0.06739113 0.8538643
vt 0.06739113 0.8538643
vt 0.06739113 0.8538643
vt 0.06739113 0.8538643
vt 0.07868022 0.8312861
vt 0.07868022 0.8312861
vt 0.07868022 0.8312861
vt 0.07868022 0.8312861
vt 0.07868022 0.8312861
vt 0.07868022 0.8312861
vt 0.07868022 0.8312861
vt 0.07868022 0.8312861
vt 0.07868022 0.8312861
vt 0.07868022 0.8312861
vt 0.07868022 0.8312861
vt 0.07868022 0.8312861
vt 0.06739113 0.8538643
vt 0.06739113 0.8538643
vt 0.06739113 0.8538643
vt 0.06739113 0.8538643
vt 0.06739113 0.8538643
vt 0.06739113 0.8538643
vt 0.06739113 0.8538643
vt 0.06739113 0.8538643
vt 0.06739113 0.8538643
vt 0.06739113 0.8538643
vt 0.06739113 0.8538643
vt 0.06739113 0.8538643
vt 0.06739113 0.8538643
vt 0.06739113 0.8538643
vt 0.06739113 0.8538643
vt 0.06739113 0.8538643
vt 0.07868022 0.8312861
vt 0.07868022 0.8312861
vt 0.07868022 0.8312861
vt 0.07868022 0.8312861
vt 0.07868022 0.8312861
vt 0.07868022 0.8312861
vt 0.07868022 0.8312861
vt 0.07868022 0.8312861
vt 0.07868022 0.8312861
vt 0.07868022 0.8312861
vt 0.07868022 0.8312861
vt 0.07868022 0.8312861
vt 0.06739113 0.8538643
vt 0.06739113 0.8538643
vt 0.06739113 0.8538643
vt 0.06739113 0.8538643
vt 0.07868022 0.8312861
vt 0.07868022 0.8312861
vt 0.07868022 0.8312861
vt 0.07868022 0.8312861
vt 0.07868022 0.8312861
vt 0.07868022 0.8312861
vt 0.07868022 0.8312861
vt 0.07868022 0.8312861
vt 0.07868022 0.8312861
vt 0.07868022 0.8312861
vt 0.07868022 0.8312861
vt 0.07868022 0.8312861
vt 0.1351257 0.8538643
vt 0.1351257 0.8538643
vt 0.1351257 0.8538643
vt 0.1351257 0.8538643
vt 0.1351257 0.8538643
vt 0.1351257 0.8538643
vt 0.1351257 0.8538643
vt 0.1351257 0.8538643
vt 0.1351257 0.8538643
vt 0.1351257 0.8538643
vt 0.1351257 0.8538643
vt 0.1351257 0.8538643
vt 0.06739113 0.8538643
vt 0.06739113 0.8538643
vt 0.06739113 0.8538643
vt 0.06739113 0.8538643
vt 0.06739113 0.8538643
vt 0.06739113 0.8538643
vt 0.06739113 0.8538643
vt 0.06739113 0.8538643
vt 0.06739113 0.8538643
vt 0.06739113 0.8538643
vt 0.06739113 0.8538643
vt 0.06739113 0.8538643
vt 0.06739113 0.8538643
vt 0.06739113 0.8538643
vt 0.06739113 0.8538643
vt 0.06739113 0.8538643
vt 0.06739113 0.8538643
vt 0.06739113 0.8538643
vt 0.06739113 0.8538643
vt 0.06739113 0.8538643
vt 0.06739113 0.8538643
vt 0.06739113 0.8538643
vt 0.06739113 0.8538643
vt 0.06739113 0.8538643
vt 0.07868022 0.8312861
vt 0.07868022 0.8312861
vt 0.07868022 0.8312861
vt 0.07868022 0.8312861
vt 0.07868022 0.8312861
vt 0.07868022 0.8312861
vt 0.07868022 0.8312861
vt 0.07868022 0.8312861
vt 0.07868022 0.8312861
vt 0.07868022 0.8312861
vt 0.07868022 0.8312861
vt 0.07868022 0.8312861
vt 0.06739113 0.8538643
vt 0.06739113 0.8538643
vt 0.06739113 0.8538643
vt 0.06739113 0.8538643
vt 0.06739113 0.8538643
vt 0.06739113 0.8538643
vt 0.06739113 0.8538643
vt 0.06739113 0.8538643
vt 0.06739113 0.8538643
vt 0.06739113 0.8538643
vt 0.06739113 0.8538643
vt 0.06739113 0.8538643
vt 0.06739113 0.8538643
vt 0.06739113 0.8538643
vt 0.06739113 0.8538643
vt 0.06739113 0.8538643
vt 0.06739113 0.8538643
vt 0.06739113 0.8538643
vt 0.06739113 0.8538643
vt 0.06739113 0.8538643
vt 0.07868022 0.8312861
vt 0.07868022 0.8312861
vt 0.07868022 0.8312861
vt 0.07868022 0.8312861
vt 0.07868022 0.8312861
vt 0.07868022 0.8312861
vt 0.07868022 0.8312861
vt 0.07868022 0.8312861
vt 0.07868022 0.8312861
vt 0.07868022 0.8312861
vt 0.07868022 0.8312861
vt 0.07868022 0.8312861
vt 0.06739113 0.8538643
vt 0.06739113 0.8538643
vt 0.06739113 0.8538643
vt 0.06739113 0.8538643
vt 0.06739113 0.8538643
vt 0.06739113 0.8538643
vt 0.06739113 0.8538643
vt 0.06739113 0.8538643
vt 0.06739113 0.8538643
vt 0.06739113 0.8538643
vt 0.06739113 0.8538643
vt 0.06739113 0.8538643
vn -0.01587105 0.01587105 0.9997481
vn -0.01587105 0.01587105 0.9997481
vn -0.01587105 0.01587105 0.9997481
vn -0.01587105 0.01587105 0.9997481
vn -0.01587105 0.01587105 0.9997481
vn -0.01587105 0.01587105 0.9997481
vn -0.01587105 0.01587105 0.9997481
vn -0.01587105 0.01587105 0.9997481
vn -0.01587105 0.01587105 0.9997481
vn -0.01587105 0.01587105 0.9997481
vn -0.01587105 0.01587105 0.9997481
vn -0.01587105 0.01587105 0.9997481
vn 0.999874 0.01587105 -0.0003439156
vn 0.999874 0.01587105 -0.0003439156
vn 0.999874 0.01587105 -0.0003439156
vn 0.999874 0.01587105 -0.0003439156
vn 0.999874 0.01587105 -0.0003439156
vn 0.999874 0.01587105 -0.0003439156
vn 0.999874 0.01587105 -0.0003439156
vn 0.999874 0.01587105 -0.0003439156
vn 0.999874 0.01587105 -0.0003439156
vn 0.999874 0.01587105 -0.0003439156
vn 0.999874 0.01587105 -0.0003439156
vn 0.999874 0.01587105 -0.0003439156
vn 0.999874 0.01587105 -0.0003439156
vn 0.999874 0.01587105 -0.0003439156
vn 0.999874 0.01587105 -0.0003439156
vn 0.999874 0.01587105 -0.0003439156
vn 0.999874 0.01587105 -0.0003439156
vn 0.999874 0.01587105 -0.0003439156
vn 0.999874 0.01587105 -0.0003439156
vn 0.999874 0.01587105 -0.0003439156
vn 0.999874 0.01587105 -0.0003439156
vn 0.999874 0.01587105 -0.0003439156
vn 0.999874 0.01587105 -0.0003439156
vn 0.999874 0.01587105 -0.0003439156
vn -0.01587105 0.999874 -0.000345267
vn -0.01587105 0.999874 -0.000345267
vn -0.01587105 0.999874 -0.000345267
vn -0.01587105 0.999874 -0.000345267
vn -0.01587105 0.999874 -0.000345267
vn -0.01587105 0.999874 -0.000345267
vn -0.01587105 0.999874 -0.000345267
vn -0.01587105 0.999874 -0.000345267
vn -0.01587105 0.999874 -0.000345267
vn -0.01587105 0.999874 -0.000345267
vn -0.01587105 0.999874 -0.000345267
vn -0.01587105 0.999874 -0.000345267
vn -0.01587105 0.01587105 -0.9997481
vn -0.01587105 0.01587105 -0.9997481
vn -0.01587105 0.01587105 -0.9997481
vn -0.01587105 0.01587105 -0.9997481
vn -0.01587105 0.01587105 -0.9997481
vn -0.01587105 0.01587105 -0.9997481
vn -0.01587105 0.01587105 -0.9997481
vn -0.01587105 0.01587105 -0.9997481
vn -0.01587105 0.01587105 -0.9997481
vn -0.01587105 0.01587105 -0.9997481
vn -0.01587105 0.01587105 -0.9997481
vn -0.01587105 0.01587105 -0.9997481
vn -0.01587105 0.01587105 -0.9997481
vn -0.01587105 0.01587105 -0.9997481
vn -0.01587105 0.01587105 -0.9997481
vn -0.01587105 0.01587105 -0.9997481
vn -0.01587105 0.01587105 0.9997481
vn -0.01587105 0.01587105 0.9997481
vn -0.01587105 0.01587105 0.9997481
vn -0.01587105 0.01587105 0.9997481
vn -0.01587105 0.999874 -0.000345267
vn -0.01587105 0.999874 -0.000345267
vn -0.01587105 0.999874 -0.000345267
vn -0.01587105 0.999874 -0.000345267
vn -0.01587105 0.999874 -0.000345267
vn -0.01587105 0.999874 -0.000345267
vn -0.01587105 0.999874 -0.000345267
vn -0.01587105 0.999874 -0.000345267
vn -0.01587105 0.999874 -0.000345267
vn -0.01587105 0.999874 -0.000345267
vn -0.01587105 0.999874 -0.000345267
vn -0.01587105 0.999874 -0.000345267
vn -0.01587105 0.999874 -0.000345267
vn -0.01587105 0.999874 -0.000345267
vn -0.01587105 0.999874 -0.000345267
vn -0.01587105 0.999874 -0.000345267
vn -0.01587105 0.999874 -0.000345267
vn -0.01587105 0.999874 -0.000345267
vn -0.01587105 0.999874 -0.000345267
vn -0.01587105 0.999874 -0.000345267
vn -0.01587105 0.999874 -0.000345267
vn -0.01587105 0.999874 -0.000345267
vn -0.01587105 0.999874 -0.000345267
vn -0.01587105 0.999874 -0.000345267
vn -0.999874 0.01587105 -0.0003439156
vn -0.999874 0.01587105 -0.0003439156
vn -0.999874 0.01587105 -0.0003439156
vn -0.999874 0.01587105 -0.0003439156
vn -0.999874 0.01587105 -0.0003439156
vn -0.999874 0.01587105 -0.0003439156
vn -0.999874 0.01587105 -0.0003439156
vn -0.999874 0.01587105 -0.0003439156
vn -0.999874 0.01587105 -0.0003439156
vn -0.999874 0.01587105 -0.0003439156
vn -0.999874 0.01587105 -0.0003439156
vn -0.999874 0.01587105 -0.0003439156
vn -0.999874 0.01587105 -0.0003439156
vn -0.999874 0.01587105 -0.0003439156
vn -0.999874 0.01587105 -0.0003439156
vn -0.999874 0.01587105 -0.0003439156
vn -0.999874 0.01587105 -0.0003439156
vn -0.999874 0.01587105 -0.0003439156
vn -0.999874 0.01587105 -0.0003439156
vn -0.999874 0.01587105 -0.0003439156
vn -0.999874 0.01587105 -0.0003439156
vn -0.999874 0.01587105 -0.0003439156
vn -0.999874 0.01587105 -0.0003439156
vn -0.999874 0.01587105 -0.0003439156
vn -0.999874 0.01587105 -0.0003439156
vn -0.999874 0.01587105 -0.0003439156
vn -0.999874 0.01587105 -0.0003439156
vn -0.999874 0.01587105 -0.0003439156
vn -0.999874 0.01587105 -0.0003439156
vn -0.999874 0.01587105 -0.0003439156
vn -0.999874 0.01587105 -0.0003439156
vn -0.999874 0.01587105 -0.0003439156
vn -0.999874 0.01587105 -0.0003439156
vn -0.999874 0.01587105 -0.0003439156
vn -0.999874 0.01587105 -0.0003439156
vn -0.999874 0.01587105 -0.0003439156
vn -0.01587105 0.999874 -0.000345267
vn -0.01587105 0.999874 -0.000345267
vn -0.01587105 0.999874 -0.000345267
vn -0.01587105 0.999874 -0.000345267
vn -0.01587105 0.999874 -0.000345267
vn -0.01587105 0.999874 -0.000345267
vn -0.01587105 0.999874 -0.000345267
vn -0.01587105 0.999874 -0.000345267
vn -0.01587105 0.999874 -0.000345267
vn -0.01587105 0.999874 -0.000345267
vn -0.01587105 0.999874 -0.000345267
vn -0.01587105 0.999874 -0.000345267
vn -0.01587105 0.01587105 -0.9997481
vn -0.01587105 0.01587105 -0.9997481
vn -0.01587105 0.01587105 -0.9997481
vn -0.01587105 0.01587105 -0.9997481
vn -0.01587105 0.01587105 0.9997481
vn -0.01587105 0.01587105 0.9997481
vn -0.01587105 0.01587105 0.9997481
vn -0.01587105 0.01587105 0.9997481
vn -0.01587105 0.999874 -0.000345267
vn -0.01587105 0.999874 -0.000345267
vn -0.01587105 0.999874 -0.000345267
vn -0.01587105 0.999874 -0.000345267
vn -0.01587105 0.999874 -0.000345267
vn -0.01587105 0.999874 -0.000345267
vn -0.01587105 0.999874 -0.000345267
vn -0.01587105 0.999874 -0.000345267
vn -0.01587105 0.999874 -0.000345267
vn -0.01587105 0.999874 -0.000345267
vn -0.01587105 0.999874 -0.000345267
vn -0.01587105 0.999874 -0.000345267
vn 0.999874 0.01587105 -0.0003439156
vn 0.999874 0.01587105 -0.0003439156
vn 0.999874 0.01587105 -0.0003439156
vn 0.999874 0.01587105 -0.0003439156
vn 0.999874 0.01587105 -0.0003439156
vn 0.999874 0.01587105 -0.0003439156
vn 0.999874 0.01587105 -0.0003439156
vn 0.999874 0.01587105 -0.0003439156
vn 0.999874 0.01587105 -0.0003439156
vn 0.999874 0.01587105 -0.0003439156
vn 0.999874 0.01587105 -0.0003439156
vn 0.999874 0.01587105 -0.0003439156
g road_01_0
f 3/3/3 2/2/2 1/1/1
f 4/4/4 3/3/3 1/1/1
f 1/1/1 5/5/5 4/4/4
f 5/5/5 6/6/6 4/4/4
f 6/6/6 5/5/5 7/7/7
f 5/5/5 8/8/8 7/7/7
f 7/7/7 8/8/8 9/9/9
f 8/8/8 10/10/10 9/9/9
f 11/11/11 9/9/9 10/10/10
f 12/12/12 11/11/11 10/10/10
f 15/15/15 14/14/14 13/13/13
f 16/16/16 15/15/15 13/13/13
f 15/15/15 16/16/16 17/17/17
f 18/18/18 15/15/15 17/17/17
f 19/19/19 18/18/18 17/17/17
f 20/20/20 19/19/19 17/17/17
f 19/19/19 20/20/20 21/21/21
f 22/22/22 19/19/19 21/21/21
f 23/23/23 22/22/22 21/21/21
f 24/24/24 23/23/23 21/21/21
f 27/27/27 26/26/26 25/25/25
f 28/28/28 27/27/27 25/25/25
f 25/25/25 29/29/29 28/28/28
f 29/29/29 30/30/30 28/28/28
f 30/30/30 29/29/29 31/31/31
f 32/32/32 30/30/30 31/31/31
f 31/31/31 33/33/33 32/32/32
f 33/33/33 34/34/34 32/32/32
f 34/34/34 33/33/33 35/35/35
f 36/36/36 34/34/34 35/35/35
f 39/39/39 38/38/38 37/37/37
f 40/40/40 39/39/39 37/37/37
f 39/39/39 40/40/40 41/41/41
f 42/42/42 39/39/39 41/41/41
f 43/43/43 42/42/42 41/41/41
f 44/44/44 43/43/43 41/41/41
f 43/43/43 44/44/44 45/45/45
f 46/46/46 43/43/43 45/45/45
f 47/47/47 46/46/46 45/45/45
f 48/48/48 47/47/47 45/45/45
f 51/51/51 50/50/50 49/49/49
f 52/52/52 51/51/51 49/49/49
f 55/55/55 54/54/54 53/53/53
f 56/56/56 55/55/55 53/53/53
f 56/56/56 53/53/53 57/57/57
f 58/58/58 56/56/56 57/57/57
f 59/59/59 58/58/58 57/57/57
f 60/60/60 59/59/59 57/57/57
f 61/61/61 59/59/59 60/60/60
f 62/62/62 61/61/61 60/60/60
f 63/63/63 61/61/61 62/62/62
f 64/64/64 63/63/63 62/62/62
f 67/67/67 66/66/66 65/65/65
f 68/68/68 67/67/67 65/65/65
f 71/71/71 70/70/70 69/69/69
f 72/72/72 71/71/71 69/69/69
f 69/69/69 73/73/73 72/72/72
f 73/73/73 74/74/74 72/72/72
f 74/74/74 73/73/73 75/75/75
f 76/76/76 74/74/74 75/75/75
f 75/75/75 77/77/77 76/76/76
f 77/77/77 78/78/78 76/76/76
f 78/78/78 77/77/77 79/79/79
f 80/80/80 78/78/78 79/79/79
f 83/83/83 82/82/82 81/81/81
f 82/82/82 84/84/84 81/81/81
f 81/81/81 84/84/84 85/85/85
f 86/86/86 81/81/81 85/85/85
f 86/86/86 85/85/85 87/87/87
f 85/85/85 88/88/88 87/87/87
f 87/87/87 88/88/88 89/89/89
f 90/90/90 87/87/87 89/89/89
f 90/90/90 89/89/89 91/91/91
f 89/89/89 92/92/92 91/91/91
f 95/95/95 94/94/94 93/93/93
f 96/96/96 95/95/95 93/93/93
f 95/95/95 96/96/96 97/97/97
f 98/98/98 95/95/95 97/97/97
f 99/99/99 98/98/98 97/97/97
f 100/100/100 99/99/99 97/97/97
f 99/99/99 100/100/100 101/101/101
f 102/102/102 99/99/99 101/101/101
f 103/103/103 102/102/102 101/101/101
f 104/104/104 103/103/103 101/101/101
f 107/107/107 106/106/106 105/105/105
f 106/106/106 108/108/108 105/105/105
f 108/108/108 106/106/106 109/109/109
f 106/106/106 110/110/110 109/109/109
f 110/110/110 111/111/111 109/109/109
f 111/111/111 112/112/112 109/109/109
f 112/112/112 111/111/111 113/113/113
f 111/111/111 114/114/114 113/113/113
f 114/114/114 115/115/115 113/113/113
f 115/115/115 116/116/116 113/113/113
f 119/119/119 118/118/118 117/117/117
f 118/118/118 120/120/120 117/117/117
f 121/121/121 117/117/117 120/120/120
f 122/122/122 121/121/121 120/120/120
f 121/121/121 122/122/122 123/123/123
f 122/122/122 124/124/124 123/123/123
f 125/125/125 123/123/123 124/124/124
f 126/126/126 125/125/125 124/124/124
f 125/125/125 126/126/126 127/127/127
f 126/126/126 128/128/128 127/127/127
f 131/131/131 130/130/130 129/129/129
f 130/130/130 132/132/132 129/129/129
f 132/132/132 130/130/130 133/133/133
f 130/130/130 134/134/134 133/133/133
f 134/134/134 135/135/135 133/133/133
f 135/135/135 136/136/136 133/133/133
f 136/136/136 135/135/135 137/137/137
f 135/135/135 138/138/138 137/137/137
f 138/138/138 139/139/139 137/137/137
f 139/139/139 140/140/140 137/137/137
f 143/143/143 142/142/142 141/141/141
f 144/144/144 143/143/143 141/141/141
f 147/147/147 146/146/146 145/145/145
f 148/148/148 147/147/147 145/145/145
f 151/151/151 150/150/150 149/149/149
f 150/150/150 152/152/152 149/149/149
f 153/153/153 149/149/149 152/152/152
f 154/154/154 153/153/153 152/152/152
f 153/153/153 154/154/154 155/155/155
f 154/154/154 156/156/156 155/155/155
f 157/157/157 155/155/155 156/156/156
f 158/158/158 157/157/157 156/156/156
f 157/157/157 158/158/158 159/159/159
f 158/158/158 160/160/160 159/159/159
f 163/163/163 162/162/162 161/161/161
f 162/162/162 164/164/164 161/161/161
f 164/164/164 162/162/162 165/165/165
f 162/162/162 166/166/166 165/165/165
f 166/166/166 167/167/167 165/165/165
f 167/167/167 168/168/168 165/165/165
f 168/168/168 167/167/167 169/169/169
f 167/167/167 170/170/170 169/169/169
f 170/170/170 171/171/171 169/169/169
f 171/171/171 172/172/172 169/169/169
