g Concrete
v -108.1264 28.5575 40.79642
v -120.3654 28.5575 28.5575
v -108.1264 40.79642 28.5575
v -108.1264 40.79642 -28.5575
v -120.3654 28.5575 -28.5575
v -108.1264 28.5575 -40.79642
v -108.1264 -28.5575 40.79642
v -108.1264 -40.79642 28.5575
v -120.3654 -28.5575 28.5575
v -108.1264 -28.5575 -40.79642
v -120.3654 -28.5575 -28.5575
v -108.1264 -40.79642 -28.5575
v -51.01146 28.5575 40.79642
v -51.01146 40.79642 28.5575
v -38.77253 28.5575 28.5575
v -51.01146 28.5575 -40.79642
v -38.77253 28.5575 -28.5575
v -51.01146 40.79642 -28.5575
v -51.01146 -28.5575 40.79642
v -38.77253 -28.5575 28.5575
v -51.01146 -40.79642 28.5575
v -51.01146 -28.5575 -40.79642
v -51.01146 -40.79642 -28.5575
v -38.77253 -28.5575 -28.5575
v 108.1264 28.5575 40.79642
v 108.1264 40.79642 28.5575
v 120.3654 28.5575 28.5575
v 108.1264 40.79642 -28.5575
v 108.1264 28.5575 -40.79642
v 120.3654 28.5575 -28.5575
v 108.1264 -28.5575 40.79642
v 120.3654 -28.5575 28.5575
v 108.1264 -40.79642 28.5575
v 108.1264 -28.5575 -40.79642
v 108.1264 -40.79642 -28.5575
v 120.3654 -28.5575 -28.5575
v 51.01146 28.5575 40.79642
v 38.77253 28.5575 28.5575
v 51.01146 40.79642 28.5575
v 51.01146 28.5575 -40.79642
v 51.01146 40.79642 -28.5575
v 38.77253 28.5575 -28.5575
v 51.01146 -28.5575 40.79642
v 51.01146 -40.79642 28.5575
v 38.77253 -28.5575 28.5575
v 51.01146 -28.5575 -40.79642
v 38.77253 -28.5575 -28.5575
v 51.01146 -40.79642 -28.5575
v -94.10494 -6.923215 6.922475
v -94.10494 6.922475 6.922474
v 94.10246 6.922475 6.922474
v 94.10246 -6.923215 6.922475
v 94.10246 -6.923217 -6.922845
v -94.10494 -6.923217 -6.922845
v -94.10494 6.922474 -6.922846
v 94.10246 6.922474 -6.922846
v -51.01146 40.79642 28.5575
v -108.1264 40.79642 28.5575
v -108.1264 40.79642 -28.5575
v -51.01146 40.79642 -28.5575
v -38.77253 -28.5575 28.5575
v -38.77253 28.5575 28.5575
v -38.77253 28.5575 -28.5575
v -38.77253 -28.5575 -28.5575
v -51.01146 -28.5575 -40.79642
v -51.01146 28.5575 -40.79642
v -108.1264 28.5575 -40.79642
v -108.1264 -28.5575 -40.79642
v -120.3654 28.5575 28.5575
v -120.3654 -28.5575 28.5575
v -120.3654 -28.5575 -28.5575
v -120.3654 28.5575 -28.5575
v -108.1264 -40.79642 28.5575
v -51.01146 -40.79642 28.5575
v -51.01146 -40.79642 -28.5575
v -108.1264 -40.79642 -28.5575
v -108.1264 -28.5575 40.79642
v -120.3654 -28.5575 28.5575
v -120.3654 28.5575 28.5575
v -108.1264 28.5575 40.79642
v -108.1264 40.79642 28.5575
v -120.3654 28.5575 28.5575
v -120.3654 28.5575 -28.5575
v -108.1264 40.79642 -28.5575
v -108.1264 28.5575 -40.79642
v -120.3654 28.5575 -28.5575
v -120.3654 -28.5575 -28.5575
v -108.1264 -28.5575 -40.79642
v -108.1264 -40.79642 -28.5575
v -120.3654 -28.5575 -28.5575
v -120.3654 -28.5575 28.5575
v -108.1264 -40.79642 28.5575
v -51.01146 -28.5575 40.79642
v -51.01146 -40.79642 28.5575
v -108.1264 -40.79642 28.5575
v -108.1264 -28.5575 40.79642
v -108.1264 -28.5575 -40.79642
v -108.1264 -40.79642 -28.5575
v -51.01146 -40.79642 -28.5575
v -51.01146 -28.5575 -40.79642
v -38.77253 -28.5575 -28.5575
v -51.01146 -40.79642 -28.5575
v -51.01146 -40.79642 28.5575
v -38.77253 -28.5575 28.5575
v -51.01146 28.5575 40.79642
v -38.77253 28.5575 28.5575
v -38.77253 -28.5575 28.5575
v -51.01146 -28.5575 40.79642
v -51.01146 -28.5575 -40.79642
v -38.77253 -28.5575 -28.5575
v -38.77253 28.5575 -28.5575
v -51.01146 28.5575 -40.79642
v -51.01146 40.79642 -28.5575
v -38.77253 28.5575 -28.5575
v -38.77253 28.5575 28.5575
v -51.01146 40.79642 28.5575
v -108.1264 28.5575 40.79642
v -108.1264 40.79642 28.5575
v -51.01146 40.79642 28.5575
v -51.01146 28.5575 40.79642
v -51.01146 28.5575 -40.79642
v -51.01146 40.79642 -28.5575
v -108.1264 40.79642 -28.5575
v -108.1264 28.5575 -40.79642
v -108.1264 -28.5575 40.79642
v -108.1264 28.5575 40.79642
v -51.01146 28.5575 40.79642
v -51.01146 -28.5575 40.79642
v -94.10246 6.922475 6.922474
v -94.10246 6.922474 -6.922846
v 94.10494 6.922474 -6.922846
v 94.10494 6.922475 6.922474
v 51.01146 40.79642 28.5575
v 51.01146 40.79642 -28.5575
v 108.1264 40.79642 -28.5575
v 108.1264 40.79642 28.5575
v 38.77253 -28.5575 28.5575
v 38.77253 -28.5575 -28.5575
v 38.77253 28.5575 -28.5575
v 38.77253 28.5575 28.5575
v 51.01146 -28.5575 -40.79642
v 108.1264 -28.5575 -40.79642
v 108.1264 28.5575 -40.79642
v 51.01146 28.5575 -40.79642
v 120.3654 28.5575 28.5575
v 120.3654 28.5575 -28.5575
v 120.3654 -28.5575 -28.5575
v 120.3654 -28.5575 28.5575
v 108.1264 -40.79642 28.5575
v 108.1264 -40.79642 -28.5575
v 51.01146 -40.79642 -28.5575
v 51.01146 -40.79642 28.5575
v 108.1264 -28.5575 40.79642
v 108.1264 28.5575 40.79642
v 120.3654 28.5575 28.5575
v 120.3654 -28.5575 28.5575
v 108.1264 40.79642 28.5575
v 108.1264 40.79642 -28.5575
v 120.3654 28.5575 -28.5575
v 120.3654 28.5575 28.5575
v 108.1264 28.5575 -40.79642
v 108.1264 -28.5575 -40.79642
v 120.3654 -28.5575 -28.5575
v 120.3654 28.5575 -28.5575
v 108.1264 -40.79642 -28.5575
v 108.1264 -40.79642 28.5575
v 120.3654 -28.5575 28.5575
v 120.3654 -28.5575 -28.5575
v 51.01146 -28.5575 40.79642
v 108.1264 -28.5575 40.79642
v 108.1264 -40.79642 28.5575
v 51.01146 -40.79642 28.5575
v 108.1264 -28.5575 -40.79642
v 51.01146 -28.5575 -40.79642
v 51.01146 -40.79642 -28.5575
v 108.1264 -40.79642 -28.5575
v 38.77253 -28.5575 -28.5575
v 38.77253 -28.5575 28.5575
v 51.01146 -40.79642 28.5575
v 51.01146 -40.79642 -28.5575
v 51.01146 28.5575 40.79642
v 51.01146 -28.5575 40.79642
v 38.77253 -28.5575 28.5575
v 38.77253 28.5575 28.5575
v 51.01146 -28.5575 -40.79642
v 51.01146 28.5575 -40.79642
v 38.77253 28.5575 -28.5575
v 38.77253 -28.5575 -28.5575
v 51.01146 40.79642 -28.5575
v 51.01146 40.79642 28.5575
v 38.77253 28.5575 28.5575
v 38.77253 28.5575 -28.5575
v 108.1264 28.5575 40.79642
v 51.01146 28.5575 40.79642
v 51.01146 40.79642 28.5575
v 108.1264 40.79642 28.5575
v 51.01146 28.5575 -40.79642
v 108.1264 28.5575 -40.79642
v 108.1264 40.79642 -28.5575
v 51.01146 40.79642 -28.5575
v 108.1264 -28.5575 40.79642
v 51.01146 -28.5575 40.79642
v 51.01146 28.5575 40.79642
v 108.1264 28.5575 40.79642
vt 0.8842828 0.7317634
vt 0.8518752 0.7317634
vt 0.868079 0.7598293
vt 0.9184469 0.7587636
vt 0.9346507 0.7306977
vt 0.902243 0.7306977
vt 0.8842828 0.6248236
vt 0.868079 0.5967577
vt 0.8518752 0.6248236
vt 0.902243 0.6237578
vt 0.9346507 0.6237578
vt 0.9184469 0.595692
vt 0.7967636 0.9504876
vt 0.8129674 0.9785534
vt 0.8291712 0.9504876
vt 0.8774076 0.9504876
vt 0.8450001 0.9504876
vt 0.8612038 0.9785534
vt 0.7967636 0.8435476
vt 0.8291712 0.8435476
vt 0.8129674 0.8154818
vt 0.8774076 0.8435476
vt 0.8612038 0.8154818
vt 0.8450001 0.8435476
vt 0.8953679 0.9494219
vt 0.9115716 0.9774877
vt 0.9277756 0.9494219
vt 0.8108798 0.7545276
vt 0.8270836 0.7264618
vt 0.7946758 0.7264618
vt 0.8953677 0.842482
vt 0.9277756 0.842482
vt 0.9115716 0.8144161
vt 0.8270836 0.6195219
vt 0.8108798 0.5914561
vt 0.7946758 0.6195219
vt 0.9810408 0.7256867
vt 0.9486331 0.7256867
vt 0.9648368 0.7537524
vt 0.9468015 0.9494219
vt 0.9630052 0.9774877
vt 0.9792091 0.9494219
vt 0.9810408 0.6187466
vt 0.964837 0.5906809
vt 0.9486331 0.6187466
vt 0.9468015 0.842482
vt 0.9792091 0.842482
vt 0.9630052 0.8144161
vt 0.4884912 0.9641658
vt 0.4884912 0.9814934
vt 0.7240278 0.9814934
vt 0.7240278 0.9641659
vt 0.7240278 0.9468388
vt 0.4884912 0.9468387
vt 0.4884912 0.9295113
vt 0.7240278 0.9295113
vt 0.4252391 0.2627286
vt 0.3010808 0.2627286
vt 0.3010811 0.3868869
vt 0.4252394 0.3868869
vt 0.01608223 0.04739298
vt 0.01608223 0.1529959
vt 0.1216851 0.1529959
vt 0.1216851 0.04739298
vt 0.9717913 0.2351424
vt 0.8160831 0.2351424
vt 0.8160831 0.3908506
vt 0.9717913 0.3908506
vt 0.2650191 0.3603349
vt 0.2650191 0.2547319
vt 0.1594161 0.2547319
vt 0.1594161 0.3603349
vt 0.6303447 0.3908506
vt 0.786053 0.3908506
vt 0.786053 0.2351424
vt 0.6303445 0.2351424
vt 0.8842828 0.6248236
vt 0.8518752 0.6248236
vt 0.8518752 0.7317634
vt 0.8842828 0.7317634
vt 0.2650191 0.3923374
vt 0.2650191 0.3603349
vt 0.1594161 0.3603349
vt 0.1594162 0.3923374
vt 0.902243 0.7306977
vt 0.9346507 0.7306977
vt 0.9346507 0.6237578
vt 0.902243 0.6237578
vt 0.1594161 0.2227294
vt 0.1594161 0.2547319
vt 0.2650191 0.2547319
vt 0.2650191 0.2227294
vt 0.639245 0.8359689
vt 0.639245 0.8738104
vt 0.7641161 0.8738104
vt 0.7641161 0.8359689
vt 0.4711484 0.8382824
vt 0.4711484 0.876124
vt 0.5960196 0.876124
vt 0.5960196 0.8382824
vt 0.1216851 0.04739298
vt 0.1216851 0.01539047
vt 0.01608223 0.01539047
vt 0.01608223 0.04739298
vt 0.7967636 0.9504876
vt 0.8291712 0.9504876
vt 0.8291712 0.8435476
vt 0.7967636 0.8435476
vt 0.8774076 0.8435476
vt 0.8450001 0.8435476
vt 0.8450001 0.9504876
vt 0.8774076 0.9504876
vt 0.1216851 0.1849984
vt 0.1216851 0.1529959
vt 0.01608223 0.1529959
vt 0.01608223 0.1849984
vt 0.5960196 0.8145718
vt 0.5960196 0.7767301
vt 0.4711484 0.7767301
vt 0.4711484 0.8145718
vt 0.6389058 0.7739537
vt 0.6389058 0.8117954
vt 0.7637769 0.8117954
vt 0.7637769 0.7739537
vt 0.7779032 0.02311704
vt 0.6221949 0.02311704
vt 0.6221949 0.1788253
vt 0.7779032 0.1788253
vt 0.7240278 0.9155493
vt 0.7240278 0.8982223
vt 0.4884912 0.8982223
vt 0.4884912 0.9155494
vt 0.8165457 0.1838634
vt 0.9722538 0.1838634
vt 0.9722538 0.02815513
vt 0.8165457 0.02815513
vt 0.3010811 0.1807421
vt 0.4252394 0.1807421
vt 0.4252391 0.05658382
vt 0.3010808 0.05658388
vt 0.5937583 0.05658388
vt 0.4696 0.05658388
vt 0.4696 0.1807421
vt 0.5937583 0.1807421
vt 0.01608223 0.3603349
vt 0.1216851 0.3603349
vt 0.1216851 0.2547319
vt 0.01608223 0.2547319
vt 0.4696 0.3868868
vt 0.5937583 0.3868868
vt 0.5937583 0.2627284
vt 0.4696 0.2627284
vt 0.8953677 0.842482
vt 0.8953679 0.9494219
vt 0.9277756 0.9494219
vt 0.9277756 0.842482
vt 0.01608223 0.3923374
vt 0.1216851 0.3923374
vt 0.1216851 0.3603349
vt 0.01608223 0.3603349
vt 0.8270836 0.7264618
vt 0.8270836 0.6195219
vt 0.7946758 0.6195219
vt 0.7946758 0.7264618
vt 0.1216851 0.2227294
vt 0.01608223 0.2227294
vt 0.01608223 0.2547319
vt 0.1216851 0.2547319
vt 0.1594161 0.04739298
vt 0.2650191 0.04739298
vt 0.2650191 0.01539047
vt 0.1594161 0.01539047
vt 0.4696 0.05658388
vt 0.5937583 0.05658388
vt 0.5937583 0.01895824
vt 0.4696 0.01895824
vt 0.4252394 0.1807421
vt 0.3010811 0.1807421
vt 0.3010811 0.2183678
vt 0.4252394 0.2183678
vt 0.9810408 0.7256867
vt 0.9810408 0.6187466
vt 0.9486331 0.6187466
vt 0.9486331 0.7256867
vt 0.9468015 0.842482
vt 0.9468015 0.9494219
vt 0.9792091 0.9494219
vt 0.9792091 0.842482
vt 0.4252391 0.01895824
vt 0.3010808 0.01895824
vt 0.3010808 0.05658388
vt 0.4252391 0.05658382
vt 0.2650191 0.1529959
vt 0.1594161 0.1529959
vt 0.1594161 0.1849984
vt 0.2650191 0.1849984
vt 0.5937583 0.1807421
vt 0.4696 0.1807421
vt 0.4696 0.2183678
vt 0.5937583 0.2183678
vt 0.2650191 0.04739298
vt 0.1594161 0.04739298
vt 0.1594161 0.1529959
vt 0.2650191 0.1529959
vn -0.5773504 0.5773502 0.5773502
vn -0.5773504 0.5773502 0.5773502
vn -0.5773504 0.5773502 0.5773502
vn -0.5773504 0.5773502 -0.5773502
vn -0.5773504 0.5773502 -0.5773502
vn -0.5773504 0.5773502 -0.5773502
vn -0.5773504 -0.5773502 0.5773502
vn -0.5773504 -0.5773502 0.5773502
vn -0.5773504 -0.5773502 0.5773502
vn -0.5773504 -0.5773502 -0.5773502
vn -0.5773504 -0.5773502 -0.5773502
vn -0.5773504 -0.5773502 -0.5773502
vn 0.5773504 0.5773502 0.5773502
vn 0.5773504 0.5773502 0.5773502
vn 0.5773504 0.5773502 0.5773502
vn 0.5773504 0.5773502 -0.5773502
vn 0.5773504 0.5773502 -0.5773502
vn 0.5773504 0.5773502 -0.5773502
vn 0.5773504 -0.5773502 0.5773502
vn 0.5773504 -0.5773502 0.5773502
vn 0.5773504 -0.5773502 0.5773502
vn 0.5773504 -0.5773502 -0.5773502
vn 0.5773504 -0.5773502 -0.5773502
vn 0.5773504 -0.5773502 -0.5773502
vn 0.5773504 0.5773502 0.5773502
vn 0.5773504 0.5773502 0.5773502
vn 0.5773504 0.5773502 0.5773502
vn 0.5773504 0.5773502 -0.5773502
vn 0.5773504 0.5773502 -0.5773502
vn 0.5773504 0.5773502 -0.5773502
vn 0.5773504 -0.5773502 0.5773502
vn 0.5773504 -0.5773502 0.5773502
vn 0.5773504 -0.5773502 0.5773502
vn 0.5773504 -0.5773502 -0.5773502
vn 0.5773504 -0.5773502 -0.5773502
vn 0.5773504 -0.5773502 -0.5773502
vn -0.5773504 0.5773502 0.5773502
vn -0.5773504 0.5773502 0.5773502
vn -0.5773504 0.5773502 0.5773502
vn -0.5773504 0.5773502 -0.5773502
vn -0.5773504 0.5773502 -0.5773502
vn -0.5773504 0.5773502 -0.5773502
vn -0.5773504 -0.5773502 0.5773502
vn -0.5773504 -0.5773502 0.5773502
vn -0.5773504 -0.5773502 0.5773502
vn -0.5773504 -0.5773502 -0.5773502
vn -0.5773504 -0.5773502 -0.5773502
vn -0.5773504 -0.5773502 -0.5773502
vn 0 -0.7071066 0.7071068
vn 0.00023727 0.7071237 0.7070897
vn -3.394027E-05 0.7071238 0.7070897
vn 0 -0.7071066 0.7071068
vn 0 -0.7071068 -0.7071067
vn 0 -0.7071068 -0.7071067
vn 3.394026E-05 0.7071236 -0.7070898
vn -0.00023727 0.7071236 -0.7070898
vn 0 1 0
vn 0 1 0
vn 0 1 0
vn 0 1 0
vn 1 0 0
vn 1 0 0
vn 1 0 0
vn 1 0 0
vn 0 0 -1
vn 0 0 -1
vn 0 0 -1
vn 0 0 -1
vn -1 0 0
vn -1 0 0
vn -1 0 0
vn -1 0 0
vn 0 -1 0
vn 0 -1 0
vn 0 -1 0
vn 0 -1 0
vn -0.7071068 0 0.7071066
vn -0.7071068 0 0.7071066
vn -0.7071068 0 0.7071066
vn -0.7071068 0 0.7071066
vn -0.7071068 0.7071066 0
vn -0.7071068 0.7071066 0
vn -0.7071068 0.7071066 0
vn -0.7071068 0.7071066 0
vn -0.7071068 0 -0.7071066
vn -0.7071068 0 -0.7071066
vn -0.7071068 0 -0.7071066
vn -0.7071068 0 -0.7071066
vn -0.7071068 -0.7071066 0
vn -0.7071068 -0.7071066 0
vn -0.7071068 -0.7071066 0
vn -0.7071068 -0.7071066 0
vn 0 -0.7071068 0.7071068
vn 0 -0.7071068 0.7071068
vn 0 -0.7071068 0.7071068
vn 0 -0.7071068 0.7071068
vn 0 -0.7071068 -0.7071068
vn 0 -0.7071068 -0.7071068
vn 0 -0.7071068 -0.7071068
vn 0 -0.7071068 -0.7071068
vn 0.7071068 -0.7071066 0
vn 0.7071068 -0.7071066 0
vn 0.7071068 -0.7071066 0
vn 0.7071068 -0.7071066 0
vn 0.7071067 0 0.7071068
vn 0.7071067 0 0.7071068
vn 0.7071067 0 0.7071068
vn 0.7071067 0 0.7071068
vn 0.7071067 0 -0.7071068
vn 0.7071067 0 -0.7071068
vn 0.7071067 0 -0.7071068
vn 0.7071067 0 -0.7071068
vn 0.7071068 0.7071066 0
vn 0.7071068 0.7071066 0
vn 0.7071068 0.7071066 0
vn 0.7071068 0.7071066 0
vn 0 0.7071068 0.7071068
vn 0 0.7071068 0.7071068
vn 0 0.7071068 0.7071068
vn 0 0.7071068 0.7071068
vn 0 0.7071068 -0.7071068
vn 0 0.7071068 -0.7071068
vn 0 0.7071068 -0.7071068
vn 0 0.7071068 -0.7071068
vn 0 0 1
vn 0 0 1
vn 0 0 1
vn 0 0 1
vn 3.394026E-05 0.7070898 0.7071236
vn 0.00023727 0.7070897 -0.7071237
vn -3.394027E-05 0.7070897 -0.7071238
vn -0.00023727 0.7070898 0.7071236
vn 0 1 0
vn 0 1 0
vn 0 1 0
vn 0 1 0
vn -1 0 0
vn -1 0 0
vn -1 0 0
vn -1 0 0
vn 0 0 -1
vn 0 0 -1
vn 0 0 -1
vn 0 0 -1
vn 1 0 0
vn 1 0 0
vn 1 0 0
vn 1 0 0
vn 0 -1 0
vn 0 -1 0
vn 0 -1 0
vn 0 -1 0
vn 0.7071068 0 0.7071066
vn 0.7071068 0 0.7071066
vn 0.7071068 0 0.7071066
vn 0.7071068 0 0.7071066
vn 0.7071068 0.7071066 0
vn 0.7071068 0.7071066 0
vn 0.7071068 0.7071066 0
vn 0.7071068 0.7071066 0
vn 0.7071068 0 -0.7071066
vn 0.7071068 0 -0.7071066
vn 0.7071068 0 -0.7071066
vn 0.7071068 0 -0.7071066
vn 0.7071068 -0.7071066 0
vn 0.7071068 -0.7071066 0
vn 0.7071068 -0.7071066 0
vn 0.7071068 -0.7071066 0
vn 0 -0.7071068 0.7071068
vn 0 -0.7071068 0.7071068
vn 0 -0.7071068 0.7071068
vn 0 -0.7071068 0.7071068
vn 0 -0.7071068 -0.7071068
vn 0 -0.7071068 -0.7071068
vn 0 -0.7071068 -0.7071068
vn 0 -0.7071068 -0.7071068
vn -0.7071068 -0.7071066 0
vn -0.7071068 -0.7071066 0
vn -0.7071068 -0.7071066 0
vn -0.7071068 -0.7071066 0
vn -0.7071067 0 0.7071068
vn -0.7071067 0 0.7071068
vn -0.7071067 0 0.7071068
vn -0.7071067 0 0.7071068
vn -0.7071067 0 -0.7071068
vn -0.7071067 0 -0.7071068
vn -0.7071067 0 -0.7071068
vn -0.7071067 0 -0.7071068
vn -0.7071068 0.7071066 0
vn -0.7071068 0.7071066 0
vn -0.7071068 0.7071066 0
vn -0.7071068 0.7071066 0
vn 0 0.7071068 0.7071068
vn 0 0.7071068 0.7071068
vn 0 0.7071068 0.7071068
vn 0 0.7071068 0.7071068
vn 0 0.7071068 -0.7071068
vn 0 0.7071068 -0.7071068
vn 0 0.7071068 -0.7071068
vn 0 0.7071068 -0.7071068
vn 0 0 1
vn 0 0 1
vn 0 0 1
vn 0 0 1
g Concrete_0
f 3/3/3 2/2/2 1/1/1
f 6/6/6 5/5/5 4/4/4
f 9/9/9 8/8/8 7/7/7
f 12/12/12 11/11/11 10/10/10
f 15/15/15 14/14/14 13/13/13
f 18/18/18 17/17/17 16/16/16
f 21/21/21 20/20/20 19/19/19
f 24/24/24 23/23/23 22/22/22
f 27/27/27 26/26/26 25/25/25
f 30/30/30 29/29/29 28/28/28
f 33/33/33 32/32/32 31/31/31
f 36/36/36 35/35/35 34/34/34
f 39/39/39 38/38/38 37/37/37
f 42/42/42 41/41/41 40/40/40
f 45/45/45 44/44/44 43/43/43
f 48/48/48 47/47/47 46/46/46
f 51/51/51 50/50/50 49/49/49
f 52/52/52 51/51/51 49/49/49
f 53/53/53 52/52/52 49/49/49
f 54/54/54 53/53/53 49/49/49
f 54/54/54 55/55/55 53/53/53
f 55/55/55 56/56/56 53/53/53
f 59/59/59 58/58/58 57/57/57
f 60/60/60 59/59/59 57/57/57
f 63/63/63 62/62/62 61/61/61
f 64/64/64 63/63/63 61/61/61
f 67/67/67 66/66/66 65/65/65
f 68/68/68 67/67/67 65/65/65
f 71/71/71 70/70/70 69/69/69
f 72/72/72 71/71/71 69/69/69
f 75/75/75 74/74/74 73/73/73
f 76/76/76 75/75/75 73/73/73
f 79/79/79 78/78/78 77/77/77
f 80/80/80 79/79/79 77/77/77
f 83/83/83 82/82/82 81/81/81
f 84/84/84 83/83/83 81/81/81
f 87/87/87 86/86/86 85/85/85
f 88/88/88 87/87/87 85/85/85
f 91/91/91 90/90/90 89/89/89
f 92/92/92 91/91/91 89/89/89
f 95/95/95 94/94/94 93/93/93
f 96/96/96 95/95/95 93/93/93
f 99/99/99 98/98/98 97/97/97
f 100/100/100 99/99/99 97/97/97
f 103/103/103 102/102/102 101/101/101
f 104/104/104 103/103/103 101/101/101
f 107/107/107 106/106/106 105/105/105
f 108/108/108 107/107/107 105/105/105
f 111/111/111 110/110/110 109/109/109
f 112/112/112 111/111/111 109/109/109
f 115/115/115 114/114/114 113/113/113
f 116/116/116 115/115/115 113/113/113
f 119/119/119 118/118/118 117/117/117
f 120/120/120 119/119/119 117/117/117
f 123/123/123 122/122/122 121/121/121
f 124/124/124 123/123/123 121/121/121
f 127/127/127 126/126/126 125/125/125
f 128/128/128 127/127/127 125/125/125
f 131/131/131 130/130/130 129/129/129
f 132/132/132 131/131/131 129/129/129
f 135/135/135 134/134/134 133/133/133
f 136/136/136 135/135/135 133/133/133
f 139/139/139 138/138/138 137/137/137
f 140/140/140 139/139/139 137/137/137
f 143/143/143 142/142/142 141/141/141
f 144/144/144 143/143/143 141/141/141
f 147/147/147 146/146/146 145/145/145
f 148/148/148 147/147/147 145/145/145
f 151/151/151 150/150/150 149/149/149
f 152/152/152 151/151/151 149/149/149
f 155/155/155 154/154/154 153/153/153
f 156/156/156 155/155/155 153/153/153
f 159/159/159 158/158/158 157/157/157
f 160/160/160 159/159/159 157/157/157
f 163/163/163 162/162/162 161/161/161
f 164/164/164 163/163/163 161/161/161
f 167/167/167 166/166/166 165/165/165
f 168/168/168 167/167/167 165/165/165
f 171/171/171 170/170/170 169/169/169
f 172/172/172 171/171/171 169/169/169
f 175/175/175 174/174/174 173/173/173
f 176/176/176 175/175/175 173/173/173
f 179/179/179 178/178/178 177/177/177
f 180/180/180 179/179/179 177/177/177
f 183/183/183 182/182/182 181/181/181
f 184/184/184 183/183/183 181/181/181
f 187/187/187 186/186/186 185/185/185
f 188/188/188 187/187/187 185/185/185
f 191/191/191 190/190/190 189/189/189
f 192/192/192 191/191/191 189/189/189
f 195/195/195 194/194/194 193/193/193
f 196/196/196 195/195/195 193/193/193
f 199/199/199 198/198/198 197/197/197
f 200/200/200 199/199/199 197/197/197
f 203/203/203 202/202/202 201/201/201
f 204/204/204 203/203/203 201/201/201
