g Concrete
v -1.081264 -0.4079642 0.285575
v -1.203654 -0.285575 0.285575
v -1.081264 -0.285575 0.4079642
v -1.081264 0.285575 0.4079642
v -1.203654 0.285575 0.285575
v -1.081264 0.4079642 0.285575
v -1.081264 -0.4079642 -0.285575
v -1.081264 -0.285575 -0.4079642
v -1.203654 -0.285575 -0.285575
v -1.081264 0.4079642 -0.285575
v -1.203654 0.285575 -0.285575
v -1.081264 0.285575 -0.4079642
v -0.5101146 -0.4079642 0.285575
v -0.5101146 -0.285575 0.4079642
v -0.3877253 -0.285575 0.285575
v -0.5101146 0.4079642 0.285575
v -0.3877253 0.285575 0.285575
v -0.5101146 0.285575 0.4079642
v -0.5101146 -0.4079642 -0.285575
v -0.3877253 -0.285575 -0.285575
v -0.5101146 -0.285575 -0.4079642
v -0.5101146 0.4079642 -0.285575
v -0.5101146 0.285575 -0.4079642
v -0.3877253 0.285575 -0.285575
v 1.081264 -0.4079642 0.285575
v 1.081264 -0.285575 0.4079642
v 1.203654 -0.285575 0.285575
v 1.081264 0.285575 0.4079642
v 1.081264 0.4079642 0.285575
v 1.203654 0.285575 0.285575
v 1.081264 -0.4079642 -0.285575
v 1.203654 -0.285575 -0.285575
v 1.081264 -0.285575 -0.4079642
v 1.081264 0.4079642 -0.285575
v 1.081264 0.285575 -0.4079642
v 1.203654 0.285575 -0.285575
v 0.5101146 -0.4079642 0.285575
v 0.3877253 -0.285575 0.285575
v 0.5101146 -0.285575 0.4079642
v 0.5101146 0.4079642 0.285575
v 0.5101146 0.285575 0.4079642
v 0.3877253 0.285575 0.285575
v 0.5101146 -0.4079642 -0.285575
v 0.5101146 -0.285575 -0.4079642
v 0.3877253 -0.285575 -0.285575
v 0.5101146 0.4079642 -0.285575
v 0.3877253 0.285575 -0.285575
v 0.5101146 0.285575 -0.4079642
v -0.9410494 -0.06922475 -0.06923215
v 0.9410246 -0.06922475 -0.06923215
v 0.9410246 0.06922845 -0.06923217
v -0.9410494 0.06922845 -0.06923217
v -0.9410494 0.06922846 0.06922474
v 0.9410246 0.06922846 0.06922474
v 0.9410246 -0.06922474 0.06922475
v -0.9410494 -0.06922474 0.06922475
v -0.9410494 -0.06922475 -0.06923215
v 0.9410246 -0.06922475 -0.06923215
v -0.5101146 -0.285575 0.4079642
v -1.081264 -0.285575 0.4079642
v -1.081264 0.285575 0.4079642
v -0.5101146 0.285575 0.4079642
v -0.3877253 -0.285575 -0.285575
v -0.3877253 -0.285575 0.285575
v -0.3877253 0.285575 0.285575
v -0.3877253 0.285575 -0.285575
v -0.5101146 0.4079642 -0.285575
v -0.5101146 0.4079642 0.285575
v -1.081264 0.4079642 0.285575
v -1.081264 0.4079642 -0.285575
v -1.203654 -0.285575 0.285575
v -1.203654 -0.285575 -0.285575
v -1.203654 0.285575 -0.285575
v -1.203654 0.285575 0.285575
v -1.081264 -0.285575 -0.4079642
v -0.5101146 -0.285575 -0.4079642
v -0.5101146 0.285575 -0.4079642
v -1.081264 0.285575 -0.4079642
v -1.081264 -0.4079642 -0.285575
v -1.203654 -0.285575 -0.285575
v -1.203654 -0.285575 0.285575
v -1.081264 -0.4079642 0.285575
v -1.081264 -0.285575 0.4079642
v -1.203654 -0.285575 0.285575
v -1.203654 0.285575 0.285575
v -1.081264 0.285575 0.4079642
v -1.081264 0.4079642 0.285575
v -1.203654 0.285575 0.285575
v -1.203654 0.285575 -0.285575
v -1.081264 0.4079642 -0.285575
v -1.081264 0.285575 -0.4079642
v -1.203654 0.285575 -0.285575
v -1.203654 -0.285575 -0.285575
v -1.081264 -0.285575 -0.4079642
v -0.5101146 -0.4079642 -0.285575
v -0.5101146 -0.285575 -0.4079642
v -1.081264 -0.285575 -0.4079642
v -1.081264 -0.4079642 -0.285575
v -1.081264 0.4079642 -0.285575
v -1.081264 0.285575 -0.4079642
v -0.5101146 0.285575 -0.4079642
v -0.5101146 0.4079642 -0.285575
v -0.3877253 0.285575 -0.285575
v -0.5101146 0.285575 -0.4079642
v -0.5101146 -0.285575 -0.4079642
v -0.3877253 -0.285575 -0.285575
v -0.5101146 -0.4079642 0.285575
v -0.3877253 -0.285575 0.285575
v -0.3877253 -0.285575 -0.285575
v -0.5101146 -0.4079642 -0.285575
v -0.5101146 0.4079642 -0.285575
v -0.3877253 0.285575 -0.285575
v -0.3877253 0.285575 0.285575
v -0.5101146 0.4079642 0.285575
v -0.5101146 0.285575 0.4079642
v -0.3877253 0.285575 0.285575
v -0.3877253 -0.285575 0.285575
v -0.5101146 -0.285575 0.4079642
v -1.081264 -0.4079642 0.285575
v -1.081264 -0.285575 0.4079642
v -0.5101146 -0.285575 0.4079642
v -0.5101146 -0.4079642 0.285575
v -0.5101146 0.4079642 0.285575
v -0.5101146 0.285575 0.4079642
v -1.081264 0.285575 0.4079642
v -1.081264 0.4079642 0.285575
v -1.081264 -0.4079642 -0.285575
v -1.081264 -0.4079642 0.285575
v -0.5101146 -0.4079642 0.285575
v -0.5101146 -0.4079642 -0.285575
v 0.9410494 -0.06922475 -0.06923215
v -0.9410246 0.06922845 -0.06923217
v -0.9410246 -0.06922475 -0.06923215
v 0.9410494 0.06922845 -0.06923217
v 0.9410494 0.06922846 0.06922474
v -0.9410246 0.06922846 0.06922474
v -0.9410246 -0.06922474 0.06922475
v 0.9410494 -0.06922474 0.06922475
v 0.9410494 -0.06922475 -0.06923215
v -0.9410246 -0.06922475 -0.06923215
v 0.5101146 -0.285575 0.4079642
v 0.5101146 0.285575 0.4079642
v 1.081264 0.285575 0.4079642
v 1.081264 -0.285575 0.4079642
v 0.3877253 -0.285575 -0.285575
v 0.3877253 0.285575 -0.285575
v 0.3877253 0.285575 0.285575
v 0.3877253 -0.285575 0.285575
v 0.5101146 0.4079642 -0.285575
v 1.081264 0.4079642 -0.285575
v 1.081264 0.4079642 0.285575
v 0.5101146 0.4079642 0.285575
v 1.203654 -0.285575 0.285575
v 1.203654 0.285575 0.285575
v 1.203654 0.285575 -0.285575
v 1.203654 -0.285575 -0.285575
v 1.081264 -0.285575 -0.4079642
v 1.081264 0.285575 -0.4079642
v 0.5101146 0.285575 -0.4079642
v 0.5101146 -0.285575 -0.4079642
v 1.081264 -0.4079642 -0.285575
v 1.081264 -0.4079642 0.285575
v 1.203654 -0.285575 0.285575
v 1.203654 -0.285575 -0.285575
v 1.081264 -0.285575 0.4079642
v 1.081264 0.285575 0.4079642
v 1.203654 0.285575 0.285575
v 1.203654 -0.285575 0.285575
v 1.081264 0.4079642 0.285575
v 1.081264 0.4079642 -0.285575
v 1.203654 0.285575 -0.285575
v 1.203654 0.285575 0.285575
v 1.081264 0.285575 -0.4079642
v 1.081264 -0.285575 -0.4079642
v 1.203654 -0.285575 -0.285575
v 1.203654 0.285575 -0.285575
v 0.5101146 -0.4079642 -0.285575
v 1.081264 -0.4079642 -0.285575
v 1.081264 -0.285575 -0.4079642
v 0.5101146 -0.285575 -0.4079642
v 1.081264 0.4079642 -0.285575
v 0.5101146 0.4079642 -0.285575
v 0.5101146 0.285575 -0.4079642
v 1.081264 0.285575 -0.4079642
v 0.3877253 0.285575 -0.285575
v 0.3877253 -0.285575 -0.285575
v 0.5101146 -0.285575 -0.4079642
v 0.5101146 0.285575 -0.4079642
v 0.5101146 -0.4079642 0.285575
v 0.5101146 -0.4079642 -0.285575
v 0.3877253 -0.285575 -0.285575
v 0.3877253 -0.285575 0.285575
v 0.5101146 0.4079642 -0.285575
v 0.5101146 0.4079642 0.285575
v 0.3877253 0.285575 0.285575
v 0.3877253 0.285575 -0.285575
v 0.5101146 0.285575 0.4079642
v 0.5101146 -0.285575 0.4079642
v 0.3877253 -0.285575 0.285575
v 0.3877253 0.285575 0.285575
v 1.081264 -0.4079642 0.285575
v 0.5101146 -0.4079642 0.285575
v 0.5101146 -0.285575 0.4079642
v 1.081264 -0.285575 0.4079642
v 0.5101146 0.4079642 0.285575
v 1.081264 0.4079642 0.285575
v 1.081264 0.285575 0.4079642
v 0.5101146 0.285575 0.4079642
v 1.081264 -0.4079642 -0.285575
v 0.5101146 -0.4079642 -0.285575
v 0.5101146 -0.4079642 0.285575
v 1.081264 -0.4079642 0.285575
vt 0.4025949 0.8161467
vt 0.4354266 0.8161467
vt 0.4190107 0.7929311
vt 0.4985215 0.8600262
vt 0.4856674 0.8782046
vt 0.5113756 0.8782046
vt 0.4025949 0.9244857
vt 0.4190107 0.9477013
vt 0.4354266 0.9244857
vt 0.5113756 0.9630371
vt 0.4856674 0.9630371
vt 0.4985215 0.9812155
vt 0.4149931 0.8680562
vt 0.3977054 0.8802804
vt 0.4149931 0.8925046
vt 0.4256818 0.9630371
vt 0.3999737 0.9630371
vt 0.4128277 0.9812155
vt 0.4956691 0.8680562
vt 0.4956691 0.8925048
vt 0.5129568 0.8802804
vt 0.4256818 0.8782046
vt 0.4128277 0.8600262
vt 0.3999737 0.8782046
vt 0.4025949 0.8161467
vt 0.4190107 0.7929311
vt 0.4354266 0.8161467
vt 0.4985215 0.8600262
vt 0.5113756 0.8782046
vt 0.4856674 0.8782046
vt 0.4025949 0.9244857
vt 0.4354266 0.9244857
vt 0.4190107 0.9477013
vt 0.5113756 0.9630371
vt 0.4985215 0.9812155
vt 0.4856674 0.9630371
vt 0.4149931 0.8680562
vt 0.4149931 0.8925046
vt 0.3977054 0.8802804
vt 0.4256818 0.9630371
vt 0.4128277 0.9812155
vt 0.3999737 0.9630371
vt 0.4956691 0.8680562
vt 0.5129568 0.8802804
vt 0.4956691 0.8925048
vt 0.4256818 0.8782046
vt 0.3999737 0.8782046
vt 0.4128277 0.8600262
vt 0.5449525 0.9853253
vt 0.5449525 0.9205287
vt 0.5401856 0.9205287
vt 0.5401856 0.9853253
vt 0.5342204 0.9812085
vt 0.5357052 0.9233737
vt 0.5313766 0.9203026
vt 0.5280522 0.9850138
vt 0.5232915 0.9847692
vt 0.5266159 0.9200581
vt 0.497905 0.7780204
vt 0.4193445 0.7780204
vt 0.4193445 0.8565808
vt 0.497905 0.8565808
vt 0.4956691 0.8925048
vt 0.4149931 0.8925046
vt 0.4149931 0.9495512
vt 0.4956691 0.9495512
vt 0.4256818 0.8782046
vt 0.4256818 0.9630371
vt 0.4856674 0.9630371
vt 0.4856674 0.8782046
vt 0.4354266 0.8161467
vt 0.4354266 0.9244857
vt 0.5120336 0.9244857
vt 0.5120336 0.8161467
vt 0.4956743 0.8573808
vt 0.41925 0.8573808
vt 0.41925 0.9338052
vt 0.4956743 0.9338052
vt 0.4025949 0.9244857
vt 0.4354266 0.9244857
vt 0.4354266 0.8161467
vt 0.4025949 0.8161467
vt 0.4193445 0.7780204
vt 0.4025103 0.7780204
vt 0.4025103 0.8565808
vt 0.4193445 0.8565808
vt 0.5113756 0.8782046
vt 0.4856674 0.8782046
vt 0.4856674 0.9630371
vt 0.5113756 0.9630371
vt 0.4956743 0.9338052
vt 0.512051 0.9338052
vt 0.512051 0.8573808
vt 0.4956743 0.8573808
vt 0.41925 0.8410041
vt 0.41925 0.8573808
vt 0.4956743 0.8573808
vt 0.4956743 0.8410041
vt 0.4956743 0.9501818
vt 0.4956743 0.9338052
vt 0.41925 0.9338052
vt 0.41925 0.9501818
vt 0.4028734 0.9338052
vt 0.41925 0.9338052
vt 0.41925 0.8573808
vt 0.4028734 0.8573808
vt 0.4149931 0.8680562
vt 0.4149931 0.8925046
vt 0.4956691 0.8925048
vt 0.4956691 0.8680562
vt 0.4256818 0.8782046
vt 0.3999737 0.8782046
vt 0.3999737 0.9630371
vt 0.4256818 0.9630371
vt 0.497905 0.8565808
vt 0.5147394 0.8565808
vt 0.5147394 0.7780204
vt 0.497905 0.7780204
vt 0.4193445 0.761186
vt 0.4193445 0.7780204
vt 0.497905 0.7780204
vt 0.497905 0.761186
vt 0.497905 0.8734152
vt 0.497905 0.8565808
vt 0.4193445 0.8565808
vt 0.4193445 0.8734152
vt 0.4956691 0.8110095
vt 0.4149931 0.8110095
vt 0.4149931 0.8680562
vt 0.4956691 0.8680562
vt 0.5449525 0.9853253
vt 0.5401856 0.9205287
vt 0.5449525 0.9205287
vt 0.5401856 0.9853253
vt 0.5342204 0.9812085
vt 0.5357052 0.9233737
vt 0.5313766 0.9203026
vt 0.5280522 0.9850138
vt 0.5232915 0.9847692
vt 0.5266159 0.9200581
vt 0.497905 0.7780204
vt 0.497905 0.8565808
vt 0.4193445 0.8565808
vt 0.4193445 0.7780204
vt 0.4956691 0.8925048
vt 0.4956691 0.9495512
vt 0.4149931 0.9495512
vt 0.4149931 0.8925046
vt 0.4256818 0.8782046
vt 0.4856674 0.8782046
vt 0.4856674 0.9630371
vt 0.4256818 0.9630371
vt 0.4354266 0.8161467
vt 0.5120336 0.8161467
vt 0.5120336 0.9244857
vt 0.4354266 0.9244857
vt 0.4956743 0.8573808
vt 0.4956743 0.9338052
vt 0.41925 0.9338052
vt 0.41925 0.8573808
vt 0.4025949 0.9244857
vt 0.4025949 0.8161467
vt 0.4354266 0.8161467
vt 0.4354266 0.9244857
vt 0.4193445 0.7780204
vt 0.4193445 0.8565808
vt 0.4025103 0.8565808
vt 0.4025103 0.7780204
vt 0.5113756 0.8782046
vt 0.5113756 0.9630371
vt 0.4856674 0.9630371
vt 0.4856674 0.8782046
vt 0.4956743 0.9338052
vt 0.4956743 0.8573808
vt 0.512051 0.8573808
vt 0.512051 0.9338052
vt 0.41925 0.8410041
vt 0.4956743 0.8410041
vt 0.4956743 0.8573808
vt 0.41925 0.8573808
vt 0.4956743 0.9501818
vt 0.41925 0.9501818
vt 0.41925 0.9338052
vt 0.4956743 0.9338052
vt 0.4028734 0.9338052
vt 0.4028734 0.8573808
vt 0.41925 0.8573808
vt 0.41925 0.9338052
vt 0.4149931 0.8680562
vt 0.4956691 0.8680562
vt 0.4956691 0.8925048
vt 0.4149931 0.8925046
vt 0.4256818 0.8782046
vt 0.4256818 0.9630371
vt 0.3999737 0.9630371
vt 0.3999737 0.8782046
vt 0.497905 0.8565808
vt 0.497905 0.7780204
vt 0.5147394 0.7780204
vt 0.5147394 0.8565808
vt 0.4193445 0.761186
vt 0.497905 0.761186
vt 0.497905 0.7780204
vt 0.4193445 0.7780204
vt 0.497905 0.8734152
vt 0.4193445 0.8734152
vt 0.4193445 0.8565808
vt 0.497905 0.8565808
vt 0.4956691 0.8110095
vt 0.4956691 0.8680562
vt 0.4149931 0.8680562
vt 0.4149931 0.8110095
vn -0.5773504 -0.5773501 0.5773504
vn -0.5773504 -0.5773501 0.5773504
vn -0.5773504 -0.5773501 0.5773504
vn -0.5773504 0.5773501 0.5773504
vn -0.5773504 0.5773501 0.5773504
vn -0.5773504 0.5773501 0.5773504
vn -0.5773504 -0.5773501 -0.5773504
vn -0.5773504 -0.5773501 -0.5773504
vn -0.5773504 -0.5773501 -0.5773504
vn -0.5773504 0.5773501 -0.5773504
vn -0.5773504 0.5773501 -0.5773504
vn -0.5773504 0.5773501 -0.5773504
vn 0.5773504 -0.5773504 0.5773501
vn 0.5773504 -0.5773504 0.5773501
vn 0.5773504 -0.5773504 0.5773501
vn 0.5773504 0.5773504 0.5773501
vn 0.5773504 0.5773504 0.5773501
vn 0.5773504 0.5773504 0.5773501
vn 0.5773504 -0.5773504 -0.5773501
vn 0.5773504 -0.5773504 -0.5773501
vn 0.5773504 -0.5773504 -0.5773501
vn 0.5773504 0.5773504 -0.5773501
vn 0.5773504 0.5773504 -0.5773501
vn 0.5773504 0.5773504 -0.5773501
vn 0.5773504 -0.5773501 0.5773504
vn 0.5773504 -0.5773501 0.5773504
vn 0.5773504 -0.5773501 0.5773504
vn 0.5773504 0.5773501 0.5773504
vn 0.5773504 0.5773501 0.5773504
vn 0.5773504 0.5773501 0.5773504
vn 0.5773504 -0.5773501 -0.5773504
vn 0.5773504 -0.5773501 -0.5773504
vn 0.5773504 -0.5773501 -0.5773504
vn 0.5773504 0.5773501 -0.5773504
vn 0.5773504 0.5773501 -0.5773504
vn 0.5773504 0.5773501 -0.5773504
vn -0.5773504 -0.5773504 0.5773501
vn -0.5773504 -0.5773504 0.5773501
vn -0.5773504 -0.5773504 0.5773501
vn -0.5773504 0.5773504 0.5773501
vn -0.5773504 0.5773504 0.5773501
vn -0.5773504 0.5773504 0.5773501
vn -0.5773504 -0.5773504 -0.5773501
vn -0.5773504 -0.5773504 -0.5773501
vn -0.5773504 -0.5773504 -0.5773501
vn -0.5773504 0.5773504 -0.5773501
vn -0.5773504 0.5773504 -0.5773501
vn -0.5773504 0.5773504 -0.5773501
vn 0 -0.7071069 -0.7071066
vn 0 -0.7071069 -0.7071066
vn 0 0.7071066 -0.7071069
vn 0 0.7071066 -0.7071069
vn 0 0.7071069 0.7071066
vn 0 0.7071069 0.7071066
vn 0 -0.7071066 0.7071069
vn 0 -0.7071066 0.7071069
vn 0 -0.7071069 -0.7071066
vn 0 -0.7071069 -0.7071066
vn 0 0 1
vn 0 0 1
vn 0 0 1
vn 0 0 1
vn 1 0 0
vn 1 0 0
vn 1 0 0
vn 1 0 0
vn 0 1 0
vn 0 1 0
vn 0 1 0
vn 0 1 0
vn -1 0 0
vn -1 0 0
vn -1 0 0
vn -1 0 0
vn 0 0 -1
vn 0 0 -1
vn 0 0 -1
vn 0 0 -1
vn -0.7071068 -0.7071068 0
vn -0.7071068 -0.7071068 0
vn -0.7071068 -0.7071068 0
vn -0.7071068 -0.7071068 0
vn -0.7071068 0 0.7071068
vn -0.7071068 0 0.7071068
vn -0.7071068 0 0.7071068
vn -0.7071068 0 0.7071068
vn -0.7071068 0.7071068 0
vn -0.7071068 0.7071068 0
vn -0.7071068 0.7071068 0
vn -0.7071068 0.7071068 0
vn -0.7071068 0 -0.7071068
vn -0.7071068 0 -0.7071068
vn -0.7071068 0 -0.7071068
vn -0.7071068 0 -0.7071068
vn 0 -0.7071068 -0.7071068
vn 0 -0.7071068 -0.7071068
vn 0 -0.7071068 -0.7071068
vn 0 -0.7071068 -0.7071068
vn 0 0.7071068 -0.7071068
vn 0 0.7071068 -0.7071068
vn 0 0.7071068 -0.7071068
vn 0 0.7071068 -0.7071068
vn 0.7071068 0 -0.7071068
vn 0.7071068 0 -0.7071068
vn 0.7071068 0 -0.7071068
vn 0.7071068 0 -0.7071068
vn 0.7071068 -0.7071068 0
vn 0.7071068 -0.7071068 0
vn 0.7071068 -0.7071068 0
vn 0.7071068 -0.7071068 0
vn 0.7071068 0.7071068 0
vn 0.7071068 0.7071068 0
vn 0.7071068 0.7071068 0
vn 0.7071068 0.7071068 0
vn 0.7071068 0 0.7071068
vn 0.7071068 0 0.7071068
vn 0.7071068 0 0.7071068
vn 0.7071068 0 0.7071068
vn 0 -0.7071068 0.7071068
vn 0 -0.7071068 0.7071068
vn 0 -0.7071068 0.7071068
vn 0 -0.7071068 0.7071068
vn 0 0.7071068 0.7071068
vn 0 0.7071068 0.7071068
vn 0 0.7071068 0.7071068
vn 0 0.7071068 0.7071068
vn 0 -1 0
vn 0 -1 0
vn 0 -1 0
vn 0 -1 0
vn 0 -0.7071069 -0.7071066
vn 0 0.7071066 -0.7071069
vn 0 -0.7071069 -0.7071066
vn 0 0.7071066 -0.7071069
vn 0 0.7071069 0.7071066
vn 0 0.7071069 0.7071066
vn 0 -0.7071066 0.7071069
vn 0 -0.7071066 0.7071069
vn 0 -0.7071069 -0.7071066
vn 0 -0.7071069 -0.7071066
vn 0 0 1
vn 0 0 1
vn 0 0 1
vn 0 0 1
vn -1 0 0
vn -1 0 0
vn -1 0 0
vn -1 0 0
vn 0 1 0
vn 0 1 0
vn 0 1 0
vn 0 1 0
vn 1 0 0
vn 1 0 0
vn 1 0 0
vn 1 0 0
vn 0 0 -1
vn 0 0 -1
vn 0 0 -1
vn 0 0 -1
vn 0.7071068 -0.7071068 0
vn 0.7071068 -0.7071068 0
vn 0.7071068 -0.7071068 0
vn 0.7071068 -0.7071068 0
vn 0.7071068 0 0.7071068
vn 0.7071068 0 0.7071068
vn 0.7071068 0 0.7071068
vn 0.7071068 0 0.7071068
vn 0.7071068 0.7071068 0
vn 0.7071068 0.7071068 0
vn 0.7071068 0.7071068 0
vn 0.7071068 0.7071068 0
vn 0.7071068 0 -0.7071068
vn 0.7071068 0 -0.7071068
vn 0.7071068 0 -0.7071068
vn 0.7071068 0 -0.7071068
vn 0 -0.7071068 -0.7071068
vn 0 -0.7071068 -0.7071068
vn 0 -0.7071068 -0.7071068
vn 0 -0.7071068 -0.7071068
vn 0 0.7071068 -0.7071068
vn 0 0.7071068 -0.7071068
vn 0 0.7071068 -0.7071068
vn 0 0.7071068 -0.7071068
vn -0.7071068 0 -0.7071068
vn -0.7071068 0 -0.7071068
vn -0.7071068 0 -0.7071068
vn -0.7071068 0 -0.7071068
vn -0.7071068 -0.7071068 0
vn -0.7071068 -0.7071068 0
vn -0.7071068 -0.7071068 0
vn -0.7071068 -0.7071068 0
vn -0.7071068 0.7071068 0
vn -0.7071068 0.7071068 0
vn -0.7071068 0.7071068 0
vn -0.7071068 0.7071068 0
vn -0.7071068 0 0.7071068
vn -0.7071068 0 0.7071068
vn -0.7071068 0 0.7071068
vn -0.7071068 0 0.7071068
vn 0 -0.7071068 0.7071068
vn 0 -0.7071068 0.7071068
vn 0 -0.7071068 0.7071068
vn 0 -0.7071068 0.7071068
vn 0 0.7071068 0.7071068
vn 0 0.7071068 0.7071068
vn 0 0.7071068 0.7071068
vn 0 0.7071068 0.7071068
vn 0 -1 0
vn 0 -1 0
vn 0 -1 0
vn 0 -1 0
g Concrete_0
f 3/3/3 2/2/2 1/1/1
f 6/6/6 5/5/5 4/4/4
f 9/9/9 8/8/8 7/7/7
f 12/12/12 11/11/11 10/10/10
f 15/15/15 14/14/14 13/13/13
f 18/18/18 17/17/17 16/16/16
f 21/21/21 20/20/20 19/19/19
f 24/24/24 23/23/23 22/22/22
f 27/27/27 26/26/26 25/25/25
f 30/30/30 29/29/29 28/28/28
f 33/33/33 32/32/32 31/31/31
f 36/36/36 35/35/35 34/34/34
f 39/39/39 38/38/38 37/37/37
f 42/42/42 41/41/41 40/40/40
f 45/45/45 44/44/44 43/43/43
f 48/48/48 47/47/47 46/46/46
f 51/51/51 50/50/50 49/49/49
f 52/52/52 51/51/51 49/49/49
f 52/52/52 53/53/53 51/51/51
f 53/53/53 54/54/54 51/51/51
f 54/54/54 53/53/53 55/55/55
f 53/53/53 56/56/56 55/55/55
f 55/55/55 56/56/56 57/57/57
f 58/58/58 55/55/55 57/57/57
f 61/61/61 60/60/60 59/59/59
f 62/62/62 61/61/61 59/59/59
f 65/65/65 64/64/64 63/63/63
f 66/66/66 65/65/65 63/63/63
f 69/69/69 68/68/68 67/67/67
f 70/70/70 69/69/69 67/67/67
f 73/73/73 72/72/72 71/71/71
f 74/74/74 73/73/73 71/71/71
f 77/77/77 76/76/76 75/75/75
f 78/78/78 77/77/77 75/75/75
f 81/81/81 80/80/80 79/79/79
f 82/82/82 81/81/81 79/79/79
f 85/85/85 84/84/84 83/83/83
f 86/86/86 85/85/85 83/83/83
f 89/89/89 88/88/88 87/87/87
f 90/90/90 89/89/89 87/87/87
f 93/93/93 92/92/92 91/91/91
f 94/94/94 93/93/93 91/91/91
f 97/97/97 96/96/96 95/95/95
f 98/98/98 97/97/97 95/95/95
f 101/101/101 100/100/100 99/99/99
f 102/102/102 101/101/101 99/99/99
f 105/105/105 104/104/104 103/103/103
f 106/106/106 105/105/105 103/103/103
f 109/109/109 108/108/108 107/107/107
f 110/110/110 109/109/109 107/107/107
f 113/113/113 112/112/112 111/111/111
f 114/114/114 113/113/113 111/111/111
f 117/117/117 116/116/116 115/115/115
f 118/118/118 117/117/117 115/115/115
f 121/121/121 120/120/120 119/119/119
f 122/122/122 121/121/121 119/119/119
f 125/125/125 124/124/124 123/123/123
f 126/126/126 125/125/125 123/123/123
f 129/129/129 128/128/128 127/127/127
f 130/130/130 129/129/129 127/127/127
f 133/133/133 132/132/132 131/131/131
f 132/132/132 134/134/134 131/131/131
f 135/135/135 134/134/134 132/132/132
f 136/136/136 135/135/135 132/132/132
f 135/135/135 136/136/136 137/137/137
f 138/138/138 135/135/135 137/137/137
f 138/138/138 137/137/137 139/139/139
f 137/137/137 140/140/140 139/139/139
f 143/143/143 142/142/142 141/141/141
f 144/144/144 143/143/143 141/141/141
f 147/147/147 146/146/146 145/145/145
f 148/148/148 147/147/147 145/145/145
f 151/151/151 150/150/150 149/149/149
f 152/152/152 151/151/151 149/149/149
f 155/155/155 154/154/154 153/153/153
f 156/156/156 155/155/155 153/153/153
f 159/159/159 158/158/158 157/157/157
f 160/160/160 159/159/159 157/157/157
f 163/163/163 162/162/162 161/161/161
f 164/164/164 163/163/163 161/161/161
f 167/167/167 166/166/166 165/165/165
f 168/168/168 167/167/167 165/165/165
f 171/171/171 170/170/170 169/169/169
f 172/172/172 171/171/171 169/169/169
f 175/175/175 174/174/174 173/173/173
f 176/176/176 175/175/175 173/173/173
f 179/179/179 178/178/178 177/177/177
f 180/180/180 179/179/179 177/177/177
f 183/183/183 182/182/182 181/181/181
f 184/184/184 183/183/183 181/181/181
f 187/187/187 186/186/186 185/185/185
f 188/188/188 187/187/187 185/185/185
f 191/191/191 190/190/190 189/189/189
f 192/192/192 191/191/191 189/189/189
f 195/195/195 194/194/194 193/193/193
f 196/196/196 195/195/195 193/193/193
f 199/199/199 198/198/198 197/197/197
f 200/200/200 199/199/199 197/197/197
f 203/203/203 202/202/202 201/201/201
f 204/204/204 203/203/203 201/201/201
f 207/207/207 206/206/206 205/205/205
f 208/208/208 207/207/207 205/205/205
f 211/211/211 210/210/210 209/209/209
f 212/212/212 211/211/211 209/209/209
