g kettle normal.003
v -0.4976934 0.6867449 -0.3108034
v -0.4976934 0.919828 -0.4627419
v -0.4976934 0.9731691 -0.2883553
v -0.4976934 0.6825382 -0.4627419
v -0.4976934 0.03490404 -0.2883548
v -0.4976934 0.03490404 -0.4627419
v -0.4976934 0.03490404 -0.02224942
v -0.4976934 0.6949099 -0.0268013
v -0.4976934 0.6867449 0.2579302
v 0.4976922 0.03490417 -0.4627419
v 0.4976922 0.6825382 -0.4627419
v -0.4976934 0.6825382 -0.4627419
v -0.4976934 0.919828 -0.4627419
v 0.4976922 0.919828 -0.4627419
v -0.4976934 0.9731691 -0.2883553
v 0.4976922 0.9731692 -0.2449451
v -0.4976934 0.9854164 -0.02225039
v 0.4976922 0.9854164 0.02225338
v 0.4976922 0.03490417 -0.2449447
v 0.4976922 0.03490417 0.02225436
v 0.4976922 0.6867449 -0.2579273
v 0.4976922 0.6825382 -0.4627419
v 0.4976922 0.919828 -0.4627419
v 0.4976922 0.9731692 -0.2449451
v 0.4976922 0.6949098 0.02680527
v 0.4976922 0.6867449 0.3108073
v 0.4976922 0.03490417 0.2883582
v -0.4976934 0.03490404 0.244948
v 0.4976922 0.03490417 0.4627449
v 0.4976922 0.6825382 0.4627449
v 0.4976922 0.919828 0.4627449
v 0.4976922 0.9731692 0.2883582
v -0.4976934 0.03490404 0.4627449
v 0.4976922 0.6825382 0.4627449
v -0.4976934 0.6825383 0.4627449
v -0.4976934 0.919828 0.4627449
v -0.4976934 0.9731691 0.244948
v -0.4976934 0.6825383 0.4627449
v 0.4976922 0.919828 0.4627449
v -0.4976934 0.919828 0.4627449
v 0.4976922 0.9731692 0.2883582
v -0.4976934 0.9731691 0.244948
v 0.4976922 0.9854164 0.02225338
v -0.4976934 0.9854164 -0.02225039
v -0.4976934 0.9731691 0.244948
v -0.5602662 1.155964 -0.02505171
v -0.4976934 0.9854164 -0.02225039
v -0.569274 1.138653 0.1639152
v -0.4976934 0.6867449 0.2579302
v -0.5480338 1.361145 -0.02450469
v -0.7967021 1.070963 0.166327
v -0.4976934 0.6949099 -0.0268013
v -0.5663994 1.348433 0.1228664
v -0.426743 1.527215 -0.01908132
v -0.787319 1.082504 -0.03520428
v -0.4976934 0.6867449 -0.3108034
v -0.7825283 1.446099 0.1230485
v -0.4382461 1.527127 0.03443916
v -4.872689E-07 1.593155 1.481158E-06
v -0.7786772 1.070963 -0.2367676
v -0.4976934 0.9731691 -0.2883553
v -0.4647918 1.573851 0.08347971
v -0.004653012 1.646776 0.1040546
v -0.002412599 1.595399 0.05395385
v 0.4334218 1.527127 0.0734169
v 0.426742 1.527215 0.01908319
v 0.5531707 1.348433 0.1729291
v 0.5480331 1.361145 0.02450665
v -0.7676397 1.454574 -0.03432401
v -0.5523726 1.138652 -0.2140671
v -0.4976934 0.9854164 -0.02225039
v -0.5602662 1.155964 -0.02505171
v -0.7684229 1.446099 -0.1923963
v -0.553172 1.348433 -0.1729262
v -0.5480338 1.361145 -0.02450469
v 0.4554857 1.573851 0.1246307
v -0.433423 1.527127 -0.07341401
v -0.426743 1.527215 -0.01908132
v 0.002411493 1.595399 -0.05395094
v -4.872689E-07 1.593155 1.481158E-06
v 0.426742 1.527215 0.01908319
v -0.4554865 1.573851 -0.1246287
v -0.5001671 1.704312 -0.130604
v 0.00482905 1.784408 -0.1080229
v -0.51324 1.751164 -0.0838068
v 0.438245 1.527127 -0.03443625
v 0.5480331 1.361145 0.02450665
v 0.004652111 1.646777 -0.1040528
v 0.4647908 1.573851 -0.08347783
v 0.5663982 1.348433 -0.1228635
v 0.5602653 1.155964 0.02505467
v -0.509555 1.751225 -0.02278356
v 0.509827 1.704312 -0.08544128
v 0.5692725 1.138652 -0.1639114
v 0.4976922 0.9854164 0.02225338
v 0.4976922 0.9731692 -0.2449451
v 0.7825272 1.446099 -0.1230445
v 0.796701 1.070963 -0.1663229
v 0.4976922 0.6867449 -0.2579273
v 0.5186713 1.751164 -0.0376625
v 0.002715092 1.832496 -0.06074425
v -4.872689E-07 1.830916 1.481158E-06
v -0.002716198 1.832495 0.06074717
v 0.5095538 1.751226 0.02278648
v 0.7873179 1.082504 0.0352072
v 0.4976922 0.6949098 0.02680527
v 0.7676386 1.454574 0.03432694
v 0.778676 1.070963 0.2367715
v 0.4976922 0.6867449 0.3108073
v 0.513239 1.751164 0.08380869
v 0.7684215 1.446099 0.1924002
v 0.5523715 1.138653 0.21407
v 0.4976922 0.9731692 0.2883582
v 0.5602653 1.155964 0.02505467
v 0.4976922 0.9854164 0.02225338
v 0.500166 1.704312 0.1306069
v -0.004830361 1.784407 0.1080258
v -0.5098281 1.704312 0.0854442
v -0.5186724 1.751164 0.03766541
vt 0.5042413 0.9099386
vt 0.5116054 0.9263386
vt 0.5205955 0.9187218
vt 0.4987062 0.9180512
vt 0.4695911 0.8859527
vt 0.4635006 0.8954324
vt 0.4788849 0.8714871
vt 0.514604 0.8947854
vt 0.5241045 0.8790221
vt 0.4093911 0.8606683
vt 0.3867723 0.8958739
vt 0.4408818 0.930638
vt 0.4325944 0.9435371
vt 0.3784849 0.9087731
vt 0.4262254 0.9534503
vt 0.3706499 0.9209602
vt 0.4169 0.9679173
vt 0.3612863 0.9354863
vt 0.4169977 0.8488287
vt 0.4263297 0.8343037
vt 0.38111 0.8267688
vt 0.3741855 0.8380495
vt 0.3612863 0.829762
vt 0.3659933 0.8160596
vt 0.3906105 0.8110055
vt 0.4009732 0.7958522
vt 0.4356235 0.8198382
vt 0.4882168 0.8569621
vt 0.441714 0.8103585
vt 0.4065084 0.7877397
vt 0.3936092 0.7794523
vt 0.3846191 0.7870691
vt 0.4958234 0.8451226
vt 0.4643327 0.7751529
vt 0.531029 0.8677413
vt 0.5439282 0.8760288
vt 0.5392212 0.8897313
vt 0.5184422 0.809917
vt 0.4726202 0.7622538
vt 0.5267297 0.7970179
vt 0.4789892 0.7523406
vt 0.5345646 0.7848308
vt 0.4883145 0.7378736
vt 0.5439282 0.7703046
vt 0.4902778 0.763014
vt 0.4986972 0.7849457
vt 0.5051319 0.7743421
vt 0.4867599 0.7772688
vt 0.4837872 0.7425178
vt 0.4925323 0.7980921
vt 0.4729531 0.7726365
vt 0.4613193 0.740974
vt 0.4836672 0.7928072
vt 0.4868485 0.8124091
vt 0.4612645 0.7727511
vt 0.4390996 0.7431171
vt 0.4695416 0.7912646
vt 0.4829839 0.8110518
vt 0.4858904 0.8428357
vt 0.44951 0.772516
vt 0.4333478 0.763675
vt 0.4778008 0.810568
vt 0.477505 0.8428492
vt 0.4820638 0.8428418
vt 0.4830839 0.8746283
vt 0.4869446 0.8732591
vt 0.4837845 0.8928632
vt 0.4926717 0.887565
vt 0.4612724 0.791919
vt 0.4358005 0.7774973
vt 0.4175872 0.7740254
vt 0.4238461 0.7849569
vt 0.4529923 0.7912928
vt 0.4389347 0.7928882
vt 0.4300475 0.7981864
vt 0.4779034 0.8751262
vt 0.4396352 0.8111231
vt 0.4357746 0.8124921
vt 0.4406553 0.8429095
vt 0.4368287 0.8429157
vt 0.4358708 0.8733422
vt 0.4448158 0.810625
vt 0.4541384 0.8119689
vt 0.4534932 0.8428885
vt 0.4579228 0.8127969
vt 0.4397352 0.8746995
vt 0.4301869 0.8876594
vt 0.4452142 0.8429022
vt 0.4449183 0.8751834
vt 0.439052 0.8929442
vt 0.4240221 0.9008057
vt 0.461311 0.8131055
vt 0.4542398 0.8738079
vt 0.4359593 0.9084826
vt 0.4175873 0.9114093
vt 0.4324414 0.9227373
vt 0.4531776 0.8944867
vt 0.4497661 0.9131149
vt 0.4389321 0.9432335
vt 0.458021 0.8729658
vt 0.4578189 0.8428814
vt 0.4613596 0.8428757
vt 0.4649003 0.8428699
vt 0.4614082 0.8726458
vt 0.4614547 0.9130002
vt 0.4614 0.9447774
vt 0.4614468 0.8938323
vt 0.4732092 0.9132354
vt 0.4836197 0.9426342
vt 0.4647963 0.8729544
vt 0.469727 0.8944586
vt 0.4869187 0.908254
vt 0.4893715 0.9220763
vt 0.4988731 0.9007943
vt 0.5051319 0.9117258
vt 0.4685808 0.8737825
vt 0.4692259 0.8428628
vt 0.4684793 0.8119434
vt 0.4646982 0.8127856
vn -0.9882995 -0.1160755 -0.098947
vn -0.5972507 0.4870474 -0.6372412
vn -0.08299506 0.7838018 -0.6154401
vn -0.7071066 0 -0.7071068
vn -0.7071066 -0.7071068 0
vn -0.5773502 -0.5773503 -0.5773503
vn -0.7071068 -0.7071068 0
vn -0.9464188 -0.3228372 -0.008221069
vn -0.9881914 -0.1179881 0.09775659
vn 0.5773503 -0.5773502 -0.5773503
vn 0.7071068 0 -0.7071068
vn -0.7071066 0 -0.7071068
vn -0.5972507 0.4870474 -0.6372412
vn 0.5891665 0.4906648 -0.6419742
vn -0.08299506 0.7838018 -0.6154401
vn 0.1568064 0.7835453 -0.6012226
vn 0.5753579 0.8178279 0.01098931
vn -0.5753578 0.817828 -0.01098894
vn 0.7071068 -0.7071068 0
vn 0.7071068 -0.7071066 0
vn 0.9881915 -0.1179878 -0.09775671
vn 0.7071068 0 -0.7071068
vn 0.5891665 0.4906648 -0.6419742
vn 0.1568064 0.7835453 -0.6012226
vn 0.9464188 -0.3228372 0.008221046
vn 0.9882995 -0.1160753 0.09894699
vn 0.7071068 -0.7071068 0
vn -0.7071066 -0.7071068 0
vn 0.5773503 -0.5773502 0.5773503
vn 0.7071068 0 0.7071068
vn 0.5972508 0.4870474 0.6372412
vn 0.08299173 0.7838024 0.6154398
vn -0.5773502 -0.5773503 0.5773503
vn 0.7071068 0 0.7071068
vn -0.7071068 0 0.7071068
vn -0.5891665 0.4906648 0.6419742
vn -0.1568042 0.7835448 0.6012238
vn -0.7071068 0 0.7071068
vn 0.5972508 0.4870474 0.6372412
vn -0.5891665 0.4906648 0.6419742
vn 0.08299173 0.7838024 0.6154398
vn -0.1568042 0.7835448 0.6012238
vn -0.5753578 0.817828 -0.01098894
vn 0.5753579 0.8178279 0.01098931
vn -0.1568042 0.7835448 0.6012238
vn 0.9872711 0.1555582 0.03312651
vn 0.5753579 0.8178279 0.01098931
vn 0.5958979 0.2678296 0.7570819
vn -0.9881914 -0.1179881 0.09775659
vn 0.9426236 -0.3311856 0.04215183
vn -0.7920553 -0.1681079 0.5868458
vn -0.9464188 -0.3228372 -0.008221069
vn 0.6167251 -0.05897084 0.7849666
vn 0.4990339 -0.866295 0.0223142
vn -0.9574383 -0.2868256 -0.03229557
vn -0.9882995 -0.1160755 -0.098947
vn -0.7143303 0.3394082 0.6119921
vn 0.5531099 -0.7143283 0.4287241
vn 0 -1 -2.352845E-06
vn -0.7477034 -0.1547438 -0.6457508
vn -0.08299506 0.7838018 -0.6154401
vn 0.1939649 -0.1746587 0.9653351
vn -0.04166687 -0.3605297 0.9318166
vn -0.01857409 -0.9094632 0.4153693
vn -0.589166 -0.7143283 0.3776485
vn -0.4990335 -0.8662953 -0.02231745
vn -0.6843266 -0.05897248 0.726787
vn -0.9426236 -0.3311856 -0.04215224
vn -0.9244223 0.3791236 -0.04133724
vn 0.6745095 0.251902 -0.6939614
vn 0.5753579 0.8178279 0.01098931
vn 0.9872711 0.1555582 0.03312651
vn -0.6568587 0.3394076 -0.6733046
vn 0.6843236 -0.05897201 -0.7267898
vn 0.9426236 -0.3311856 0.04215183
vn -0.2793488 -0.1746535 0.9441718
vn 0.5891662 -0.7143295 -0.377646
vn 0.4990339 -0.866295 0.0223142
vn 0.01857423 -0.9094644 -0.4153669
vn 0 -1 -2.352845E-06
vn -0.4990335 -0.8662953 -0.02231745
vn 0.2793474 -0.1746551 -0.944172
vn -0.1196939 0.420644 -0.8992952
vn 0.04099377 0.3973422 -0.9167545
vn -0.422525 0.8388586 -0.343204
vn -0.5531107 -0.7143304 -0.4287198
vn -0.9426236 -0.3311856 -0.04215224
vn 0.0416668 -0.3605301 -0.9318165
vn -0.1939632 -0.1746589 -0.9653355
vn -0.6167235 -0.05897135 -0.7849677
vn -0.9872711 0.1555582 -0.03312603
vn -0.4693103 0.8827839 -0.02098523
vn 0.1994841 0.4206491 -0.88502
vn -0.5958987 0.2678304 -0.757081
vn -0.5753578 0.817828 -0.01098894
vn 0.1568064 0.7835453 -0.6012226
vn 0.7143319 0.3394072 -0.6119907
vn 0.7920561 -0.168108 -0.5868447
vn 0.9881915 -0.1179878 -0.09775671
vn 0.4514739 0.8388584 -0.3041181
vn 0.01630296 0.9310214 -0.3646002
vn -2.610534E-07 1 1.372925E-06
vn -0.0163031 0.931021 0.3646015
vn 0.4693092 0.8827845 0.0209871
vn 0.9574383 -0.2868257 0.03229581
vn 0.9464188 -0.3228372 0.008221046
vn 0.9244223 0.3791234 0.04133787
vn 0.7477021 -0.1547428 0.6457524
vn 0.9882995 -0.1160753 0.09894699
vn 0.4225264 0.8388582 0.343203
vn 0.6568561 0.3394081 0.6733069
vn -0.6745114 0.2519024 0.6939592
vn 0.08299173 0.7838024 0.6154398
vn -0.9872711 0.1555582 -0.03312603
vn -0.5753578 0.817828 -0.01098894
vn 0.1196942 0.4206458 0.8992944
vn -0.0409936 0.3973395 0.9167556
vn -0.1994814 0.4206472 0.8850215
vn -0.4514736 0.8388585 0.3041182
g kettle normal.003_0
f 3/3/3 2/2/2 1/1/1
f 2/2/2 4/4/4 1/1/1
f 1/1/1 4/4/4 5/5/5
f 4/4/4 6/6/6 5/5/5
f 1/1/1 5/5/5 7/7/7
f 8/8/8 1/1/1 7/7/7
f 8/8/8 7/7/7 9/9/9
f 5/5/5 6/6/6 10/10/10
f 11/11/11 10/10/10 6/6/6
f 12/12/12 11/11/11 6/6/6
f 12/12/12 13/13/13 11/11/11
f 13/13/13 14/14/14 11/11/11
f 14/14/14 13/13/13 15/15/15
f 16/16/16 14/14/14 15/15/15
f 16/16/16 15/15/15 17/17/17
f 18/18/18 16/16/16 17/17/17
f 19/19/19 5/5/5 10/10/10
f 20/20/20 7/7/7 5/5/5
f 19/19/19 20/20/20 5/5/5
f 21/21/21 19/19/19 10/10/10
f 22/22/22 21/21/21 10/10/10
f 22/22/22 23/23/23 21/21/21
f 23/23/23 24/24/24 21/21/21
f 21/21/21 25/25/25 19/19/19
f 25/25/25 20/20/20 19/19/19
f 20/20/20 25/25/25 26/26/26
f 20/20/20 27/27/27 7/7/7
f 27/27/27 20/20/20 26/26/26
f 27/27/27 28/28/28 7/7/7
f 7/7/7 28/28/28 9/9/9
f 27/27/27 29/29/29 28/28/28
f 29/29/29 27/27/27 26/26/26
f 30/30/30 29/29/29 26/26/26
f 31/31/31 30/30/30 26/26/26
f 32/32/32 31/31/31 26/26/26
f 29/29/29 33/33/33 28/28/28
f 28/28/28 33/33/33 9/9/9
f 33/33/33 29/29/29 34/34/34
f 33/33/33 35/35/35 9/9/9
f 35/35/35 36/36/36 9/9/9
f 36/36/36 37/37/37 9/9/9
f 38/38/38 33/33/33 34/34/34
f 34/34/34 39/39/39 38/38/38
f 39/39/39 40/40/40 38/38/38
f 39/39/39 41/41/41 40/40/40
f 41/41/41 42/42/42 40/40/40
f 41/41/41 43/43/43 42/42/42
f 43/43/43 44/44/44 42/42/42
f 47/47/47 46/46/46 45/45/45
f 46/46/46 48/48/48 45/45/45
f 45/45/45 48/48/48 49/49/49
f 46/46/46 50/50/50 48/48/48
f 48/48/48 51/51/51 49/49/49
f 49/49/49 51/51/51 52/52/52
f 50/50/50 53/53/53 48/48/48
f 48/48/48 53/53/53 51/51/51
f 50/50/50 54/54/54 53/53/53
f 51/51/51 55/55/55 52/52/52
f 52/52/52 55/55/55 56/56/56
f 53/53/53 57/57/57 51/51/51
f 51/51/51 57/57/57 55/55/55
f 54/54/54 58/58/58 53/53/53
f 54/54/54 59/59/59 58/58/58
f 55/55/55 60/60/60 56/56/56
f 56/56/56 60/60/60 61/61/61
f 53/53/53 62/62/62 57/57/57
f 62/62/62 53/53/53 58/58/58
f 62/62/62 58/58/58 63/63/63
f 59/59/59 64/64/64 58/58/58
f 58/58/58 64/64/64 63/63/63
f 64/64/64 59/59/59 65/65/65
f 64/64/64 65/65/65 63/63/63
f 59/59/59 66/66/66 65/65/65
f 65/65/65 66/66/66 67/67/67
f 66/66/66 68/68/68 67/67/67
f 55/55/55 69/69/69 60/60/60
f 57/57/57 69/69/69 55/55/55
f 60/60/60 70/70/70 61/61/61
f 61/61/61 70/70/70 71/71/71
f 70/70/70 72/72/72 71/71/71
f 60/60/60 73/73/73 70/70/70
f 69/69/69 73/73/73 60/60/60
f 70/70/70 74/74/74 72/72/72
f 73/73/73 74/74/74 70/70/70
f 74/74/74 75/75/75 72/72/72
f 67/67/67 76/76/76 65/65/65
f 65/65/65 76/76/76 63/63/63
f 74/74/74 77/77/77 75/75/75
f 77/77/77 78/78/78 75/75/75
f 77/77/77 79/79/79 78/78/78
f 79/79/79 80/80/80 78/78/78
f 80/80/80 79/79/79 81/81/81
f 77/77/77 74/74/74 82/82/82
f 77/77/77 82/82/82 79/79/79
f 73/73/73 83/83/83 74/74/74
f 83/83/83 82/82/82 74/74/74
f 83/83/83 84/84/84 82/82/82
f 83/83/83 73/73/73 85/85/85
f 84/84/84 83/83/83 85/85/85
f 79/79/79 86/86/86 81/81/81
f 81/81/81 86/86/86 87/87/87
f 82/82/82 88/88/88 79/79/79
f 84/84/84 88/88/88 82/82/82
f 88/88/88 89/89/89 79/79/79
f 89/89/89 86/86/86 79/79/79
f 88/88/88 84/84/84 89/89/89
f 86/86/86 90/90/90 87/87/87
f 90/90/90 86/86/86 89/89/89
f 87/87/87 90/90/90 91/91/91
f 92/92/92 85/85/85 73/73/73
f 69/69/69 92/92/92 73/73/73
f 84/84/84 93/93/93 89/89/89
f 89/89/89 93/93/93 90/90/90
f 90/90/90 94/94/94 91/91/91
f 91/91/91 94/94/94 95/95/95
f 94/94/94 96/96/96 95/95/95
f 93/93/93 97/97/97 90/90/90
f 90/90/90 97/97/97 94/94/94
f 94/94/94 98/98/98 96/96/96
f 97/97/97 98/98/98 94/94/94
f 98/98/98 99/99/99 96/96/96
f 93/93/93 84/84/84 100/100/100
f 97/97/97 93/93/93 100/100/100
f 101/101/101 84/84/84 85/85/85
f 84/84/84 101/101/101 100/100/100
f 102/102/102 101/101/101 85/85/85
f 101/101/101 102/102/102 100/100/100
f 92/92/92 102/102/102 85/85/85
f 103/103/103 102/102/102 92/92/92
f 102/102/102 104/104/104 100/100/100
f 100/100/100 104/104/104 97/97/97
f 102/102/102 103/103/103 104/104/104
f 98/98/98 105/105/105 99/99/99
f 105/105/105 106/106/106 99/99/99
f 97/97/97 107/107/107 98/98/98
f 104/104/104 107/107/107 97/97/97
f 107/107/107 105/105/105 98/98/98
f 105/105/105 108/108/108 106/106/106
f 108/108/108 109/109/109 106/106/106
f 104/104/104 110/110/110 107/107/107
f 103/103/103 110/110/110 104/104/104
f 107/107/107 111/111/111 105/105/105
f 110/110/110 111/111/111 107/107/107
f 111/111/111 108/108/108 105/105/105
f 108/108/108 112/112/112 109/109/109
f 112/112/112 113/113/113 109/109/109
f 112/112/112 114/114/114 113/113/113
f 114/114/114 115/115/115 113/113/113
f 68/68/68 114/114/114 112/112/112
f 67/67/67 68/68/68 112/112/112
f 67/67/67 112/112/112 108/108/108
f 111/111/111 67/67/67 108/108/108
f 76/76/76 67/67/67 111/111/111
f 111/111/111 110/110/110 116/116/116
f 116/116/116 76/76/76 111/111/111
f 110/110/110 103/103/103 116/116/116
f 63/63/63 76/76/76 116/116/116
f 117/117/117 63/63/63 116/116/116
f 103/103/103 117/117/117 116/116/116
f 63/63/63 117/117/117 118/118/118
f 117/117/117 103/103/103 118/118/118
f 62/62/62 63/63/63 118/118/118
f 62/62/62 118/118/118 57/57/57
f 103/103/103 119/119/119 118/118/118
f 119/119/119 57/57/57 118/118/118
f 119/119/119 103/103/103 92/92/92
f 57/57/57 119/119/119 69/69/69
f 119/119/119 92/92/92 69/69/69
