g bien.001
v -554655.1 -76185.32 385392.8
v -582200.8 -70854.66 384418.2
v -582200.8 -60239.48 396335.1
v -554655.1 -61107.55 402319.5
v 591501.1 -76185.32 385392.8
v -554655.1 -40595.96 408480.2
v 591501.1 -61107.55 402319.5
v 619046.8 -60239.48 396335.1
v 619046.8 -70854.66 384418.2
v 591501.1 -40595.96 408480.2
v -583418.1 -40595.96 402319.5
v -597086.4 -60239.48 384418.2
v -604561.4 -40595.96 385392.8
v -604539.6 -11813.91 385422.9
v -583456.1 -11813.91 402301.9
v -554655.1 -11813.91 408480.2
v 591501.1 -11813.91 408480.2
v 620302.3 -11813.91 402301.9
v 620264.3 -40595.96 402319.5
v 633932.4 -60239.48 384418.2
v 641385.7 -11813.91 385422.9
v -597086.4 -60239.48 384418.2
v -582200.8 -60239.48 396335.1
v -582200.8 -70854.66 384418.2
v -604561.4 -61107.55 362365.7
v -583418.1 -76185.32 362365.7
v -583418.1 -76185.32 -316853.2
v -604561.4 -61107.55 -316853.2
v -554655.1 -81673.02 362365.7
v -554655.1 -76185.32 385392.8
v -554655.1 -81673.02 -316853.2
v 18422.96 -81672.98 22756.21
v -582200.8 -70854.66 -338905.8
v -597086.4 -60239.48 -338905.8
v -554655.1 -76185.32 -339880.3
v 591501.1 -81673.02 -316853.2
v 18422.96 -81672.98 22756.21
v 591501.1 -76185.32 -339880.3
v 619046.8 -70854.66 -338905.8
v 591501.1 -81673.02 362365.7
v 18422.96 -81672.98 22756.21
v 591501.1 -76185.32 385392.8
v 18422.96 -81672.98 22756.21
v 619046.8 -70854.66 384418.2
v 620264.3 -76185.32 362365.7
v 620264.3 -76185.32 -316853.2
v 641407.4 -61107.55 362365.7
v 633932.4 -60239.48 384418.2
v 619046.8 -60239.48 396335.1
v 641407.4 -61107.55 -316853.2
v 633932.4 -60239.48 -338905.8
v 649102.9 -40595.96 -316853.2
v -612256.8 -11813.91 362365.7
v -604539.6 -11813.91 385422.9
v -604561.4 -40595.96 385392.8
v -612256.8 -40595.96 362365.7
v -597086.4 -60239.48 384418.2
v -604561.4 -61107.55 362365.7
v -604561.4 -61107.55 -316853.2
v -612256.8 -40595.96 -316853.2
v -597086.4 -60239.48 -338905.8
v -612256.8 -11813.91 -316853.2
v -604561.4 -40595.96 -339880.3
v -604539.6 -11813.91 -339910.3
v 649102.9 -40595.96 -316853.2
v 649102.9 -11813.91 362365.7
v 649102.9 -11813.91 -316853.2
v 649102.9 -40595.96 362365.7
v 641407.4 -61107.55 -316853.2
v 641407.4 -61107.55 362365.7
v 633932.4 -60239.48 384418.2
v 641407.4 -40595.96 385392.8
v 641385.7 -11813.91 385422.9
v 620264.3 -40595.96 402319.5
v 649102.9 -11813.91 -316853.2
v 641385.7 -11813.91 -339910.3
v 641407.4 -40595.96 -339880.3
v 649102.9 -40595.96 -316853.2
v 633932.4 -60239.48 -338905.8
v 620264.3 -40595.96 -356807.1
v 620302.3 -11813.91 -356789.4
v 619046.8 -60239.48 -350822.7
v 619046.8 -70854.66 -338905.8
v 591501.1 -76185.32 -339880.3
v 591501.1 -40595.96 -362967.7
v 591501.1 -11813.91 -362967.7
v -554655.1 -11813.91 -362967.7
v 591501.1 -61107.55 -356807.1
v -554655.1 -40595.96 -362967.7
v -583456.1 -11813.91 -356789.4
v -554655.1 -61107.55 -356807.1
v -554655.1 -76185.32 -339880.3
v -582200.8 -60239.48 -350822.7
v -582200.8 -70854.66 -338905.8
v -597086.4 -60239.48 -338905.8
v -583418.1 -40595.96 -356807.1
v -604539.6 -11813.91 -339910.3
v -604561.4 -40595.96 -339880.3
vt 0.4726288 0.8904104
vt 0.4724817 0.8883114
vt 0.4736276 0.8880724
vt 0.4744601 0.8901246
vt 0.472583 0.9847386
vt 0.4762665 0.8896371
vt 0.4744173 0.9850221
vt 0.4735838 0.9870828
vt 0.4724349 0.9868417
vt 0.4762385 0.9855107
vt 0.4750948 0.8872164
vt 0.4726902 0.8869861
vt 0.4734585 0.8854627
vt 0.4751287 0.8832369
vt 0.4774321 0.8854667
vt 0.4789674 0.8885913
vt 0.4789674 0.9865754
vt 0.4774027 0.9897143
vt 0.4750573 0.9879451
vt 0.472642 0.9881713
vt 0.4750773 0.9919424
vt 0.4726902 0.8869861
vt 0.4736276 0.8880724
vt 0.4724817 0.8883114
vt 0.4710664 0.8862451
vt 0.470804 0.8882613
vt 0.416405 0.8881782
vt 0.4161594 0.8861613
vt 0.4707611 0.890507
vt 0.4726288 0.8904104
vt 0.4164373 0.8904188
vt 0.4263647 0.8997564
vt 0.4147253 0.8882204
vt 0.4145226 0.8868912
vt 0.4145702 0.8903189
vt 0.4162864 0.9845942
vt 0.4262231 0.9752883
vt 0.4144218 0.9846867
vt 0.4145685 0.9867902
vt 0.4707184 0.9846411
vt 0.4608309 0.8998027
vt 0.472583 0.9847386
vt 0.4607554 0.9752851
vt 0.4724349 0.9868417
vt 0.4707548 0.9868896
vt 0.4162503 0.9868377
vt 0.4710124 0.9889107
vt 0.472642 0.9881713
vt 0.4735838 0.9870828
vt 0.416 0.9888583
vt 0.4143611 0.9881225
vt 0.4155298 0.9906656
vt 0.4726762 0.8818552
vt 0.4751287 0.8832369
vt 0.4734585 0.8854627
vt 0.471544 0.8844624
vt 0.4726902 0.8869861
vt 0.4710664 0.8862451
vt 0.4161594 0.8861613
vt 0.415694 0.8843577
vt 0.4145226 0.8868912
vt 0.4145507 0.8816956
vt 0.4137566 0.8853544
vt 0.4120695 0.8831049
vt 0.4155298 0.9906656
vt 0.4726127 0.9933162
vt 0.41438 0.9933316
vt 0.4714865 0.9906994
vt 0.416 0.9888583
vt 0.4710124 0.9889107
vt 0.472642 0.9881713
vt 0.4734095 0.9897018
vt 0.4750773 0.9919424
vt 0.4750573 0.9879451
vt 0.41438 0.9933316
vt 0.4118941 0.9919187
vt 0.4135889 0.9896627
vt 0.4155298 0.9906656
vt 0.4143611 0.9881225
vt 0.4119369 0.987894
vt 0.4095739 0.9896612
vt 0.413417 0.9870309
vt 0.4145685 0.9867902
vt 0.4144218 0.9846867
vt 0.4107599 0.985451
vt 0.4080244 0.9865077
vt 0.408226 0.8884879
vt 0.4125852 0.9849661
vt 0.4109294 0.8895375
vt 0.4097604 0.8853544
vt 0.4127379 0.8900291
vt 0.4145702 0.8903189
vt 0.4135779 0.8879765
vt 0.4147253 0.8882204
vt 0.4145226 0.8868912
vt 0.4121079 0.887113
vt 0.4120695 0.8831049
vt 0.4137566 0.8853544
vn -0.09019547 -0.8841798 0.4583567
vn -0.3535138 -0.8295621 0.4322671
vn -0.3713014 -0.4990363 0.7830057
vn -0.09585168 -0.5307012 0.8421215
vn 0.09019545 -0.8841797 0.458357
vn -0.104628 -0.1450733 0.9838733
vn 0.09585167 -0.530701 0.8421217
vn 0.3713005 -0.4990364 0.7830061
vn 0.3535131 -0.8295622 0.4322672
vn 0.1046279 -0.1450737 0.9838733
vn -0.4213293 -0.1412178 0.8958455
vn -0.6892285 -0.5356352 0.4879128
vn -0.8160508 -0.1579847 0.5559694
vn -0.8199578 -8.023065E-05 0.5724238
vn -0.4289553 -9.543709E-05 0.9033257
vn -0.1053809 8.099565E-05 0.9944319
vn 0.1053805 8.039981E-05 0.9944319
vn 0.4289572 -9.657674E-05 0.9033248
vn 0.4213305 -0.1412188 0.8958448
vn 0.689229 -0.5356355 0.487912
vn 0.8199578 -8.164522E-05 0.5724238
vn -0.6892285 -0.5356352 0.4879128
vn -0.3713014 -0.4990363 0.7830057
vn -0.3535138 -0.8295621 0.4322671
vn -0.7922503 -0.594425 0.1378344
vn -0.389124 -0.913873 0.1158396
vn -0.3891239 -0.9138731 -0.1158389
vn -0.7922504 -0.594425 -0.1378337
vn -0.09410502 -0.9886671 0.1169688
vn -0.09019547 -0.8841798 0.4583567
vn -0.09410502 -0.9886671 -0.1169682
vn 0 -1 0
vn -0.3535137 -0.829562 -0.4322672
vn -0.6892287 -0.5356349 -0.4879129
vn -0.09019545 -0.8841798 -0.4583567
vn 0.09410483 -0.9886672 -0.1169682
vn 0 -1 0
vn 0.09019544 -0.8841796 -0.4583571
vn 0.353513 -0.8295623 -0.4322672
vn 0.0941048 -0.9886671 0.1169688
vn 0 -1 0
vn 0.09019545 -0.8841797 0.458357
vn 0 -1 0
vn 0.3535131 -0.8295622 0.4322672
vn 0.3891248 -0.9138727 0.1158391
vn 0.3891249 -0.9138727 -0.1158386
vn 0.79225 -0.5944256 0.1378338
vn 0.689229 -0.5356355 0.487912
vn 0.3713005 -0.4990364 0.7830061
vn 0.7922499 -0.5944258 -0.1378332
vn 0.6892289 -0.5356355 -0.487912
vn 0.9718204 -0.1754369 -0.1574386
vn -0.9870074 9.771861E-05 0.1606744
vn -0.8199578 -8.023065E-05 0.5724238
vn -0.8160508 -0.1579847 0.5559694
vn -0.9718208 -0.1754356 0.1574377
vn -0.6892285 -0.5356352 0.4879128
vn -0.7922503 -0.594425 0.1378344
vn -0.7922504 -0.594425 -0.1378337
vn -0.971821 -0.1754352 -0.1574373
vn -0.6892287 -0.5356349 -0.4879129
vn -0.9870074 9.832058E-05 -0.1606744
vn -0.8160508 -0.157983 -0.5559697
vn -0.8199584 -7.745871E-05 -0.572423
vn 0.9718204 -0.1754369 -0.1574386
vn 0.987007 9.686658E-05 0.1606771
vn 0.987007 9.772164E-05 -0.1606771
vn 0.9718204 -0.1754372 0.1574389
vn 0.7922499 -0.5944258 -0.1378332
vn 0.79225 -0.5944256 0.1378338
vn 0.689229 -0.5356355 0.487912
vn 0.8160505 -0.1579854 0.5559697
vn 0.8199578 -8.164522E-05 0.5724238
vn 0.4213305 -0.1412188 0.8958448
vn 0.987007 9.772164E-05 -0.1606771
vn 0.8199584 -7.837272E-05 -0.572423
vn 0.8160505 -0.1579838 -0.5559701
vn 0.9718204 -0.1754369 -0.1574386
vn 0.6892289 -0.5356355 -0.487912
vn 0.4213305 -0.1412167 -0.8958452
vn 0.4289579 -9.300273E-05 -0.9033245
vn 0.3712997 -0.499036 -0.7830067
vn 0.353513 -0.8295623 -0.4322672
vn 0.09019544 -0.8841796 -0.4583571
vn 0.104628 -0.1450727 -0.9838734
vn 0.105381 8.159091E-05 -0.9944319
vn -0.1053814 8.218677E-05 -0.9944319
vn 0.09585138 -0.5307 -0.8421223
vn -0.1046281 -0.1450726 -0.9838734
vn -0.428956 -9.210003E-05 -0.9033253
vn -0.09585133 -0.5307005 -0.842122
vn -0.09019545 -0.8841798 -0.4583567
vn -0.3713008 -0.4990357 -0.7830064
vn -0.3535137 -0.829562 -0.4322672
vn -0.6892287 -0.5356349 -0.4879129
vn -0.4213291 -0.1412162 -0.8958458
vn -0.8199584 -7.745871E-05 -0.572423
vn -0.8160508 -0.157983 -0.5559697
g bien.001_0
f 3/3/3 2/2/2 1/1/1
f 4/4/4 3/3/3 1/1/1
f 4/4/4 1/1/1 5/5/5
f 3/3/3 4/4/4 6/6/6
f 7/7/7 4/4/4 5/5/5
f 6/6/6 4/4/4 7/7/7
f 8/8/8 7/7/7 5/5/5
f 9/9/9 8/8/8 5/5/5
f 7/7/7 8/8/8 10/10/10
f 10/10/10 6/6/6 7/7/7
f 11/11/11 3/3/3 6/6/6
f 12/12/12 3/3/3 11/11/11
f 13/13/13 12/12/12 11/11/11
f 13/13/13 11/11/11 14/14/14
f 11/11/11 15/15/15 14/14/14
f 11/11/11 6/6/6 15/15/15
f 6/6/6 16/16/16 15/15/15
f 16/16/16 6/6/6 10/10/10
f 17/17/17 16/16/16 10/10/10
f 17/17/17 10/10/10 18/18/18
f 8/8/8 19/19/19 10/10/10
f 10/10/10 19/19/19 18/18/18
f 8/8/8 20/20/20 19/19/19
f 18/18/18 19/19/19 21/21/21
f 24/24/24 23/23/23 22/22/22
f 24/24/24 22/22/22 25/25/25
f 26/26/26 24/24/24 25/25/25
f 26/26/26 25/25/25 27/27/27
f 25/25/25 28/28/28 27/27/27
f 24/24/24 26/26/26 29/29/29
f 30/30/30 24/24/24 29/29/29
f 26/26/26 27/27/27 31/31/31
f 29/29/29 26/26/26 31/31/31
f 29/29/29 31/31/31 32/32/32
f 33/33/33 27/27/27 28/28/28
f 27/27/27 33/33/33 31/31/31
f 34/34/34 33/33/33 28/28/28
f 33/33/33 35/35/35 31/31/31
f 31/31/31 35/35/35 36/36/36
f 31/31/31 36/36/36 37/37/37
f 35/35/35 38/38/38 36/36/36
f 38/38/38 39/39/39 36/36/36
f 30/30/30 29/29/29 40/40/40
f 40/40/40 29/29/29 41/41/41
f 42/42/42 30/30/30 40/40/40
f 36/36/36 40/40/40 43/43/43
f 44/44/44 42/42/42 40/40/40
f 45/45/45 40/40/40 36/36/36
f 45/45/45 44/44/44 40/40/40
f 39/39/39 46/46/46 36/36/36
f 46/46/46 45/45/45 36/36/36
f 44/44/44 45/45/45 47/47/47
f 47/47/47 45/45/45 46/46/46
f 48/48/48 44/44/44 47/47/47
f 49/49/49 44/44/44 48/48/48
f 50/50/50 47/47/47 46/46/46
f 46/46/46 39/39/39 50/50/50
f 39/39/39 51/51/51 50/50/50
f 50/50/50 51/51/51 52/52/52
f 55/55/55 54/54/54 53/53/53
f 56/56/56 55/55/55 53/53/53
f 57/57/57 55/55/55 56/56/56
f 58/58/58 57/57/57 56/56/56
f 58/58/58 56/56/56 59/59/59
f 56/56/56 53/53/53 60/60/60
f 56/56/56 60/60/60 59/59/59
f 61/61/61 59/59/59 60/60/60
f 53/53/53 62/62/62 60/60/60
f 63/63/63 61/61/61 60/60/60
f 63/63/63 60/60/60 62/62/62
f 64/64/64 63/63/63 62/62/62
f 67/67/67 66/66/66 65/65/65
f 66/66/66 68/68/68 65/65/65
f 65/65/65 68/68/68 69/69/69
f 68/68/68 70/70/70 69/69/69
f 71/71/71 70/70/70 68/68/68
f 72/72/72 68/68/68 66/66/66
f 72/72/72 71/71/71 68/68/68
f 73/73/73 72/72/72 66/66/66
f 71/71/71 72/72/72 74/74/74
f 74/74/74 72/72/72 73/73/73
f 77/77/77 76/76/76 75/75/75
f 78/78/78 77/77/77 75/75/75
f 79/79/79 77/77/77 78/78/78
f 77/77/77 80/80/80 76/76/76
f 77/77/77 79/79/79 80/80/80
f 80/80/80 81/81/81 76/76/76
f 79/79/79 82/82/82 80/80/80
f 83/83/83 82/82/82 79/79/79
f 82/82/82 83/83/83 84/84/84
f 80/80/80 85/85/85 81/81/81
f 80/80/80 82/82/82 85/85/85
f 85/85/85 86/86/86 81/81/81
f 87/87/87 86/86/86 85/85/85
f 88/88/88 82/82/82 84/84/84
f 82/82/82 88/88/88 85/85/85
f 89/89/89 87/87/87 85/85/85
f 89/89/89 85/85/85 88/88/88
f 87/87/87 89/89/89 90/90/90
f 91/91/91 88/88/88 84/84/84
f 91/91/91 89/89/89 88/88/88
f 92/92/92 91/91/91 84/84/84
f 93/93/93 91/91/91 92/92/92
f 91/91/91 93/93/93 89/89/89
f 94/94/94 93/93/93 92/92/92
f 93/93/93 94/94/94 95/95/95
f 89/89/89 96/96/96 90/90/90
f 93/93/93 96/96/96 89/89/89
f 93/93/93 95/95/95 96/96/96
f 90/90/90 96/96/96 97/97/97
f 95/95/95 98/98/98 96/96/96
f 96/96/96 98/98/98 97/97/97
